G75*
%MOIN*%
%OFA0B0*%
%FSLAX25Y25*%
%IPPOS*%
%LPD*%
%AMOC8*
5,1,8,0,0,1.08239X$1,22.5*
%
%ADD10C,0.00600*%
%ADD11C,0.00500*%
%ADD12C,0.00200*%
D10*
X0006800Y0009300D02*
X0009300Y0006800D01*
X0014300Y0006800D01*
X0016800Y0009300D01*
X0016800Y0014300D01*
X0014300Y0016800D01*
X0016800Y0019300D01*
X0016800Y0024300D01*
X0014300Y0026800D01*
X0016800Y0029300D01*
X0016800Y0034300D01*
X0014300Y0036800D01*
X0009300Y0036800D01*
X0006800Y0034300D01*
X0006800Y0029300D01*
X0009300Y0026800D01*
X0014300Y0026800D01*
X0009300Y0026800D02*
X0006800Y0024300D01*
X0006800Y0019300D01*
X0009300Y0016800D01*
X0014300Y0016800D01*
X0009300Y0016800D02*
X0006800Y0014300D01*
X0006800Y0009300D01*
X0033800Y0013800D02*
X0034800Y0013800D01*
X0034800Y0012800D01*
X0033800Y0013800D02*
X0033800Y0019800D01*
X0034800Y0019800D01*
X0034800Y0020800D01*
X0038300Y0028800D02*
X0041800Y0028800D01*
X0051800Y0028800D01*
X0055300Y0028800D01*
X0055300Y0029800D02*
X0051300Y0029800D01*
X0041800Y0029800D01*
X0038300Y0029800D01*
X0034800Y0037800D02*
X0034800Y0038800D01*
X0033800Y0038800D01*
X0033800Y0044800D01*
X0034800Y0044800D01*
X0034800Y0045800D01*
X0038300Y0053800D02*
X0041800Y0053800D01*
X0051800Y0053800D01*
X0055300Y0053800D01*
X0058800Y0045800D02*
X0058800Y0044800D01*
X0059800Y0044800D01*
X0059800Y0038800D01*
X0058800Y0038800D01*
X0058800Y0037800D01*
X0045800Y0041800D02*
X0045802Y0041863D01*
X0045808Y0041925D01*
X0045818Y0041987D01*
X0045831Y0042049D01*
X0045849Y0042109D01*
X0045870Y0042168D01*
X0045895Y0042226D01*
X0045924Y0042282D01*
X0045956Y0042336D01*
X0045991Y0042388D01*
X0046029Y0042437D01*
X0046071Y0042485D01*
X0046115Y0042529D01*
X0046163Y0042571D01*
X0046212Y0042609D01*
X0046264Y0042644D01*
X0046318Y0042676D01*
X0046374Y0042705D01*
X0046432Y0042730D01*
X0046491Y0042751D01*
X0046551Y0042769D01*
X0046613Y0042782D01*
X0046675Y0042792D01*
X0046737Y0042798D01*
X0046800Y0042800D01*
X0046863Y0042798D01*
X0046925Y0042792D01*
X0046987Y0042782D01*
X0047049Y0042769D01*
X0047109Y0042751D01*
X0047168Y0042730D01*
X0047226Y0042705D01*
X0047282Y0042676D01*
X0047336Y0042644D01*
X0047388Y0042609D01*
X0047437Y0042571D01*
X0047485Y0042529D01*
X0047529Y0042485D01*
X0047571Y0042437D01*
X0047609Y0042388D01*
X0047644Y0042336D01*
X0047676Y0042282D01*
X0047705Y0042226D01*
X0047730Y0042168D01*
X0047751Y0042109D01*
X0047769Y0042049D01*
X0047782Y0041987D01*
X0047792Y0041925D01*
X0047798Y0041863D01*
X0047800Y0041800D01*
X0047798Y0041737D01*
X0047792Y0041675D01*
X0047782Y0041613D01*
X0047769Y0041551D01*
X0047751Y0041491D01*
X0047730Y0041432D01*
X0047705Y0041374D01*
X0047676Y0041318D01*
X0047644Y0041264D01*
X0047609Y0041212D01*
X0047571Y0041163D01*
X0047529Y0041115D01*
X0047485Y0041071D01*
X0047437Y0041029D01*
X0047388Y0040991D01*
X0047336Y0040956D01*
X0047282Y0040924D01*
X0047226Y0040895D01*
X0047168Y0040870D01*
X0047109Y0040849D01*
X0047049Y0040831D01*
X0046987Y0040818D01*
X0046925Y0040808D01*
X0046863Y0040802D01*
X0046800Y0040800D01*
X0046737Y0040802D01*
X0046675Y0040808D01*
X0046613Y0040818D01*
X0046551Y0040831D01*
X0046491Y0040849D01*
X0046432Y0040870D01*
X0046374Y0040895D01*
X0046318Y0040924D01*
X0046264Y0040956D01*
X0046212Y0040991D01*
X0046163Y0041029D01*
X0046115Y0041071D01*
X0046071Y0041115D01*
X0046029Y0041163D01*
X0045991Y0041212D01*
X0045956Y0041264D01*
X0045924Y0041318D01*
X0045895Y0041374D01*
X0045870Y0041432D01*
X0045849Y0041491D01*
X0045831Y0041551D01*
X0045818Y0041613D01*
X0045808Y0041675D01*
X0045802Y0041737D01*
X0045800Y0041800D01*
X0039800Y0041800D02*
X0039802Y0041972D01*
X0039808Y0042143D01*
X0039819Y0042315D01*
X0039834Y0042486D01*
X0039853Y0042657D01*
X0039876Y0042827D01*
X0039903Y0042997D01*
X0039935Y0043166D01*
X0039970Y0043334D01*
X0040010Y0043501D01*
X0040054Y0043667D01*
X0040101Y0043832D01*
X0040153Y0043996D01*
X0040209Y0044158D01*
X0040269Y0044319D01*
X0040333Y0044479D01*
X0040401Y0044637D01*
X0040472Y0044793D01*
X0040547Y0044947D01*
X0040627Y0045100D01*
X0040709Y0045250D01*
X0040796Y0045399D01*
X0040886Y0045545D01*
X0040980Y0045689D01*
X0041077Y0045831D01*
X0041178Y0045970D01*
X0041282Y0046107D01*
X0041389Y0046241D01*
X0041500Y0046372D01*
X0041613Y0046501D01*
X0041730Y0046627D01*
X0041850Y0046750D01*
X0041973Y0046870D01*
X0042099Y0046987D01*
X0042228Y0047100D01*
X0042359Y0047211D01*
X0042493Y0047318D01*
X0042630Y0047422D01*
X0042769Y0047523D01*
X0042911Y0047620D01*
X0043055Y0047714D01*
X0043201Y0047804D01*
X0043350Y0047891D01*
X0043500Y0047973D01*
X0043653Y0048053D01*
X0043807Y0048128D01*
X0043963Y0048199D01*
X0044121Y0048267D01*
X0044281Y0048331D01*
X0044442Y0048391D01*
X0044604Y0048447D01*
X0044768Y0048499D01*
X0044933Y0048546D01*
X0045099Y0048590D01*
X0045266Y0048630D01*
X0045434Y0048665D01*
X0045603Y0048697D01*
X0045773Y0048724D01*
X0045943Y0048747D01*
X0046114Y0048766D01*
X0046285Y0048781D01*
X0046457Y0048792D01*
X0046628Y0048798D01*
X0046800Y0048800D01*
X0046972Y0048798D01*
X0047143Y0048792D01*
X0047315Y0048781D01*
X0047486Y0048766D01*
X0047657Y0048747D01*
X0047827Y0048724D01*
X0047997Y0048697D01*
X0048166Y0048665D01*
X0048334Y0048630D01*
X0048501Y0048590D01*
X0048667Y0048546D01*
X0048832Y0048499D01*
X0048996Y0048447D01*
X0049158Y0048391D01*
X0049319Y0048331D01*
X0049479Y0048267D01*
X0049637Y0048199D01*
X0049793Y0048128D01*
X0049947Y0048053D01*
X0050100Y0047973D01*
X0050250Y0047891D01*
X0050399Y0047804D01*
X0050545Y0047714D01*
X0050689Y0047620D01*
X0050831Y0047523D01*
X0050970Y0047422D01*
X0051107Y0047318D01*
X0051241Y0047211D01*
X0051372Y0047100D01*
X0051501Y0046987D01*
X0051627Y0046870D01*
X0051750Y0046750D01*
X0051870Y0046627D01*
X0051987Y0046501D01*
X0052100Y0046372D01*
X0052211Y0046241D01*
X0052318Y0046107D01*
X0052422Y0045970D01*
X0052523Y0045831D01*
X0052620Y0045689D01*
X0052714Y0045545D01*
X0052804Y0045399D01*
X0052891Y0045250D01*
X0052973Y0045100D01*
X0053053Y0044947D01*
X0053128Y0044793D01*
X0053199Y0044637D01*
X0053267Y0044479D01*
X0053331Y0044319D01*
X0053391Y0044158D01*
X0053447Y0043996D01*
X0053499Y0043832D01*
X0053546Y0043667D01*
X0053590Y0043501D01*
X0053630Y0043334D01*
X0053665Y0043166D01*
X0053697Y0042997D01*
X0053724Y0042827D01*
X0053747Y0042657D01*
X0053766Y0042486D01*
X0053781Y0042315D01*
X0053792Y0042143D01*
X0053798Y0041972D01*
X0053800Y0041800D01*
X0053798Y0041628D01*
X0053792Y0041457D01*
X0053781Y0041285D01*
X0053766Y0041114D01*
X0053747Y0040943D01*
X0053724Y0040773D01*
X0053697Y0040603D01*
X0053665Y0040434D01*
X0053630Y0040266D01*
X0053590Y0040099D01*
X0053546Y0039933D01*
X0053499Y0039768D01*
X0053447Y0039604D01*
X0053391Y0039442D01*
X0053331Y0039281D01*
X0053267Y0039121D01*
X0053199Y0038963D01*
X0053128Y0038807D01*
X0053053Y0038653D01*
X0052973Y0038500D01*
X0052891Y0038350D01*
X0052804Y0038201D01*
X0052714Y0038055D01*
X0052620Y0037911D01*
X0052523Y0037769D01*
X0052422Y0037630D01*
X0052318Y0037493D01*
X0052211Y0037359D01*
X0052100Y0037228D01*
X0051987Y0037099D01*
X0051870Y0036973D01*
X0051750Y0036850D01*
X0051627Y0036730D01*
X0051501Y0036613D01*
X0051372Y0036500D01*
X0051241Y0036389D01*
X0051107Y0036282D01*
X0050970Y0036178D01*
X0050831Y0036077D01*
X0050689Y0035980D01*
X0050545Y0035886D01*
X0050399Y0035796D01*
X0050250Y0035709D01*
X0050100Y0035627D01*
X0049947Y0035547D01*
X0049793Y0035472D01*
X0049637Y0035401D01*
X0049479Y0035333D01*
X0049319Y0035269D01*
X0049158Y0035209D01*
X0048996Y0035153D01*
X0048832Y0035101D01*
X0048667Y0035054D01*
X0048501Y0035010D01*
X0048334Y0034970D01*
X0048166Y0034935D01*
X0047997Y0034903D01*
X0047827Y0034876D01*
X0047657Y0034853D01*
X0047486Y0034834D01*
X0047315Y0034819D01*
X0047143Y0034808D01*
X0046972Y0034802D01*
X0046800Y0034800D01*
X0046628Y0034802D01*
X0046457Y0034808D01*
X0046285Y0034819D01*
X0046114Y0034834D01*
X0045943Y0034853D01*
X0045773Y0034876D01*
X0045603Y0034903D01*
X0045434Y0034935D01*
X0045266Y0034970D01*
X0045099Y0035010D01*
X0044933Y0035054D01*
X0044768Y0035101D01*
X0044604Y0035153D01*
X0044442Y0035209D01*
X0044281Y0035269D01*
X0044121Y0035333D01*
X0043963Y0035401D01*
X0043807Y0035472D01*
X0043653Y0035547D01*
X0043500Y0035627D01*
X0043350Y0035709D01*
X0043201Y0035796D01*
X0043055Y0035886D01*
X0042911Y0035980D01*
X0042769Y0036077D01*
X0042630Y0036178D01*
X0042493Y0036282D01*
X0042359Y0036389D01*
X0042228Y0036500D01*
X0042099Y0036613D01*
X0041973Y0036730D01*
X0041850Y0036850D01*
X0041730Y0036973D01*
X0041613Y0037099D01*
X0041500Y0037228D01*
X0041389Y0037359D01*
X0041282Y0037493D01*
X0041178Y0037630D01*
X0041077Y0037769D01*
X0040980Y0037911D01*
X0040886Y0038055D01*
X0040796Y0038201D01*
X0040709Y0038350D01*
X0040627Y0038500D01*
X0040547Y0038653D01*
X0040472Y0038807D01*
X0040401Y0038963D01*
X0040333Y0039121D01*
X0040269Y0039281D01*
X0040209Y0039442D01*
X0040153Y0039604D01*
X0040101Y0039768D01*
X0040054Y0039933D01*
X0040010Y0040099D01*
X0039970Y0040266D01*
X0039935Y0040434D01*
X0039903Y0040603D01*
X0039876Y0040773D01*
X0039853Y0040943D01*
X0039834Y0041114D01*
X0039819Y0041285D01*
X0039808Y0041457D01*
X0039802Y0041628D01*
X0039800Y0041800D01*
X0058800Y0020800D02*
X0058800Y0019800D01*
X0059800Y0019800D01*
X0059800Y0013800D01*
X0058800Y0013800D01*
X0058800Y0012800D01*
X0055300Y0004800D02*
X0051300Y0004800D01*
X0041800Y0004800D01*
X0038300Y0004800D01*
X0045800Y0016800D02*
X0045802Y0016863D01*
X0045808Y0016925D01*
X0045818Y0016987D01*
X0045831Y0017049D01*
X0045849Y0017109D01*
X0045870Y0017168D01*
X0045895Y0017226D01*
X0045924Y0017282D01*
X0045956Y0017336D01*
X0045991Y0017388D01*
X0046029Y0017437D01*
X0046071Y0017485D01*
X0046115Y0017529D01*
X0046163Y0017571D01*
X0046212Y0017609D01*
X0046264Y0017644D01*
X0046318Y0017676D01*
X0046374Y0017705D01*
X0046432Y0017730D01*
X0046491Y0017751D01*
X0046551Y0017769D01*
X0046613Y0017782D01*
X0046675Y0017792D01*
X0046737Y0017798D01*
X0046800Y0017800D01*
X0046863Y0017798D01*
X0046925Y0017792D01*
X0046987Y0017782D01*
X0047049Y0017769D01*
X0047109Y0017751D01*
X0047168Y0017730D01*
X0047226Y0017705D01*
X0047282Y0017676D01*
X0047336Y0017644D01*
X0047388Y0017609D01*
X0047437Y0017571D01*
X0047485Y0017529D01*
X0047529Y0017485D01*
X0047571Y0017437D01*
X0047609Y0017388D01*
X0047644Y0017336D01*
X0047676Y0017282D01*
X0047705Y0017226D01*
X0047730Y0017168D01*
X0047751Y0017109D01*
X0047769Y0017049D01*
X0047782Y0016987D01*
X0047792Y0016925D01*
X0047798Y0016863D01*
X0047800Y0016800D01*
X0047798Y0016737D01*
X0047792Y0016675D01*
X0047782Y0016613D01*
X0047769Y0016551D01*
X0047751Y0016491D01*
X0047730Y0016432D01*
X0047705Y0016374D01*
X0047676Y0016318D01*
X0047644Y0016264D01*
X0047609Y0016212D01*
X0047571Y0016163D01*
X0047529Y0016115D01*
X0047485Y0016071D01*
X0047437Y0016029D01*
X0047388Y0015991D01*
X0047336Y0015956D01*
X0047282Y0015924D01*
X0047226Y0015895D01*
X0047168Y0015870D01*
X0047109Y0015849D01*
X0047049Y0015831D01*
X0046987Y0015818D01*
X0046925Y0015808D01*
X0046863Y0015802D01*
X0046800Y0015800D01*
X0046737Y0015802D01*
X0046675Y0015808D01*
X0046613Y0015818D01*
X0046551Y0015831D01*
X0046491Y0015849D01*
X0046432Y0015870D01*
X0046374Y0015895D01*
X0046318Y0015924D01*
X0046264Y0015956D01*
X0046212Y0015991D01*
X0046163Y0016029D01*
X0046115Y0016071D01*
X0046071Y0016115D01*
X0046029Y0016163D01*
X0045991Y0016212D01*
X0045956Y0016264D01*
X0045924Y0016318D01*
X0045895Y0016374D01*
X0045870Y0016432D01*
X0045849Y0016491D01*
X0045831Y0016551D01*
X0045818Y0016613D01*
X0045808Y0016675D01*
X0045802Y0016737D01*
X0045800Y0016800D01*
X0039800Y0016800D02*
X0039802Y0016972D01*
X0039808Y0017143D01*
X0039819Y0017315D01*
X0039834Y0017486D01*
X0039853Y0017657D01*
X0039876Y0017827D01*
X0039903Y0017997D01*
X0039935Y0018166D01*
X0039970Y0018334D01*
X0040010Y0018501D01*
X0040054Y0018667D01*
X0040101Y0018832D01*
X0040153Y0018996D01*
X0040209Y0019158D01*
X0040269Y0019319D01*
X0040333Y0019479D01*
X0040401Y0019637D01*
X0040472Y0019793D01*
X0040547Y0019947D01*
X0040627Y0020100D01*
X0040709Y0020250D01*
X0040796Y0020399D01*
X0040886Y0020545D01*
X0040980Y0020689D01*
X0041077Y0020831D01*
X0041178Y0020970D01*
X0041282Y0021107D01*
X0041389Y0021241D01*
X0041500Y0021372D01*
X0041613Y0021501D01*
X0041730Y0021627D01*
X0041850Y0021750D01*
X0041973Y0021870D01*
X0042099Y0021987D01*
X0042228Y0022100D01*
X0042359Y0022211D01*
X0042493Y0022318D01*
X0042630Y0022422D01*
X0042769Y0022523D01*
X0042911Y0022620D01*
X0043055Y0022714D01*
X0043201Y0022804D01*
X0043350Y0022891D01*
X0043500Y0022973D01*
X0043653Y0023053D01*
X0043807Y0023128D01*
X0043963Y0023199D01*
X0044121Y0023267D01*
X0044281Y0023331D01*
X0044442Y0023391D01*
X0044604Y0023447D01*
X0044768Y0023499D01*
X0044933Y0023546D01*
X0045099Y0023590D01*
X0045266Y0023630D01*
X0045434Y0023665D01*
X0045603Y0023697D01*
X0045773Y0023724D01*
X0045943Y0023747D01*
X0046114Y0023766D01*
X0046285Y0023781D01*
X0046457Y0023792D01*
X0046628Y0023798D01*
X0046800Y0023800D01*
X0046972Y0023798D01*
X0047143Y0023792D01*
X0047315Y0023781D01*
X0047486Y0023766D01*
X0047657Y0023747D01*
X0047827Y0023724D01*
X0047997Y0023697D01*
X0048166Y0023665D01*
X0048334Y0023630D01*
X0048501Y0023590D01*
X0048667Y0023546D01*
X0048832Y0023499D01*
X0048996Y0023447D01*
X0049158Y0023391D01*
X0049319Y0023331D01*
X0049479Y0023267D01*
X0049637Y0023199D01*
X0049793Y0023128D01*
X0049947Y0023053D01*
X0050100Y0022973D01*
X0050250Y0022891D01*
X0050399Y0022804D01*
X0050545Y0022714D01*
X0050689Y0022620D01*
X0050831Y0022523D01*
X0050970Y0022422D01*
X0051107Y0022318D01*
X0051241Y0022211D01*
X0051372Y0022100D01*
X0051501Y0021987D01*
X0051627Y0021870D01*
X0051750Y0021750D01*
X0051870Y0021627D01*
X0051987Y0021501D01*
X0052100Y0021372D01*
X0052211Y0021241D01*
X0052318Y0021107D01*
X0052422Y0020970D01*
X0052523Y0020831D01*
X0052620Y0020689D01*
X0052714Y0020545D01*
X0052804Y0020399D01*
X0052891Y0020250D01*
X0052973Y0020100D01*
X0053053Y0019947D01*
X0053128Y0019793D01*
X0053199Y0019637D01*
X0053267Y0019479D01*
X0053331Y0019319D01*
X0053391Y0019158D01*
X0053447Y0018996D01*
X0053499Y0018832D01*
X0053546Y0018667D01*
X0053590Y0018501D01*
X0053630Y0018334D01*
X0053665Y0018166D01*
X0053697Y0017997D01*
X0053724Y0017827D01*
X0053747Y0017657D01*
X0053766Y0017486D01*
X0053781Y0017315D01*
X0053792Y0017143D01*
X0053798Y0016972D01*
X0053800Y0016800D01*
X0053798Y0016628D01*
X0053792Y0016457D01*
X0053781Y0016285D01*
X0053766Y0016114D01*
X0053747Y0015943D01*
X0053724Y0015773D01*
X0053697Y0015603D01*
X0053665Y0015434D01*
X0053630Y0015266D01*
X0053590Y0015099D01*
X0053546Y0014933D01*
X0053499Y0014768D01*
X0053447Y0014604D01*
X0053391Y0014442D01*
X0053331Y0014281D01*
X0053267Y0014121D01*
X0053199Y0013963D01*
X0053128Y0013807D01*
X0053053Y0013653D01*
X0052973Y0013500D01*
X0052891Y0013350D01*
X0052804Y0013201D01*
X0052714Y0013055D01*
X0052620Y0012911D01*
X0052523Y0012769D01*
X0052422Y0012630D01*
X0052318Y0012493D01*
X0052211Y0012359D01*
X0052100Y0012228D01*
X0051987Y0012099D01*
X0051870Y0011973D01*
X0051750Y0011850D01*
X0051627Y0011730D01*
X0051501Y0011613D01*
X0051372Y0011500D01*
X0051241Y0011389D01*
X0051107Y0011282D01*
X0050970Y0011178D01*
X0050831Y0011077D01*
X0050689Y0010980D01*
X0050545Y0010886D01*
X0050399Y0010796D01*
X0050250Y0010709D01*
X0050100Y0010627D01*
X0049947Y0010547D01*
X0049793Y0010472D01*
X0049637Y0010401D01*
X0049479Y0010333D01*
X0049319Y0010269D01*
X0049158Y0010209D01*
X0048996Y0010153D01*
X0048832Y0010101D01*
X0048667Y0010054D01*
X0048501Y0010010D01*
X0048334Y0009970D01*
X0048166Y0009935D01*
X0047997Y0009903D01*
X0047827Y0009876D01*
X0047657Y0009853D01*
X0047486Y0009834D01*
X0047315Y0009819D01*
X0047143Y0009808D01*
X0046972Y0009802D01*
X0046800Y0009800D01*
X0046628Y0009802D01*
X0046457Y0009808D01*
X0046285Y0009819D01*
X0046114Y0009834D01*
X0045943Y0009853D01*
X0045773Y0009876D01*
X0045603Y0009903D01*
X0045434Y0009935D01*
X0045266Y0009970D01*
X0045099Y0010010D01*
X0044933Y0010054D01*
X0044768Y0010101D01*
X0044604Y0010153D01*
X0044442Y0010209D01*
X0044281Y0010269D01*
X0044121Y0010333D01*
X0043963Y0010401D01*
X0043807Y0010472D01*
X0043653Y0010547D01*
X0043500Y0010627D01*
X0043350Y0010709D01*
X0043201Y0010796D01*
X0043055Y0010886D01*
X0042911Y0010980D01*
X0042769Y0011077D01*
X0042630Y0011178D01*
X0042493Y0011282D01*
X0042359Y0011389D01*
X0042228Y0011500D01*
X0042099Y0011613D01*
X0041973Y0011730D01*
X0041850Y0011850D01*
X0041730Y0011973D01*
X0041613Y0012099D01*
X0041500Y0012228D01*
X0041389Y0012359D01*
X0041282Y0012493D01*
X0041178Y0012630D01*
X0041077Y0012769D01*
X0040980Y0012911D01*
X0040886Y0013055D01*
X0040796Y0013201D01*
X0040709Y0013350D01*
X0040627Y0013500D01*
X0040547Y0013653D01*
X0040472Y0013807D01*
X0040401Y0013963D01*
X0040333Y0014121D01*
X0040269Y0014281D01*
X0040209Y0014442D01*
X0040153Y0014604D01*
X0040101Y0014768D01*
X0040054Y0014933D01*
X0040010Y0015099D01*
X0039970Y0015266D01*
X0039935Y0015434D01*
X0039903Y0015603D01*
X0039876Y0015773D01*
X0039853Y0015943D01*
X0039834Y0016114D01*
X0039819Y0016285D01*
X0039808Y0016457D01*
X0039802Y0016628D01*
X0039800Y0016800D01*
D11*
X0024350Y0017459D02*
X0019846Y0017459D01*
X0021347Y0015958D01*
X0020597Y0014356D02*
X0022098Y0014356D01*
X0022849Y0013606D01*
X0022849Y0011354D01*
X0024350Y0011354D02*
X0019846Y0011354D01*
X0019846Y0013606D01*
X0020597Y0014356D01*
X0024350Y0015958D02*
X0024350Y0018960D01*
X0019846Y0009753D02*
X0019846Y0008251D01*
X0019846Y0009002D02*
X0023599Y0009002D01*
X0024350Y0008251D01*
X0024350Y0007501D01*
X0023599Y0006750D01*
X0065050Y0017301D02*
X0065801Y0016550D01*
X0067302Y0016550D01*
X0068053Y0017301D01*
X0068053Y0018051D01*
X0067302Y0018802D01*
X0065801Y0018802D01*
X0065050Y0019553D01*
X0065050Y0020303D01*
X0065801Y0021054D01*
X0067302Y0021054D01*
X0068053Y0020303D01*
X0069654Y0020303D02*
X0070405Y0021054D01*
X0071906Y0021054D01*
X0072656Y0020303D01*
X0072656Y0019553D01*
X0069654Y0016550D01*
X0072656Y0016550D01*
X0072656Y0041550D02*
X0069654Y0041550D01*
X0071155Y0041550D02*
X0071155Y0046054D01*
X0069654Y0044553D01*
X0068053Y0045303D02*
X0067302Y0046054D01*
X0065801Y0046054D01*
X0065050Y0045303D01*
X0065050Y0044553D01*
X0065801Y0043802D01*
X0067302Y0043802D01*
X0068053Y0043051D01*
X0068053Y0042301D01*
X0067302Y0041550D01*
X0065801Y0041550D01*
X0065050Y0042301D01*
D12*
X0051800Y0052800D02*
X0051800Y0053800D01*
X0051800Y0052800D02*
X0041800Y0052800D01*
X0041800Y0053800D01*
X0041800Y0030800D02*
X0041800Y0029800D01*
X0041800Y0028800D02*
X0041800Y0027800D01*
X0051800Y0027800D01*
X0051800Y0028800D01*
X0051300Y0029800D02*
X0051300Y0030800D01*
X0041800Y0030800D01*
X0041800Y0005800D02*
X0041800Y0004800D01*
X0041800Y0005800D02*
X0051300Y0005800D01*
X0051300Y0004800D01*
M02*
