G75*
%MOIN*%
%OFA0B0*%
%FSLAX25Y25*%
%IPPOS*%
%LPD*%
%AMOC8*
5,1,8,0,0,1.08239X$1,22.5*
%
%ADD10C,0.00000*%
%ADD11C,0.06000*%
%ADD12C,0.01600*%
D10*
X0001800Y0001800D02*
X0001800Y0061761D01*
X0075501Y0061761D01*
X0075501Y0001800D01*
X0001800Y0001800D01*
X0015501Y0041800D02*
X0015503Y0041958D01*
X0015509Y0042116D01*
X0015519Y0042274D01*
X0015533Y0042432D01*
X0015551Y0042589D01*
X0015572Y0042746D01*
X0015598Y0042902D01*
X0015628Y0043058D01*
X0015661Y0043213D01*
X0015699Y0043366D01*
X0015740Y0043519D01*
X0015785Y0043671D01*
X0015834Y0043822D01*
X0015887Y0043971D01*
X0015943Y0044119D01*
X0016003Y0044265D01*
X0016067Y0044410D01*
X0016135Y0044553D01*
X0016206Y0044695D01*
X0016280Y0044835D01*
X0016358Y0044972D01*
X0016440Y0045108D01*
X0016524Y0045242D01*
X0016613Y0045373D01*
X0016704Y0045502D01*
X0016799Y0045629D01*
X0016896Y0045754D01*
X0016997Y0045876D01*
X0017101Y0045995D01*
X0017208Y0046112D01*
X0017318Y0046226D01*
X0017431Y0046337D01*
X0017546Y0046446D01*
X0017664Y0046551D01*
X0017785Y0046653D01*
X0017908Y0046753D01*
X0018034Y0046849D01*
X0018162Y0046942D01*
X0018292Y0047032D01*
X0018425Y0047118D01*
X0018560Y0047202D01*
X0018696Y0047281D01*
X0018835Y0047358D01*
X0018976Y0047430D01*
X0019118Y0047500D01*
X0019262Y0047565D01*
X0019408Y0047627D01*
X0019555Y0047685D01*
X0019704Y0047740D01*
X0019854Y0047791D01*
X0020005Y0047838D01*
X0020157Y0047881D01*
X0020310Y0047920D01*
X0020465Y0047956D01*
X0020620Y0047987D01*
X0020776Y0048015D01*
X0020932Y0048039D01*
X0021089Y0048059D01*
X0021247Y0048075D01*
X0021404Y0048087D01*
X0021563Y0048095D01*
X0021721Y0048099D01*
X0021879Y0048099D01*
X0022037Y0048095D01*
X0022196Y0048087D01*
X0022353Y0048075D01*
X0022511Y0048059D01*
X0022668Y0048039D01*
X0022824Y0048015D01*
X0022980Y0047987D01*
X0023135Y0047956D01*
X0023290Y0047920D01*
X0023443Y0047881D01*
X0023595Y0047838D01*
X0023746Y0047791D01*
X0023896Y0047740D01*
X0024045Y0047685D01*
X0024192Y0047627D01*
X0024338Y0047565D01*
X0024482Y0047500D01*
X0024624Y0047430D01*
X0024765Y0047358D01*
X0024904Y0047281D01*
X0025040Y0047202D01*
X0025175Y0047118D01*
X0025308Y0047032D01*
X0025438Y0046942D01*
X0025566Y0046849D01*
X0025692Y0046753D01*
X0025815Y0046653D01*
X0025936Y0046551D01*
X0026054Y0046446D01*
X0026169Y0046337D01*
X0026282Y0046226D01*
X0026392Y0046112D01*
X0026499Y0045995D01*
X0026603Y0045876D01*
X0026704Y0045754D01*
X0026801Y0045629D01*
X0026896Y0045502D01*
X0026987Y0045373D01*
X0027076Y0045242D01*
X0027160Y0045108D01*
X0027242Y0044972D01*
X0027320Y0044835D01*
X0027394Y0044695D01*
X0027465Y0044553D01*
X0027533Y0044410D01*
X0027597Y0044265D01*
X0027657Y0044119D01*
X0027713Y0043971D01*
X0027766Y0043822D01*
X0027815Y0043671D01*
X0027860Y0043519D01*
X0027901Y0043366D01*
X0027939Y0043213D01*
X0027972Y0043058D01*
X0028002Y0042902D01*
X0028028Y0042746D01*
X0028049Y0042589D01*
X0028067Y0042432D01*
X0028081Y0042274D01*
X0028091Y0042116D01*
X0028097Y0041958D01*
X0028099Y0041800D01*
X0028097Y0041642D01*
X0028091Y0041484D01*
X0028081Y0041326D01*
X0028067Y0041168D01*
X0028049Y0041011D01*
X0028028Y0040854D01*
X0028002Y0040698D01*
X0027972Y0040542D01*
X0027939Y0040387D01*
X0027901Y0040234D01*
X0027860Y0040081D01*
X0027815Y0039929D01*
X0027766Y0039778D01*
X0027713Y0039629D01*
X0027657Y0039481D01*
X0027597Y0039335D01*
X0027533Y0039190D01*
X0027465Y0039047D01*
X0027394Y0038905D01*
X0027320Y0038765D01*
X0027242Y0038628D01*
X0027160Y0038492D01*
X0027076Y0038358D01*
X0026987Y0038227D01*
X0026896Y0038098D01*
X0026801Y0037971D01*
X0026704Y0037846D01*
X0026603Y0037724D01*
X0026499Y0037605D01*
X0026392Y0037488D01*
X0026282Y0037374D01*
X0026169Y0037263D01*
X0026054Y0037154D01*
X0025936Y0037049D01*
X0025815Y0036947D01*
X0025692Y0036847D01*
X0025566Y0036751D01*
X0025438Y0036658D01*
X0025308Y0036568D01*
X0025175Y0036482D01*
X0025040Y0036398D01*
X0024904Y0036319D01*
X0024765Y0036242D01*
X0024624Y0036170D01*
X0024482Y0036100D01*
X0024338Y0036035D01*
X0024192Y0035973D01*
X0024045Y0035915D01*
X0023896Y0035860D01*
X0023746Y0035809D01*
X0023595Y0035762D01*
X0023443Y0035719D01*
X0023290Y0035680D01*
X0023135Y0035644D01*
X0022980Y0035613D01*
X0022824Y0035585D01*
X0022668Y0035561D01*
X0022511Y0035541D01*
X0022353Y0035525D01*
X0022196Y0035513D01*
X0022037Y0035505D01*
X0021879Y0035501D01*
X0021721Y0035501D01*
X0021563Y0035505D01*
X0021404Y0035513D01*
X0021247Y0035525D01*
X0021089Y0035541D01*
X0020932Y0035561D01*
X0020776Y0035585D01*
X0020620Y0035613D01*
X0020465Y0035644D01*
X0020310Y0035680D01*
X0020157Y0035719D01*
X0020005Y0035762D01*
X0019854Y0035809D01*
X0019704Y0035860D01*
X0019555Y0035915D01*
X0019408Y0035973D01*
X0019262Y0036035D01*
X0019118Y0036100D01*
X0018976Y0036170D01*
X0018835Y0036242D01*
X0018696Y0036319D01*
X0018560Y0036398D01*
X0018425Y0036482D01*
X0018292Y0036568D01*
X0018162Y0036658D01*
X0018034Y0036751D01*
X0017908Y0036847D01*
X0017785Y0036947D01*
X0017664Y0037049D01*
X0017546Y0037154D01*
X0017431Y0037263D01*
X0017318Y0037374D01*
X0017208Y0037488D01*
X0017101Y0037605D01*
X0016997Y0037724D01*
X0016896Y0037846D01*
X0016799Y0037971D01*
X0016704Y0038098D01*
X0016613Y0038227D01*
X0016524Y0038358D01*
X0016440Y0038492D01*
X0016358Y0038628D01*
X0016280Y0038765D01*
X0016206Y0038905D01*
X0016135Y0039047D01*
X0016067Y0039190D01*
X0016003Y0039335D01*
X0015943Y0039481D01*
X0015887Y0039629D01*
X0015834Y0039778D01*
X0015785Y0039929D01*
X0015740Y0040081D01*
X0015699Y0040234D01*
X0015661Y0040387D01*
X0015628Y0040542D01*
X0015598Y0040698D01*
X0015572Y0040854D01*
X0015551Y0041011D01*
X0015533Y0041168D01*
X0015519Y0041326D01*
X0015509Y0041484D01*
X0015503Y0041642D01*
X0015501Y0041800D01*
D11*
X0014800Y0031800D02*
X0008800Y0031800D01*
X0008800Y0021800D02*
X0014800Y0021800D01*
X0014800Y0011800D02*
X0008800Y0011800D01*
X0031000Y0007900D02*
X0037000Y0007900D01*
X0056600Y0007900D02*
X0062600Y0007900D01*
X0062600Y0025700D02*
X0056600Y0025700D01*
X0056600Y0032900D02*
X0062600Y0032900D01*
X0062600Y0050700D02*
X0056600Y0050700D01*
X0037000Y0050700D02*
X0031000Y0050700D01*
X0031000Y0032900D02*
X0037000Y0032900D01*
X0037000Y0025700D02*
X0031000Y0025700D01*
D12*
X0031800Y0026800D02*
X0061800Y0026800D01*
X0065634Y0029171D02*
X0065727Y0029239D01*
X0066261Y0029773D01*
X0066705Y0030384D01*
X0067048Y0031057D01*
X0067282Y0031776D01*
X0067400Y0032522D01*
X0067400Y0032700D01*
X0059800Y0032700D01*
X0059800Y0033100D01*
X0059400Y0033100D01*
X0059400Y0037700D01*
X0056222Y0037700D01*
X0055476Y0037582D01*
X0054757Y0037348D01*
X0054084Y0037005D01*
X0053473Y0036561D01*
X0052939Y0036027D01*
X0052495Y0035416D01*
X0052152Y0034743D01*
X0051918Y0034024D01*
X0051800Y0033278D01*
X0051800Y0033100D01*
X0059400Y0033100D01*
X0059400Y0032700D01*
X0051800Y0032700D01*
X0051800Y0032522D01*
X0051918Y0031776D01*
X0052152Y0031057D01*
X0052495Y0030384D01*
X0052939Y0029773D01*
X0053473Y0029239D01*
X0053526Y0029200D01*
X0040074Y0029200D01*
X0040127Y0029239D01*
X0040661Y0029773D01*
X0041105Y0030384D01*
X0041448Y0031057D01*
X0041682Y0031776D01*
X0041800Y0032522D01*
X0041800Y0032700D01*
X0034200Y0032700D01*
X0034200Y0033100D01*
X0033800Y0033100D01*
X0033800Y0037700D01*
X0032192Y0037700D01*
X0032899Y0040339D01*
X0032899Y0043261D01*
X0032143Y0046084D01*
X0032134Y0046100D01*
X0037915Y0046100D01*
X0039606Y0046800D01*
X0040900Y0048094D01*
X0041441Y0049400D01*
X0052159Y0049400D01*
X0052700Y0048094D01*
X0053994Y0046800D01*
X0055685Y0046100D01*
X0063515Y0046100D01*
X0065206Y0046800D01*
X0066500Y0048094D01*
X0067200Y0049785D01*
X0067200Y0051615D01*
X0066500Y0053306D01*
X0065206Y0054600D01*
X0063515Y0055300D01*
X0055685Y0055300D01*
X0053994Y0054600D01*
X0053595Y0054200D01*
X0040005Y0054200D01*
X0039606Y0054600D01*
X0037915Y0055300D01*
X0030085Y0055300D01*
X0028394Y0054600D01*
X0027995Y0054200D01*
X0011323Y0054200D01*
X0010441Y0053835D01*
X0009765Y0053159D01*
X0009400Y0052277D01*
X0009400Y0036400D01*
X0007885Y0036400D01*
X0006600Y0035868D01*
X0006600Y0056800D01*
X0070701Y0056800D01*
X0070701Y0006600D01*
X0067225Y0006600D01*
X0067282Y0006776D01*
X0067400Y0007522D01*
X0067400Y0007700D01*
X0059800Y0007700D01*
X0059800Y0008100D01*
X0059400Y0008100D01*
X0059400Y0012700D01*
X0056222Y0012700D01*
X0055476Y0012582D01*
X0054757Y0012348D01*
X0054084Y0012005D01*
X0053473Y0011561D01*
X0052939Y0011027D01*
X0052495Y0010416D01*
X0052152Y0009743D01*
X0051918Y0009024D01*
X0051800Y0008278D01*
X0051800Y0008100D01*
X0059400Y0008100D01*
X0059400Y0007700D01*
X0051800Y0007700D01*
X0051800Y0007522D01*
X0051918Y0006776D01*
X0051975Y0006600D01*
X0041625Y0006600D01*
X0041682Y0006776D01*
X0041800Y0007522D01*
X0041800Y0007700D01*
X0034200Y0007700D01*
X0034200Y0008100D01*
X0033800Y0008100D01*
X0033800Y0012700D01*
X0030622Y0012700D01*
X0029876Y0012582D01*
X0029157Y0012348D01*
X0028484Y0012005D01*
X0027873Y0011561D01*
X0027339Y0011027D01*
X0026895Y0010416D01*
X0026552Y0009743D01*
X0026318Y0009024D01*
X0026200Y0008278D01*
X0026200Y0008100D01*
X0033800Y0008100D01*
X0033800Y0007700D01*
X0026200Y0007700D01*
X0026200Y0007522D01*
X0026318Y0006776D01*
X0026375Y0006600D01*
X0006600Y0006600D01*
X0006600Y0007534D01*
X0006957Y0007352D01*
X0007676Y0007118D01*
X0008422Y0007000D01*
X0011600Y0007000D01*
X0011600Y0011600D01*
X0012000Y0011600D01*
X0012000Y0012000D01*
X0011600Y0012000D01*
X0011600Y0016600D01*
X0008422Y0016600D01*
X0007676Y0016482D01*
X0006957Y0016248D01*
X0006600Y0016066D01*
X0006600Y0017732D01*
X0007885Y0017200D01*
X0015715Y0017200D01*
X0017406Y0017900D01*
X0018700Y0019194D01*
X0019400Y0020885D01*
X0019400Y0021226D01*
X0027079Y0023146D01*
X0027100Y0023094D01*
X0028394Y0021800D01*
X0030085Y0021100D01*
X0037915Y0021100D01*
X0039606Y0021800D01*
X0040900Y0023094D01*
X0041441Y0024400D01*
X0052159Y0024400D01*
X0052700Y0023094D01*
X0053994Y0021800D01*
X0055685Y0021100D01*
X0063515Y0021100D01*
X0065206Y0021800D01*
X0066500Y0023094D01*
X0067200Y0024785D01*
X0067200Y0026615D01*
X0066500Y0028306D01*
X0065634Y0029171D01*
X0065831Y0028975D02*
X0070701Y0028975D01*
X0070701Y0030573D02*
X0066802Y0030573D01*
X0067344Y0032172D02*
X0070701Y0032172D01*
X0070701Y0033770D02*
X0067322Y0033770D01*
X0067282Y0034024D02*
X0067400Y0033278D01*
X0067400Y0033100D01*
X0059800Y0033100D01*
X0059800Y0037700D01*
X0062978Y0037700D01*
X0063724Y0037582D01*
X0064443Y0037348D01*
X0065116Y0037005D01*
X0065727Y0036561D01*
X0066261Y0036027D01*
X0066705Y0035416D01*
X0067048Y0034743D01*
X0067282Y0034024D01*
X0066729Y0035369D02*
X0070701Y0035369D01*
X0070701Y0036967D02*
X0065168Y0036967D01*
X0059800Y0036967D02*
X0059400Y0036967D01*
X0059400Y0035369D02*
X0059800Y0035369D01*
X0059800Y0033770D02*
X0059400Y0033770D01*
X0054032Y0036967D02*
X0039568Y0036967D01*
X0039516Y0037005D02*
X0038843Y0037348D01*
X0038124Y0037582D01*
X0037378Y0037700D01*
X0034200Y0037700D01*
X0034200Y0033100D01*
X0041800Y0033100D01*
X0041800Y0033278D01*
X0041682Y0034024D01*
X0041448Y0034743D01*
X0041105Y0035416D01*
X0040661Y0036027D01*
X0040127Y0036561D01*
X0039516Y0037005D01*
X0041129Y0035369D02*
X0052471Y0035369D01*
X0051878Y0033770D02*
X0041722Y0033770D01*
X0041744Y0032172D02*
X0051856Y0032172D01*
X0052398Y0030573D02*
X0041202Y0030573D01*
X0034200Y0033770D02*
X0033800Y0033770D01*
X0033800Y0035369D02*
X0034200Y0035369D01*
X0034200Y0036967D02*
X0033800Y0036967D01*
X0032424Y0038566D02*
X0070701Y0038566D01*
X0070701Y0040164D02*
X0032852Y0040164D01*
X0032899Y0041763D02*
X0070701Y0041763D01*
X0070701Y0043361D02*
X0032872Y0043361D01*
X0032444Y0044960D02*
X0070701Y0044960D01*
X0070701Y0046558D02*
X0064621Y0046558D01*
X0066526Y0048157D02*
X0070701Y0048157D01*
X0070701Y0049755D02*
X0067188Y0049755D01*
X0067200Y0051354D02*
X0070701Y0051354D01*
X0070701Y0052952D02*
X0066646Y0052952D01*
X0065254Y0054551D02*
X0070701Y0054551D01*
X0070701Y0056149D02*
X0006600Y0056149D01*
X0006600Y0054551D02*
X0028345Y0054551D01*
X0039021Y0046558D02*
X0054579Y0046558D01*
X0052674Y0048157D02*
X0040926Y0048157D01*
X0039654Y0054551D02*
X0053945Y0054551D01*
X0061800Y0051800D02*
X0011800Y0051800D01*
X0011800Y0031800D01*
X0009400Y0036967D02*
X0006600Y0036967D01*
X0006600Y0038566D02*
X0009400Y0038566D01*
X0009400Y0040164D02*
X0006600Y0040164D01*
X0006600Y0041763D02*
X0009400Y0041763D01*
X0009400Y0043361D02*
X0006600Y0043361D01*
X0006600Y0044960D02*
X0009400Y0044960D01*
X0009400Y0046558D02*
X0006600Y0046558D01*
X0006600Y0048157D02*
X0009400Y0048157D01*
X0009400Y0049755D02*
X0006600Y0049755D01*
X0006600Y0051354D02*
X0009400Y0051354D01*
X0009680Y0052952D02*
X0006600Y0052952D01*
X0011800Y0021800D02*
X0031800Y0026800D01*
X0027614Y0022581D02*
X0024818Y0022581D01*
X0019400Y0020982D02*
X0070701Y0020982D01*
X0070701Y0022581D02*
X0065986Y0022581D01*
X0066949Y0024179D02*
X0070701Y0024179D01*
X0070701Y0025778D02*
X0067200Y0025778D01*
X0066885Y0027376D02*
X0070701Y0027376D01*
X0070701Y0019384D02*
X0018778Y0019384D01*
X0017128Y0017785D02*
X0070701Y0017785D01*
X0070701Y0016187D02*
X0016764Y0016187D01*
X0016643Y0016248D02*
X0015924Y0016482D01*
X0015178Y0016600D01*
X0012000Y0016600D01*
X0012000Y0012000D01*
X0019600Y0012000D01*
X0019600Y0012178D01*
X0019482Y0012924D01*
X0019248Y0013643D01*
X0018905Y0014316D01*
X0018461Y0014927D01*
X0017927Y0015461D01*
X0017316Y0015905D01*
X0016643Y0016248D01*
X0018707Y0014588D02*
X0070701Y0014588D01*
X0070701Y0012990D02*
X0019460Y0012990D01*
X0019600Y0011600D02*
X0012000Y0011600D01*
X0012000Y0007000D01*
X0015178Y0007000D01*
X0015924Y0007118D01*
X0016643Y0007352D01*
X0017316Y0007695D01*
X0017927Y0008139D01*
X0018461Y0008673D01*
X0018905Y0009284D01*
X0019248Y0009957D01*
X0019482Y0010676D01*
X0019600Y0011422D01*
X0019600Y0011600D01*
X0019595Y0011391D02*
X0027703Y0011391D01*
X0026577Y0009793D02*
X0019164Y0009793D01*
X0017982Y0008194D02*
X0026200Y0008194D01*
X0033800Y0008194D02*
X0034200Y0008194D01*
X0034200Y0008100D02*
X0034200Y0012700D01*
X0037378Y0012700D01*
X0038124Y0012582D01*
X0038843Y0012348D01*
X0039516Y0012005D01*
X0040127Y0011561D01*
X0040661Y0011027D01*
X0041105Y0010416D01*
X0041448Y0009743D01*
X0041682Y0009024D01*
X0041800Y0008278D01*
X0041800Y0008100D01*
X0034200Y0008100D01*
X0034200Y0009793D02*
X0033800Y0009793D01*
X0033800Y0011391D02*
X0034200Y0011391D01*
X0040297Y0011391D02*
X0053303Y0011391D01*
X0052177Y0009793D02*
X0041423Y0009793D01*
X0041800Y0008194D02*
X0051800Y0008194D01*
X0059400Y0008194D02*
X0059800Y0008194D01*
X0059800Y0008100D02*
X0059800Y0012700D01*
X0062978Y0012700D01*
X0063724Y0012582D01*
X0064443Y0012348D01*
X0065116Y0012005D01*
X0065727Y0011561D01*
X0066261Y0011027D01*
X0066705Y0010416D01*
X0067048Y0009743D01*
X0067282Y0009024D01*
X0067400Y0008278D01*
X0067400Y0008100D01*
X0059800Y0008100D01*
X0059800Y0009793D02*
X0059400Y0009793D01*
X0059400Y0011391D02*
X0059800Y0011391D01*
X0065897Y0011391D02*
X0070701Y0011391D01*
X0070701Y0009793D02*
X0067023Y0009793D01*
X0067400Y0008194D02*
X0070701Y0008194D01*
X0053214Y0022581D02*
X0040386Y0022581D01*
X0041349Y0024179D02*
X0052251Y0024179D01*
X0012000Y0016187D02*
X0011600Y0016187D01*
X0011600Y0014588D02*
X0012000Y0014588D01*
X0012000Y0012990D02*
X0011600Y0012990D01*
X0011600Y0011391D02*
X0012000Y0011391D01*
X0012000Y0009793D02*
X0011600Y0009793D01*
X0011600Y0008194D02*
X0012000Y0008194D01*
X0006836Y0016187D02*
X0006600Y0016187D01*
M02*
