G75*
%MOIN*%
%OFA0B0*%
%FSLAX25Y25*%
%IPPOS*%
%LPD*%
%AMOC8*
5,1,8,0,0,1.08239X$1,22.5*
%
%ADD10C,0.06800*%
%ADD11OC8,0.06400*%
%ADD12OC8,0.06000*%
%ADD13C,0.17398*%
%ADD14C,0.15824*%
%ADD15C,0.06000*%
%ADD16C,0.06000*%
%ADD17OC8,0.07400*%
%ADD18OC8,0.06800*%
%ADD19C,0.07887*%
%ADD20C,0.10249*%
%ADD21C,0.07099*%
%ADD22R,0.04762X0.04762*%
%ADD23R,0.07887X0.07887*%
D10*
X0054300Y0036300D02*
X0054300Y0042300D01*
X0064300Y0042300D02*
X0064300Y0036300D01*
X0074300Y0036300D02*
X0074300Y0042300D01*
X0074300Y0056300D02*
X0074300Y0062300D01*
X0064300Y0062300D02*
X0064300Y0056300D01*
X0054300Y0056300D02*
X0054300Y0062300D01*
X0054300Y0121300D02*
X0054300Y0127300D01*
X0064300Y0127300D02*
X0064300Y0121300D01*
X0074300Y0121300D02*
X0074300Y0127300D01*
X0047300Y0161800D02*
X0041300Y0161800D01*
X0041300Y0171800D02*
X0047300Y0171800D01*
X0047300Y0181800D02*
X0041300Y0181800D01*
X0041300Y0191800D02*
X0047300Y0191800D01*
X0181800Y0162300D02*
X0181800Y0156300D01*
X0191800Y0156300D02*
X0191800Y0162300D01*
X0201800Y0162300D02*
X0201800Y0156300D01*
X0199300Y0147300D02*
X0199300Y0141300D01*
X0189300Y0141300D02*
X0189300Y0147300D01*
X0184300Y0132300D02*
X0184300Y0126300D01*
X0194300Y0126300D02*
X0194300Y0132300D01*
X0203800Y0131800D02*
X0209800Y0131800D01*
X0209800Y0121800D02*
X0203800Y0121800D01*
X0203800Y0111800D02*
X0209800Y0111800D01*
X0238800Y0109300D02*
X0244800Y0109300D01*
X0244800Y0099300D02*
X0238800Y0099300D01*
X0238800Y0089300D02*
X0244800Y0089300D01*
X0244800Y0079300D02*
X0238800Y0079300D01*
X0238800Y0069300D02*
X0244800Y0069300D01*
X0244800Y0051800D02*
X0238800Y0051800D01*
X0238800Y0041800D02*
X0244800Y0041800D01*
X0244800Y0031800D02*
X0238800Y0031800D01*
X0238800Y0021800D02*
X0244800Y0021800D01*
X0244800Y0011800D02*
X0238800Y0011800D01*
X0211800Y0156300D02*
X0211800Y0162300D01*
D11*
X0199300Y0101800D03*
X0189300Y0101800D03*
X0179300Y0091800D03*
X0179300Y0081800D03*
X0129300Y0081800D03*
X0129300Y0091800D03*
X0086800Y0166800D03*
X0076800Y0166800D03*
D12*
X0079300Y0106800D03*
X0079300Y0096800D03*
X0059300Y0096800D03*
X0059300Y0106800D03*
D13*
X0031800Y0205757D03*
D14*
X0012902Y0216977D03*
X0031800Y0230363D03*
D15*
X0094300Y0164400D02*
X0094300Y0159200D01*
X0104300Y0159200D02*
X0104300Y0164400D01*
X0114300Y0164400D02*
X0114300Y0159200D01*
X0124300Y0159200D02*
X0124300Y0164400D01*
X0136700Y0151800D02*
X0141900Y0151800D01*
X0141900Y0141800D02*
X0136700Y0141800D01*
X0136700Y0131800D02*
X0141900Y0131800D01*
X0141900Y0121800D02*
X0136700Y0121800D01*
X0136700Y0111800D02*
X0141900Y0111800D01*
X0141900Y0101800D02*
X0136700Y0101800D01*
X0136700Y0091800D02*
X0141900Y0091800D01*
X0141900Y0081800D02*
X0136700Y0081800D01*
X0136700Y0071800D02*
X0141900Y0071800D01*
X0141900Y0061800D02*
X0136700Y0061800D01*
X0136700Y0051800D02*
X0141900Y0051800D01*
X0141900Y0041800D02*
X0136700Y0041800D01*
X0136700Y0031800D02*
X0141900Y0031800D01*
X0141900Y0021800D02*
X0136700Y0021800D01*
X0166700Y0021800D02*
X0171900Y0021800D01*
X0171900Y0031800D02*
X0166700Y0031800D01*
X0166700Y0041800D02*
X0171900Y0041800D01*
X0171900Y0051800D02*
X0166700Y0051800D01*
X0166700Y0061800D02*
X0171900Y0061800D01*
X0171900Y0071800D02*
X0166700Y0071800D01*
X0166700Y0081800D02*
X0171900Y0081800D01*
X0171900Y0091800D02*
X0166700Y0091800D01*
X0166700Y0101800D02*
X0171900Y0101800D01*
X0171900Y0111800D02*
X0166700Y0111800D01*
X0166700Y0121800D02*
X0171900Y0121800D01*
X0171900Y0131800D02*
X0166700Y0131800D01*
X0166700Y0141800D02*
X0171900Y0141800D01*
X0171900Y0151800D02*
X0166700Y0151800D01*
X0124300Y0134400D02*
X0124300Y0129200D01*
X0114300Y0129200D02*
X0114300Y0134400D01*
X0104300Y0134400D02*
X0104300Y0129200D01*
X0094300Y0129200D02*
X0094300Y0134400D01*
X0189200Y0089300D02*
X0194400Y0089300D01*
X0194400Y0079300D02*
X0189200Y0079300D01*
X0189200Y0069300D02*
X0194400Y0069300D01*
X0194400Y0059300D02*
X0189200Y0059300D01*
X0189200Y0049300D02*
X0194400Y0049300D01*
X0194400Y0039300D02*
X0189200Y0039300D01*
X0189200Y0029300D02*
X0194400Y0029300D01*
X0194400Y0019300D02*
X0189200Y0019300D01*
X0189200Y0009300D02*
X0194400Y0009300D01*
X0219200Y0009300D02*
X0224400Y0009300D01*
X0224400Y0019300D02*
X0219200Y0019300D01*
X0219200Y0029300D02*
X0224400Y0029300D01*
X0224400Y0039300D02*
X0219200Y0039300D01*
X0219200Y0049300D02*
X0224400Y0049300D01*
X0224400Y0059300D02*
X0219200Y0059300D01*
X0219200Y0069300D02*
X0224400Y0069300D01*
X0224400Y0079300D02*
X0219200Y0079300D01*
X0219200Y0089300D02*
X0224400Y0089300D01*
D16*
X0099300Y0091300D03*
X0099300Y0072300D03*
D17*
X0114300Y0061800D03*
X0129300Y0051800D03*
X0129300Y0041800D03*
X0089300Y0041800D03*
X0089300Y0051800D03*
X0114300Y0101800D03*
X0126800Y0114300D03*
X0086800Y0114300D03*
X0236800Y0121800D03*
X0236800Y0161800D03*
D18*
X0011800Y0014300D03*
X0011800Y0079300D03*
X0011800Y0144300D03*
X0081800Y0144300D03*
X0081800Y0079300D03*
X0081800Y0014300D03*
D19*
X0104300Y0179300D03*
X0104300Y0199300D03*
X0171820Y0221820D03*
X0204300Y0181780D03*
D20*
X0219300Y0196800D03*
X0189300Y0199300D03*
X0119300Y0179300D03*
X0089300Y0179300D03*
D21*
X0119300Y0214300D03*
X0089300Y0234300D03*
X0189300Y0234300D03*
X0219300Y0214300D03*
D22*
X0159300Y0164300D03*
X0131800Y0166800D03*
D23*
X0219300Y0129300D03*
X0224300Y0159300D03*
M02*
