G75*
%MOIN*%
%OFA0B0*%
%FSLAX25Y25*%
%IPPOS*%
%LPD*%
%AMOC8*
5,1,8,0,0,1.08239X$1,22.5*
%
%ADD10C,0.00000*%
%ADD11C,0.06000*%
%ADD12OC8,0.05600*%
%ADD13OC8,0.05200*%
%ADD14C,0.16598*%
%ADD15C,0.15024*%
%ADD16C,0.05200*%
%ADD17C,0.05200*%
%ADD18OC8,0.06600*%
%ADD19OC8,0.06000*%
%ADD20C,0.07087*%
%ADD21C,0.09449*%
%ADD22C,0.01600*%
%ADD23R,0.03962X0.03962*%
%ADD24C,0.10000*%
%ADD25R,0.07087X0.07087*%
D10*
X0001800Y0001800D02*
X0001800Y0241761D01*
X0258001Y0241761D01*
X0258001Y0001800D01*
X0001800Y0001800D01*
X0116150Y0214300D02*
X0116152Y0214412D01*
X0116158Y0214523D01*
X0116168Y0214635D01*
X0116182Y0214746D01*
X0116199Y0214856D01*
X0116221Y0214966D01*
X0116247Y0215075D01*
X0116276Y0215183D01*
X0116309Y0215289D01*
X0116346Y0215395D01*
X0116387Y0215499D01*
X0116432Y0215602D01*
X0116480Y0215703D01*
X0116531Y0215802D01*
X0116586Y0215899D01*
X0116645Y0215994D01*
X0116706Y0216088D01*
X0116771Y0216179D01*
X0116840Y0216267D01*
X0116911Y0216353D01*
X0116985Y0216437D01*
X0117063Y0216517D01*
X0117143Y0216595D01*
X0117226Y0216671D01*
X0117311Y0216743D01*
X0117399Y0216812D01*
X0117489Y0216878D01*
X0117582Y0216940D01*
X0117677Y0217000D01*
X0117774Y0217056D01*
X0117872Y0217108D01*
X0117973Y0217157D01*
X0118075Y0217202D01*
X0118179Y0217244D01*
X0118284Y0217282D01*
X0118391Y0217316D01*
X0118498Y0217346D01*
X0118607Y0217373D01*
X0118716Y0217395D01*
X0118827Y0217414D01*
X0118937Y0217429D01*
X0119049Y0217440D01*
X0119160Y0217447D01*
X0119272Y0217450D01*
X0119384Y0217449D01*
X0119496Y0217444D01*
X0119607Y0217435D01*
X0119718Y0217422D01*
X0119829Y0217405D01*
X0119939Y0217385D01*
X0120048Y0217360D01*
X0120156Y0217332D01*
X0120263Y0217299D01*
X0120369Y0217263D01*
X0120473Y0217223D01*
X0120576Y0217180D01*
X0120678Y0217133D01*
X0120777Y0217082D01*
X0120875Y0217028D01*
X0120971Y0216970D01*
X0121065Y0216909D01*
X0121156Y0216845D01*
X0121245Y0216778D01*
X0121332Y0216707D01*
X0121416Y0216633D01*
X0121498Y0216557D01*
X0121576Y0216477D01*
X0121652Y0216395D01*
X0121725Y0216310D01*
X0121795Y0216223D01*
X0121861Y0216133D01*
X0121925Y0216041D01*
X0121985Y0215947D01*
X0122042Y0215851D01*
X0122095Y0215752D01*
X0122145Y0215652D01*
X0122191Y0215551D01*
X0122234Y0215447D01*
X0122273Y0215342D01*
X0122308Y0215236D01*
X0122339Y0215129D01*
X0122367Y0215020D01*
X0122390Y0214911D01*
X0122410Y0214801D01*
X0122426Y0214690D01*
X0122438Y0214579D01*
X0122446Y0214468D01*
X0122450Y0214356D01*
X0122450Y0214244D01*
X0122446Y0214132D01*
X0122438Y0214021D01*
X0122426Y0213910D01*
X0122410Y0213799D01*
X0122390Y0213689D01*
X0122367Y0213580D01*
X0122339Y0213471D01*
X0122308Y0213364D01*
X0122273Y0213258D01*
X0122234Y0213153D01*
X0122191Y0213049D01*
X0122145Y0212948D01*
X0122095Y0212848D01*
X0122042Y0212749D01*
X0121985Y0212653D01*
X0121925Y0212559D01*
X0121861Y0212467D01*
X0121795Y0212377D01*
X0121725Y0212290D01*
X0121652Y0212205D01*
X0121576Y0212123D01*
X0121498Y0212043D01*
X0121416Y0211967D01*
X0121332Y0211893D01*
X0121245Y0211822D01*
X0121156Y0211755D01*
X0121065Y0211691D01*
X0120971Y0211630D01*
X0120875Y0211572D01*
X0120777Y0211518D01*
X0120678Y0211467D01*
X0120576Y0211420D01*
X0120473Y0211377D01*
X0120369Y0211337D01*
X0120263Y0211301D01*
X0120156Y0211268D01*
X0120048Y0211240D01*
X0119939Y0211215D01*
X0119829Y0211195D01*
X0119718Y0211178D01*
X0119607Y0211165D01*
X0119496Y0211156D01*
X0119384Y0211151D01*
X0119272Y0211150D01*
X0119160Y0211153D01*
X0119049Y0211160D01*
X0118937Y0211171D01*
X0118827Y0211186D01*
X0118716Y0211205D01*
X0118607Y0211227D01*
X0118498Y0211254D01*
X0118391Y0211284D01*
X0118284Y0211318D01*
X0118179Y0211356D01*
X0118075Y0211398D01*
X0117973Y0211443D01*
X0117872Y0211492D01*
X0117774Y0211544D01*
X0117677Y0211600D01*
X0117582Y0211660D01*
X0117489Y0211722D01*
X0117399Y0211788D01*
X0117311Y0211857D01*
X0117226Y0211929D01*
X0117143Y0212005D01*
X0117063Y0212083D01*
X0116985Y0212163D01*
X0116911Y0212247D01*
X0116840Y0212333D01*
X0116771Y0212421D01*
X0116706Y0212512D01*
X0116645Y0212606D01*
X0116586Y0212701D01*
X0116531Y0212798D01*
X0116480Y0212897D01*
X0116432Y0212998D01*
X0116387Y0213101D01*
X0116346Y0213205D01*
X0116309Y0213311D01*
X0116276Y0213417D01*
X0116247Y0213525D01*
X0116221Y0213634D01*
X0116199Y0213744D01*
X0116182Y0213854D01*
X0116168Y0213965D01*
X0116158Y0214077D01*
X0116152Y0214188D01*
X0116150Y0214300D01*
X0086150Y0234300D02*
X0086152Y0234412D01*
X0086158Y0234523D01*
X0086168Y0234635D01*
X0086182Y0234746D01*
X0086199Y0234856D01*
X0086221Y0234966D01*
X0086247Y0235075D01*
X0086276Y0235183D01*
X0086309Y0235289D01*
X0086346Y0235395D01*
X0086387Y0235499D01*
X0086432Y0235602D01*
X0086480Y0235703D01*
X0086531Y0235802D01*
X0086586Y0235899D01*
X0086645Y0235994D01*
X0086706Y0236088D01*
X0086771Y0236179D01*
X0086840Y0236267D01*
X0086911Y0236353D01*
X0086985Y0236437D01*
X0087063Y0236517D01*
X0087143Y0236595D01*
X0087226Y0236671D01*
X0087311Y0236743D01*
X0087399Y0236812D01*
X0087489Y0236878D01*
X0087582Y0236940D01*
X0087677Y0237000D01*
X0087774Y0237056D01*
X0087872Y0237108D01*
X0087973Y0237157D01*
X0088075Y0237202D01*
X0088179Y0237244D01*
X0088284Y0237282D01*
X0088391Y0237316D01*
X0088498Y0237346D01*
X0088607Y0237373D01*
X0088716Y0237395D01*
X0088827Y0237414D01*
X0088937Y0237429D01*
X0089049Y0237440D01*
X0089160Y0237447D01*
X0089272Y0237450D01*
X0089384Y0237449D01*
X0089496Y0237444D01*
X0089607Y0237435D01*
X0089718Y0237422D01*
X0089829Y0237405D01*
X0089939Y0237385D01*
X0090048Y0237360D01*
X0090156Y0237332D01*
X0090263Y0237299D01*
X0090369Y0237263D01*
X0090473Y0237223D01*
X0090576Y0237180D01*
X0090678Y0237133D01*
X0090777Y0237082D01*
X0090875Y0237028D01*
X0090971Y0236970D01*
X0091065Y0236909D01*
X0091156Y0236845D01*
X0091245Y0236778D01*
X0091332Y0236707D01*
X0091416Y0236633D01*
X0091498Y0236557D01*
X0091576Y0236477D01*
X0091652Y0236395D01*
X0091725Y0236310D01*
X0091795Y0236223D01*
X0091861Y0236133D01*
X0091925Y0236041D01*
X0091985Y0235947D01*
X0092042Y0235851D01*
X0092095Y0235752D01*
X0092145Y0235652D01*
X0092191Y0235551D01*
X0092234Y0235447D01*
X0092273Y0235342D01*
X0092308Y0235236D01*
X0092339Y0235129D01*
X0092367Y0235020D01*
X0092390Y0234911D01*
X0092410Y0234801D01*
X0092426Y0234690D01*
X0092438Y0234579D01*
X0092446Y0234468D01*
X0092450Y0234356D01*
X0092450Y0234244D01*
X0092446Y0234132D01*
X0092438Y0234021D01*
X0092426Y0233910D01*
X0092410Y0233799D01*
X0092390Y0233689D01*
X0092367Y0233580D01*
X0092339Y0233471D01*
X0092308Y0233364D01*
X0092273Y0233258D01*
X0092234Y0233153D01*
X0092191Y0233049D01*
X0092145Y0232948D01*
X0092095Y0232848D01*
X0092042Y0232749D01*
X0091985Y0232653D01*
X0091925Y0232559D01*
X0091861Y0232467D01*
X0091795Y0232377D01*
X0091725Y0232290D01*
X0091652Y0232205D01*
X0091576Y0232123D01*
X0091498Y0232043D01*
X0091416Y0231967D01*
X0091332Y0231893D01*
X0091245Y0231822D01*
X0091156Y0231755D01*
X0091065Y0231691D01*
X0090971Y0231630D01*
X0090875Y0231572D01*
X0090777Y0231518D01*
X0090678Y0231467D01*
X0090576Y0231420D01*
X0090473Y0231377D01*
X0090369Y0231337D01*
X0090263Y0231301D01*
X0090156Y0231268D01*
X0090048Y0231240D01*
X0089939Y0231215D01*
X0089829Y0231195D01*
X0089718Y0231178D01*
X0089607Y0231165D01*
X0089496Y0231156D01*
X0089384Y0231151D01*
X0089272Y0231150D01*
X0089160Y0231153D01*
X0089049Y0231160D01*
X0088937Y0231171D01*
X0088827Y0231186D01*
X0088716Y0231205D01*
X0088607Y0231227D01*
X0088498Y0231254D01*
X0088391Y0231284D01*
X0088284Y0231318D01*
X0088179Y0231356D01*
X0088075Y0231398D01*
X0087973Y0231443D01*
X0087872Y0231492D01*
X0087774Y0231544D01*
X0087677Y0231600D01*
X0087582Y0231660D01*
X0087489Y0231722D01*
X0087399Y0231788D01*
X0087311Y0231857D01*
X0087226Y0231929D01*
X0087143Y0232005D01*
X0087063Y0232083D01*
X0086985Y0232163D01*
X0086911Y0232247D01*
X0086840Y0232333D01*
X0086771Y0232421D01*
X0086706Y0232512D01*
X0086645Y0232606D01*
X0086586Y0232701D01*
X0086531Y0232798D01*
X0086480Y0232897D01*
X0086432Y0232998D01*
X0086387Y0233101D01*
X0086346Y0233205D01*
X0086309Y0233311D01*
X0086276Y0233417D01*
X0086247Y0233525D01*
X0086221Y0233634D01*
X0086199Y0233744D01*
X0086182Y0233854D01*
X0086168Y0233965D01*
X0086158Y0234077D01*
X0086152Y0234188D01*
X0086150Y0234300D01*
X0186150Y0234300D02*
X0186152Y0234412D01*
X0186158Y0234523D01*
X0186168Y0234635D01*
X0186182Y0234746D01*
X0186199Y0234856D01*
X0186221Y0234966D01*
X0186247Y0235075D01*
X0186276Y0235183D01*
X0186309Y0235289D01*
X0186346Y0235395D01*
X0186387Y0235499D01*
X0186432Y0235602D01*
X0186480Y0235703D01*
X0186531Y0235802D01*
X0186586Y0235899D01*
X0186645Y0235994D01*
X0186706Y0236088D01*
X0186771Y0236179D01*
X0186840Y0236267D01*
X0186911Y0236353D01*
X0186985Y0236437D01*
X0187063Y0236517D01*
X0187143Y0236595D01*
X0187226Y0236671D01*
X0187311Y0236743D01*
X0187399Y0236812D01*
X0187489Y0236878D01*
X0187582Y0236940D01*
X0187677Y0237000D01*
X0187774Y0237056D01*
X0187872Y0237108D01*
X0187973Y0237157D01*
X0188075Y0237202D01*
X0188179Y0237244D01*
X0188284Y0237282D01*
X0188391Y0237316D01*
X0188498Y0237346D01*
X0188607Y0237373D01*
X0188716Y0237395D01*
X0188827Y0237414D01*
X0188937Y0237429D01*
X0189049Y0237440D01*
X0189160Y0237447D01*
X0189272Y0237450D01*
X0189384Y0237449D01*
X0189496Y0237444D01*
X0189607Y0237435D01*
X0189718Y0237422D01*
X0189829Y0237405D01*
X0189939Y0237385D01*
X0190048Y0237360D01*
X0190156Y0237332D01*
X0190263Y0237299D01*
X0190369Y0237263D01*
X0190473Y0237223D01*
X0190576Y0237180D01*
X0190678Y0237133D01*
X0190777Y0237082D01*
X0190875Y0237028D01*
X0190971Y0236970D01*
X0191065Y0236909D01*
X0191156Y0236845D01*
X0191245Y0236778D01*
X0191332Y0236707D01*
X0191416Y0236633D01*
X0191498Y0236557D01*
X0191576Y0236477D01*
X0191652Y0236395D01*
X0191725Y0236310D01*
X0191795Y0236223D01*
X0191861Y0236133D01*
X0191925Y0236041D01*
X0191985Y0235947D01*
X0192042Y0235851D01*
X0192095Y0235752D01*
X0192145Y0235652D01*
X0192191Y0235551D01*
X0192234Y0235447D01*
X0192273Y0235342D01*
X0192308Y0235236D01*
X0192339Y0235129D01*
X0192367Y0235020D01*
X0192390Y0234911D01*
X0192410Y0234801D01*
X0192426Y0234690D01*
X0192438Y0234579D01*
X0192446Y0234468D01*
X0192450Y0234356D01*
X0192450Y0234244D01*
X0192446Y0234132D01*
X0192438Y0234021D01*
X0192426Y0233910D01*
X0192410Y0233799D01*
X0192390Y0233689D01*
X0192367Y0233580D01*
X0192339Y0233471D01*
X0192308Y0233364D01*
X0192273Y0233258D01*
X0192234Y0233153D01*
X0192191Y0233049D01*
X0192145Y0232948D01*
X0192095Y0232848D01*
X0192042Y0232749D01*
X0191985Y0232653D01*
X0191925Y0232559D01*
X0191861Y0232467D01*
X0191795Y0232377D01*
X0191725Y0232290D01*
X0191652Y0232205D01*
X0191576Y0232123D01*
X0191498Y0232043D01*
X0191416Y0231967D01*
X0191332Y0231893D01*
X0191245Y0231822D01*
X0191156Y0231755D01*
X0191065Y0231691D01*
X0190971Y0231630D01*
X0190875Y0231572D01*
X0190777Y0231518D01*
X0190678Y0231467D01*
X0190576Y0231420D01*
X0190473Y0231377D01*
X0190369Y0231337D01*
X0190263Y0231301D01*
X0190156Y0231268D01*
X0190048Y0231240D01*
X0189939Y0231215D01*
X0189829Y0231195D01*
X0189718Y0231178D01*
X0189607Y0231165D01*
X0189496Y0231156D01*
X0189384Y0231151D01*
X0189272Y0231150D01*
X0189160Y0231153D01*
X0189049Y0231160D01*
X0188937Y0231171D01*
X0188827Y0231186D01*
X0188716Y0231205D01*
X0188607Y0231227D01*
X0188498Y0231254D01*
X0188391Y0231284D01*
X0188284Y0231318D01*
X0188179Y0231356D01*
X0188075Y0231398D01*
X0187973Y0231443D01*
X0187872Y0231492D01*
X0187774Y0231544D01*
X0187677Y0231600D01*
X0187582Y0231660D01*
X0187489Y0231722D01*
X0187399Y0231788D01*
X0187311Y0231857D01*
X0187226Y0231929D01*
X0187143Y0232005D01*
X0187063Y0232083D01*
X0186985Y0232163D01*
X0186911Y0232247D01*
X0186840Y0232333D01*
X0186771Y0232421D01*
X0186706Y0232512D01*
X0186645Y0232606D01*
X0186586Y0232701D01*
X0186531Y0232798D01*
X0186480Y0232897D01*
X0186432Y0232998D01*
X0186387Y0233101D01*
X0186346Y0233205D01*
X0186309Y0233311D01*
X0186276Y0233417D01*
X0186247Y0233525D01*
X0186221Y0233634D01*
X0186199Y0233744D01*
X0186182Y0233854D01*
X0186168Y0233965D01*
X0186158Y0234077D01*
X0186152Y0234188D01*
X0186150Y0234300D01*
X0216150Y0214300D02*
X0216152Y0214412D01*
X0216158Y0214523D01*
X0216168Y0214635D01*
X0216182Y0214746D01*
X0216199Y0214856D01*
X0216221Y0214966D01*
X0216247Y0215075D01*
X0216276Y0215183D01*
X0216309Y0215289D01*
X0216346Y0215395D01*
X0216387Y0215499D01*
X0216432Y0215602D01*
X0216480Y0215703D01*
X0216531Y0215802D01*
X0216586Y0215899D01*
X0216645Y0215994D01*
X0216706Y0216088D01*
X0216771Y0216179D01*
X0216840Y0216267D01*
X0216911Y0216353D01*
X0216985Y0216437D01*
X0217063Y0216517D01*
X0217143Y0216595D01*
X0217226Y0216671D01*
X0217311Y0216743D01*
X0217399Y0216812D01*
X0217489Y0216878D01*
X0217582Y0216940D01*
X0217677Y0217000D01*
X0217774Y0217056D01*
X0217872Y0217108D01*
X0217973Y0217157D01*
X0218075Y0217202D01*
X0218179Y0217244D01*
X0218284Y0217282D01*
X0218391Y0217316D01*
X0218498Y0217346D01*
X0218607Y0217373D01*
X0218716Y0217395D01*
X0218827Y0217414D01*
X0218937Y0217429D01*
X0219049Y0217440D01*
X0219160Y0217447D01*
X0219272Y0217450D01*
X0219384Y0217449D01*
X0219496Y0217444D01*
X0219607Y0217435D01*
X0219718Y0217422D01*
X0219829Y0217405D01*
X0219939Y0217385D01*
X0220048Y0217360D01*
X0220156Y0217332D01*
X0220263Y0217299D01*
X0220369Y0217263D01*
X0220473Y0217223D01*
X0220576Y0217180D01*
X0220678Y0217133D01*
X0220777Y0217082D01*
X0220875Y0217028D01*
X0220971Y0216970D01*
X0221065Y0216909D01*
X0221156Y0216845D01*
X0221245Y0216778D01*
X0221332Y0216707D01*
X0221416Y0216633D01*
X0221498Y0216557D01*
X0221576Y0216477D01*
X0221652Y0216395D01*
X0221725Y0216310D01*
X0221795Y0216223D01*
X0221861Y0216133D01*
X0221925Y0216041D01*
X0221985Y0215947D01*
X0222042Y0215851D01*
X0222095Y0215752D01*
X0222145Y0215652D01*
X0222191Y0215551D01*
X0222234Y0215447D01*
X0222273Y0215342D01*
X0222308Y0215236D01*
X0222339Y0215129D01*
X0222367Y0215020D01*
X0222390Y0214911D01*
X0222410Y0214801D01*
X0222426Y0214690D01*
X0222438Y0214579D01*
X0222446Y0214468D01*
X0222450Y0214356D01*
X0222450Y0214244D01*
X0222446Y0214132D01*
X0222438Y0214021D01*
X0222426Y0213910D01*
X0222410Y0213799D01*
X0222390Y0213689D01*
X0222367Y0213580D01*
X0222339Y0213471D01*
X0222308Y0213364D01*
X0222273Y0213258D01*
X0222234Y0213153D01*
X0222191Y0213049D01*
X0222145Y0212948D01*
X0222095Y0212848D01*
X0222042Y0212749D01*
X0221985Y0212653D01*
X0221925Y0212559D01*
X0221861Y0212467D01*
X0221795Y0212377D01*
X0221725Y0212290D01*
X0221652Y0212205D01*
X0221576Y0212123D01*
X0221498Y0212043D01*
X0221416Y0211967D01*
X0221332Y0211893D01*
X0221245Y0211822D01*
X0221156Y0211755D01*
X0221065Y0211691D01*
X0220971Y0211630D01*
X0220875Y0211572D01*
X0220777Y0211518D01*
X0220678Y0211467D01*
X0220576Y0211420D01*
X0220473Y0211377D01*
X0220369Y0211337D01*
X0220263Y0211301D01*
X0220156Y0211268D01*
X0220048Y0211240D01*
X0219939Y0211215D01*
X0219829Y0211195D01*
X0219718Y0211178D01*
X0219607Y0211165D01*
X0219496Y0211156D01*
X0219384Y0211151D01*
X0219272Y0211150D01*
X0219160Y0211153D01*
X0219049Y0211160D01*
X0218937Y0211171D01*
X0218827Y0211186D01*
X0218716Y0211205D01*
X0218607Y0211227D01*
X0218498Y0211254D01*
X0218391Y0211284D01*
X0218284Y0211318D01*
X0218179Y0211356D01*
X0218075Y0211398D01*
X0217973Y0211443D01*
X0217872Y0211492D01*
X0217774Y0211544D01*
X0217677Y0211600D01*
X0217582Y0211660D01*
X0217489Y0211722D01*
X0217399Y0211788D01*
X0217311Y0211857D01*
X0217226Y0211929D01*
X0217143Y0212005D01*
X0217063Y0212083D01*
X0216985Y0212163D01*
X0216911Y0212247D01*
X0216840Y0212333D01*
X0216771Y0212421D01*
X0216706Y0212512D01*
X0216645Y0212606D01*
X0216586Y0212701D01*
X0216531Y0212798D01*
X0216480Y0212897D01*
X0216432Y0212998D01*
X0216387Y0213101D01*
X0216346Y0213205D01*
X0216309Y0213311D01*
X0216276Y0213417D01*
X0216247Y0213525D01*
X0216221Y0213634D01*
X0216199Y0213744D01*
X0216182Y0213854D01*
X0216168Y0213965D01*
X0216158Y0214077D01*
X0216152Y0214188D01*
X0216150Y0214300D01*
D11*
X0211800Y0162300D02*
X0211800Y0156300D01*
X0201800Y0156300D02*
X0201800Y0162300D01*
X0191800Y0162300D02*
X0191800Y0156300D01*
X0189300Y0147300D02*
X0189300Y0141300D01*
X0199300Y0141300D02*
X0199300Y0147300D01*
X0194300Y0132300D02*
X0194300Y0126300D01*
X0203800Y0121800D02*
X0209800Y0121800D01*
X0209800Y0111800D02*
X0203800Y0111800D01*
X0203800Y0131800D02*
X0209800Y0131800D01*
X0184300Y0132300D02*
X0184300Y0126300D01*
X0181800Y0156300D02*
X0181800Y0162300D01*
X0238800Y0109300D02*
X0244800Y0109300D01*
X0244800Y0099300D02*
X0238800Y0099300D01*
X0238800Y0089300D02*
X0244800Y0089300D01*
X0244800Y0079300D02*
X0238800Y0079300D01*
X0238800Y0069300D02*
X0244800Y0069300D01*
X0244800Y0051800D02*
X0238800Y0051800D01*
X0238800Y0041800D02*
X0244800Y0041800D01*
X0244800Y0031800D02*
X0238800Y0031800D01*
X0238800Y0021800D02*
X0244800Y0021800D01*
X0244800Y0011800D02*
X0238800Y0011800D01*
X0074300Y0036300D02*
X0074300Y0042300D01*
X0064300Y0042300D02*
X0064300Y0036300D01*
X0054300Y0036300D02*
X0054300Y0042300D01*
X0054300Y0056300D02*
X0054300Y0062300D01*
X0064300Y0062300D02*
X0064300Y0056300D01*
X0074300Y0056300D02*
X0074300Y0062300D01*
X0074300Y0121300D02*
X0074300Y0127300D01*
X0064300Y0127300D02*
X0064300Y0121300D01*
X0054300Y0121300D02*
X0054300Y0127300D01*
X0047300Y0161800D02*
X0041300Y0161800D01*
X0041300Y0171800D02*
X0047300Y0171800D01*
X0047300Y0181800D02*
X0041300Y0181800D01*
X0041300Y0191800D02*
X0047300Y0191800D01*
D12*
X0076800Y0166800D03*
X0086800Y0166800D03*
X0129300Y0091800D03*
X0129300Y0081800D03*
X0179300Y0081800D03*
X0179300Y0091800D03*
X0189300Y0101800D03*
X0199300Y0101800D03*
D13*
X0079300Y0096800D03*
X0079300Y0106800D03*
X0059300Y0106800D03*
X0059300Y0096800D03*
D14*
X0031800Y0205757D03*
D15*
X0012902Y0216977D03*
X0031800Y0230363D03*
D16*
X0094300Y0164400D02*
X0094300Y0159200D01*
X0104300Y0159200D02*
X0104300Y0164400D01*
X0114300Y0164400D02*
X0114300Y0159200D01*
X0124300Y0159200D02*
X0124300Y0164400D01*
X0136700Y0151800D02*
X0141900Y0151800D01*
X0141900Y0141800D02*
X0136700Y0141800D01*
X0136700Y0131800D02*
X0141900Y0131800D01*
X0141900Y0121800D02*
X0136700Y0121800D01*
X0136700Y0111800D02*
X0141900Y0111800D01*
X0141900Y0101800D02*
X0136700Y0101800D01*
X0136700Y0091800D02*
X0141900Y0091800D01*
X0141900Y0081800D02*
X0136700Y0081800D01*
X0136700Y0071800D02*
X0141900Y0071800D01*
X0141900Y0061800D02*
X0136700Y0061800D01*
X0136700Y0051800D02*
X0141900Y0051800D01*
X0141900Y0041800D02*
X0136700Y0041800D01*
X0136700Y0031800D02*
X0141900Y0031800D01*
X0141900Y0021800D02*
X0136700Y0021800D01*
X0166700Y0021800D02*
X0171900Y0021800D01*
X0171900Y0031800D02*
X0166700Y0031800D01*
X0166700Y0041800D02*
X0171900Y0041800D01*
X0171900Y0051800D02*
X0166700Y0051800D01*
X0166700Y0061800D02*
X0171900Y0061800D01*
X0171900Y0071800D02*
X0166700Y0071800D01*
X0166700Y0081800D02*
X0171900Y0081800D01*
X0171900Y0091800D02*
X0166700Y0091800D01*
X0166700Y0101800D02*
X0171900Y0101800D01*
X0171900Y0111800D02*
X0166700Y0111800D01*
X0166700Y0121800D02*
X0171900Y0121800D01*
X0171900Y0131800D02*
X0166700Y0131800D01*
X0166700Y0141800D02*
X0171900Y0141800D01*
X0171900Y0151800D02*
X0166700Y0151800D01*
X0124300Y0134400D02*
X0124300Y0129200D01*
X0114300Y0129200D02*
X0114300Y0134400D01*
X0104300Y0134400D02*
X0104300Y0129200D01*
X0094300Y0129200D02*
X0094300Y0134400D01*
X0189200Y0089300D02*
X0194400Y0089300D01*
X0194400Y0079300D02*
X0189200Y0079300D01*
X0189200Y0069300D02*
X0194400Y0069300D01*
X0194400Y0059300D02*
X0189200Y0059300D01*
X0189200Y0049300D02*
X0194400Y0049300D01*
X0194400Y0039300D02*
X0189200Y0039300D01*
X0189200Y0029300D02*
X0194400Y0029300D01*
X0194400Y0019300D02*
X0189200Y0019300D01*
X0189200Y0009300D02*
X0194400Y0009300D01*
X0219200Y0009300D02*
X0224400Y0009300D01*
X0224400Y0019300D02*
X0219200Y0019300D01*
X0219200Y0029300D02*
X0224400Y0029300D01*
X0224400Y0039300D02*
X0219200Y0039300D01*
X0219200Y0049300D02*
X0224400Y0049300D01*
X0224400Y0059300D02*
X0219200Y0059300D01*
X0219200Y0069300D02*
X0224400Y0069300D01*
X0224400Y0079300D02*
X0219200Y0079300D01*
X0219200Y0089300D02*
X0224400Y0089300D01*
D17*
X0099300Y0091300D03*
X0099300Y0072300D03*
D18*
X0114300Y0061800D03*
X0129300Y0051800D03*
X0129300Y0041800D03*
X0089300Y0041800D03*
X0089300Y0051800D03*
X0114300Y0101800D03*
X0126800Y0114300D03*
X0086800Y0114300D03*
X0236800Y0121800D03*
X0236800Y0161800D03*
D19*
X0081800Y0144300D03*
X0081800Y0079300D03*
X0081800Y0014300D03*
X0011800Y0014300D03*
X0011800Y0079300D03*
X0011800Y0144300D03*
D20*
X0104300Y0179300D03*
X0104300Y0199300D03*
X0171820Y0221820D03*
X0204300Y0181780D03*
D21*
X0219300Y0196800D03*
X0189300Y0199300D03*
X0119300Y0179300D03*
X0089300Y0179300D03*
D22*
X0089300Y0191800D01*
X0219300Y0191800D01*
X0219300Y0196800D01*
X0224290Y0201744D02*
X0253201Y0201744D01*
X0253201Y0203342D02*
X0221861Y0203342D01*
X0220697Y0203824D02*
X0217903Y0203824D01*
X0215321Y0202755D01*
X0213345Y0200779D01*
X0212276Y0198197D01*
X0212276Y0195403D01*
X0212484Y0194900D01*
X0194834Y0194900D01*
X0195255Y0195321D01*
X0196324Y0197903D01*
X0196324Y0200697D01*
X0195255Y0203279D01*
X0193279Y0205255D01*
X0190697Y0206324D01*
X0187903Y0206324D01*
X0185321Y0205255D01*
X0183345Y0203279D01*
X0182276Y0200697D01*
X0182276Y0197903D01*
X0183345Y0195321D01*
X0183766Y0194900D01*
X0108164Y0194900D01*
X0109254Y0195990D01*
X0110143Y0198138D01*
X0110143Y0200462D01*
X0109254Y0202610D01*
X0107610Y0204254D01*
X0105462Y0205143D01*
X0103138Y0205143D01*
X0100990Y0204254D01*
X0099346Y0202610D01*
X0098457Y0200462D01*
X0098457Y0198138D01*
X0099346Y0195990D01*
X0100436Y0194900D01*
X0088683Y0194900D01*
X0087544Y0194428D01*
X0086672Y0193556D01*
X0086200Y0192417D01*
X0086200Y0185619D01*
X0085321Y0185255D01*
X0083345Y0183279D01*
X0082276Y0180697D01*
X0082276Y0177903D01*
X0083345Y0175321D01*
X0085321Y0173345D01*
X0087903Y0172276D01*
X0090498Y0172276D01*
X0099714Y0166132D01*
X0099400Y0165375D01*
X0099400Y0158225D01*
X0100146Y0156424D01*
X0101524Y0155046D01*
X0103325Y0154300D01*
X0105275Y0154300D01*
X0107076Y0155046D01*
X0108454Y0156424D01*
X0109200Y0158225D01*
X0109200Y0165375D01*
X0108454Y0167176D01*
X0107076Y0168554D01*
X0106827Y0168657D01*
X0106707Y0168777D01*
X0106533Y0169037D01*
X0106275Y0169209D01*
X0106056Y0169428D01*
X0105767Y0169548D01*
X0095656Y0176289D01*
X0096324Y0177903D01*
X0096324Y0180697D01*
X0095255Y0183279D01*
X0093279Y0185255D01*
X0092400Y0185619D01*
X0092400Y0188700D01*
X0101816Y0188700D01*
X0101672Y0188556D01*
X0101200Y0187417D01*
X0101200Y0184341D01*
X0100990Y0184254D01*
X0099346Y0182610D01*
X0098457Y0180462D01*
X0098457Y0178138D01*
X0099346Y0175990D01*
X0100990Y0174346D01*
X0103138Y0173457D01*
X0104055Y0173457D01*
X0111200Y0169884D01*
X0111200Y0168230D01*
X0110146Y0167176D01*
X0109400Y0165375D01*
X0109400Y0158225D01*
X0110146Y0156424D01*
X0111524Y0155046D01*
X0113325Y0154300D01*
X0115275Y0154300D01*
X0117076Y0155046D01*
X0118454Y0156424D01*
X0119200Y0158225D01*
X0119200Y0165375D01*
X0118454Y0167176D01*
X0117400Y0168230D01*
X0117400Y0171690D01*
X0117436Y0172195D01*
X0117400Y0172303D01*
X0117400Y0172417D01*
X0117366Y0172498D01*
X0117903Y0172276D01*
X0120697Y0172276D01*
X0123279Y0173345D01*
X0125255Y0175321D01*
X0126324Y0177903D01*
X0126324Y0180697D01*
X0125255Y0183279D01*
X0124834Y0183700D01*
X0126200Y0183700D01*
X0126200Y0181183D01*
X0126672Y0180044D01*
X0127544Y0179172D01*
X0128683Y0178700D01*
X0136816Y0178700D01*
X0136672Y0178556D01*
X0136200Y0177417D01*
X0136200Y0156700D01*
X0135725Y0156700D01*
X0133924Y0155954D01*
X0132546Y0154576D01*
X0131800Y0152775D01*
X0131800Y0150825D01*
X0132546Y0149024D01*
X0133924Y0147646D01*
X0135725Y0146900D01*
X0142875Y0146900D01*
X0144676Y0147646D01*
X0146054Y0149024D01*
X0146800Y0150825D01*
X0146800Y0152775D01*
X0146054Y0154576D01*
X0144676Y0155954D01*
X0142875Y0156700D01*
X0142400Y0156700D01*
X0142400Y0173700D01*
X0149316Y0173700D01*
X0149172Y0173556D01*
X0148700Y0172417D01*
X0148700Y0104900D01*
X0145730Y0104900D01*
X0144676Y0105954D01*
X0142875Y0106700D01*
X0135725Y0106700D01*
X0133924Y0105954D01*
X0132546Y0104576D01*
X0131800Y0102775D01*
X0131800Y0100825D01*
X0132546Y0099024D01*
X0133924Y0097646D01*
X0135725Y0096900D01*
X0142875Y0096900D01*
X0144676Y0097646D01*
X0145730Y0098700D01*
X0152417Y0098700D01*
X0153556Y0099172D01*
X0154428Y0100044D01*
X0154900Y0101183D01*
X0154900Y0168700D01*
X0163700Y0168700D01*
X0163700Y0168683D01*
X0164172Y0167544D01*
X0165044Y0166672D01*
X0166183Y0166200D01*
X0178205Y0166200D01*
X0177307Y0165302D01*
X0176500Y0163354D01*
X0176500Y0159735D01*
X0171441Y0156700D01*
X0165725Y0156700D01*
X0163924Y0155954D01*
X0162546Y0154576D01*
X0161800Y0152775D01*
X0161800Y0150825D01*
X0162546Y0149024D01*
X0163924Y0147646D01*
X0165725Y0146900D01*
X0171775Y0146900D01*
X0171441Y0146700D01*
X0165725Y0146700D01*
X0163924Y0145954D01*
X0162546Y0144576D01*
X0161800Y0142775D01*
X0161800Y0140825D01*
X0162546Y0139024D01*
X0163924Y0137646D01*
X0165725Y0136900D01*
X0171361Y0136900D01*
X0171061Y0136700D01*
X0165725Y0136700D01*
X0163924Y0135954D01*
X0162546Y0134576D01*
X0161800Y0132775D01*
X0161800Y0130825D01*
X0162546Y0129024D01*
X0163924Y0127646D01*
X0165725Y0126900D01*
X0172568Y0126900D01*
X0172168Y0126700D01*
X0165725Y0126700D01*
X0163924Y0125954D01*
X0162546Y0124576D01*
X0161800Y0122775D01*
X0161800Y0120825D01*
X0162546Y0119024D01*
X0163924Y0117646D01*
X0165725Y0116900D01*
X0172875Y0116900D01*
X0174676Y0117646D01*
X0176054Y0119024D01*
X0176800Y0120825D01*
X0176800Y0122084D01*
X0179707Y0123538D01*
X0179807Y0123298D01*
X0181298Y0121807D01*
X0183246Y0121000D01*
X0185354Y0121000D01*
X0187302Y0121807D01*
X0188793Y0123298D01*
X0189300Y0124522D01*
X0189807Y0123298D01*
X0191298Y0121807D01*
X0192667Y0121240D01*
X0173959Y0116251D01*
X0172875Y0116700D01*
X0165725Y0116700D01*
X0163924Y0115954D01*
X0162546Y0114576D01*
X0161800Y0112775D01*
X0161800Y0110825D01*
X0162546Y0109024D01*
X0163924Y0107646D01*
X0165725Y0106900D01*
X0172875Y0106900D01*
X0174676Y0107646D01*
X0176054Y0109024D01*
X0176691Y0110563D01*
X0201262Y0117115D01*
X0202022Y0116800D01*
X0200798Y0116293D01*
X0199307Y0114802D01*
X0198951Y0113943D01*
X0186588Y0112398D01*
X0186146Y0112392D01*
X0185981Y0112322D01*
X0185804Y0112300D01*
X0185419Y0112081D01*
X0172864Y0106700D01*
X0165725Y0106700D01*
X0163924Y0105954D01*
X0162546Y0104576D01*
X0161800Y0102775D01*
X0161800Y0100825D01*
X0162546Y0099024D01*
X0163924Y0097646D01*
X0165725Y0096900D01*
X0172875Y0096900D01*
X0174676Y0097646D01*
X0176054Y0099024D01*
X0176800Y0100825D01*
X0176800Y0101642D01*
X0187013Y0106019D01*
X0184700Y0103705D01*
X0184700Y0101800D01*
X0189300Y0101800D01*
X0189300Y0101800D01*
X0189300Y0106400D01*
X0191205Y0106400D01*
X0193900Y0103705D01*
X0193900Y0101800D01*
X0189300Y0101800D01*
X0189300Y0101800D01*
X0189300Y0106400D01*
X0188593Y0106400D01*
X0200248Y0107857D01*
X0200798Y0107307D01*
X0202746Y0106500D01*
X0210854Y0106500D01*
X0212097Y0107015D01*
X0211512Y0103798D01*
X0204400Y0099846D01*
X0204400Y0103912D01*
X0201412Y0106900D01*
X0197188Y0106900D01*
X0194200Y0103912D01*
X0194200Y0099688D01*
X0197188Y0096700D01*
X0198737Y0096700D01*
X0194237Y0094200D01*
X0188225Y0094200D01*
X0186424Y0093454D01*
X0185046Y0092076D01*
X0184400Y0090516D01*
X0184400Y0093912D01*
X0181412Y0096900D01*
X0177188Y0096900D01*
X0175459Y0095171D01*
X0174676Y0095954D01*
X0172875Y0096700D01*
X0165725Y0096700D01*
X0163924Y0095954D01*
X0162546Y0094576D01*
X0161800Y0092775D01*
X0161800Y0090825D01*
X0162546Y0089024D01*
X0163924Y0087646D01*
X0165725Y0086900D01*
X0172875Y0086900D01*
X0174676Y0087646D01*
X0175459Y0088429D01*
X0177088Y0086800D01*
X0175459Y0085171D01*
X0174676Y0085954D01*
X0172875Y0086700D01*
X0165725Y0086700D01*
X0163924Y0085954D01*
X0162546Y0084576D01*
X0161800Y0082775D01*
X0161800Y0080825D01*
X0162546Y0079024D01*
X0163924Y0077646D01*
X0165725Y0076900D01*
X0172875Y0076900D01*
X0174676Y0077646D01*
X0175459Y0078429D01*
X0177188Y0076700D01*
X0181412Y0076700D01*
X0184300Y0079588D01*
X0184300Y0078325D01*
X0184545Y0077734D01*
X0180393Y0074620D01*
X0180345Y0074606D01*
X0179901Y0074251D01*
X0179447Y0073910D01*
X0179421Y0073867D01*
X0176285Y0071358D01*
X0176300Y0071454D01*
X0176300Y0071800D01*
X0176300Y0072146D01*
X0176192Y0072830D01*
X0175978Y0073489D01*
X0175663Y0074106D01*
X0175256Y0074666D01*
X0174766Y0075156D01*
X0174206Y0075563D01*
X0173589Y0075878D01*
X0172930Y0076092D01*
X0172246Y0076200D01*
X0169300Y0076200D01*
X0169300Y0071800D01*
X0169300Y0071800D01*
X0176300Y0071800D01*
X0169300Y0071800D01*
X0169300Y0071800D01*
X0169300Y0067400D01*
X0171338Y0067400D01*
X0170463Y0066700D01*
X0165725Y0066700D01*
X0163924Y0065954D01*
X0162546Y0064576D01*
X0161800Y0062775D01*
X0161800Y0060825D01*
X0162546Y0059024D01*
X0163924Y0057646D01*
X0165725Y0056900D01*
X0170808Y0056900D01*
X0170551Y0056700D01*
X0165725Y0056700D01*
X0163924Y0055954D01*
X0162546Y0054576D01*
X0161800Y0052775D01*
X0161800Y0050825D01*
X0162546Y0049024D01*
X0163924Y0047646D01*
X0165725Y0046900D01*
X0170808Y0046900D01*
X0170551Y0046700D01*
X0165725Y0046700D01*
X0163924Y0045954D01*
X0162546Y0044576D01*
X0161800Y0042775D01*
X0161800Y0040825D01*
X0162546Y0039024D01*
X0163924Y0037646D01*
X0165725Y0036900D01*
X0170808Y0036900D01*
X0170551Y0036700D01*
X0165725Y0036700D01*
X0163924Y0035954D01*
X0162546Y0034576D01*
X0161800Y0032775D01*
X0161800Y0030825D01*
X0162546Y0029024D01*
X0163924Y0027646D01*
X0165725Y0026900D01*
X0170808Y0026900D01*
X0170551Y0026700D01*
X0165725Y0026700D01*
X0163924Y0025954D01*
X0162546Y0024576D01*
X0161800Y0022775D01*
X0161800Y0020825D01*
X0162546Y0019024D01*
X0163924Y0017646D01*
X0164518Y0017400D01*
X0144082Y0017400D01*
X0144676Y0017646D01*
X0146054Y0019024D01*
X0146800Y0020825D01*
X0146800Y0022775D01*
X0146054Y0024576D01*
X0144676Y0025954D01*
X0142875Y0026700D01*
X0135725Y0026700D01*
X0133924Y0025954D01*
X0132546Y0024576D01*
X0132400Y0024223D01*
X0132400Y0028700D01*
X0132870Y0028700D01*
X0133924Y0027646D01*
X0135725Y0026900D01*
X0142875Y0026900D01*
X0144676Y0027646D01*
X0146054Y0029024D01*
X0146800Y0030825D01*
X0146800Y0032775D01*
X0146054Y0034576D01*
X0144676Y0035954D01*
X0142875Y0036700D01*
X0135725Y0036700D01*
X0133924Y0035954D01*
X0132870Y0034900D01*
X0128683Y0034900D01*
X0127544Y0034428D01*
X0126672Y0033556D01*
X0126200Y0032417D01*
X0126200Y0008683D01*
X0126672Y0007544D01*
X0127544Y0006672D01*
X0127718Y0006600D01*
X0006600Y0006600D01*
X0006600Y0012005D01*
X0009605Y0009000D01*
X0013995Y0009000D01*
X0017100Y0012105D01*
X0017100Y0016495D01*
X0013995Y0019600D01*
X0009605Y0019600D01*
X0006600Y0016595D01*
X0006600Y0074176D01*
X0007665Y0073111D01*
X0010348Y0072000D01*
X0023252Y0072000D01*
X0025935Y0073111D01*
X0027989Y0075165D01*
X0029100Y0077848D01*
X0029100Y0174500D01*
X0036682Y0174500D01*
X0036000Y0172854D01*
X0036000Y0170746D01*
X0036807Y0168798D01*
X0038298Y0167307D01*
X0040246Y0166500D01*
X0040291Y0166500D01*
X0040176Y0166482D01*
X0039457Y0166248D01*
X0038784Y0165905D01*
X0038173Y0165461D01*
X0037639Y0164927D01*
X0037195Y0164316D01*
X0036852Y0163643D01*
X0036618Y0162924D01*
X0036500Y0162178D01*
X0036500Y0162000D01*
X0044100Y0162000D01*
X0044100Y0161600D01*
X0044500Y0161600D01*
X0044500Y0162000D01*
X0052100Y0162000D01*
X0052100Y0162178D01*
X0051982Y0162924D01*
X0051748Y0163643D01*
X0051405Y0164316D01*
X0050961Y0164927D01*
X0050427Y0165461D01*
X0049816Y0165905D01*
X0049143Y0166248D01*
X0048424Y0166482D01*
X0048309Y0166500D01*
X0048354Y0166500D01*
X0050302Y0167307D01*
X0051793Y0168798D01*
X0052600Y0170746D01*
X0052600Y0172854D01*
X0051793Y0174802D01*
X0050302Y0176293D01*
X0049464Y0176640D01*
X0050009Y0177186D01*
X0050302Y0177307D01*
X0051793Y0178798D01*
X0052600Y0180746D01*
X0052600Y0182854D01*
X0051793Y0184802D01*
X0050302Y0186293D01*
X0050009Y0186414D01*
X0049464Y0186960D01*
X0050302Y0187307D01*
X0051793Y0188798D01*
X0052600Y0190746D01*
X0052600Y0192854D01*
X0051793Y0194802D01*
X0050302Y0196293D01*
X0048354Y0197100D01*
X0040246Y0197100D01*
X0038298Y0196293D01*
X0036807Y0194802D01*
X0036000Y0192854D01*
X0036000Y0190746D01*
X0036682Y0189100D01*
X0020348Y0189100D01*
X0017665Y0187989D01*
X0015611Y0185935D01*
X0014500Y0183252D01*
X0014500Y0149095D01*
X0013995Y0149600D01*
X0009605Y0149600D01*
X0006600Y0146595D01*
X0006600Y0209404D01*
X0007344Y0208659D01*
X0010951Y0207165D01*
X0014854Y0207165D01*
X0018460Y0208659D01*
X0021220Y0211419D01*
X0022714Y0215025D01*
X0022714Y0218929D01*
X0021220Y0222535D01*
X0018460Y0225295D01*
X0014854Y0226789D01*
X0010951Y0226789D01*
X0007344Y0225295D01*
X0006600Y0224551D01*
X0006600Y0236961D01*
X0024522Y0236961D01*
X0023482Y0235921D01*
X0021988Y0232315D01*
X0021988Y0228411D01*
X0023482Y0224805D01*
X0026242Y0222045D01*
X0029848Y0220551D01*
X0033752Y0220551D01*
X0037358Y0222045D01*
X0040118Y0224805D01*
X0041612Y0228411D01*
X0041612Y0232315D01*
X0040118Y0235921D01*
X0039078Y0236961D01*
X0081797Y0236961D01*
X0081350Y0235881D01*
X0081350Y0232719D01*
X0082561Y0229797D01*
X0084797Y0227561D01*
X0087719Y0226350D01*
X0090881Y0226350D01*
X0093803Y0227561D01*
X0096039Y0229797D01*
X0097250Y0232719D01*
X0097250Y0235881D01*
X0096802Y0236961D01*
X0181797Y0236961D01*
X0181350Y0235881D01*
X0181350Y0232719D01*
X0182561Y0229797D01*
X0184797Y0227561D01*
X0187719Y0226350D01*
X0190881Y0226350D01*
X0193803Y0227561D01*
X0196039Y0229797D01*
X0197250Y0232719D01*
X0197250Y0235881D01*
X0196802Y0236961D01*
X0253201Y0236961D01*
X0253201Y0006600D01*
X0227877Y0006600D01*
X0228163Y0006994D01*
X0228478Y0007611D01*
X0228692Y0008270D01*
X0228800Y0008954D01*
X0228800Y0009300D01*
X0228800Y0009646D01*
X0228692Y0010330D01*
X0228478Y0010989D01*
X0228163Y0011606D01*
X0227756Y0012166D01*
X0227266Y0012656D01*
X0226706Y0013063D01*
X0226089Y0013378D01*
X0225430Y0013592D01*
X0224746Y0013700D01*
X0221800Y0013700D01*
X0221800Y0009300D01*
X0221800Y0009300D01*
X0228800Y0009300D01*
X0221800Y0009300D01*
X0221800Y0009300D01*
X0221800Y0009300D01*
X0214800Y0009300D01*
X0214800Y0009646D01*
X0214908Y0010330D01*
X0215122Y0010989D01*
X0215437Y0011606D01*
X0215844Y0012166D01*
X0216334Y0012656D01*
X0216894Y0013063D01*
X0217511Y0013378D01*
X0218170Y0013592D01*
X0218854Y0013700D01*
X0221800Y0013700D01*
X0221800Y0009300D01*
X0214800Y0009300D01*
X0214800Y0008954D01*
X0214908Y0008270D01*
X0215122Y0007611D01*
X0215437Y0006994D01*
X0215723Y0006600D01*
X0198585Y0006600D01*
X0199300Y0008325D01*
X0199300Y0010275D01*
X0198554Y0012076D01*
X0197176Y0013454D01*
X0195375Y0014200D01*
X0189739Y0014200D01*
X0190039Y0014400D01*
X0195375Y0014400D01*
X0197176Y0015146D01*
X0198554Y0016524D01*
X0199300Y0018325D01*
X0199300Y0020275D01*
X0198554Y0022076D01*
X0197176Y0023454D01*
X0195375Y0024200D01*
X0190613Y0024200D01*
X0190847Y0024400D01*
X0195375Y0024400D01*
X0197176Y0025146D01*
X0198554Y0026524D01*
X0199300Y0028325D01*
X0199300Y0030275D01*
X0198554Y0032076D01*
X0197176Y0033454D01*
X0195375Y0034200D01*
X0190292Y0034200D01*
X0190549Y0034400D01*
X0195375Y0034400D01*
X0197176Y0035146D01*
X0198554Y0036524D01*
X0199300Y0038325D01*
X0199300Y0040275D01*
X0198554Y0042076D01*
X0197176Y0043454D01*
X0195375Y0044200D01*
X0190292Y0044200D01*
X0190549Y0044400D01*
X0195375Y0044400D01*
X0197176Y0045146D01*
X0198554Y0046524D01*
X0199300Y0048325D01*
X0199300Y0050275D01*
X0198554Y0052076D01*
X0197176Y0053454D01*
X0195375Y0054200D01*
X0190292Y0054200D01*
X0190549Y0054400D01*
X0195375Y0054400D01*
X0197176Y0055146D01*
X0198554Y0056524D01*
X0199300Y0058325D01*
X0199300Y0060275D01*
X0198554Y0062076D01*
X0197176Y0063454D01*
X0195375Y0064200D01*
X0190292Y0064200D01*
X0190549Y0064400D01*
X0195375Y0064400D01*
X0197176Y0065146D01*
X0198554Y0066524D01*
X0199300Y0068325D01*
X0199300Y0070275D01*
X0198554Y0072076D01*
X0197176Y0073454D01*
X0195375Y0074200D01*
X0190167Y0074200D01*
X0190433Y0074400D01*
X0195375Y0074400D01*
X0197176Y0075146D01*
X0198554Y0076524D01*
X0199300Y0078325D01*
X0199300Y0080275D01*
X0198554Y0082076D01*
X0197176Y0083454D01*
X0195375Y0084200D01*
X0188225Y0084200D01*
X0186424Y0083454D01*
X0185046Y0082076D01*
X0184400Y0080516D01*
X0184400Y0083912D01*
X0181512Y0086800D01*
X0184300Y0089588D01*
X0184300Y0088325D01*
X0185046Y0086524D01*
X0186424Y0085146D01*
X0188225Y0084400D01*
X0195375Y0084400D01*
X0197176Y0085146D01*
X0198554Y0086524D01*
X0199300Y0088325D01*
X0199300Y0089920D01*
X0215404Y0098867D01*
X0215558Y0098900D01*
X0215939Y0099164D01*
X0216345Y0099390D01*
X0216442Y0099513D01*
X0216572Y0099602D01*
X0216823Y0099992D01*
X0217111Y0100355D01*
X0217154Y0100507D01*
X0217240Y0100639D01*
X0217323Y0101095D01*
X0217450Y0101541D01*
X0217432Y0101697D01*
X0221388Y0123457D01*
X0223796Y0123457D01*
X0225143Y0124804D01*
X0225143Y0133796D01*
X0223796Y0135143D01*
X0214804Y0135143D01*
X0214343Y0134682D01*
X0214293Y0134802D01*
X0212802Y0136293D01*
X0210854Y0137100D01*
X0202746Y0137100D01*
X0202489Y0136994D01*
X0203793Y0138298D01*
X0204600Y0140246D01*
X0204600Y0148354D01*
X0203793Y0150302D01*
X0202538Y0151557D01*
X0202924Y0151618D01*
X0203643Y0151852D01*
X0204316Y0152195D01*
X0204927Y0152639D01*
X0205461Y0153173D01*
X0205905Y0153784D01*
X0206248Y0154457D01*
X0206482Y0155176D01*
X0206500Y0155291D01*
X0206500Y0155246D01*
X0207307Y0153298D01*
X0208798Y0151807D01*
X0210746Y0151000D01*
X0212854Y0151000D01*
X0214802Y0151807D01*
X0216293Y0153298D01*
X0217100Y0155246D01*
X0217100Y0163354D01*
X0216293Y0165302D01*
X0215395Y0166200D01*
X0221200Y0166200D01*
X0221200Y0165143D01*
X0219804Y0165143D01*
X0218457Y0163796D01*
X0218457Y0154804D01*
X0219804Y0153457D01*
X0228796Y0153457D01*
X0230143Y0154804D01*
X0230143Y0163796D01*
X0228796Y0165143D01*
X0227400Y0165143D01*
X0227400Y0169917D01*
X0226928Y0171056D01*
X0226784Y0171200D01*
X0233700Y0171200D01*
X0233700Y0166620D01*
X0231200Y0164120D01*
X0231200Y0159480D01*
X0234480Y0156200D01*
X0239120Y0156200D01*
X0242400Y0159480D01*
X0242400Y0164120D01*
X0239900Y0166620D01*
X0239900Y0174917D01*
X0239428Y0176056D01*
X0238556Y0176928D01*
X0237417Y0177400D01*
X0208183Y0177400D01*
X0209254Y0178470D01*
X0210143Y0180618D01*
X0210143Y0182943D01*
X0209254Y0185090D01*
X0207610Y0186734D01*
X0205462Y0187624D01*
X0203138Y0187624D01*
X0200990Y0186734D01*
X0199346Y0185090D01*
X0199267Y0184900D01*
X0132400Y0184900D01*
X0132400Y0187417D01*
X0131928Y0188556D01*
X0131784Y0188700D01*
X0219917Y0188700D01*
X0221056Y0189172D01*
X0221928Y0190044D01*
X0222049Y0190335D01*
X0223279Y0190845D01*
X0225255Y0192821D01*
X0226324Y0195403D01*
X0226324Y0198197D01*
X0225255Y0200779D01*
X0223279Y0202755D01*
X0220697Y0203824D01*
X0220881Y0206350D02*
X0217719Y0206350D01*
X0214797Y0207561D01*
X0212561Y0209797D01*
X0211350Y0212719D01*
X0211350Y0215881D01*
X0212561Y0218803D01*
X0214797Y0221039D01*
X0217719Y0222250D01*
X0220881Y0222250D01*
X0223803Y0221039D01*
X0226039Y0218803D01*
X0227250Y0215881D01*
X0227250Y0212719D01*
X0226039Y0209797D01*
X0223803Y0207561D01*
X0220881Y0206350D01*
X0221338Y0206539D02*
X0253201Y0206539D01*
X0253201Y0204941D02*
X0193593Y0204941D01*
X0195192Y0203342D02*
X0216739Y0203342D01*
X0214310Y0201744D02*
X0195891Y0201744D01*
X0196324Y0200145D02*
X0213083Y0200145D01*
X0212420Y0198547D02*
X0196324Y0198547D01*
X0195929Y0196948D02*
X0212276Y0196948D01*
X0212297Y0195350D02*
X0195267Y0195350D01*
X0202495Y0187357D02*
X0132400Y0187357D01*
X0132400Y0185759D02*
X0200015Y0185759D01*
X0204300Y0181800D02*
X0129300Y0181800D01*
X0129300Y0186800D01*
X0104300Y0186800D01*
X0104300Y0179300D01*
X0104300Y0176800D01*
X0114300Y0171800D01*
X0114300Y0161800D01*
X0118702Y0166577D02*
X0119898Y0166577D01*
X0120146Y0167176D02*
X0119400Y0165375D01*
X0119400Y0158225D01*
X0120146Y0156424D01*
X0121524Y0155046D01*
X0123325Y0154300D01*
X0125275Y0154300D01*
X0127076Y0155046D01*
X0128454Y0156424D01*
X0129200Y0158225D01*
X0129200Y0165375D01*
X0128454Y0167176D01*
X0127076Y0168554D01*
X0125275Y0169300D01*
X0123325Y0169300D01*
X0121524Y0168554D01*
X0120146Y0167176D01*
X0121146Y0168175D02*
X0117454Y0168175D01*
X0117400Y0169774D02*
X0136200Y0169774D01*
X0136200Y0171372D02*
X0117400Y0171372D01*
X0122375Y0172971D02*
X0136200Y0172971D01*
X0136200Y0174569D02*
X0124503Y0174569D01*
X0125606Y0176168D02*
X0136200Y0176168D01*
X0136345Y0177766D02*
X0126268Y0177766D01*
X0126324Y0179365D02*
X0127351Y0179365D01*
X0126291Y0180963D02*
X0126214Y0180963D01*
X0126200Y0182562D02*
X0125552Y0182562D01*
X0127454Y0168175D02*
X0136200Y0168175D01*
X0136200Y0166577D02*
X0128702Y0166577D01*
X0129200Y0164978D02*
X0136200Y0164978D01*
X0136200Y0163380D02*
X0129200Y0163380D01*
X0129200Y0161781D02*
X0136200Y0161781D01*
X0136200Y0160183D02*
X0129200Y0160183D01*
X0129200Y0158584D02*
X0136200Y0158584D01*
X0136200Y0156986D02*
X0128686Y0156986D01*
X0127417Y0155387D02*
X0133357Y0155387D01*
X0132220Y0153789D02*
X0029100Y0153789D01*
X0029100Y0155387D02*
X0092091Y0155387D01*
X0091994Y0155437D02*
X0092611Y0155122D01*
X0093270Y0154908D01*
X0093954Y0154800D01*
X0094300Y0154800D01*
X0094646Y0154800D01*
X0095330Y0154908D01*
X0095989Y0155122D01*
X0096606Y0155437D01*
X0097166Y0155844D01*
X0097656Y0156334D01*
X0098063Y0156894D01*
X0098378Y0157511D01*
X0098592Y0158170D01*
X0098700Y0158854D01*
X0098700Y0161800D01*
X0098700Y0164746D01*
X0098592Y0165430D01*
X0098378Y0166089D01*
X0098063Y0166706D01*
X0097656Y0167266D01*
X0097166Y0167756D01*
X0096606Y0168163D01*
X0095989Y0168478D01*
X0095330Y0168692D01*
X0094646Y0168800D01*
X0094300Y0168800D01*
X0094300Y0161800D01*
X0098700Y0161800D01*
X0094300Y0161800D01*
X0094300Y0161800D01*
X0094300Y0161800D01*
X0094300Y0154800D01*
X0094300Y0161800D01*
X0094300Y0161800D01*
X0094300Y0161800D01*
X0089900Y0161800D01*
X0089900Y0163395D01*
X0088705Y0162200D01*
X0086800Y0162200D01*
X0086800Y0166800D01*
X0086800Y0166800D01*
X0086800Y0171400D01*
X0088705Y0171400D01*
X0091400Y0168705D01*
X0091400Y0167723D01*
X0091434Y0167756D01*
X0091994Y0168163D01*
X0092611Y0168478D01*
X0093270Y0168692D01*
X0093954Y0168800D01*
X0094300Y0168800D01*
X0094300Y0161800D01*
X0089900Y0161800D01*
X0089900Y0158854D01*
X0090008Y0158170D01*
X0090222Y0157511D01*
X0090537Y0156894D01*
X0090944Y0156334D01*
X0091434Y0155844D01*
X0091994Y0155437D01*
X0090490Y0156986D02*
X0029100Y0156986D01*
X0029100Y0158584D02*
X0037728Y0158584D01*
X0037639Y0158673D02*
X0038173Y0158139D01*
X0038784Y0157695D01*
X0039457Y0157352D01*
X0040176Y0157118D01*
X0040922Y0157000D01*
X0044100Y0157000D01*
X0044100Y0161600D01*
X0036500Y0161600D01*
X0036500Y0161422D01*
X0036618Y0160676D01*
X0036852Y0159957D01*
X0037195Y0159284D01*
X0037639Y0158673D01*
X0036778Y0160183D02*
X0029100Y0160183D01*
X0029100Y0161781D02*
X0044100Y0161781D01*
X0044500Y0161781D02*
X0074606Y0161781D01*
X0074688Y0161700D02*
X0078912Y0161700D01*
X0081900Y0164688D01*
X0081900Y0168912D01*
X0078912Y0171900D01*
X0074688Y0171900D01*
X0071700Y0168912D01*
X0071700Y0164688D01*
X0074688Y0161700D01*
X0073008Y0163380D02*
X0051834Y0163380D01*
X0052100Y0161600D02*
X0044500Y0161600D01*
X0044500Y0157000D01*
X0047678Y0157000D01*
X0048424Y0157118D01*
X0049143Y0157352D01*
X0049816Y0157695D01*
X0050427Y0158139D01*
X0050961Y0158673D01*
X0051405Y0159284D01*
X0051748Y0159957D01*
X0051982Y0160676D01*
X0052100Y0161422D01*
X0052100Y0161600D01*
X0051821Y0160183D02*
X0089900Y0160183D01*
X0089900Y0161781D02*
X0078994Y0161781D01*
X0080592Y0163380D02*
X0083715Y0163380D01*
X0084895Y0162200D02*
X0086800Y0162200D01*
X0086800Y0166800D01*
X0086800Y0166800D01*
X0086800Y0166800D01*
X0082200Y0166800D01*
X0082200Y0168705D01*
X0084895Y0171400D01*
X0086800Y0171400D01*
X0086800Y0166800D01*
X0082200Y0166800D01*
X0082200Y0164895D01*
X0084895Y0162200D01*
X0086800Y0163380D02*
X0086800Y0163380D01*
X0086800Y0164978D02*
X0086800Y0164978D01*
X0086800Y0166577D02*
X0086800Y0166577D01*
X0086800Y0168175D02*
X0086800Y0168175D01*
X0086800Y0169774D02*
X0086800Y0169774D01*
X0086800Y0171372D02*
X0086800Y0171372D01*
X0086224Y0172971D02*
X0052552Y0172971D01*
X0052600Y0171372D02*
X0074160Y0171372D01*
X0072561Y0169774D02*
X0052197Y0169774D01*
X0051171Y0168175D02*
X0071700Y0168175D01*
X0071700Y0166577D02*
X0048539Y0166577D01*
X0050910Y0164978D02*
X0071700Y0164978D01*
X0079440Y0171372D02*
X0084867Y0171372D01*
X0083268Y0169774D02*
X0081039Y0169774D01*
X0081900Y0168175D02*
X0082200Y0168175D01*
X0082200Y0166577D02*
X0081900Y0166577D01*
X0081900Y0164978D02*
X0082200Y0164978D01*
X0089885Y0163380D02*
X0089900Y0163380D01*
X0089943Y0158584D02*
X0050872Y0158584D01*
X0044500Y0158584D02*
X0044100Y0158584D01*
X0044100Y0160183D02*
X0044500Y0160183D01*
X0040061Y0166577D02*
X0029100Y0166577D01*
X0029100Y0168175D02*
X0037429Y0168175D01*
X0036403Y0169774D02*
X0029100Y0169774D01*
X0029100Y0171372D02*
X0036000Y0171372D01*
X0036048Y0172971D02*
X0029100Y0172971D01*
X0029100Y0164978D02*
X0037690Y0164978D01*
X0036766Y0163380D02*
X0029100Y0163380D01*
X0029100Y0152190D02*
X0131800Y0152190D01*
X0131897Y0150592D02*
X0085687Y0150592D01*
X0085935Y0150489D02*
X0083252Y0151600D01*
X0062848Y0151600D01*
X0060165Y0150489D01*
X0058111Y0148435D01*
X0057000Y0145752D01*
X0057000Y0131918D01*
X0055354Y0132600D01*
X0053246Y0132600D01*
X0051298Y0131793D01*
X0049807Y0130302D01*
X0049000Y0128354D01*
X0049000Y0120246D01*
X0049807Y0118298D01*
X0051298Y0116807D01*
X0053246Y0116000D01*
X0055354Y0116000D01*
X0057302Y0116807D01*
X0058793Y0118298D01*
X0059140Y0119136D01*
X0059686Y0118591D01*
X0059807Y0118298D01*
X0061298Y0116807D01*
X0063246Y0116000D01*
X0065354Y0116000D01*
X0067302Y0116807D01*
X0068793Y0118298D01*
X0068914Y0118591D01*
X0069460Y0119136D01*
X0069807Y0118298D01*
X0071298Y0116807D01*
X0073246Y0116000D01*
X0075354Y0116000D01*
X0077302Y0116807D01*
X0077356Y0116860D01*
X0079530Y0114686D01*
X0079862Y0114303D01*
X0079964Y0114252D01*
X0080044Y0114172D01*
X0080512Y0113978D01*
X0081200Y0113634D01*
X0081200Y0111980D01*
X0084480Y0108700D01*
X0089120Y0108700D01*
X0092400Y0111980D01*
X0092400Y0116620D01*
X0089120Y0119900D01*
X0084480Y0119900D01*
X0083831Y0119250D01*
X0083636Y0119348D01*
X0079600Y0123384D01*
X0079600Y0128354D01*
X0078793Y0130302D01*
X0077302Y0131793D01*
X0075354Y0132600D01*
X0073246Y0132600D01*
X0071600Y0131918D01*
X0071600Y0137000D01*
X0083252Y0137000D01*
X0085935Y0138111D01*
X0087989Y0140165D01*
X0089100Y0142848D01*
X0089100Y0145752D01*
X0087989Y0148435D01*
X0085935Y0150489D01*
X0087431Y0148993D02*
X0132577Y0148993D01*
X0134531Y0147395D02*
X0088420Y0147395D01*
X0089082Y0145796D02*
X0133766Y0145796D01*
X0133924Y0145954D02*
X0132870Y0144900D01*
X0093683Y0144900D01*
X0092544Y0144428D01*
X0091672Y0143556D01*
X0091200Y0142417D01*
X0091200Y0138230D01*
X0090146Y0137176D01*
X0089400Y0135375D01*
X0089400Y0128225D01*
X0090146Y0126424D01*
X0091524Y0125046D01*
X0093325Y0124300D01*
X0095275Y0124300D01*
X0097076Y0125046D01*
X0098454Y0126424D01*
X0099200Y0128225D01*
X0099200Y0135375D01*
X0098454Y0137176D01*
X0097400Y0138230D01*
X0097400Y0138700D01*
X0101877Y0138700D01*
X0101524Y0138554D01*
X0100146Y0137176D01*
X0099400Y0135375D01*
X0099400Y0128225D01*
X0100146Y0126424D01*
X0101524Y0125046D01*
X0103325Y0124300D01*
X0105275Y0124300D01*
X0107076Y0125046D01*
X0108454Y0126424D01*
X0109200Y0128225D01*
X0109200Y0128700D01*
X0109400Y0128700D01*
X0109400Y0128225D01*
X0110146Y0126424D01*
X0111200Y0125370D01*
X0111200Y0121183D01*
X0111672Y0120044D01*
X0112544Y0119172D01*
X0113683Y0118700D01*
X0123280Y0118700D01*
X0121200Y0116620D01*
X0121200Y0111980D01*
X0124480Y0108700D01*
X0129120Y0108700D01*
X0130765Y0110346D01*
X0132110Y0110077D01*
X0132546Y0109024D01*
X0133924Y0107646D01*
X0135725Y0106900D01*
X0142875Y0106900D01*
X0144676Y0107646D01*
X0146054Y0109024D01*
X0146800Y0110825D01*
X0146800Y0112775D01*
X0146054Y0114576D01*
X0144676Y0115954D01*
X0142875Y0116700D01*
X0135725Y0116700D01*
X0134059Y0116010D01*
X0132400Y0116341D01*
X0132400Y0116620D01*
X0130320Y0118700D01*
X0132870Y0118700D01*
X0133924Y0117646D01*
X0135725Y0116900D01*
X0142875Y0116900D01*
X0144676Y0117646D01*
X0146054Y0119024D01*
X0146800Y0120825D01*
X0146800Y0122775D01*
X0146054Y0124576D01*
X0144676Y0125954D01*
X0142875Y0126700D01*
X0135725Y0126700D01*
X0133924Y0125954D01*
X0132870Y0124900D01*
X0126723Y0124900D01*
X0127076Y0125046D01*
X0128454Y0126424D01*
X0129200Y0128225D01*
X0129200Y0128700D01*
X0132870Y0128700D01*
X0133924Y0127646D01*
X0135725Y0126900D01*
X0142875Y0126900D01*
X0144676Y0127646D01*
X0146054Y0129024D01*
X0146800Y0130825D01*
X0146800Y0132775D01*
X0146054Y0134576D01*
X0144676Y0135954D01*
X0142875Y0136700D01*
X0135725Y0136700D01*
X0133924Y0135954D01*
X0132870Y0134900D01*
X0129200Y0134900D01*
X0129200Y0135375D01*
X0128454Y0137176D01*
X0127076Y0138554D01*
X0126723Y0138700D01*
X0132870Y0138700D01*
X0133924Y0137646D01*
X0135725Y0136900D01*
X0142875Y0136900D01*
X0144676Y0137646D01*
X0146054Y0139024D01*
X0146800Y0140825D01*
X0146800Y0142775D01*
X0146054Y0144576D01*
X0144676Y0145954D01*
X0142875Y0146700D01*
X0135725Y0146700D01*
X0133924Y0145954D01*
X0139300Y0141800D02*
X0094300Y0141800D01*
X0094300Y0131800D01*
X0099200Y0131409D02*
X0099400Y0131409D01*
X0099400Y0129811D02*
X0099200Y0129811D01*
X0099195Y0128212D02*
X0099405Y0128212D01*
X0100067Y0126614D02*
X0098533Y0126614D01*
X0097002Y0125015D02*
X0101598Y0125015D01*
X0107002Y0125015D02*
X0111200Y0125015D01*
X0111200Y0123417D02*
X0079600Y0123417D01*
X0079600Y0125015D02*
X0091598Y0125015D01*
X0090067Y0126614D02*
X0079600Y0126614D01*
X0079600Y0128212D02*
X0089405Y0128212D01*
X0089400Y0129811D02*
X0078997Y0129811D01*
X0077686Y0131409D02*
X0089400Y0131409D01*
X0089400Y0133008D02*
X0071600Y0133008D01*
X0071600Y0134606D02*
X0089400Y0134606D01*
X0089744Y0136205D02*
X0071600Y0136205D01*
X0074300Y0124300D02*
X0081800Y0116800D01*
X0086800Y0114300D01*
X0090398Y0118621D02*
X0123202Y0118621D01*
X0121603Y0117023D02*
X0091997Y0117023D01*
X0092400Y0115424D02*
X0121200Y0115424D01*
X0121200Y0113826D02*
X0092400Y0113826D01*
X0092400Y0112227D02*
X0121200Y0112227D01*
X0122552Y0110629D02*
X0091048Y0110629D01*
X0089450Y0109030D02*
X0124150Y0109030D01*
X0129450Y0109030D02*
X0132544Y0109030D01*
X0134441Y0107432D02*
X0084200Y0107432D01*
X0084200Y0106284D02*
X0084200Y0108830D01*
X0081330Y0111700D01*
X0077270Y0111700D01*
X0074400Y0108830D01*
X0074400Y0104770D01*
X0077270Y0101900D01*
X0079816Y0101900D01*
X0080016Y0101700D01*
X0077270Y0101700D01*
X0074400Y0098830D01*
X0074400Y0094770D01*
X0077270Y0091900D01*
X0080463Y0091900D01*
X0089490Y0084678D01*
X0089567Y0084563D01*
X0089969Y0084295D01*
X0090345Y0083994D01*
X0090478Y0083956D01*
X0096200Y0080141D01*
X0096200Y0076130D01*
X0095146Y0075076D01*
X0094400Y0073275D01*
X0094400Y0071325D01*
X0095146Y0069524D01*
X0096200Y0068470D01*
X0096200Y0061183D01*
X0096672Y0060044D01*
X0097544Y0059172D01*
X0098683Y0058700D01*
X0109480Y0058700D01*
X0111980Y0056200D01*
X0116620Y0056200D01*
X0119120Y0058700D01*
X0132870Y0058700D01*
X0133924Y0057646D01*
X0135725Y0056900D01*
X0142875Y0056900D01*
X0144676Y0057646D01*
X0146054Y0059024D01*
X0146800Y0060825D01*
X0146800Y0062775D01*
X0146054Y0064576D01*
X0144676Y0065954D01*
X0142875Y0066700D01*
X0135725Y0066700D01*
X0133924Y0065954D01*
X0132870Y0064900D01*
X0119120Y0064900D01*
X0116620Y0067400D01*
X0111980Y0067400D01*
X0109480Y0064900D01*
X0102400Y0064900D01*
X0102400Y0068470D01*
X0103454Y0069524D01*
X0104200Y0071325D01*
X0104200Y0073275D01*
X0103454Y0075076D01*
X0102400Y0076130D01*
X0102400Y0081496D01*
X0102461Y0081803D01*
X0102400Y0082107D01*
X0102400Y0082417D01*
X0102280Y0082706D01*
X0102219Y0083013D01*
X0102047Y0083270D01*
X0101928Y0083556D01*
X0101707Y0083777D01*
X0101533Y0084037D01*
X0101275Y0084209D01*
X0101056Y0084428D01*
X0100767Y0084548D01*
X0097436Y0086768D01*
X0098325Y0086400D01*
X0100275Y0086400D01*
X0102076Y0087146D01*
X0103454Y0088524D01*
X0104200Y0090325D01*
X0104200Y0092275D01*
X0103454Y0094076D01*
X0102400Y0095130D01*
X0102400Y0098700D01*
X0109480Y0098700D01*
X0111200Y0096980D01*
X0111200Y0071183D01*
X0111672Y0070044D01*
X0112544Y0069172D01*
X0113683Y0068700D01*
X0132870Y0068700D01*
X0133924Y0067646D01*
X0135725Y0066900D01*
X0142875Y0066900D01*
X0144676Y0067646D01*
X0146054Y0069024D01*
X0146800Y0070825D01*
X0146800Y0072775D01*
X0146054Y0074576D01*
X0144676Y0075954D01*
X0142875Y0076700D01*
X0135725Y0076700D01*
X0133924Y0075954D01*
X0132870Y0074900D01*
X0117400Y0074900D01*
X0117400Y0096980D01*
X0119900Y0099480D01*
X0119900Y0104120D01*
X0116620Y0107400D01*
X0111980Y0107400D01*
X0109480Y0104900D01*
X0085584Y0104900D01*
X0084200Y0106284D01*
X0084651Y0105833D02*
X0110414Y0105833D01*
X0114300Y0101800D02*
X0099300Y0101800D01*
X0099300Y0091800D01*
X0102886Y0094644D02*
X0111200Y0094644D01*
X0111200Y0096242D02*
X0102400Y0096242D01*
X0102400Y0097841D02*
X0110340Y0097841D01*
X0111200Y0093045D02*
X0103881Y0093045D01*
X0104200Y0091447D02*
X0111200Y0091447D01*
X0111200Y0089848D02*
X0104002Y0089848D01*
X0103179Y0088250D02*
X0111200Y0088250D01*
X0111200Y0086651D02*
X0100881Y0086651D01*
X0100010Y0085053D02*
X0111200Y0085053D01*
X0111200Y0083454D02*
X0101970Y0083454D01*
X0102450Y0081856D02*
X0111200Y0081856D01*
X0111200Y0080257D02*
X0102400Y0080257D01*
X0102400Y0078659D02*
X0111200Y0078659D01*
X0111200Y0077060D02*
X0102400Y0077060D01*
X0103068Y0075462D02*
X0111200Y0075462D01*
X0111200Y0073863D02*
X0103956Y0073863D01*
X0104200Y0072265D02*
X0111200Y0072265D01*
X0111414Y0070666D02*
X0103927Y0070666D01*
X0102997Y0069068D02*
X0112796Y0069068D01*
X0114300Y0071800D02*
X0114300Y0101800D01*
X0118260Y0097841D02*
X0133730Y0097841D01*
X0132374Y0099439D02*
X0119859Y0099439D01*
X0119900Y0101038D02*
X0131800Y0101038D01*
X0131800Y0102636D02*
X0119900Y0102636D01*
X0119785Y0104235D02*
X0132405Y0104235D01*
X0133804Y0105833D02*
X0118186Y0105833D01*
X0126800Y0114300D02*
X0139300Y0111800D01*
X0143171Y0117023D02*
X0148700Y0117023D01*
X0148700Y0118621D02*
X0145651Y0118621D01*
X0146549Y0120220D02*
X0148700Y0120220D01*
X0148700Y0121818D02*
X0146800Y0121818D01*
X0146534Y0123417D02*
X0148700Y0123417D01*
X0148700Y0125015D02*
X0145614Y0125015D01*
X0143082Y0126614D02*
X0148700Y0126614D01*
X0148700Y0128212D02*
X0145242Y0128212D01*
X0146380Y0129811D02*
X0148700Y0129811D01*
X0148700Y0131409D02*
X0146800Y0131409D01*
X0146703Y0133008D02*
X0148700Y0133008D01*
X0148700Y0134606D02*
X0146023Y0134606D01*
X0144070Y0136205D02*
X0148700Y0136205D01*
X0148700Y0137803D02*
X0144833Y0137803D01*
X0146210Y0139402D02*
X0148700Y0139402D01*
X0148700Y0141001D02*
X0146800Y0141001D01*
X0146800Y0142599D02*
X0148700Y0142599D01*
X0148700Y0144198D02*
X0146211Y0144198D01*
X0144834Y0145796D02*
X0148700Y0145796D01*
X0148700Y0147395D02*
X0144069Y0147395D01*
X0146023Y0148993D02*
X0148700Y0148993D01*
X0148700Y0150592D02*
X0146703Y0150592D01*
X0146800Y0152190D02*
X0148700Y0152190D01*
X0148700Y0153789D02*
X0146380Y0153789D01*
X0145243Y0155387D02*
X0148700Y0155387D01*
X0148700Y0156986D02*
X0142400Y0156986D01*
X0142400Y0158584D02*
X0148700Y0158584D01*
X0148700Y0160183D02*
X0142400Y0160183D01*
X0142400Y0161781D02*
X0148700Y0161781D01*
X0148700Y0163380D02*
X0142400Y0163380D01*
X0142400Y0164978D02*
X0148700Y0164978D01*
X0148700Y0166577D02*
X0142400Y0166577D01*
X0142400Y0168175D02*
X0148700Y0168175D01*
X0148700Y0169774D02*
X0142400Y0169774D01*
X0142400Y0171372D02*
X0148700Y0171372D01*
X0148930Y0172971D02*
X0142400Y0172971D01*
X0139300Y0176800D02*
X0171800Y0176800D01*
X0171800Y0174300D01*
X0236800Y0174300D01*
X0236800Y0161800D01*
X0233657Y0166577D02*
X0227400Y0166577D01*
X0227400Y0168175D02*
X0233700Y0168175D01*
X0233700Y0169774D02*
X0227400Y0169774D01*
X0224300Y0169300D02*
X0224300Y0159300D01*
X0230143Y0158584D02*
X0232096Y0158584D01*
X0231200Y0160183D02*
X0230143Y0160183D01*
X0230143Y0161781D02*
X0231200Y0161781D01*
X0231200Y0163380D02*
X0230143Y0163380D01*
X0228961Y0164978D02*
X0232059Y0164978D01*
X0239943Y0166577D02*
X0253201Y0166577D01*
X0253201Y0168175D02*
X0239900Y0168175D01*
X0239900Y0169774D02*
X0253201Y0169774D01*
X0253201Y0171372D02*
X0239900Y0171372D01*
X0239900Y0172971D02*
X0253201Y0172971D01*
X0253201Y0174569D02*
X0239900Y0174569D01*
X0239316Y0176168D02*
X0253201Y0176168D01*
X0253201Y0177766D02*
X0208550Y0177766D01*
X0209624Y0179365D02*
X0253201Y0179365D01*
X0253201Y0180963D02*
X0210143Y0180963D01*
X0210143Y0182562D02*
X0253201Y0182562D01*
X0253201Y0184160D02*
X0209639Y0184160D01*
X0208585Y0185759D02*
X0253201Y0185759D01*
X0253201Y0187357D02*
X0206105Y0187357D01*
X0220534Y0188956D02*
X0253201Y0188956D01*
X0253201Y0190554D02*
X0222577Y0190554D01*
X0224587Y0192153D02*
X0253201Y0192153D01*
X0253201Y0193751D02*
X0225640Y0193751D01*
X0226302Y0195350D02*
X0253201Y0195350D01*
X0253201Y0196948D02*
X0226324Y0196948D01*
X0226180Y0198547D02*
X0253201Y0198547D01*
X0253201Y0200145D02*
X0225517Y0200145D01*
X0224380Y0208138D02*
X0253201Y0208138D01*
X0253201Y0209737D02*
X0225979Y0209737D01*
X0226676Y0211335D02*
X0253201Y0211335D01*
X0253201Y0212934D02*
X0227250Y0212934D01*
X0227250Y0214532D02*
X0253201Y0214532D01*
X0253201Y0216131D02*
X0227146Y0216131D01*
X0226484Y0217729D02*
X0253201Y0217729D01*
X0253201Y0219328D02*
X0225515Y0219328D01*
X0223916Y0220926D02*
X0253201Y0220926D01*
X0253201Y0222525D02*
X0177663Y0222525D01*
X0177663Y0222982D02*
X0176773Y0225130D01*
X0175130Y0226773D01*
X0172982Y0227663D01*
X0170657Y0227663D01*
X0168510Y0226773D01*
X0166866Y0225130D01*
X0165976Y0222982D01*
X0165976Y0220657D01*
X0166866Y0218510D01*
X0168510Y0216866D01*
X0170657Y0215976D01*
X0172982Y0215976D01*
X0175130Y0216866D01*
X0176773Y0218510D01*
X0177663Y0220657D01*
X0177663Y0222982D01*
X0177190Y0224123D02*
X0253201Y0224123D01*
X0253201Y0225722D02*
X0176181Y0225722D01*
X0173810Y0227320D02*
X0185378Y0227320D01*
X0183439Y0228919D02*
X0095161Y0228919D01*
X0096338Y0230517D02*
X0182262Y0230517D01*
X0181600Y0232116D02*
X0097000Y0232116D01*
X0097250Y0233714D02*
X0181350Y0233714D01*
X0181350Y0235313D02*
X0097250Y0235313D01*
X0096823Y0236911D02*
X0181777Y0236911D01*
X0193222Y0227320D02*
X0253201Y0227320D01*
X0253201Y0228919D02*
X0195161Y0228919D01*
X0196338Y0230517D02*
X0253201Y0230517D01*
X0253201Y0232116D02*
X0197000Y0232116D01*
X0197250Y0233714D02*
X0253201Y0233714D01*
X0253201Y0235313D02*
X0197250Y0235313D01*
X0196823Y0236911D02*
X0253201Y0236911D01*
X0217262Y0206539D02*
X0121338Y0206539D01*
X0120881Y0206350D02*
X0123803Y0207561D01*
X0126039Y0209797D01*
X0127250Y0212719D01*
X0127250Y0215881D01*
X0126039Y0218803D01*
X0123803Y0221039D01*
X0120881Y0222250D01*
X0117719Y0222250D01*
X0114797Y0221039D01*
X0112561Y0218803D01*
X0111350Y0215881D01*
X0111350Y0212719D01*
X0112561Y0209797D01*
X0114797Y0207561D01*
X0117719Y0206350D01*
X0120881Y0206350D01*
X0117262Y0206539D02*
X0032600Y0206539D01*
X0032600Y0206557D02*
X0041873Y0206557D01*
X0041772Y0207451D01*
X0041520Y0208557D01*
X0041145Y0209628D01*
X0040653Y0210650D01*
X0040049Y0211610D01*
X0039342Y0212497D01*
X0038540Y0213299D01*
X0037653Y0214006D01*
X0036693Y0214610D01*
X0035671Y0215102D01*
X0034600Y0215476D01*
X0033494Y0215729D01*
X0032600Y0215830D01*
X0032600Y0206557D01*
X0031000Y0206557D01*
X0031000Y0215830D01*
X0030106Y0215729D01*
X0029000Y0215476D01*
X0027929Y0215102D01*
X0026907Y0214610D01*
X0025947Y0214006D01*
X0025060Y0213299D01*
X0024258Y0212497D01*
X0023550Y0211610D01*
X0022947Y0210650D01*
X0022455Y0209628D01*
X0022080Y0208557D01*
X0021828Y0207451D01*
X0021727Y0206557D01*
X0031000Y0206557D01*
X0031000Y0204957D01*
X0021727Y0204957D01*
X0021828Y0204062D01*
X0022080Y0202956D01*
X0022455Y0201886D01*
X0022947Y0200864D01*
X0023550Y0199903D01*
X0024258Y0199017D01*
X0025060Y0198214D01*
X0025947Y0197507D01*
X0026907Y0196904D01*
X0027929Y0196412D01*
X0029000Y0196037D01*
X0030106Y0195784D01*
X0031000Y0195684D01*
X0031000Y0204957D01*
X0032600Y0204957D01*
X0032600Y0206557D01*
X0032600Y0208138D02*
X0031000Y0208138D01*
X0031000Y0209737D02*
X0032600Y0209737D01*
X0032600Y0211335D02*
X0031000Y0211335D01*
X0031000Y0212934D02*
X0032600Y0212934D01*
X0032600Y0214532D02*
X0031000Y0214532D01*
X0026784Y0214532D02*
X0022510Y0214532D01*
X0022714Y0216131D02*
X0111454Y0216131D01*
X0111350Y0214532D02*
X0036816Y0214532D01*
X0038906Y0212934D02*
X0111350Y0212934D01*
X0111924Y0211335D02*
X0040222Y0211335D01*
X0041093Y0209737D02*
X0112621Y0209737D01*
X0114220Y0208138D02*
X0041615Y0208138D01*
X0041873Y0204957D02*
X0032600Y0204957D01*
X0032600Y0195684D01*
X0033494Y0195784D01*
X0034600Y0196037D01*
X0035671Y0196412D01*
X0036693Y0196904D01*
X0037653Y0197507D01*
X0038540Y0198214D01*
X0039342Y0199017D01*
X0040049Y0199903D01*
X0040653Y0200864D01*
X0041145Y0201886D01*
X0041520Y0202956D01*
X0041772Y0204062D01*
X0041873Y0204957D01*
X0041871Y0204941D02*
X0102649Y0204941D01*
X0100079Y0203342D02*
X0041608Y0203342D01*
X0041077Y0201744D02*
X0098988Y0201744D01*
X0098457Y0200145D02*
X0040202Y0200145D01*
X0038873Y0198547D02*
X0098457Y0198547D01*
X0098949Y0196948D02*
X0048720Y0196948D01*
X0051245Y0195350D02*
X0099986Y0195350D01*
X0101200Y0187357D02*
X0092400Y0187357D01*
X0092400Y0185759D02*
X0101200Y0185759D01*
X0100897Y0184160D02*
X0094374Y0184160D01*
X0095552Y0182562D02*
X0099326Y0182562D01*
X0098664Y0180963D02*
X0096214Y0180963D01*
X0096324Y0179365D02*
X0098457Y0179365D01*
X0098611Y0177766D02*
X0096268Y0177766D01*
X0095837Y0176168D02*
X0099273Y0176168D01*
X0098235Y0174569D02*
X0100767Y0174569D01*
X0100632Y0172971D02*
X0105027Y0172971D01*
X0103030Y0171372D02*
X0108224Y0171372D01*
X0105428Y0169774D02*
X0111200Y0169774D01*
X0111146Y0168175D02*
X0107454Y0168175D01*
X0108702Y0166577D02*
X0109898Y0166577D01*
X0109400Y0164978D02*
X0109200Y0164978D01*
X0109200Y0163380D02*
X0109400Y0163380D01*
X0109400Y0161781D02*
X0109200Y0161781D01*
X0109200Y0160183D02*
X0109400Y0160183D01*
X0109400Y0158584D02*
X0109200Y0158584D01*
X0108686Y0156986D02*
X0109913Y0156986D01*
X0111183Y0155387D02*
X0107417Y0155387D01*
X0101183Y0155387D02*
X0096509Y0155387D01*
X0094300Y0155387D02*
X0094300Y0155387D01*
X0094300Y0156986D02*
X0094300Y0156986D01*
X0094300Y0158584D02*
X0094300Y0158584D01*
X0094300Y0160183D02*
X0094300Y0160183D01*
X0094300Y0161781D02*
X0094300Y0161781D01*
X0094300Y0163380D02*
X0094300Y0163380D01*
X0094300Y0164978D02*
X0094300Y0164978D01*
X0094300Y0166577D02*
X0094300Y0166577D01*
X0094300Y0168175D02*
X0094300Y0168175D01*
X0094251Y0169774D02*
X0090332Y0169774D01*
X0091400Y0168175D02*
X0092017Y0168175D01*
X0091853Y0171372D02*
X0088733Y0171372D01*
X0089300Y0176800D02*
X0089300Y0179300D01*
X0089300Y0176800D02*
X0104300Y0166800D01*
X0104300Y0161800D01*
X0099400Y0161781D02*
X0098700Y0161781D01*
X0098700Y0160183D02*
X0099400Y0160183D01*
X0099400Y0158584D02*
X0098657Y0158584D01*
X0098110Y0156986D02*
X0099913Y0156986D01*
X0099400Y0163380D02*
X0098700Y0163380D01*
X0098663Y0164978D02*
X0099400Y0164978D01*
X0099046Y0166577D02*
X0098129Y0166577D01*
X0096649Y0168175D02*
X0096583Y0168175D01*
X0084097Y0174569D02*
X0051890Y0174569D01*
X0050428Y0176168D02*
X0082994Y0176168D01*
X0082332Y0177766D02*
X0050762Y0177766D01*
X0052028Y0179365D02*
X0082276Y0179365D01*
X0082386Y0180963D02*
X0052600Y0180963D01*
X0052600Y0182562D02*
X0083048Y0182562D01*
X0084226Y0184160D02*
X0052059Y0184160D01*
X0050836Y0185759D02*
X0086200Y0185759D01*
X0086200Y0187357D02*
X0050353Y0187357D01*
X0051859Y0188956D02*
X0086200Y0188956D01*
X0086200Y0190554D02*
X0052521Y0190554D01*
X0052600Y0192153D02*
X0086200Y0192153D01*
X0086867Y0193751D02*
X0052228Y0193751D01*
X0039880Y0196948D02*
X0036764Y0196948D01*
X0037355Y0195350D02*
X0006600Y0195350D01*
X0006600Y0196948D02*
X0026836Y0196948D01*
X0024727Y0198547D02*
X0006600Y0198547D01*
X0006600Y0200145D02*
X0023398Y0200145D01*
X0022523Y0201744D02*
X0006600Y0201744D01*
X0006600Y0203342D02*
X0021992Y0203342D01*
X0021729Y0204941D02*
X0006600Y0204941D01*
X0006600Y0206539D02*
X0031000Y0206539D01*
X0031000Y0204941D02*
X0032600Y0204941D01*
X0032600Y0203342D02*
X0031000Y0203342D01*
X0031000Y0201744D02*
X0032600Y0201744D01*
X0032600Y0200145D02*
X0031000Y0200145D01*
X0031000Y0198547D02*
X0032600Y0198547D01*
X0032600Y0196948D02*
X0031000Y0196948D01*
X0036000Y0192153D02*
X0006600Y0192153D01*
X0006600Y0193751D02*
X0036372Y0193751D01*
X0036079Y0190554D02*
X0006600Y0190554D01*
X0006600Y0188956D02*
X0020000Y0188956D01*
X0017034Y0187357D02*
X0006600Y0187357D01*
X0006600Y0185759D02*
X0015538Y0185759D01*
X0014876Y0184160D02*
X0006600Y0184160D01*
X0006600Y0182562D02*
X0014500Y0182562D01*
X0014500Y0180963D02*
X0006600Y0180963D01*
X0006600Y0179365D02*
X0014500Y0179365D01*
X0014500Y0177766D02*
X0006600Y0177766D01*
X0006600Y0176168D02*
X0014500Y0176168D01*
X0014500Y0174569D02*
X0006600Y0174569D01*
X0006600Y0172971D02*
X0014500Y0172971D01*
X0014500Y0171372D02*
X0006600Y0171372D01*
X0006600Y0169774D02*
X0014500Y0169774D01*
X0014500Y0168175D02*
X0006600Y0168175D01*
X0006600Y0166577D02*
X0014500Y0166577D01*
X0014500Y0164978D02*
X0006600Y0164978D01*
X0006600Y0163380D02*
X0014500Y0163380D01*
X0014500Y0161781D02*
X0006600Y0161781D01*
X0006600Y0160183D02*
X0014500Y0160183D01*
X0014500Y0158584D02*
X0006600Y0158584D01*
X0006600Y0156986D02*
X0014500Y0156986D01*
X0014500Y0155387D02*
X0006600Y0155387D01*
X0006600Y0153789D02*
X0014500Y0153789D01*
X0014500Y0152190D02*
X0006600Y0152190D01*
X0006600Y0150592D02*
X0014500Y0150592D01*
X0008998Y0148993D02*
X0006600Y0148993D01*
X0006600Y0147395D02*
X0007399Y0147395D01*
X0029100Y0147395D02*
X0057680Y0147395D01*
X0057018Y0145796D02*
X0029100Y0145796D01*
X0029100Y0144198D02*
X0057000Y0144198D01*
X0057000Y0142599D02*
X0029100Y0142599D01*
X0029100Y0141001D02*
X0057000Y0141001D01*
X0057000Y0139402D02*
X0029100Y0139402D01*
X0029100Y0137803D02*
X0057000Y0137803D01*
X0057000Y0136205D02*
X0029100Y0136205D01*
X0029100Y0134606D02*
X0057000Y0134606D01*
X0057000Y0133008D02*
X0029100Y0133008D01*
X0029100Y0131409D02*
X0050914Y0131409D01*
X0049603Y0129811D02*
X0029100Y0129811D01*
X0029100Y0128212D02*
X0049000Y0128212D01*
X0049000Y0126614D02*
X0029100Y0126614D01*
X0029100Y0125015D02*
X0049000Y0125015D01*
X0049000Y0123417D02*
X0029100Y0123417D01*
X0029100Y0121818D02*
X0049000Y0121818D01*
X0049011Y0120220D02*
X0029100Y0120220D01*
X0029100Y0118621D02*
X0049673Y0118621D01*
X0051082Y0117023D02*
X0029100Y0117023D01*
X0029100Y0115424D02*
X0078792Y0115424D01*
X0080817Y0113826D02*
X0029100Y0113826D01*
X0029100Y0112227D02*
X0081200Y0112227D01*
X0082401Y0110629D02*
X0082552Y0110629D01*
X0083999Y0109030D02*
X0084150Y0109030D01*
X0079300Y0106800D02*
X0084300Y0101800D01*
X0099300Y0101800D01*
X0097719Y0086651D02*
X0097612Y0086651D01*
X0099300Y0081800D02*
X0099300Y0061800D01*
X0114300Y0061800D01*
X0139300Y0061800D01*
X0135725Y0056700D02*
X0133924Y0055954D01*
X0133495Y0055525D01*
X0131620Y0057400D01*
X0126980Y0057400D01*
X0123700Y0054120D01*
X0123700Y0049480D01*
X0126380Y0046800D01*
X0123700Y0044120D01*
X0123700Y0039480D01*
X0126980Y0036200D01*
X0131620Y0036200D01*
X0133495Y0038075D01*
X0133924Y0037646D01*
X0135725Y0036900D01*
X0142875Y0036900D01*
X0144676Y0037646D01*
X0146054Y0039024D01*
X0146800Y0040825D01*
X0146800Y0042775D01*
X0146054Y0044576D01*
X0144676Y0045954D01*
X0142875Y0046700D01*
X0135725Y0046700D01*
X0133924Y0045954D01*
X0133495Y0045525D01*
X0132220Y0046800D01*
X0133495Y0048075D01*
X0133924Y0047646D01*
X0135725Y0046900D01*
X0142875Y0046900D01*
X0144676Y0047646D01*
X0146054Y0049024D01*
X0146800Y0050825D01*
X0146800Y0052775D01*
X0146054Y0054576D01*
X0144676Y0055954D01*
X0142875Y0056700D01*
X0135725Y0056700D01*
X0134710Y0056279D02*
X0132740Y0056279D01*
X0133692Y0057878D02*
X0118298Y0057878D01*
X0116699Y0056279D02*
X0125860Y0056279D01*
X0124261Y0054681D02*
X0094339Y0054681D01*
X0094900Y0054120D02*
X0091620Y0057400D01*
X0086980Y0057400D01*
X0086331Y0056750D01*
X0079600Y0060116D01*
X0079600Y0063354D01*
X0078793Y0065302D01*
X0077302Y0066793D01*
X0075354Y0067600D01*
X0073246Y0067600D01*
X0071600Y0066918D01*
X0071600Y0072000D01*
X0083252Y0072000D01*
X0085935Y0073111D01*
X0087989Y0075165D01*
X0089100Y0077848D01*
X0089100Y0080752D01*
X0087989Y0083435D01*
X0085935Y0085489D01*
X0083252Y0086600D01*
X0062848Y0086600D01*
X0060165Y0085489D01*
X0058111Y0083435D01*
X0057000Y0080752D01*
X0057000Y0066918D01*
X0055354Y0067600D01*
X0053246Y0067600D01*
X0051298Y0066793D01*
X0049807Y0065302D01*
X0049000Y0063354D01*
X0049000Y0055246D01*
X0049807Y0053298D01*
X0051298Y0051807D01*
X0053246Y0051000D01*
X0055354Y0051000D01*
X0057302Y0051807D01*
X0058793Y0053298D01*
X0059140Y0054136D01*
X0059686Y0053591D01*
X0059807Y0053298D01*
X0061298Y0051807D01*
X0063246Y0051000D01*
X0065354Y0051000D01*
X0067302Y0051807D01*
X0068793Y0053298D01*
X0068914Y0053591D01*
X0069460Y0054136D01*
X0069807Y0053298D01*
X0071298Y0051807D01*
X0073246Y0051000D01*
X0075354Y0051000D01*
X0077302Y0051807D01*
X0078793Y0053298D01*
X0078893Y0053538D01*
X0083700Y0051134D01*
X0083700Y0049480D01*
X0086380Y0046800D01*
X0084480Y0044900D01*
X0081910Y0044900D01*
X0081405Y0044936D01*
X0081297Y0044900D01*
X0081183Y0044900D01*
X0080715Y0044706D01*
X0079243Y0044215D01*
X0078793Y0045302D01*
X0077302Y0046793D01*
X0075354Y0047600D01*
X0073246Y0047600D01*
X0071298Y0046793D01*
X0069807Y0045302D01*
X0069460Y0044464D01*
X0068914Y0045009D01*
X0068793Y0045302D01*
X0067302Y0046793D01*
X0065354Y0047600D01*
X0063246Y0047600D01*
X0061298Y0046793D01*
X0059807Y0045302D01*
X0059686Y0045009D01*
X0059140Y0044464D01*
X0058793Y0045302D01*
X0057302Y0046793D01*
X0055354Y0047600D01*
X0053246Y0047600D01*
X0051298Y0046793D01*
X0049807Y0045302D01*
X0049000Y0043354D01*
X0049000Y0035246D01*
X0049807Y0033298D01*
X0051298Y0031807D01*
X0053246Y0031000D01*
X0055354Y0031000D01*
X0057000Y0031682D01*
X0057000Y0012848D01*
X0058111Y0010165D01*
X0060165Y0008111D01*
X0062848Y0007000D01*
X0083252Y0007000D01*
X0085935Y0008111D01*
X0087989Y0010165D01*
X0089100Y0012848D01*
X0089100Y0015752D01*
X0087989Y0018435D01*
X0085935Y0020489D01*
X0083252Y0021600D01*
X0071600Y0021600D01*
X0071600Y0031682D01*
X0073246Y0031000D01*
X0075354Y0031000D01*
X0077302Y0031807D01*
X0078793Y0033298D01*
X0079600Y0035246D01*
X0079600Y0037799D01*
X0082303Y0038700D01*
X0084480Y0038700D01*
X0086980Y0036200D01*
X0091620Y0036200D01*
X0094900Y0039480D01*
X0094900Y0044120D01*
X0092220Y0046800D01*
X0094900Y0049480D01*
X0094900Y0054120D01*
X0094900Y0053082D02*
X0123700Y0053082D01*
X0123700Y0051484D02*
X0094900Y0051484D01*
X0094900Y0049885D02*
X0123700Y0049885D01*
X0124894Y0048287D02*
X0093706Y0048287D01*
X0092331Y0046688D02*
X0126269Y0046688D01*
X0124670Y0045090D02*
X0093930Y0045090D01*
X0094900Y0043491D02*
X0123700Y0043491D01*
X0123700Y0041893D02*
X0094900Y0041893D01*
X0094900Y0040294D02*
X0123700Y0040294D01*
X0124485Y0038696D02*
X0094115Y0038696D01*
X0092517Y0037097D02*
X0126083Y0037097D01*
X0127016Y0033900D02*
X0079043Y0033900D01*
X0079600Y0035499D02*
X0133469Y0035499D01*
X0132517Y0037097D02*
X0135249Y0037097D01*
X0139300Y0041800D02*
X0129300Y0041800D01*
X0132331Y0046688D02*
X0135697Y0046688D01*
X0139300Y0051800D02*
X0129300Y0051800D01*
X0133841Y0065870D02*
X0118149Y0065870D01*
X0114300Y0071800D02*
X0139300Y0071800D01*
X0135725Y0076900D02*
X0142875Y0076900D01*
X0144676Y0077646D01*
X0146054Y0079024D01*
X0146800Y0080825D01*
X0146800Y0082775D01*
X0146054Y0084576D01*
X0144676Y0085954D01*
X0142875Y0086700D01*
X0135725Y0086700D01*
X0133924Y0085954D01*
X0133141Y0085171D01*
X0131412Y0086900D01*
X0127188Y0086900D01*
X0124200Y0083912D01*
X0124200Y0079688D01*
X0127188Y0076700D01*
X0131412Y0076700D01*
X0133141Y0078429D01*
X0133924Y0077646D01*
X0135725Y0076900D01*
X0135339Y0077060D02*
X0131773Y0077060D01*
X0133432Y0075462D02*
X0117400Y0075462D01*
X0117400Y0077060D02*
X0126827Y0077060D01*
X0125229Y0078659D02*
X0117400Y0078659D01*
X0117400Y0080257D02*
X0124200Y0080257D01*
X0124200Y0081856D02*
X0117400Y0081856D01*
X0117400Y0083454D02*
X0124200Y0083454D01*
X0125340Y0085053D02*
X0117400Y0085053D01*
X0117400Y0086651D02*
X0126939Y0086651D01*
X0127395Y0087200D02*
X0129300Y0087200D01*
X0131205Y0087200D01*
X0133173Y0089168D01*
X0133344Y0088934D01*
X0133834Y0088444D01*
X0134394Y0088037D01*
X0135011Y0087722D01*
X0135670Y0087508D01*
X0136354Y0087400D01*
X0139300Y0087400D01*
X0142246Y0087400D01*
X0142930Y0087508D01*
X0143589Y0087722D01*
X0144206Y0088037D01*
X0144766Y0088444D01*
X0145256Y0088934D01*
X0145663Y0089494D01*
X0145978Y0090111D01*
X0146192Y0090770D01*
X0146300Y0091454D01*
X0146300Y0091800D01*
X0146300Y0092146D01*
X0146192Y0092830D01*
X0145978Y0093489D01*
X0145663Y0094106D01*
X0145256Y0094666D01*
X0144766Y0095156D01*
X0144206Y0095563D01*
X0143589Y0095878D01*
X0142930Y0096092D01*
X0142246Y0096200D01*
X0139300Y0096200D01*
X0139300Y0091800D01*
X0139300Y0091800D01*
X0146300Y0091800D01*
X0139300Y0091800D01*
X0139300Y0091800D01*
X0139300Y0087400D01*
X0139300Y0091800D01*
X0139300Y0091800D01*
X0139300Y0096200D01*
X0136354Y0096200D01*
X0135670Y0096092D01*
X0135011Y0095878D01*
X0134394Y0095563D01*
X0133834Y0095156D01*
X0133344Y0094666D01*
X0133173Y0094432D01*
X0131205Y0096400D01*
X0129300Y0096400D01*
X0129300Y0091800D01*
X0129300Y0091800D01*
X0139300Y0091800D01*
X0139300Y0091800D01*
X0132300Y0091800D01*
X0129300Y0091800D01*
X0129300Y0091800D01*
X0129300Y0087200D01*
X0129300Y0091800D01*
X0129300Y0091800D01*
X0129300Y0091800D01*
X0124700Y0091800D01*
X0124700Y0093705D01*
X0127395Y0096400D01*
X0129300Y0096400D01*
X0129300Y0091800D01*
X0124700Y0091800D01*
X0124700Y0089895D01*
X0127395Y0087200D01*
X0126345Y0088250D02*
X0117400Y0088250D01*
X0117400Y0089848D02*
X0124746Y0089848D01*
X0124700Y0091447D02*
X0117400Y0091447D01*
X0117400Y0093045D02*
X0124700Y0093045D01*
X0125638Y0094644D02*
X0117400Y0094644D01*
X0117400Y0096242D02*
X0127237Y0096242D01*
X0129300Y0096242D02*
X0129300Y0096242D01*
X0129300Y0094644D02*
X0129300Y0094644D01*
X0129300Y0093045D02*
X0129300Y0093045D01*
X0129300Y0091447D02*
X0129300Y0091447D01*
X0129300Y0089848D02*
X0129300Y0089848D01*
X0129300Y0088250D02*
X0129300Y0088250D01*
X0131661Y0086651D02*
X0135607Y0086651D01*
X0134101Y0088250D02*
X0132255Y0088250D01*
X0139300Y0088250D02*
X0139300Y0088250D01*
X0139300Y0089848D02*
X0139300Y0089848D01*
X0139300Y0091447D02*
X0139300Y0091447D01*
X0139300Y0093045D02*
X0139300Y0093045D01*
X0139300Y0094644D02*
X0139300Y0094644D01*
X0133327Y0094644D02*
X0132962Y0094644D01*
X0131363Y0096242D02*
X0164620Y0096242D01*
X0163730Y0097841D02*
X0144870Y0097841D01*
X0145273Y0094644D02*
X0162614Y0094644D01*
X0161912Y0093045D02*
X0146122Y0093045D01*
X0146299Y0091447D02*
X0161800Y0091447D01*
X0162205Y0089848D02*
X0145844Y0089848D01*
X0144499Y0088250D02*
X0163321Y0088250D01*
X0165607Y0086651D02*
X0142993Y0086651D01*
X0145577Y0085053D02*
X0163023Y0085053D01*
X0162081Y0083454D02*
X0146519Y0083454D01*
X0146800Y0081856D02*
X0161800Y0081856D01*
X0162035Y0080257D02*
X0146565Y0080257D01*
X0145688Y0078659D02*
X0162912Y0078659D01*
X0165339Y0077060D02*
X0143261Y0077060D01*
X0145168Y0075462D02*
X0164254Y0075462D01*
X0164394Y0075563D02*
X0163834Y0075156D01*
X0163344Y0074666D01*
X0162937Y0074106D01*
X0162622Y0073489D01*
X0162408Y0072830D01*
X0162300Y0072146D01*
X0162300Y0071800D01*
X0169300Y0071800D01*
X0169300Y0071800D01*
X0169300Y0071800D01*
X0169300Y0076200D01*
X0166354Y0076200D01*
X0165670Y0076092D01*
X0165011Y0075878D01*
X0164394Y0075563D01*
X0162813Y0073863D02*
X0146349Y0073863D01*
X0146800Y0072265D02*
X0162319Y0072265D01*
X0162300Y0071800D02*
X0162300Y0071454D01*
X0162408Y0070770D01*
X0162622Y0070111D01*
X0162937Y0069494D01*
X0163344Y0068934D01*
X0163834Y0068444D01*
X0164394Y0068037D01*
X0165011Y0067722D01*
X0165670Y0067508D01*
X0166354Y0067400D01*
X0169300Y0067400D01*
X0169300Y0071800D01*
X0162300Y0071800D01*
X0162442Y0070666D02*
X0146734Y0070666D01*
X0146072Y0069068D02*
X0163247Y0069068D01*
X0165918Y0067469D02*
X0144248Y0067469D01*
X0144759Y0065870D02*
X0163841Y0065870D01*
X0162420Y0064272D02*
X0146180Y0064272D01*
X0146800Y0062673D02*
X0161800Y0062673D01*
X0161800Y0061075D02*
X0146800Y0061075D01*
X0146241Y0059476D02*
X0162359Y0059476D01*
X0163692Y0057878D02*
X0144908Y0057878D01*
X0143890Y0056279D02*
X0164710Y0056279D01*
X0162651Y0054681D02*
X0145949Y0054681D01*
X0146673Y0053082D02*
X0161927Y0053082D01*
X0161800Y0051484D02*
X0146800Y0051484D01*
X0146411Y0049885D02*
X0162189Y0049885D01*
X0163283Y0048287D02*
X0145316Y0048287D01*
X0142903Y0046688D02*
X0165697Y0046688D01*
X0163060Y0045090D02*
X0145540Y0045090D01*
X0146503Y0043491D02*
X0162097Y0043491D01*
X0161800Y0041893D02*
X0146800Y0041893D01*
X0146580Y0040294D02*
X0162020Y0040294D01*
X0162875Y0038696D02*
X0145725Y0038696D01*
X0143351Y0037097D02*
X0165249Y0037097D01*
X0163469Y0035499D02*
X0145131Y0035499D01*
X0146334Y0033900D02*
X0162266Y0033900D01*
X0161800Y0032302D02*
X0146800Y0032302D01*
X0146749Y0030703D02*
X0161851Y0030703D01*
X0162513Y0029105D02*
X0146087Y0029105D01*
X0144338Y0027506D02*
X0164262Y0027506D01*
X0163878Y0025908D02*
X0144722Y0025908D01*
X0146164Y0024309D02*
X0162436Y0024309D01*
X0161800Y0022711D02*
X0146800Y0022711D01*
X0146800Y0021112D02*
X0161800Y0021112D01*
X0162343Y0019514D02*
X0146257Y0019514D01*
X0144945Y0017915D02*
X0163655Y0017915D01*
X0169300Y0021800D02*
X0191800Y0039300D01*
X0197086Y0043491D02*
X0216514Y0043491D01*
X0216424Y0043454D02*
X0215046Y0042076D01*
X0214300Y0040275D01*
X0214300Y0038325D01*
X0215046Y0036524D01*
X0216424Y0035146D01*
X0218225Y0034400D01*
X0225375Y0034400D01*
X0227176Y0035146D01*
X0228554Y0036524D01*
X0229300Y0038325D01*
X0229300Y0040275D01*
X0228554Y0042076D01*
X0227176Y0043454D01*
X0225375Y0044200D01*
X0218225Y0044200D01*
X0216424Y0043454D01*
X0216560Y0045090D02*
X0197040Y0045090D01*
X0198622Y0046688D02*
X0214978Y0046688D01*
X0215046Y0046524D02*
X0216424Y0045146D01*
X0218225Y0044400D01*
X0225375Y0044400D01*
X0227176Y0045146D01*
X0228554Y0046524D01*
X0229300Y0048325D01*
X0229300Y0050275D01*
X0228554Y0052076D01*
X0227176Y0053454D01*
X0225375Y0054200D01*
X0218225Y0054200D01*
X0216424Y0053454D01*
X0215046Y0052076D01*
X0214300Y0050275D01*
X0214300Y0048325D01*
X0215046Y0046524D01*
X0214316Y0048287D02*
X0199284Y0048287D01*
X0199300Y0049885D02*
X0214300Y0049885D01*
X0214801Y0051484D02*
X0198799Y0051484D01*
X0197547Y0053082D02*
X0216053Y0053082D01*
X0216424Y0055146D02*
X0218225Y0054400D01*
X0225375Y0054400D01*
X0227176Y0055146D01*
X0228554Y0056524D01*
X0229300Y0058325D01*
X0229300Y0060275D01*
X0228554Y0062076D01*
X0227176Y0063454D01*
X0225375Y0064200D01*
X0218225Y0064200D01*
X0216424Y0063454D01*
X0215046Y0062076D01*
X0214300Y0060275D01*
X0214300Y0058325D01*
X0215046Y0056524D01*
X0216424Y0055146D01*
X0217547Y0054681D02*
X0196053Y0054681D01*
X0198309Y0056279D02*
X0215291Y0056279D01*
X0214485Y0057878D02*
X0199115Y0057878D01*
X0199300Y0059476D02*
X0214300Y0059476D01*
X0214631Y0061075D02*
X0198969Y0061075D01*
X0197956Y0062673D02*
X0215644Y0062673D01*
X0216424Y0065146D02*
X0218225Y0064400D01*
X0225375Y0064400D01*
X0227176Y0065146D01*
X0228554Y0066524D01*
X0229300Y0068325D01*
X0229300Y0070275D01*
X0228554Y0072076D01*
X0227176Y0073454D01*
X0225375Y0074200D01*
X0218225Y0074200D01*
X0216424Y0073454D01*
X0215046Y0072076D01*
X0214300Y0070275D01*
X0214300Y0068325D01*
X0215046Y0066524D01*
X0216424Y0065146D01*
X0215700Y0065870D02*
X0197900Y0065870D01*
X0198945Y0067469D02*
X0214655Y0067469D01*
X0214300Y0069068D02*
X0199300Y0069068D01*
X0199138Y0070666D02*
X0214462Y0070666D01*
X0215235Y0072265D02*
X0198365Y0072265D01*
X0196188Y0073863D02*
X0217412Y0073863D01*
X0218225Y0074400D02*
X0216424Y0075146D01*
X0215046Y0076524D01*
X0214300Y0078325D01*
X0214300Y0080275D01*
X0215046Y0082076D01*
X0216424Y0083454D01*
X0218225Y0084200D01*
X0225375Y0084200D01*
X0227176Y0083454D01*
X0228554Y0082076D01*
X0229300Y0080275D01*
X0229300Y0078325D01*
X0228554Y0076524D01*
X0227176Y0075146D01*
X0225375Y0074400D01*
X0218225Y0074400D01*
X0216109Y0075462D02*
X0197491Y0075462D01*
X0198776Y0077060D02*
X0214824Y0077060D01*
X0214300Y0078659D02*
X0199300Y0078659D01*
X0199300Y0080257D02*
X0214300Y0080257D01*
X0214955Y0081856D02*
X0198645Y0081856D01*
X0197175Y0083454D02*
X0216425Y0083454D01*
X0216650Y0085053D02*
X0196950Y0085053D01*
X0198607Y0086651D02*
X0214993Y0086651D01*
X0215046Y0086524D02*
X0216424Y0085146D01*
X0218225Y0084400D01*
X0225375Y0084400D01*
X0227176Y0085146D01*
X0228554Y0086524D01*
X0229300Y0088325D01*
X0229300Y0090275D01*
X0228554Y0092076D01*
X0227176Y0093454D01*
X0225375Y0094200D01*
X0218225Y0094200D01*
X0216424Y0093454D01*
X0215046Y0092076D01*
X0214300Y0090275D01*
X0214300Y0088325D01*
X0215046Y0086524D01*
X0214331Y0088250D02*
X0199269Y0088250D01*
X0199300Y0089848D02*
X0214300Y0089848D01*
X0214785Y0091447D02*
X0202047Y0091447D01*
X0204925Y0093045D02*
X0216016Y0093045D01*
X0213557Y0097841D02*
X0233668Y0097841D01*
X0233500Y0098246D02*
X0234307Y0096298D01*
X0235798Y0094807D01*
X0237022Y0094300D01*
X0235798Y0093793D01*
X0234307Y0092302D01*
X0233500Y0090354D01*
X0233500Y0088246D01*
X0234307Y0086298D01*
X0235798Y0084807D01*
X0237022Y0084300D01*
X0235798Y0083793D01*
X0234307Y0082302D01*
X0233500Y0080354D01*
X0233500Y0078246D01*
X0234307Y0076298D01*
X0235798Y0074807D01*
X0237746Y0074000D01*
X0237791Y0074000D01*
X0237676Y0073982D01*
X0236957Y0073748D01*
X0236284Y0073405D01*
X0235673Y0072961D01*
X0235139Y0072427D01*
X0234695Y0071816D01*
X0234352Y0071143D01*
X0234118Y0070424D01*
X0234000Y0069678D01*
X0234000Y0069500D01*
X0241600Y0069500D01*
X0241600Y0069100D01*
X0242000Y0069100D01*
X0242000Y0069500D01*
X0249600Y0069500D01*
X0249600Y0069678D01*
X0249482Y0070424D01*
X0249248Y0071143D01*
X0248905Y0071816D01*
X0248461Y0072427D01*
X0247927Y0072961D01*
X0247316Y0073405D01*
X0246643Y0073748D01*
X0245924Y0073982D01*
X0245809Y0074000D01*
X0245854Y0074000D01*
X0247802Y0074807D01*
X0249293Y0076298D01*
X0250100Y0078246D01*
X0250100Y0080354D01*
X0249293Y0082302D01*
X0247802Y0083793D01*
X0246578Y0084300D01*
X0247802Y0084807D01*
X0249293Y0086298D01*
X0250100Y0088246D01*
X0250100Y0090354D01*
X0249293Y0092302D01*
X0247802Y0093793D01*
X0246578Y0094300D01*
X0247802Y0094807D01*
X0249293Y0096298D01*
X0250100Y0098246D01*
X0250100Y0100354D01*
X0249293Y0102302D01*
X0247802Y0103793D01*
X0246578Y0104300D01*
X0247802Y0104807D01*
X0249293Y0106298D01*
X0250100Y0108246D01*
X0250100Y0110354D01*
X0249293Y0112302D01*
X0247802Y0113793D01*
X0245854Y0114600D01*
X0237746Y0114600D01*
X0235798Y0113793D01*
X0234307Y0112302D01*
X0233500Y0110354D01*
X0233500Y0108246D01*
X0234307Y0106298D01*
X0235798Y0104807D01*
X0237022Y0104300D01*
X0235798Y0103793D01*
X0234307Y0102302D01*
X0233500Y0100354D01*
X0233500Y0098246D01*
X0233500Y0099439D02*
X0216384Y0099439D01*
X0217312Y0101038D02*
X0233783Y0101038D01*
X0234641Y0102636D02*
X0217603Y0102636D01*
X0217893Y0104235D02*
X0236864Y0104235D01*
X0234771Y0105833D02*
X0218184Y0105833D01*
X0218475Y0107432D02*
X0233837Y0107432D01*
X0233500Y0109030D02*
X0218765Y0109030D01*
X0219056Y0110629D02*
X0233614Y0110629D01*
X0234276Y0112227D02*
X0219347Y0112227D01*
X0219637Y0113826D02*
X0235877Y0113826D01*
X0236800Y0116700D02*
X0234688Y0116700D01*
X0231700Y0119688D01*
X0231700Y0121800D01*
X0236800Y0121800D01*
X0236800Y0121800D01*
X0236800Y0126900D01*
X0238912Y0126900D01*
X0241900Y0123912D01*
X0241900Y0121800D01*
X0236800Y0121800D01*
X0236800Y0121800D01*
X0236800Y0121800D01*
X0236800Y0126900D01*
X0234688Y0126900D01*
X0231700Y0123912D01*
X0231700Y0121800D01*
X0236800Y0121800D01*
X0241900Y0121800D01*
X0241900Y0119688D01*
X0238912Y0116700D01*
X0236800Y0116700D01*
X0236800Y0121800D01*
X0236800Y0121800D01*
X0236800Y0116700D01*
X0236800Y0117023D02*
X0236800Y0117023D01*
X0236800Y0118621D02*
X0236800Y0118621D01*
X0236800Y0120220D02*
X0236800Y0120220D01*
X0236800Y0121818D02*
X0236800Y0121818D01*
X0236800Y0123417D02*
X0236800Y0123417D01*
X0236800Y0125015D02*
X0236800Y0125015D01*
X0236800Y0126614D02*
X0236800Y0126614D01*
X0239199Y0126614D02*
X0253201Y0126614D01*
X0253201Y0128212D02*
X0225143Y0128212D01*
X0225143Y0126614D02*
X0234401Y0126614D01*
X0232803Y0125015D02*
X0225143Y0125015D01*
X0221381Y0123417D02*
X0231700Y0123417D01*
X0231700Y0121818D02*
X0221091Y0121818D01*
X0220800Y0120220D02*
X0231700Y0120220D01*
X0232766Y0118621D02*
X0220509Y0118621D01*
X0220219Y0117023D02*
X0234365Y0117023D01*
X0239235Y0117023D02*
X0253201Y0117023D01*
X0253201Y0118621D02*
X0240834Y0118621D01*
X0241900Y0120220D02*
X0253201Y0120220D01*
X0253201Y0121818D02*
X0241900Y0121818D01*
X0241900Y0123417D02*
X0253201Y0123417D01*
X0253201Y0125015D02*
X0240797Y0125015D01*
X0247723Y0113826D02*
X0253201Y0113826D01*
X0253201Y0115424D02*
X0219928Y0115424D01*
X0211883Y0105833D02*
X0202479Y0105833D01*
X0204078Y0104235D02*
X0211592Y0104235D01*
X0209422Y0102636D02*
X0204400Y0102636D01*
X0204400Y0101038D02*
X0206545Y0101038D01*
X0210679Y0096242D02*
X0234362Y0096242D01*
X0236192Y0094644D02*
X0207802Y0094644D01*
X0214300Y0101800D02*
X0219300Y0129300D01*
X0225143Y0129811D02*
X0253201Y0129811D01*
X0253201Y0131409D02*
X0225143Y0131409D01*
X0225143Y0133008D02*
X0253201Y0133008D01*
X0253201Y0134606D02*
X0224333Y0134606D01*
X0212890Y0136205D02*
X0253201Y0136205D01*
X0253201Y0137803D02*
X0203299Y0137803D01*
X0204250Y0139402D02*
X0253201Y0139402D01*
X0253201Y0141001D02*
X0204600Y0141001D01*
X0204600Y0142599D02*
X0253201Y0142599D01*
X0253201Y0144198D02*
X0204600Y0144198D01*
X0204600Y0145796D02*
X0253201Y0145796D01*
X0253201Y0147395D02*
X0204600Y0147395D01*
X0204335Y0148993D02*
X0253201Y0148993D01*
X0253201Y0150592D02*
X0203504Y0150592D01*
X0204300Y0151800D02*
X0201800Y0159300D01*
X0205908Y0153789D02*
X0207104Y0153789D01*
X0208415Y0152190D02*
X0204307Y0152190D01*
X0191800Y0159300D02*
X0181800Y0149300D01*
X0169300Y0141800D01*
X0163767Y0137803D02*
X0154900Y0137803D01*
X0154900Y0136205D02*
X0164530Y0136205D01*
X0162577Y0134606D02*
X0154900Y0134606D01*
X0154900Y0133008D02*
X0161897Y0133008D01*
X0161800Y0131409D02*
X0154900Y0131409D01*
X0154900Y0129811D02*
X0162220Y0129811D01*
X0163358Y0128212D02*
X0154900Y0128212D01*
X0154900Y0126614D02*
X0165518Y0126614D01*
X0162986Y0125015D02*
X0154900Y0125015D01*
X0154900Y0123417D02*
X0162066Y0123417D01*
X0161800Y0121818D02*
X0154900Y0121818D01*
X0154900Y0120220D02*
X0162051Y0120220D01*
X0162949Y0118621D02*
X0154900Y0118621D01*
X0154900Y0117023D02*
X0165429Y0117023D01*
X0163395Y0115424D02*
X0154900Y0115424D01*
X0154900Y0113826D02*
X0162235Y0113826D01*
X0161800Y0112227D02*
X0154900Y0112227D01*
X0154900Y0110629D02*
X0161881Y0110629D01*
X0162544Y0109030D02*
X0154900Y0109030D01*
X0154900Y0107432D02*
X0164441Y0107432D01*
X0163804Y0105833D02*
X0154900Y0105833D01*
X0154900Y0104235D02*
X0162405Y0104235D01*
X0161800Y0102636D02*
X0154900Y0102636D01*
X0154840Y0101038D02*
X0161800Y0101038D01*
X0162374Y0099439D02*
X0153823Y0099439D01*
X0151800Y0101800D02*
X0151800Y0171800D01*
X0166800Y0171800D01*
X0166800Y0169300D01*
X0224300Y0169300D01*
X0219639Y0164978D02*
X0216427Y0164978D01*
X0217089Y0163380D02*
X0218457Y0163380D01*
X0218457Y0161781D02*
X0217100Y0161781D01*
X0217100Y0160183D02*
X0218457Y0160183D01*
X0218457Y0158584D02*
X0217100Y0158584D01*
X0217100Y0156986D02*
X0218457Y0156986D01*
X0218457Y0155387D02*
X0217100Y0155387D01*
X0216496Y0153789D02*
X0219472Y0153789D01*
X0215185Y0152190D02*
X0253201Y0152190D01*
X0253201Y0153789D02*
X0229128Y0153789D01*
X0230143Y0155387D02*
X0253201Y0155387D01*
X0253201Y0156986D02*
X0239905Y0156986D01*
X0241504Y0158584D02*
X0253201Y0158584D01*
X0253201Y0160183D02*
X0242400Y0160183D01*
X0242400Y0161781D02*
X0253201Y0161781D01*
X0253201Y0163380D02*
X0242400Y0163380D01*
X0241541Y0164978D02*
X0253201Y0164978D01*
X0233695Y0156986D02*
X0230143Y0156986D01*
X0206800Y0121800D02*
X0169300Y0111800D01*
X0173171Y0117023D02*
X0176855Y0117023D01*
X0175651Y0118621D02*
X0182849Y0118621D01*
X0181286Y0121818D02*
X0176800Y0121818D01*
X0176549Y0120220D02*
X0188843Y0120220D01*
X0187314Y0121818D02*
X0191286Y0121818D01*
X0189758Y0123417D02*
X0188842Y0123417D01*
X0184300Y0129300D02*
X0169300Y0121800D01*
X0169300Y0131800D02*
X0184300Y0141800D01*
X0184300Y0144300D01*
X0189300Y0144300D01*
X0181800Y0159300D02*
X0169300Y0151800D01*
X0171917Y0156986D02*
X0154900Y0156986D01*
X0154900Y0158584D02*
X0174582Y0158584D01*
X0176500Y0160183D02*
X0154900Y0160183D01*
X0154900Y0161781D02*
X0176500Y0161781D01*
X0176511Y0163380D02*
X0154900Y0163380D01*
X0154900Y0164978D02*
X0177173Y0164978D01*
X0165274Y0166577D02*
X0154900Y0166577D01*
X0154900Y0168175D02*
X0163910Y0168175D01*
X0163357Y0155387D02*
X0154900Y0155387D01*
X0154900Y0153789D02*
X0162220Y0153789D01*
X0161800Y0152190D02*
X0154900Y0152190D01*
X0154900Y0150592D02*
X0161897Y0150592D01*
X0162577Y0148993D02*
X0154900Y0148993D01*
X0154900Y0147395D02*
X0164531Y0147395D01*
X0163766Y0145796D02*
X0154900Y0145796D01*
X0154900Y0144198D02*
X0162389Y0144198D01*
X0161800Y0142599D02*
X0154900Y0142599D01*
X0154900Y0141001D02*
X0161800Y0141001D01*
X0162390Y0139402D02*
X0154900Y0139402D01*
X0139300Y0131800D02*
X0124300Y0131800D01*
X0129195Y0128212D02*
X0133358Y0128212D01*
X0135518Y0126614D02*
X0128533Y0126614D01*
X0127002Y0125015D02*
X0132986Y0125015D01*
X0132949Y0118621D02*
X0130398Y0118621D01*
X0131997Y0117023D02*
X0135429Y0117023D01*
X0139300Y0121800D02*
X0114300Y0121800D01*
X0114300Y0131800D01*
X0104300Y0131800D01*
X0099400Y0133008D02*
X0099200Y0133008D01*
X0099200Y0134606D02*
X0099400Y0134606D01*
X0099744Y0136205D02*
X0098856Y0136205D01*
X0097826Y0137803D02*
X0100774Y0137803D01*
X0091200Y0139402D02*
X0087226Y0139402D01*
X0088335Y0141001D02*
X0091200Y0141001D01*
X0091276Y0142599D02*
X0088997Y0142599D01*
X0089100Y0144198D02*
X0092313Y0144198D01*
X0090774Y0137803D02*
X0085192Y0137803D01*
X0081166Y0121818D02*
X0111200Y0121818D01*
X0111599Y0120220D02*
X0082764Y0120220D01*
X0076199Y0110629D02*
X0062401Y0110629D01*
X0061330Y0111700D02*
X0064200Y0108830D01*
X0064200Y0104770D01*
X0061330Y0101900D01*
X0057270Y0101900D01*
X0054400Y0104770D01*
X0054400Y0108830D01*
X0057270Y0111700D01*
X0061330Y0111700D01*
X0063999Y0109030D02*
X0074601Y0109030D01*
X0074400Y0107432D02*
X0064200Y0107432D01*
X0064200Y0105833D02*
X0074400Y0105833D01*
X0074936Y0104235D02*
X0063664Y0104235D01*
X0062066Y0102636D02*
X0076534Y0102636D01*
X0076608Y0101038D02*
X0061992Y0101038D01*
X0061330Y0101700D02*
X0057270Y0101700D01*
X0054400Y0098830D01*
X0054400Y0094770D01*
X0057270Y0091900D01*
X0061330Y0091900D01*
X0064200Y0094770D01*
X0064200Y0098830D01*
X0061330Y0101700D01*
X0063590Y0099439D02*
X0075010Y0099439D01*
X0074400Y0097841D02*
X0064200Y0097841D01*
X0064200Y0096242D02*
X0074400Y0096242D01*
X0074527Y0094644D02*
X0064073Y0094644D01*
X0062475Y0093045D02*
X0076125Y0093045D01*
X0079300Y0096800D02*
X0091800Y0086800D01*
X0099300Y0081800D01*
X0096026Y0080257D02*
X0089100Y0080257D01*
X0089100Y0078659D02*
X0096200Y0078659D01*
X0096200Y0077060D02*
X0088774Y0077060D01*
X0088112Y0075462D02*
X0095532Y0075462D01*
X0094644Y0073863D02*
X0086687Y0073863D01*
X0083891Y0072265D02*
X0094400Y0072265D01*
X0094673Y0070666D02*
X0071600Y0070666D01*
X0071600Y0069068D02*
X0095603Y0069068D01*
X0096200Y0067469D02*
X0075670Y0067469D01*
X0072930Y0067469D02*
X0071600Y0067469D01*
X0078225Y0065870D02*
X0096200Y0065870D01*
X0096200Y0064272D02*
X0079220Y0064272D01*
X0079600Y0062673D02*
X0096200Y0062673D01*
X0096245Y0061075D02*
X0079600Y0061075D01*
X0080879Y0059476D02*
X0097239Y0059476D01*
X0092740Y0056279D02*
X0111901Y0056279D01*
X0110302Y0057878D02*
X0084076Y0057878D01*
X0079803Y0053082D02*
X0078578Y0053082D01*
X0076522Y0051484D02*
X0083000Y0051484D01*
X0083700Y0049885D02*
X0006600Y0049885D01*
X0006600Y0048287D02*
X0084894Y0048287D01*
X0086269Y0046688D02*
X0077407Y0046688D01*
X0078881Y0045090D02*
X0084670Y0045090D01*
X0081800Y0041800D02*
X0089300Y0041800D01*
X0086083Y0037097D02*
X0079600Y0037097D01*
X0082290Y0038696D02*
X0084485Y0038696D01*
X0081800Y0041800D02*
X0074300Y0039300D01*
X0069719Y0045090D02*
X0068881Y0045090D01*
X0067407Y0046688D02*
X0071193Y0046688D01*
X0072078Y0051484D02*
X0066522Y0051484D01*
X0068578Y0053082D02*
X0070022Y0053082D01*
X0074300Y0059300D02*
X0089300Y0051800D01*
X0102400Y0065870D02*
X0110451Y0065870D01*
X0102400Y0067469D02*
X0134352Y0067469D01*
X0139300Y0101800D02*
X0151800Y0101800D01*
X0148700Y0105833D02*
X0144796Y0105833D01*
X0144158Y0107432D02*
X0148700Y0107432D01*
X0148700Y0109030D02*
X0146056Y0109030D01*
X0146719Y0110629D02*
X0148700Y0110629D01*
X0148700Y0112227D02*
X0146800Y0112227D01*
X0146365Y0113826D02*
X0148700Y0113826D01*
X0148700Y0115424D02*
X0145205Y0115424D01*
X0134530Y0136205D02*
X0128856Y0136205D01*
X0127826Y0137803D02*
X0133767Y0137803D01*
X0139300Y0151800D02*
X0139300Y0176800D01*
X0119400Y0164978D02*
X0119200Y0164978D01*
X0119200Y0163380D02*
X0119400Y0163380D01*
X0119400Y0161781D02*
X0119200Y0161781D01*
X0119200Y0160183D02*
X0119400Y0160183D01*
X0119400Y0158584D02*
X0119200Y0158584D01*
X0118686Y0156986D02*
X0119913Y0156986D01*
X0121183Y0155387D02*
X0117417Y0155387D01*
X0109405Y0128212D02*
X0109195Y0128212D01*
X0108533Y0126614D02*
X0110067Y0126614D01*
X0081029Y0091447D02*
X0029100Y0091447D01*
X0029100Y0093045D02*
X0056125Y0093045D01*
X0054527Y0094644D02*
X0029100Y0094644D01*
X0029100Y0096242D02*
X0054400Y0096242D01*
X0054400Y0097841D02*
X0029100Y0097841D01*
X0029100Y0099439D02*
X0055010Y0099439D01*
X0056608Y0101038D02*
X0029100Y0101038D01*
X0029100Y0102636D02*
X0056534Y0102636D01*
X0054936Y0104235D02*
X0029100Y0104235D01*
X0029100Y0105833D02*
X0054400Y0105833D01*
X0054400Y0107432D02*
X0029100Y0107432D01*
X0029100Y0109030D02*
X0054601Y0109030D01*
X0056199Y0110629D02*
X0029100Y0110629D01*
X0029100Y0089848D02*
X0083027Y0089848D01*
X0085026Y0088250D02*
X0029100Y0088250D01*
X0029100Y0086651D02*
X0087024Y0086651D01*
X0086371Y0085053D02*
X0089022Y0085053D01*
X0087970Y0083454D02*
X0091230Y0083454D01*
X0093628Y0081856D02*
X0088643Y0081856D01*
X0059729Y0085053D02*
X0029100Y0085053D01*
X0029100Y0083454D02*
X0058130Y0083454D01*
X0057457Y0081856D02*
X0029100Y0081856D01*
X0029100Y0080257D02*
X0057000Y0080257D01*
X0057000Y0078659D02*
X0029100Y0078659D01*
X0028774Y0077060D02*
X0057000Y0077060D01*
X0057000Y0075462D02*
X0028112Y0075462D01*
X0026687Y0073863D02*
X0057000Y0073863D01*
X0057000Y0072265D02*
X0023891Y0072265D01*
X0009709Y0072265D02*
X0006600Y0072265D01*
X0006600Y0073863D02*
X0006913Y0073863D01*
X0006600Y0070666D02*
X0057000Y0070666D01*
X0057000Y0069068D02*
X0006600Y0069068D01*
X0006600Y0067469D02*
X0052930Y0067469D01*
X0055670Y0067469D02*
X0057000Y0067469D01*
X0050375Y0065870D02*
X0006600Y0065870D01*
X0006600Y0064272D02*
X0049380Y0064272D01*
X0049000Y0062673D02*
X0006600Y0062673D01*
X0006600Y0061075D02*
X0049000Y0061075D01*
X0049000Y0059476D02*
X0006600Y0059476D01*
X0006600Y0057878D02*
X0049000Y0057878D01*
X0049000Y0056279D02*
X0006600Y0056279D01*
X0006600Y0054681D02*
X0049234Y0054681D01*
X0050022Y0053082D02*
X0006600Y0053082D01*
X0006600Y0051484D02*
X0052078Y0051484D01*
X0056522Y0051484D02*
X0062078Y0051484D01*
X0060022Y0053082D02*
X0058578Y0053082D01*
X0057407Y0046688D02*
X0061193Y0046688D01*
X0059719Y0045090D02*
X0058881Y0045090D01*
X0051193Y0046688D02*
X0006600Y0046688D01*
X0006600Y0045090D02*
X0049719Y0045090D01*
X0049057Y0043491D02*
X0006600Y0043491D01*
X0006600Y0041893D02*
X0049000Y0041893D01*
X0049000Y0040294D02*
X0006600Y0040294D01*
X0006600Y0038696D02*
X0049000Y0038696D01*
X0049000Y0037097D02*
X0006600Y0037097D01*
X0006600Y0035499D02*
X0049000Y0035499D01*
X0049557Y0033900D02*
X0006600Y0033900D01*
X0006600Y0032302D02*
X0050803Y0032302D01*
X0057000Y0030703D02*
X0006600Y0030703D01*
X0006600Y0029105D02*
X0057000Y0029105D01*
X0057000Y0027506D02*
X0006600Y0027506D01*
X0006600Y0025908D02*
X0057000Y0025908D01*
X0057000Y0024309D02*
X0006600Y0024309D01*
X0006600Y0022711D02*
X0057000Y0022711D01*
X0057000Y0021112D02*
X0006600Y0021112D01*
X0006600Y0019514D02*
X0009518Y0019514D01*
X0007920Y0017915D02*
X0006600Y0017915D01*
X0006600Y0011521D02*
X0007084Y0011521D01*
X0006600Y0009923D02*
X0008682Y0009923D01*
X0006600Y0008324D02*
X0059952Y0008324D01*
X0058354Y0009923D02*
X0014918Y0009923D01*
X0016516Y0011521D02*
X0057550Y0011521D01*
X0057000Y0013120D02*
X0017100Y0013120D01*
X0017100Y0014718D02*
X0057000Y0014718D01*
X0057000Y0016317D02*
X0017100Y0016317D01*
X0015680Y0017915D02*
X0057000Y0017915D01*
X0057000Y0019514D02*
X0014082Y0019514D01*
X0006600Y0006726D02*
X0127490Y0006726D01*
X0126349Y0008324D02*
X0086148Y0008324D01*
X0087746Y0009923D02*
X0126200Y0009923D01*
X0126200Y0011521D02*
X0088550Y0011521D01*
X0089100Y0013120D02*
X0126200Y0013120D01*
X0126200Y0014718D02*
X0089100Y0014718D01*
X0088866Y0016317D02*
X0126200Y0016317D01*
X0126200Y0017915D02*
X0088204Y0017915D01*
X0086910Y0019514D02*
X0126200Y0019514D01*
X0126200Y0021112D02*
X0084430Y0021112D01*
X0077797Y0032302D02*
X0126200Y0032302D01*
X0126200Y0030703D02*
X0071600Y0030703D01*
X0071600Y0029105D02*
X0126200Y0029105D01*
X0126200Y0027506D02*
X0071600Y0027506D01*
X0071600Y0025908D02*
X0126200Y0025908D01*
X0126200Y0024309D02*
X0071600Y0024309D01*
X0071600Y0022711D02*
X0126200Y0022711D01*
X0132400Y0024309D02*
X0132436Y0024309D01*
X0132400Y0025908D02*
X0133878Y0025908D01*
X0134262Y0027506D02*
X0132400Y0027506D01*
X0129300Y0031800D02*
X0129300Y0009300D01*
X0176800Y0009300D01*
X0191800Y0019300D01*
X0196143Y0014718D02*
X0217457Y0014718D01*
X0218225Y0014400D02*
X0216424Y0015146D01*
X0215046Y0016524D01*
X0214300Y0018325D01*
X0214300Y0020275D01*
X0215046Y0022076D01*
X0216424Y0023454D01*
X0218225Y0024200D01*
X0225375Y0024200D01*
X0227176Y0023454D01*
X0228554Y0022076D01*
X0229300Y0020275D01*
X0229300Y0018325D01*
X0228554Y0016524D01*
X0227176Y0015146D01*
X0225375Y0014400D01*
X0218225Y0014400D01*
X0217005Y0013120D02*
X0197510Y0013120D01*
X0198784Y0011521D02*
X0215393Y0011521D01*
X0214844Y0009923D02*
X0199300Y0009923D01*
X0199299Y0008324D02*
X0214900Y0008324D01*
X0215632Y0006726D02*
X0198637Y0006726D01*
X0198346Y0016317D02*
X0215254Y0016317D01*
X0214470Y0017915D02*
X0199130Y0017915D01*
X0199300Y0019514D02*
X0214300Y0019514D01*
X0214647Y0021112D02*
X0198953Y0021112D01*
X0197919Y0022711D02*
X0215681Y0022711D01*
X0216424Y0025146D02*
X0218225Y0024400D01*
X0225375Y0024400D01*
X0227176Y0025146D01*
X0228554Y0026524D01*
X0229300Y0028325D01*
X0229300Y0030275D01*
X0228554Y0032076D01*
X0227176Y0033454D01*
X0225375Y0034200D01*
X0218225Y0034200D01*
X0216424Y0033454D01*
X0215046Y0032076D01*
X0214300Y0030275D01*
X0214300Y0028325D01*
X0215046Y0026524D01*
X0216424Y0025146D01*
X0215663Y0025908D02*
X0197937Y0025908D01*
X0198961Y0027506D02*
X0214639Y0027506D01*
X0214300Y0029105D02*
X0199300Y0029105D01*
X0199122Y0030703D02*
X0214478Y0030703D01*
X0215272Y0032302D02*
X0198328Y0032302D01*
X0196098Y0033900D02*
X0217502Y0033900D01*
X0216072Y0035499D02*
X0197528Y0035499D01*
X0198791Y0037097D02*
X0214809Y0037097D01*
X0214300Y0038696D02*
X0199300Y0038696D01*
X0199292Y0040294D02*
X0214308Y0040294D01*
X0214970Y0041893D02*
X0198630Y0041893D01*
X0191800Y0049300D02*
X0169300Y0031800D01*
X0169300Y0041800D02*
X0191800Y0059300D01*
X0190385Y0064272D02*
X0253201Y0064272D01*
X0253201Y0065870D02*
X0248159Y0065870D01*
X0247927Y0065639D02*
X0248461Y0066173D01*
X0248905Y0066784D01*
X0249248Y0067457D01*
X0249482Y0068176D01*
X0249600Y0068922D01*
X0249600Y0069100D01*
X0242000Y0069100D01*
X0242000Y0064500D01*
X0245178Y0064500D01*
X0245924Y0064618D01*
X0246643Y0064852D01*
X0247316Y0065195D01*
X0247927Y0065639D01*
X0249252Y0067469D02*
X0253201Y0067469D01*
X0253201Y0069068D02*
X0249600Y0069068D01*
X0249403Y0070666D02*
X0253201Y0070666D01*
X0253201Y0072265D02*
X0248579Y0072265D01*
X0246289Y0073863D02*
X0253201Y0073863D01*
X0253201Y0075462D02*
X0248457Y0075462D01*
X0249609Y0077060D02*
X0253201Y0077060D01*
X0253201Y0078659D02*
X0250100Y0078659D01*
X0250100Y0080257D02*
X0253201Y0080257D01*
X0253201Y0081856D02*
X0249478Y0081856D01*
X0248141Y0083454D02*
X0253201Y0083454D01*
X0253201Y0085053D02*
X0248048Y0085053D01*
X0249439Y0086651D02*
X0253201Y0086651D01*
X0253201Y0088250D02*
X0250100Y0088250D01*
X0250100Y0089848D02*
X0253201Y0089848D01*
X0253201Y0091447D02*
X0249647Y0091447D01*
X0248550Y0093045D02*
X0253201Y0093045D01*
X0253201Y0094644D02*
X0247408Y0094644D01*
X0249238Y0096242D02*
X0253201Y0096242D01*
X0253201Y0097841D02*
X0249932Y0097841D01*
X0250100Y0099439D02*
X0253201Y0099439D01*
X0253201Y0101038D02*
X0249817Y0101038D01*
X0248959Y0102636D02*
X0253201Y0102636D01*
X0253201Y0104235D02*
X0246736Y0104235D01*
X0248829Y0105833D02*
X0253201Y0105833D01*
X0253201Y0107432D02*
X0249763Y0107432D01*
X0250100Y0109030D02*
X0253201Y0109030D01*
X0253201Y0110629D02*
X0249986Y0110629D01*
X0249324Y0112227D02*
X0253201Y0112227D01*
X0235050Y0093045D02*
X0227584Y0093045D01*
X0228815Y0091447D02*
X0233953Y0091447D01*
X0233500Y0089848D02*
X0229300Y0089848D01*
X0229269Y0088250D02*
X0233500Y0088250D01*
X0234161Y0086651D02*
X0228607Y0086651D01*
X0226950Y0085053D02*
X0235552Y0085053D01*
X0235459Y0083454D02*
X0227175Y0083454D01*
X0228645Y0081856D02*
X0234122Y0081856D01*
X0233500Y0080257D02*
X0229300Y0080257D01*
X0229300Y0078659D02*
X0233500Y0078659D01*
X0233991Y0077060D02*
X0228776Y0077060D01*
X0227491Y0075462D02*
X0235143Y0075462D01*
X0237311Y0073863D02*
X0226188Y0073863D01*
X0228365Y0072265D02*
X0235021Y0072265D01*
X0234197Y0070666D02*
X0229138Y0070666D01*
X0229300Y0069068D02*
X0234000Y0069068D01*
X0234000Y0069100D02*
X0234000Y0068922D01*
X0234118Y0068176D01*
X0234352Y0067457D01*
X0234695Y0066784D01*
X0235139Y0066173D01*
X0235673Y0065639D01*
X0236284Y0065195D01*
X0236957Y0064852D01*
X0237676Y0064618D01*
X0238422Y0064500D01*
X0241600Y0064500D01*
X0241600Y0069100D01*
X0234000Y0069100D01*
X0234348Y0067469D02*
X0228945Y0067469D01*
X0227900Y0065870D02*
X0235441Y0065870D01*
X0228969Y0061075D02*
X0253201Y0061075D01*
X0253201Y0062673D02*
X0227956Y0062673D01*
X0229300Y0059476D02*
X0253201Y0059476D01*
X0253201Y0057878D02*
X0229115Y0057878D01*
X0228309Y0056279D02*
X0235784Y0056279D01*
X0235798Y0056293D02*
X0234307Y0054802D01*
X0233500Y0052854D01*
X0233500Y0050746D01*
X0234307Y0048798D01*
X0235798Y0047307D01*
X0237022Y0046800D01*
X0235798Y0046293D01*
X0234307Y0044802D01*
X0233500Y0042854D01*
X0233500Y0040746D01*
X0234307Y0038798D01*
X0235798Y0037307D01*
X0237022Y0036800D01*
X0235798Y0036293D01*
X0234307Y0034802D01*
X0233500Y0032854D01*
X0233500Y0030746D01*
X0234307Y0028798D01*
X0235798Y0027307D01*
X0237022Y0026800D01*
X0235798Y0026293D01*
X0234307Y0024802D01*
X0233500Y0022854D01*
X0233500Y0020746D01*
X0234307Y0018798D01*
X0235798Y0017307D01*
X0237746Y0016500D01*
X0237791Y0016500D01*
X0237676Y0016482D01*
X0236957Y0016248D01*
X0236284Y0015905D01*
X0235673Y0015461D01*
X0235139Y0014927D01*
X0234695Y0014316D01*
X0234352Y0013643D01*
X0234118Y0012924D01*
X0234000Y0012178D01*
X0234000Y0012000D01*
X0241600Y0012000D01*
X0241600Y0011600D01*
X0242000Y0011600D01*
X0242000Y0012000D01*
X0249600Y0012000D01*
X0249600Y0012178D01*
X0249482Y0012924D01*
X0249248Y0013643D01*
X0248905Y0014316D01*
X0248461Y0014927D01*
X0247927Y0015461D01*
X0247316Y0015905D01*
X0246643Y0016248D01*
X0245924Y0016482D01*
X0245809Y0016500D01*
X0245854Y0016500D01*
X0247802Y0017307D01*
X0249293Y0018798D01*
X0250100Y0020746D01*
X0250100Y0022854D01*
X0249293Y0024802D01*
X0247802Y0026293D01*
X0246578Y0026800D01*
X0247802Y0027307D01*
X0249293Y0028798D01*
X0250100Y0030746D01*
X0250100Y0032854D01*
X0249293Y0034802D01*
X0247802Y0036293D01*
X0246578Y0036800D01*
X0247802Y0037307D01*
X0249293Y0038798D01*
X0250100Y0040746D01*
X0250100Y0042854D01*
X0249293Y0044802D01*
X0247802Y0046293D01*
X0246578Y0046800D01*
X0247802Y0047307D01*
X0249293Y0048798D01*
X0250100Y0050746D01*
X0250100Y0052854D01*
X0249293Y0054802D01*
X0247802Y0056293D01*
X0245854Y0057100D01*
X0237746Y0057100D01*
X0235798Y0056293D01*
X0234257Y0054681D02*
X0226053Y0054681D01*
X0227547Y0053082D02*
X0233595Y0053082D01*
X0233500Y0051484D02*
X0228799Y0051484D01*
X0229300Y0049885D02*
X0233856Y0049885D01*
X0234818Y0048287D02*
X0229284Y0048287D01*
X0228622Y0046688D02*
X0236752Y0046688D01*
X0234595Y0045090D02*
X0227040Y0045090D01*
X0227086Y0043491D02*
X0233764Y0043491D01*
X0233500Y0041893D02*
X0228630Y0041893D01*
X0229292Y0040294D02*
X0233687Y0040294D01*
X0234409Y0038696D02*
X0229300Y0038696D01*
X0228791Y0037097D02*
X0236304Y0037097D01*
X0235003Y0035499D02*
X0227528Y0035499D01*
X0226098Y0033900D02*
X0233933Y0033900D01*
X0233500Y0032302D02*
X0228328Y0032302D01*
X0229122Y0030703D02*
X0233518Y0030703D01*
X0234180Y0029105D02*
X0229300Y0029105D01*
X0228961Y0027506D02*
X0235598Y0027506D01*
X0235412Y0025908D02*
X0227937Y0025908D01*
X0227919Y0022711D02*
X0233500Y0022711D01*
X0233500Y0021112D02*
X0228953Y0021112D01*
X0229300Y0019514D02*
X0234010Y0019514D01*
X0235190Y0017915D02*
X0229130Y0017915D01*
X0228346Y0016317D02*
X0237168Y0016317D01*
X0234987Y0014718D02*
X0226143Y0014718D01*
X0226595Y0013120D02*
X0234182Y0013120D01*
X0234000Y0011600D02*
X0234000Y0011422D01*
X0234118Y0010676D01*
X0234352Y0009957D01*
X0234695Y0009284D01*
X0235139Y0008673D01*
X0235673Y0008139D01*
X0236284Y0007695D01*
X0236957Y0007352D01*
X0237676Y0007118D01*
X0238422Y0007000D01*
X0241600Y0007000D01*
X0241600Y0011600D01*
X0234000Y0011600D01*
X0234000Y0011521D02*
X0228207Y0011521D01*
X0228756Y0009923D02*
X0234369Y0009923D01*
X0235488Y0008324D02*
X0228700Y0008324D01*
X0227968Y0006726D02*
X0253201Y0006726D01*
X0253201Y0008324D02*
X0248112Y0008324D01*
X0247927Y0008139D02*
X0248461Y0008673D01*
X0248905Y0009284D01*
X0249248Y0009957D01*
X0249482Y0010676D01*
X0249600Y0011422D01*
X0249600Y0011600D01*
X0242000Y0011600D01*
X0242000Y0007000D01*
X0245178Y0007000D01*
X0245924Y0007118D01*
X0246643Y0007352D01*
X0247316Y0007695D01*
X0247927Y0008139D01*
X0249231Y0009923D02*
X0253201Y0009923D01*
X0253201Y0011521D02*
X0249600Y0011521D01*
X0249418Y0013120D02*
X0253201Y0013120D01*
X0253201Y0014718D02*
X0248613Y0014718D01*
X0246432Y0016317D02*
X0253201Y0016317D01*
X0253201Y0017915D02*
X0248410Y0017915D01*
X0249590Y0019514D02*
X0253201Y0019514D01*
X0253201Y0021112D02*
X0250100Y0021112D01*
X0250100Y0022711D02*
X0253201Y0022711D01*
X0253201Y0024309D02*
X0249497Y0024309D01*
X0248188Y0025908D02*
X0253201Y0025908D01*
X0253201Y0027506D02*
X0248002Y0027506D01*
X0249420Y0029105D02*
X0253201Y0029105D01*
X0253201Y0030703D02*
X0250082Y0030703D01*
X0250100Y0032302D02*
X0253201Y0032302D01*
X0253201Y0033900D02*
X0249667Y0033900D01*
X0248597Y0035499D02*
X0253201Y0035499D01*
X0253201Y0037097D02*
X0247296Y0037097D01*
X0249191Y0038696D02*
X0253201Y0038696D01*
X0253201Y0040294D02*
X0249913Y0040294D01*
X0250100Y0041893D02*
X0253201Y0041893D01*
X0253201Y0043491D02*
X0249836Y0043491D01*
X0249005Y0045090D02*
X0253201Y0045090D01*
X0253201Y0046688D02*
X0246848Y0046688D01*
X0248782Y0048287D02*
X0253201Y0048287D01*
X0253201Y0049885D02*
X0249744Y0049885D01*
X0250100Y0051484D02*
X0253201Y0051484D01*
X0253201Y0053082D02*
X0250005Y0053082D01*
X0249343Y0054681D02*
X0253201Y0054681D01*
X0253201Y0056279D02*
X0247816Y0056279D01*
X0242000Y0065870D02*
X0241600Y0065870D01*
X0241600Y0067469D02*
X0242000Y0067469D01*
X0242000Y0069068D02*
X0241600Y0069068D01*
X0214300Y0101800D02*
X0191800Y0089300D01*
X0195035Y0094644D02*
X0183669Y0094644D01*
X0184400Y0093045D02*
X0186016Y0093045D01*
X0184785Y0091447D02*
X0184400Y0091447D01*
X0184331Y0088250D02*
X0182962Y0088250D01*
X0181661Y0086651D02*
X0184993Y0086651D01*
X0186650Y0085053D02*
X0183260Y0085053D01*
X0184400Y0083454D02*
X0186425Y0083454D01*
X0184955Y0081856D02*
X0184400Y0081856D01*
X0184300Y0078659D02*
X0183371Y0078659D01*
X0183647Y0077060D02*
X0181773Y0077060D01*
X0181515Y0075462D02*
X0174346Y0075462D01*
X0173261Y0077060D02*
X0176827Y0077060D01*
X0175787Y0073863D02*
X0179416Y0073863D01*
X0177418Y0072265D02*
X0176281Y0072265D01*
X0181800Y0071800D02*
X0191800Y0079300D01*
X0191800Y0069300D02*
X0169300Y0051800D01*
X0169300Y0061800D02*
X0181800Y0071800D01*
X0179300Y0081800D02*
X0169300Y0081800D01*
X0172993Y0086651D02*
X0176939Y0086651D01*
X0175638Y0088250D02*
X0175279Y0088250D01*
X0176530Y0096242D02*
X0173980Y0096242D01*
X0174870Y0097841D02*
X0186754Y0097841D01*
X0187395Y0097200D02*
X0189300Y0097200D01*
X0191205Y0097200D01*
X0193900Y0099895D01*
X0193900Y0101800D01*
X0189300Y0101800D01*
X0189300Y0097200D01*
X0189300Y0101800D01*
X0189300Y0101800D01*
X0189300Y0101800D01*
X0184700Y0101800D01*
X0184700Y0099895D01*
X0187395Y0097200D01*
X0189300Y0097841D02*
X0189300Y0097841D01*
X0189300Y0099439D02*
X0189300Y0099439D01*
X0189300Y0101038D02*
X0189300Y0101038D01*
X0189300Y0102636D02*
X0189300Y0102636D01*
X0189300Y0104235D02*
X0189300Y0104235D01*
X0189300Y0105833D02*
X0189300Y0105833D01*
X0186828Y0105833D02*
X0186581Y0105833D01*
X0185229Y0104235D02*
X0182851Y0104235D01*
X0184700Y0102636D02*
X0179121Y0102636D01*
X0176800Y0101038D02*
X0184700Y0101038D01*
X0185155Y0099439D02*
X0176226Y0099439D01*
X0182070Y0096242D02*
X0197913Y0096242D01*
X0196047Y0097841D02*
X0191846Y0097841D01*
X0193445Y0099439D02*
X0194448Y0099439D01*
X0194200Y0101038D02*
X0193900Y0101038D01*
X0193900Y0102636D02*
X0194200Y0102636D01*
X0194522Y0104235D02*
X0193371Y0104235D01*
X0191772Y0105833D02*
X0196121Y0105833D01*
X0196847Y0107432D02*
X0200673Y0107432D01*
X0198014Y0113826D02*
X0188928Y0113826D01*
X0185677Y0112227D02*
X0182934Y0112227D01*
X0182031Y0110629D02*
X0176939Y0110629D01*
X0176056Y0109030D02*
X0178301Y0109030D01*
X0174571Y0107432D02*
X0174158Y0107432D01*
X0169300Y0101800D02*
X0186800Y0109300D01*
X0206800Y0111800D01*
X0201483Y0117023D02*
X0200917Y0117023D01*
X0199929Y0115424D02*
X0194922Y0115424D01*
X0179758Y0123417D02*
X0179466Y0123417D01*
X0169300Y0075462D02*
X0169300Y0075462D01*
X0169300Y0073863D02*
X0169300Y0073863D01*
X0169300Y0072265D02*
X0169300Y0072265D01*
X0169300Y0070666D02*
X0169300Y0070666D01*
X0169300Y0069068D02*
X0169300Y0069068D01*
X0169300Y0067469D02*
X0169300Y0067469D01*
X0139300Y0031800D02*
X0129300Y0031800D01*
X0139300Y0021800D02*
X0139300Y0014300D01*
X0174300Y0014300D01*
X0191800Y0029300D01*
X0190741Y0024309D02*
X0234103Y0024309D01*
X0241600Y0011521D02*
X0242000Y0011521D01*
X0242000Y0009923D02*
X0241600Y0009923D01*
X0241600Y0008324D02*
X0242000Y0008324D01*
X0221800Y0009923D02*
X0221800Y0009923D01*
X0221800Y0011521D02*
X0221800Y0011521D01*
X0221800Y0013120D02*
X0221800Y0013120D01*
X0071082Y0117023D02*
X0067518Y0117023D01*
X0068945Y0118621D02*
X0069673Y0118621D01*
X0061082Y0117023D02*
X0057518Y0117023D01*
X0058927Y0118621D02*
X0059655Y0118621D01*
X0058669Y0148993D02*
X0029100Y0148993D01*
X0029100Y0150592D02*
X0060413Y0150592D01*
X0108614Y0195350D02*
X0183333Y0195350D01*
X0182671Y0196948D02*
X0109651Y0196948D01*
X0110143Y0198547D02*
X0182276Y0198547D01*
X0182276Y0200145D02*
X0110143Y0200145D01*
X0109612Y0201744D02*
X0182709Y0201744D01*
X0183408Y0203342D02*
X0108521Y0203342D01*
X0105951Y0204941D02*
X0185007Y0204941D01*
X0175993Y0217729D02*
X0212116Y0217729D01*
X0211454Y0216131D02*
X0173354Y0216131D01*
X0170285Y0216131D02*
X0127146Y0216131D01*
X0127250Y0214532D02*
X0211350Y0214532D01*
X0211350Y0212934D02*
X0127250Y0212934D01*
X0126676Y0211335D02*
X0211924Y0211335D01*
X0212621Y0209737D02*
X0125979Y0209737D01*
X0124380Y0208138D02*
X0214220Y0208138D01*
X0213085Y0219328D02*
X0177112Y0219328D01*
X0177663Y0220926D02*
X0214684Y0220926D01*
X0169830Y0227320D02*
X0093222Y0227320D01*
X0085378Y0227320D02*
X0041160Y0227320D01*
X0041612Y0228919D02*
X0083439Y0228919D01*
X0082262Y0230517D02*
X0041612Y0230517D01*
X0041612Y0232116D02*
X0081600Y0232116D01*
X0081350Y0233714D02*
X0041032Y0233714D01*
X0040370Y0235313D02*
X0081350Y0235313D01*
X0081777Y0236911D02*
X0039128Y0236911D01*
X0040498Y0225722D02*
X0167458Y0225722D01*
X0166449Y0224123D02*
X0039436Y0224123D01*
X0037838Y0222525D02*
X0165976Y0222525D01*
X0165976Y0220926D02*
X0123916Y0220926D01*
X0125515Y0219328D02*
X0166527Y0219328D01*
X0167647Y0217729D02*
X0126484Y0217729D01*
X0114684Y0220926D02*
X0034657Y0220926D01*
X0028943Y0220926D02*
X0021887Y0220926D01*
X0022549Y0219328D02*
X0113085Y0219328D01*
X0112116Y0217729D02*
X0022714Y0217729D01*
X0021848Y0212934D02*
X0024694Y0212934D01*
X0023378Y0211335D02*
X0021136Y0211335D01*
X0022507Y0209737D02*
X0019538Y0209737D01*
X0017202Y0208138D02*
X0021985Y0208138D01*
X0008603Y0208138D02*
X0006600Y0208138D01*
X0021225Y0222525D02*
X0025762Y0222525D01*
X0024164Y0224123D02*
X0019632Y0224123D01*
X0017431Y0225722D02*
X0023102Y0225722D01*
X0022440Y0227320D02*
X0006600Y0227320D01*
X0006600Y0225722D02*
X0008374Y0225722D01*
X0006600Y0228919D02*
X0021988Y0228919D01*
X0021988Y0230517D02*
X0006600Y0230517D01*
X0006600Y0232116D02*
X0021988Y0232116D01*
X0022568Y0233714D02*
X0006600Y0233714D01*
X0006600Y0235313D02*
X0023230Y0235313D01*
X0024472Y0236911D02*
X0006600Y0236911D01*
D23*
X0131800Y0166800D03*
X0159300Y0164300D03*
D24*
X0081800Y0144300D02*
X0064300Y0144300D01*
X0064300Y0124300D01*
X0064300Y0079300D02*
X0081800Y0079300D01*
X0064300Y0079300D02*
X0064300Y0059300D01*
X0064300Y0039300D02*
X0064300Y0014300D01*
X0081800Y0014300D01*
X0021800Y0079300D02*
X0011800Y0079300D01*
X0021800Y0079300D02*
X0021800Y0181800D01*
X0044300Y0181800D01*
D25*
X0219300Y0129300D03*
X0224300Y0159300D03*
M02*
