G75*
%MOIN*%
%OFA0B0*%
%FSLAX25Y25*%
%IPPOS*%
%LPD*%
%AMOC8*
5,1,8,0,0,1.08239X$1,22.5*
%
%ADD10C,0.00600*%
%ADD11R,0.15000X0.50000*%
%ADD12R,0.02500X0.05000*%
%ADD13R,0.02500X0.27500*%
%ADD14R,0.02500X0.07500*%
%ADD15R,0.02500X0.35000*%
%ADD16C,0.00500*%
%ADD17C,0.01200*%
%ADD18C,0.00060*%
%ADD19C,0.00800*%
%ADD20C,0.00400*%
%ADD21C,0.00700*%
%ADD22C,0.01600*%
%ADD23R,0.42000X0.03000*%
%ADD24R,0.07500X0.02000*%
%ADD25R,0.03000X0.02000*%
%ADD26R,0.02400X0.03400*%
%ADD27R,0.03400X0.02400*%
D10*
X0014300Y0003800D02*
X0014300Y0010300D01*
X0014300Y0003800D02*
X0014302Y0003724D01*
X0014308Y0003648D01*
X0014317Y0003573D01*
X0014331Y0003498D01*
X0014348Y0003424D01*
X0014369Y0003351D01*
X0014393Y0003279D01*
X0014422Y0003208D01*
X0014453Y0003139D01*
X0014488Y0003072D01*
X0014527Y0003007D01*
X0014569Y0002943D01*
X0014614Y0002882D01*
X0014662Y0002823D01*
X0014713Y0002767D01*
X0014767Y0002713D01*
X0014823Y0002662D01*
X0014882Y0002614D01*
X0014943Y0002569D01*
X0015007Y0002527D01*
X0015072Y0002488D01*
X0015139Y0002453D01*
X0015208Y0002422D01*
X0015279Y0002393D01*
X0015351Y0002369D01*
X0015424Y0002348D01*
X0015498Y0002331D01*
X0015573Y0002317D01*
X0015648Y0002308D01*
X0015724Y0002302D01*
X0015800Y0002300D01*
X0019300Y0002300D01*
X0020300Y0003300D01*
X0073300Y0003300D01*
X0074300Y0002300D01*
X0077800Y0002300D01*
X0077876Y0002302D01*
X0077952Y0002308D01*
X0078027Y0002317D01*
X0078102Y0002331D01*
X0078176Y0002348D01*
X0078249Y0002369D01*
X0078321Y0002393D01*
X0078392Y0002422D01*
X0078461Y0002453D01*
X0078528Y0002488D01*
X0078593Y0002527D01*
X0078657Y0002569D01*
X0078718Y0002614D01*
X0078777Y0002662D01*
X0078833Y0002713D01*
X0078887Y0002767D01*
X0078938Y0002823D01*
X0078986Y0002882D01*
X0079031Y0002943D01*
X0079073Y0003007D01*
X0079112Y0003072D01*
X0079147Y0003139D01*
X0079178Y0003208D01*
X0079207Y0003279D01*
X0079231Y0003351D01*
X0079252Y0003424D01*
X0079269Y0003498D01*
X0079283Y0003573D01*
X0079292Y0003648D01*
X0079298Y0003724D01*
X0079300Y0003800D01*
X0079300Y0010300D01*
X0079300Y0018300D02*
X0079300Y0024800D01*
X0079298Y0024876D01*
X0079292Y0024952D01*
X0079283Y0025027D01*
X0079269Y0025102D01*
X0079252Y0025176D01*
X0079231Y0025249D01*
X0079207Y0025321D01*
X0079178Y0025392D01*
X0079147Y0025461D01*
X0079112Y0025528D01*
X0079073Y0025593D01*
X0079031Y0025657D01*
X0078986Y0025718D01*
X0078938Y0025777D01*
X0078887Y0025833D01*
X0078833Y0025887D01*
X0078777Y0025938D01*
X0078718Y0025986D01*
X0078657Y0026031D01*
X0078593Y0026073D01*
X0078528Y0026112D01*
X0078461Y0026147D01*
X0078392Y0026178D01*
X0078321Y0026207D01*
X0078249Y0026231D01*
X0078176Y0026252D01*
X0078102Y0026269D01*
X0078027Y0026283D01*
X0077952Y0026292D01*
X0077876Y0026298D01*
X0077800Y0026300D01*
X0074300Y0026300D01*
X0073300Y0025300D01*
X0020300Y0025300D01*
X0019300Y0026300D01*
X0015800Y0026300D01*
X0015724Y0026298D01*
X0015648Y0026292D01*
X0015573Y0026283D01*
X0015498Y0026269D01*
X0015424Y0026252D01*
X0015351Y0026231D01*
X0015279Y0026207D01*
X0015208Y0026178D01*
X0015139Y0026147D01*
X0015072Y0026112D01*
X0015007Y0026073D01*
X0014943Y0026031D01*
X0014882Y0025986D01*
X0014823Y0025938D01*
X0014767Y0025887D01*
X0014713Y0025833D01*
X0014662Y0025777D01*
X0014614Y0025718D01*
X0014569Y0025657D01*
X0014527Y0025593D01*
X0014488Y0025528D01*
X0014453Y0025461D01*
X0014422Y0025392D01*
X0014393Y0025321D01*
X0014369Y0025249D01*
X0014348Y0025176D01*
X0014331Y0025102D01*
X0014317Y0025027D01*
X0014308Y0024952D01*
X0014302Y0024876D01*
X0014300Y0024800D01*
X0014300Y0018300D01*
X0015800Y0067300D02*
X0019300Y0067300D01*
X0020300Y0068300D01*
X0073300Y0068300D01*
X0074300Y0067300D01*
X0077800Y0067300D01*
X0077876Y0067302D01*
X0077952Y0067308D01*
X0078027Y0067317D01*
X0078102Y0067331D01*
X0078176Y0067348D01*
X0078249Y0067369D01*
X0078321Y0067393D01*
X0078392Y0067422D01*
X0078461Y0067453D01*
X0078528Y0067488D01*
X0078593Y0067527D01*
X0078657Y0067569D01*
X0078718Y0067614D01*
X0078777Y0067662D01*
X0078833Y0067713D01*
X0078887Y0067767D01*
X0078938Y0067823D01*
X0078986Y0067882D01*
X0079031Y0067943D01*
X0079073Y0068007D01*
X0079112Y0068072D01*
X0079147Y0068139D01*
X0079178Y0068208D01*
X0079207Y0068279D01*
X0079231Y0068351D01*
X0079252Y0068424D01*
X0079269Y0068498D01*
X0079283Y0068573D01*
X0079292Y0068648D01*
X0079298Y0068724D01*
X0079300Y0068800D01*
X0079300Y0075300D01*
X0079300Y0083300D02*
X0079300Y0089800D01*
X0079298Y0089876D01*
X0079292Y0089952D01*
X0079283Y0090027D01*
X0079269Y0090102D01*
X0079252Y0090176D01*
X0079231Y0090249D01*
X0079207Y0090321D01*
X0079178Y0090392D01*
X0079147Y0090461D01*
X0079112Y0090528D01*
X0079073Y0090593D01*
X0079031Y0090657D01*
X0078986Y0090718D01*
X0078938Y0090777D01*
X0078887Y0090833D01*
X0078833Y0090887D01*
X0078777Y0090938D01*
X0078718Y0090986D01*
X0078657Y0091031D01*
X0078593Y0091073D01*
X0078528Y0091112D01*
X0078461Y0091147D01*
X0078392Y0091178D01*
X0078321Y0091207D01*
X0078249Y0091231D01*
X0078176Y0091252D01*
X0078102Y0091269D01*
X0078027Y0091283D01*
X0077952Y0091292D01*
X0077876Y0091298D01*
X0077800Y0091300D01*
X0074300Y0091300D01*
X0073300Y0090300D01*
X0020300Y0090300D01*
X0019300Y0091300D01*
X0015800Y0091300D01*
X0015724Y0091298D01*
X0015648Y0091292D01*
X0015573Y0091283D01*
X0015498Y0091269D01*
X0015424Y0091252D01*
X0015351Y0091231D01*
X0015279Y0091207D01*
X0015208Y0091178D01*
X0015139Y0091147D01*
X0015072Y0091112D01*
X0015007Y0091073D01*
X0014943Y0091031D01*
X0014882Y0090986D01*
X0014823Y0090938D01*
X0014767Y0090887D01*
X0014713Y0090833D01*
X0014662Y0090777D01*
X0014614Y0090718D01*
X0014569Y0090657D01*
X0014527Y0090593D01*
X0014488Y0090528D01*
X0014453Y0090461D01*
X0014422Y0090392D01*
X0014393Y0090321D01*
X0014369Y0090249D01*
X0014348Y0090176D01*
X0014331Y0090102D01*
X0014317Y0090027D01*
X0014308Y0089952D01*
X0014302Y0089876D01*
X0014300Y0089800D01*
X0014300Y0083300D01*
X0014300Y0075300D02*
X0014300Y0068800D01*
X0014302Y0068724D01*
X0014308Y0068648D01*
X0014317Y0068573D01*
X0014331Y0068498D01*
X0014348Y0068424D01*
X0014369Y0068351D01*
X0014393Y0068279D01*
X0014422Y0068208D01*
X0014453Y0068139D01*
X0014488Y0068072D01*
X0014527Y0068007D01*
X0014569Y0067943D01*
X0014614Y0067882D01*
X0014662Y0067823D01*
X0014713Y0067767D01*
X0014767Y0067713D01*
X0014823Y0067662D01*
X0014882Y0067614D01*
X0014943Y0067569D01*
X0015007Y0067527D01*
X0015072Y0067488D01*
X0015139Y0067453D01*
X0015208Y0067422D01*
X0015279Y0067393D01*
X0015351Y0067369D01*
X0015424Y0067348D01*
X0015498Y0067331D01*
X0015573Y0067317D01*
X0015648Y0067308D01*
X0015724Y0067302D01*
X0015800Y0067300D01*
X0062800Y0092300D02*
X0075800Y0092300D01*
X0074300Y0096800D02*
X0070600Y0096800D01*
X0068100Y0096800D02*
X0064300Y0096800D01*
X0062800Y0101300D02*
X0075800Y0101300D01*
X0075800Y0102300D02*
X0062800Y0102300D01*
X0064300Y0106800D02*
X0068100Y0106800D01*
X0070600Y0106800D02*
X0074300Y0106800D01*
X0075800Y0111300D02*
X0062800Y0111300D01*
X0074300Y0132300D02*
X0073300Y0133300D01*
X0020300Y0133300D01*
X0019300Y0132300D01*
X0015800Y0132300D01*
X0015724Y0132302D01*
X0015648Y0132308D01*
X0015573Y0132317D01*
X0015498Y0132331D01*
X0015424Y0132348D01*
X0015351Y0132369D01*
X0015279Y0132393D01*
X0015208Y0132422D01*
X0015139Y0132453D01*
X0015072Y0132488D01*
X0015007Y0132527D01*
X0014943Y0132569D01*
X0014882Y0132614D01*
X0014823Y0132662D01*
X0014767Y0132713D01*
X0014713Y0132767D01*
X0014662Y0132823D01*
X0014614Y0132882D01*
X0014569Y0132943D01*
X0014527Y0133007D01*
X0014488Y0133072D01*
X0014453Y0133139D01*
X0014422Y0133208D01*
X0014393Y0133279D01*
X0014369Y0133351D01*
X0014348Y0133424D01*
X0014331Y0133498D01*
X0014317Y0133573D01*
X0014308Y0133648D01*
X0014302Y0133724D01*
X0014300Y0133800D01*
X0014300Y0140300D01*
X0014300Y0148300D02*
X0014300Y0154800D01*
X0014302Y0154876D01*
X0014308Y0154952D01*
X0014317Y0155027D01*
X0014331Y0155102D01*
X0014348Y0155176D01*
X0014369Y0155249D01*
X0014393Y0155321D01*
X0014422Y0155392D01*
X0014453Y0155461D01*
X0014488Y0155528D01*
X0014527Y0155593D01*
X0014569Y0155657D01*
X0014614Y0155718D01*
X0014662Y0155777D01*
X0014713Y0155833D01*
X0014767Y0155887D01*
X0014823Y0155938D01*
X0014882Y0155986D01*
X0014943Y0156031D01*
X0015007Y0156073D01*
X0015072Y0156112D01*
X0015139Y0156147D01*
X0015208Y0156178D01*
X0015279Y0156207D01*
X0015351Y0156231D01*
X0015424Y0156252D01*
X0015498Y0156269D01*
X0015573Y0156283D01*
X0015648Y0156292D01*
X0015724Y0156298D01*
X0015800Y0156300D01*
X0019300Y0156300D01*
X0020300Y0155300D01*
X0073300Y0155300D01*
X0074300Y0156300D01*
X0077800Y0156300D01*
X0077876Y0156298D01*
X0077952Y0156292D01*
X0078027Y0156283D01*
X0078102Y0156269D01*
X0078176Y0156252D01*
X0078249Y0156231D01*
X0078321Y0156207D01*
X0078392Y0156178D01*
X0078461Y0156147D01*
X0078528Y0156112D01*
X0078593Y0156073D01*
X0078657Y0156031D01*
X0078718Y0155986D01*
X0078777Y0155938D01*
X0078833Y0155887D01*
X0078887Y0155833D01*
X0078938Y0155777D01*
X0078986Y0155718D01*
X0079031Y0155657D01*
X0079073Y0155593D01*
X0079112Y0155528D01*
X0079147Y0155461D01*
X0079178Y0155392D01*
X0079207Y0155321D01*
X0079231Y0155249D01*
X0079252Y0155176D01*
X0079269Y0155102D01*
X0079283Y0155027D01*
X0079292Y0154952D01*
X0079298Y0154876D01*
X0079300Y0154800D01*
X0079300Y0148300D01*
X0079300Y0140300D02*
X0079300Y0133800D01*
X0079298Y0133724D01*
X0079292Y0133648D01*
X0079283Y0133573D01*
X0079269Y0133498D01*
X0079252Y0133424D01*
X0079231Y0133351D01*
X0079207Y0133279D01*
X0079178Y0133208D01*
X0079147Y0133139D01*
X0079112Y0133072D01*
X0079073Y0133007D01*
X0079031Y0132943D01*
X0078986Y0132882D01*
X0078938Y0132823D01*
X0078887Y0132767D01*
X0078833Y0132713D01*
X0078777Y0132662D01*
X0078718Y0132614D01*
X0078657Y0132569D01*
X0078593Y0132527D01*
X0078528Y0132488D01*
X0078461Y0132453D01*
X0078392Y0132422D01*
X0078321Y0132393D01*
X0078249Y0132369D01*
X0078176Y0132348D01*
X0078102Y0132331D01*
X0078027Y0132317D01*
X0077952Y0132308D01*
X0077876Y0132302D01*
X0077800Y0132300D01*
X0074300Y0132300D01*
X0089300Y0135300D02*
X0089300Y0142800D01*
X0089426Y0142802D01*
X0089551Y0142808D01*
X0089676Y0142818D01*
X0089801Y0142832D01*
X0089926Y0142849D01*
X0090050Y0142871D01*
X0090173Y0142896D01*
X0090295Y0142926D01*
X0090416Y0142959D01*
X0090536Y0142996D01*
X0090655Y0143036D01*
X0090772Y0143081D01*
X0090889Y0143129D01*
X0091003Y0143181D01*
X0091116Y0143236D01*
X0091227Y0143295D01*
X0091336Y0143357D01*
X0091443Y0143423D01*
X0091548Y0143492D01*
X0091651Y0143564D01*
X0091752Y0143639D01*
X0091850Y0143718D01*
X0091945Y0143800D01*
X0092038Y0143884D01*
X0092128Y0143972D01*
X0092216Y0144062D01*
X0092300Y0144155D01*
X0092382Y0144250D01*
X0092461Y0144348D01*
X0092536Y0144449D01*
X0092608Y0144552D01*
X0092677Y0144657D01*
X0092743Y0144764D01*
X0092805Y0144873D01*
X0092864Y0144984D01*
X0092919Y0145097D01*
X0092971Y0145211D01*
X0093019Y0145328D01*
X0093064Y0145445D01*
X0093104Y0145564D01*
X0093141Y0145684D01*
X0093174Y0145805D01*
X0093204Y0145927D01*
X0093229Y0146050D01*
X0093251Y0146174D01*
X0093268Y0146299D01*
X0093282Y0146424D01*
X0093292Y0146549D01*
X0093298Y0146674D01*
X0093300Y0146800D01*
X0093298Y0146926D01*
X0093292Y0147051D01*
X0093282Y0147176D01*
X0093268Y0147301D01*
X0093251Y0147426D01*
X0093229Y0147550D01*
X0093204Y0147673D01*
X0093174Y0147795D01*
X0093141Y0147916D01*
X0093104Y0148036D01*
X0093064Y0148155D01*
X0093019Y0148272D01*
X0092971Y0148389D01*
X0092919Y0148503D01*
X0092864Y0148616D01*
X0092805Y0148727D01*
X0092743Y0148836D01*
X0092677Y0148943D01*
X0092608Y0149048D01*
X0092536Y0149151D01*
X0092461Y0149252D01*
X0092382Y0149350D01*
X0092300Y0149445D01*
X0092216Y0149538D01*
X0092128Y0149628D01*
X0092038Y0149716D01*
X0091945Y0149800D01*
X0091850Y0149882D01*
X0091752Y0149961D01*
X0091651Y0150036D01*
X0091548Y0150108D01*
X0091443Y0150177D01*
X0091336Y0150243D01*
X0091227Y0150305D01*
X0091116Y0150364D01*
X0091003Y0150419D01*
X0090889Y0150471D01*
X0090772Y0150519D01*
X0090655Y0150564D01*
X0090536Y0150604D01*
X0090416Y0150641D01*
X0090295Y0150674D01*
X0090173Y0150704D01*
X0090050Y0150729D01*
X0089926Y0150751D01*
X0089801Y0150768D01*
X0089676Y0150782D01*
X0089551Y0150792D01*
X0089426Y0150798D01*
X0089300Y0150800D01*
X0089300Y0158300D01*
X0129300Y0158300D01*
X0129300Y0135300D01*
X0089300Y0135300D01*
X0095300Y0118800D02*
X0096800Y0118800D01*
X0097300Y0118300D01*
X0116300Y0118300D01*
X0116800Y0118800D01*
X0118300Y0118800D01*
X0118360Y0118798D01*
X0118421Y0118793D01*
X0118480Y0118784D01*
X0118539Y0118771D01*
X0118598Y0118755D01*
X0118655Y0118735D01*
X0118710Y0118712D01*
X0118765Y0118685D01*
X0118817Y0118656D01*
X0118868Y0118623D01*
X0118917Y0118587D01*
X0118963Y0118549D01*
X0119007Y0118507D01*
X0119049Y0118463D01*
X0119087Y0118417D01*
X0119123Y0118368D01*
X0119156Y0118317D01*
X0119185Y0118265D01*
X0119212Y0118210D01*
X0119235Y0118155D01*
X0119255Y0118098D01*
X0119271Y0118039D01*
X0119284Y0117980D01*
X0119293Y0117921D01*
X0119298Y0117860D01*
X0119300Y0117800D01*
X0119300Y0110800D01*
X0119298Y0110740D01*
X0119293Y0110679D01*
X0119284Y0110620D01*
X0119271Y0110561D01*
X0119255Y0110502D01*
X0119235Y0110445D01*
X0119212Y0110390D01*
X0119185Y0110335D01*
X0119156Y0110283D01*
X0119123Y0110232D01*
X0119087Y0110183D01*
X0119049Y0110137D01*
X0119007Y0110093D01*
X0118963Y0110051D01*
X0118917Y0110013D01*
X0118868Y0109977D01*
X0118817Y0109944D01*
X0118765Y0109915D01*
X0118710Y0109888D01*
X0118655Y0109865D01*
X0118598Y0109845D01*
X0118539Y0109829D01*
X0118480Y0109816D01*
X0118421Y0109807D01*
X0118360Y0109802D01*
X0118300Y0109800D01*
X0116800Y0109800D01*
X0116300Y0110300D01*
X0097300Y0110300D01*
X0096800Y0109800D01*
X0095300Y0109800D01*
X0095240Y0109802D01*
X0095179Y0109807D01*
X0095120Y0109816D01*
X0095061Y0109829D01*
X0095002Y0109845D01*
X0094945Y0109865D01*
X0094890Y0109888D01*
X0094835Y0109915D01*
X0094783Y0109944D01*
X0094732Y0109977D01*
X0094683Y0110013D01*
X0094637Y0110051D01*
X0094593Y0110093D01*
X0094551Y0110137D01*
X0094513Y0110183D01*
X0094477Y0110232D01*
X0094444Y0110283D01*
X0094415Y0110335D01*
X0094388Y0110390D01*
X0094365Y0110445D01*
X0094345Y0110502D01*
X0094329Y0110561D01*
X0094316Y0110620D01*
X0094307Y0110679D01*
X0094302Y0110740D01*
X0094300Y0110800D01*
X0094300Y0117800D01*
X0094302Y0117860D01*
X0094307Y0117921D01*
X0094316Y0117980D01*
X0094329Y0118039D01*
X0094345Y0118098D01*
X0094365Y0118155D01*
X0094388Y0118210D01*
X0094415Y0118265D01*
X0094444Y0118317D01*
X0094477Y0118368D01*
X0094513Y0118417D01*
X0094551Y0118463D01*
X0094593Y0118507D01*
X0094637Y0118549D01*
X0094683Y0118587D01*
X0094732Y0118623D01*
X0094783Y0118656D01*
X0094835Y0118685D01*
X0094890Y0118712D01*
X0094945Y0118735D01*
X0095002Y0118755D01*
X0095061Y0118771D01*
X0095120Y0118784D01*
X0095179Y0118793D01*
X0095240Y0118798D01*
X0095300Y0118800D01*
X0092800Y0093800D02*
X0092800Y0069800D01*
X0092802Y0069640D01*
X0092808Y0069481D01*
X0092818Y0069322D01*
X0092831Y0069163D01*
X0092849Y0069004D01*
X0092870Y0068846D01*
X0092896Y0068689D01*
X0092925Y0068532D01*
X0092958Y0068376D01*
X0092995Y0068221D01*
X0093035Y0068066D01*
X0093080Y0067913D01*
X0093128Y0067761D01*
X0093180Y0067610D01*
X0093236Y0067461D01*
X0093295Y0067313D01*
X0093358Y0067166D01*
X0093424Y0067021D01*
X0093494Y0066878D01*
X0093568Y0066736D01*
X0093644Y0066596D01*
X0093725Y0066458D01*
X0093808Y0066323D01*
X0093895Y0066189D01*
X0093986Y0066057D01*
X0094079Y0065928D01*
X0094176Y0065801D01*
X0094275Y0065676D01*
X0094378Y0065554D01*
X0094484Y0065435D01*
X0094592Y0065318D01*
X0094704Y0065204D01*
X0094818Y0065092D01*
X0094935Y0064984D01*
X0095054Y0064878D01*
X0095176Y0064775D01*
X0095301Y0064676D01*
X0095428Y0064579D01*
X0095557Y0064486D01*
X0095689Y0064395D01*
X0095823Y0064308D01*
X0095958Y0064225D01*
X0096096Y0064144D01*
X0096236Y0064068D01*
X0096378Y0063994D01*
X0096521Y0063924D01*
X0096666Y0063858D01*
X0096813Y0063795D01*
X0096961Y0063736D01*
X0097110Y0063680D01*
X0097261Y0063628D01*
X0097413Y0063580D01*
X0097566Y0063535D01*
X0097721Y0063495D01*
X0097876Y0063458D01*
X0098032Y0063425D01*
X0098189Y0063396D01*
X0098346Y0063370D01*
X0098504Y0063349D01*
X0098663Y0063331D01*
X0098822Y0063318D01*
X0098981Y0063308D01*
X0099140Y0063302D01*
X0099300Y0063300D01*
X0099460Y0063302D01*
X0099619Y0063308D01*
X0099778Y0063318D01*
X0099937Y0063331D01*
X0100096Y0063349D01*
X0100254Y0063370D01*
X0100411Y0063396D01*
X0100568Y0063425D01*
X0100724Y0063458D01*
X0100879Y0063495D01*
X0101034Y0063535D01*
X0101187Y0063580D01*
X0101339Y0063628D01*
X0101490Y0063680D01*
X0101639Y0063736D01*
X0101787Y0063795D01*
X0101934Y0063858D01*
X0102079Y0063924D01*
X0102222Y0063994D01*
X0102364Y0064068D01*
X0102504Y0064144D01*
X0102642Y0064225D01*
X0102777Y0064308D01*
X0102911Y0064395D01*
X0103043Y0064486D01*
X0103172Y0064579D01*
X0103299Y0064676D01*
X0103424Y0064775D01*
X0103546Y0064878D01*
X0103665Y0064984D01*
X0103782Y0065092D01*
X0103896Y0065204D01*
X0104008Y0065318D01*
X0104116Y0065435D01*
X0104222Y0065554D01*
X0104325Y0065676D01*
X0104424Y0065801D01*
X0104521Y0065928D01*
X0104614Y0066057D01*
X0104705Y0066189D01*
X0104792Y0066323D01*
X0104875Y0066458D01*
X0104956Y0066596D01*
X0105032Y0066736D01*
X0105106Y0066878D01*
X0105176Y0067021D01*
X0105242Y0067166D01*
X0105305Y0067313D01*
X0105364Y0067461D01*
X0105420Y0067610D01*
X0105472Y0067761D01*
X0105520Y0067913D01*
X0105565Y0068066D01*
X0105605Y0068221D01*
X0105642Y0068376D01*
X0105675Y0068532D01*
X0105704Y0068689D01*
X0105730Y0068846D01*
X0105751Y0069004D01*
X0105769Y0069163D01*
X0105782Y0069322D01*
X0105792Y0069481D01*
X0105798Y0069640D01*
X0105800Y0069800D01*
X0105800Y0093800D01*
X0109800Y0093300D02*
X0109800Y0091800D01*
X0110300Y0091300D01*
X0110300Y0072300D01*
X0109800Y0071800D01*
X0109800Y0070300D01*
X0109802Y0070240D01*
X0109807Y0070179D01*
X0109816Y0070120D01*
X0109829Y0070061D01*
X0109845Y0070002D01*
X0109865Y0069945D01*
X0109888Y0069890D01*
X0109915Y0069835D01*
X0109944Y0069783D01*
X0109977Y0069732D01*
X0110013Y0069683D01*
X0110051Y0069637D01*
X0110093Y0069593D01*
X0110137Y0069551D01*
X0110183Y0069513D01*
X0110232Y0069477D01*
X0110283Y0069444D01*
X0110335Y0069415D01*
X0110390Y0069388D01*
X0110445Y0069365D01*
X0110502Y0069345D01*
X0110561Y0069329D01*
X0110620Y0069316D01*
X0110679Y0069307D01*
X0110740Y0069302D01*
X0110800Y0069300D01*
X0117800Y0069300D01*
X0117860Y0069302D01*
X0117921Y0069307D01*
X0117980Y0069316D01*
X0118039Y0069329D01*
X0118098Y0069345D01*
X0118155Y0069365D01*
X0118210Y0069388D01*
X0118265Y0069415D01*
X0118317Y0069444D01*
X0118368Y0069477D01*
X0118417Y0069513D01*
X0118463Y0069551D01*
X0118507Y0069593D01*
X0118549Y0069637D01*
X0118587Y0069683D01*
X0118623Y0069732D01*
X0118656Y0069783D01*
X0118685Y0069835D01*
X0118712Y0069890D01*
X0118735Y0069945D01*
X0118755Y0070002D01*
X0118771Y0070061D01*
X0118784Y0070120D01*
X0118793Y0070179D01*
X0118798Y0070240D01*
X0118800Y0070300D01*
X0118800Y0071800D01*
X0118300Y0072300D01*
X0118300Y0091300D01*
X0118800Y0091800D01*
X0118800Y0093300D01*
X0118798Y0093360D01*
X0118793Y0093421D01*
X0118784Y0093480D01*
X0118771Y0093539D01*
X0118755Y0093598D01*
X0118735Y0093655D01*
X0118712Y0093710D01*
X0118685Y0093765D01*
X0118656Y0093817D01*
X0118623Y0093868D01*
X0118587Y0093917D01*
X0118549Y0093963D01*
X0118507Y0094007D01*
X0118463Y0094049D01*
X0118417Y0094087D01*
X0118368Y0094123D01*
X0118317Y0094156D01*
X0118265Y0094185D01*
X0118210Y0094212D01*
X0118155Y0094235D01*
X0118098Y0094255D01*
X0118039Y0094271D01*
X0117980Y0094284D01*
X0117921Y0094293D01*
X0117860Y0094298D01*
X0117800Y0094300D01*
X0110800Y0094300D01*
X0110740Y0094298D01*
X0110679Y0094293D01*
X0110620Y0094284D01*
X0110561Y0094271D01*
X0110502Y0094255D01*
X0110445Y0094235D01*
X0110390Y0094212D01*
X0110335Y0094185D01*
X0110283Y0094156D01*
X0110232Y0094123D01*
X0110183Y0094087D01*
X0110137Y0094049D01*
X0110093Y0094007D01*
X0110051Y0093963D01*
X0110013Y0093917D01*
X0109977Y0093868D01*
X0109944Y0093817D01*
X0109915Y0093765D01*
X0109888Y0093710D01*
X0109865Y0093655D01*
X0109845Y0093598D01*
X0109829Y0093539D01*
X0109816Y0093480D01*
X0109807Y0093421D01*
X0109802Y0093360D01*
X0109800Y0093300D01*
X0102300Y0084300D02*
X0099300Y0084300D01*
X0099300Y0086800D01*
X0099300Y0084300D02*
X0096300Y0084300D01*
X0096300Y0082800D02*
X0102300Y0082800D01*
X0102300Y0080800D01*
X0096300Y0080800D01*
X0096300Y0082800D01*
X0096300Y0079300D02*
X0099300Y0079300D01*
X0099300Y0076800D01*
X0099300Y0079300D02*
X0102300Y0079300D01*
X0105800Y0093800D02*
X0105798Y0093960D01*
X0105792Y0094119D01*
X0105782Y0094278D01*
X0105769Y0094437D01*
X0105751Y0094596D01*
X0105730Y0094754D01*
X0105704Y0094911D01*
X0105675Y0095068D01*
X0105642Y0095224D01*
X0105605Y0095379D01*
X0105565Y0095534D01*
X0105520Y0095687D01*
X0105472Y0095839D01*
X0105420Y0095990D01*
X0105364Y0096139D01*
X0105305Y0096287D01*
X0105242Y0096434D01*
X0105176Y0096579D01*
X0105106Y0096722D01*
X0105032Y0096864D01*
X0104956Y0097004D01*
X0104875Y0097142D01*
X0104792Y0097277D01*
X0104705Y0097411D01*
X0104614Y0097543D01*
X0104521Y0097672D01*
X0104424Y0097799D01*
X0104325Y0097924D01*
X0104222Y0098046D01*
X0104116Y0098165D01*
X0104008Y0098282D01*
X0103896Y0098396D01*
X0103782Y0098508D01*
X0103665Y0098616D01*
X0103546Y0098722D01*
X0103424Y0098825D01*
X0103299Y0098924D01*
X0103172Y0099021D01*
X0103043Y0099114D01*
X0102911Y0099205D01*
X0102777Y0099292D01*
X0102642Y0099375D01*
X0102504Y0099456D01*
X0102364Y0099532D01*
X0102222Y0099606D01*
X0102079Y0099676D01*
X0101934Y0099742D01*
X0101787Y0099805D01*
X0101639Y0099864D01*
X0101490Y0099920D01*
X0101339Y0099972D01*
X0101187Y0100020D01*
X0101034Y0100065D01*
X0100879Y0100105D01*
X0100724Y0100142D01*
X0100568Y0100175D01*
X0100411Y0100204D01*
X0100254Y0100230D01*
X0100096Y0100251D01*
X0099937Y0100269D01*
X0099778Y0100282D01*
X0099619Y0100292D01*
X0099460Y0100298D01*
X0099300Y0100300D01*
X0099140Y0100298D01*
X0098981Y0100292D01*
X0098822Y0100282D01*
X0098663Y0100269D01*
X0098504Y0100251D01*
X0098346Y0100230D01*
X0098189Y0100204D01*
X0098032Y0100175D01*
X0097876Y0100142D01*
X0097721Y0100105D01*
X0097566Y0100065D01*
X0097413Y0100020D01*
X0097261Y0099972D01*
X0097110Y0099920D01*
X0096961Y0099864D01*
X0096813Y0099805D01*
X0096666Y0099742D01*
X0096521Y0099676D01*
X0096378Y0099606D01*
X0096236Y0099532D01*
X0096096Y0099456D01*
X0095958Y0099375D01*
X0095823Y0099292D01*
X0095689Y0099205D01*
X0095557Y0099114D01*
X0095428Y0099021D01*
X0095301Y0098924D01*
X0095176Y0098825D01*
X0095054Y0098722D01*
X0094935Y0098616D01*
X0094818Y0098508D01*
X0094704Y0098396D01*
X0094592Y0098282D01*
X0094484Y0098165D01*
X0094378Y0098046D01*
X0094275Y0097924D01*
X0094176Y0097799D01*
X0094079Y0097672D01*
X0093986Y0097543D01*
X0093895Y0097411D01*
X0093808Y0097277D01*
X0093725Y0097142D01*
X0093644Y0097004D01*
X0093568Y0096864D01*
X0093494Y0096722D01*
X0093424Y0096579D01*
X0093358Y0096434D01*
X0093295Y0096287D01*
X0093236Y0096139D01*
X0093180Y0095990D01*
X0093128Y0095839D01*
X0093080Y0095687D01*
X0093035Y0095534D01*
X0092995Y0095379D01*
X0092958Y0095224D01*
X0092925Y0095068D01*
X0092896Y0094911D01*
X0092870Y0094754D01*
X0092849Y0094596D01*
X0092831Y0094437D01*
X0092818Y0094278D01*
X0092808Y0094119D01*
X0092802Y0093960D01*
X0092800Y0093800D01*
X0124800Y0093300D02*
X0124800Y0080300D01*
X0124802Y0080213D01*
X0124808Y0080126D01*
X0124817Y0080039D01*
X0124830Y0079953D01*
X0124847Y0079867D01*
X0124868Y0079782D01*
X0124893Y0079699D01*
X0124921Y0079616D01*
X0124952Y0079535D01*
X0124987Y0079455D01*
X0125026Y0079377D01*
X0125068Y0079300D01*
X0125113Y0079225D01*
X0125162Y0079153D01*
X0125213Y0079082D01*
X0125268Y0079014D01*
X0125325Y0078949D01*
X0125386Y0078886D01*
X0125449Y0078825D01*
X0125514Y0078768D01*
X0125582Y0078713D01*
X0125653Y0078662D01*
X0125725Y0078613D01*
X0125800Y0078568D01*
X0125877Y0078526D01*
X0125955Y0078487D01*
X0126035Y0078452D01*
X0126116Y0078421D01*
X0126199Y0078393D01*
X0126282Y0078368D01*
X0126367Y0078347D01*
X0126453Y0078330D01*
X0126539Y0078317D01*
X0126626Y0078308D01*
X0126713Y0078302D01*
X0126800Y0078300D01*
X0131800Y0078300D01*
X0131887Y0078302D01*
X0131974Y0078308D01*
X0132061Y0078317D01*
X0132147Y0078330D01*
X0132233Y0078347D01*
X0132318Y0078368D01*
X0132401Y0078393D01*
X0132484Y0078421D01*
X0132565Y0078452D01*
X0132645Y0078487D01*
X0132723Y0078526D01*
X0132800Y0078568D01*
X0132875Y0078613D01*
X0132947Y0078662D01*
X0133018Y0078713D01*
X0133086Y0078768D01*
X0133151Y0078825D01*
X0133214Y0078886D01*
X0133275Y0078949D01*
X0133332Y0079014D01*
X0133387Y0079082D01*
X0133438Y0079153D01*
X0133487Y0079225D01*
X0133532Y0079300D01*
X0133574Y0079377D01*
X0133613Y0079455D01*
X0133648Y0079535D01*
X0133679Y0079616D01*
X0133707Y0079699D01*
X0133732Y0079782D01*
X0133753Y0079867D01*
X0133770Y0079953D01*
X0133783Y0080039D01*
X0133792Y0080126D01*
X0133798Y0080213D01*
X0133800Y0080300D01*
X0133800Y0093300D01*
X0133798Y0093387D01*
X0133792Y0093474D01*
X0133783Y0093561D01*
X0133770Y0093647D01*
X0133753Y0093733D01*
X0133732Y0093818D01*
X0133707Y0093901D01*
X0133679Y0093984D01*
X0133648Y0094065D01*
X0133613Y0094145D01*
X0133574Y0094223D01*
X0133532Y0094300D01*
X0133487Y0094375D01*
X0133438Y0094447D01*
X0133387Y0094518D01*
X0133332Y0094586D01*
X0133275Y0094651D01*
X0133214Y0094714D01*
X0133151Y0094775D01*
X0133086Y0094832D01*
X0133018Y0094887D01*
X0132947Y0094938D01*
X0132875Y0094987D01*
X0132800Y0095032D01*
X0132723Y0095074D01*
X0132645Y0095113D01*
X0132565Y0095148D01*
X0132484Y0095179D01*
X0132401Y0095207D01*
X0132318Y0095232D01*
X0132233Y0095253D01*
X0132147Y0095270D01*
X0132061Y0095283D01*
X0131974Y0095292D01*
X0131887Y0095298D01*
X0131800Y0095300D01*
X0126800Y0095300D01*
X0126713Y0095298D01*
X0126626Y0095292D01*
X0126539Y0095283D01*
X0126453Y0095270D01*
X0126367Y0095253D01*
X0126282Y0095232D01*
X0126199Y0095207D01*
X0126116Y0095179D01*
X0126035Y0095148D01*
X0125955Y0095113D01*
X0125877Y0095074D01*
X0125800Y0095032D01*
X0125725Y0094987D01*
X0125653Y0094938D01*
X0125582Y0094887D01*
X0125514Y0094832D01*
X0125449Y0094775D01*
X0125386Y0094714D01*
X0125325Y0094651D01*
X0125268Y0094586D01*
X0125213Y0094518D01*
X0125162Y0094447D01*
X0125113Y0094375D01*
X0125068Y0094300D01*
X0125026Y0094223D01*
X0124987Y0094145D01*
X0124952Y0094065D01*
X0124921Y0093984D01*
X0124893Y0093901D01*
X0124868Y0093818D01*
X0124847Y0093733D01*
X0124830Y0093647D01*
X0124817Y0093561D01*
X0124808Y0093474D01*
X0124802Y0093387D01*
X0124800Y0093300D01*
X0120800Y0056300D02*
X0119300Y0056300D01*
X0118800Y0055800D01*
X0099800Y0055800D01*
X0099300Y0056300D01*
X0097800Y0056300D01*
X0097740Y0056298D01*
X0097679Y0056293D01*
X0097620Y0056284D01*
X0097561Y0056271D01*
X0097502Y0056255D01*
X0097445Y0056235D01*
X0097390Y0056212D01*
X0097335Y0056185D01*
X0097283Y0056156D01*
X0097232Y0056123D01*
X0097183Y0056087D01*
X0097137Y0056049D01*
X0097093Y0056007D01*
X0097051Y0055963D01*
X0097013Y0055917D01*
X0096977Y0055868D01*
X0096944Y0055817D01*
X0096915Y0055765D01*
X0096888Y0055710D01*
X0096865Y0055655D01*
X0096845Y0055598D01*
X0096829Y0055539D01*
X0096816Y0055480D01*
X0096807Y0055421D01*
X0096802Y0055360D01*
X0096800Y0055300D01*
X0096800Y0048300D01*
X0096802Y0048240D01*
X0096807Y0048179D01*
X0096816Y0048120D01*
X0096829Y0048061D01*
X0096845Y0048002D01*
X0096865Y0047945D01*
X0096888Y0047890D01*
X0096915Y0047835D01*
X0096944Y0047783D01*
X0096977Y0047732D01*
X0097013Y0047683D01*
X0097051Y0047637D01*
X0097093Y0047593D01*
X0097137Y0047551D01*
X0097183Y0047513D01*
X0097232Y0047477D01*
X0097283Y0047444D01*
X0097335Y0047415D01*
X0097390Y0047388D01*
X0097445Y0047365D01*
X0097502Y0047345D01*
X0097561Y0047329D01*
X0097620Y0047316D01*
X0097679Y0047307D01*
X0097740Y0047302D01*
X0097800Y0047300D01*
X0099300Y0047300D01*
X0099800Y0047800D01*
X0118800Y0047800D01*
X0119300Y0047300D01*
X0120800Y0047300D01*
X0120860Y0047302D01*
X0120921Y0047307D01*
X0120980Y0047316D01*
X0121039Y0047329D01*
X0121098Y0047345D01*
X0121155Y0047365D01*
X0121210Y0047388D01*
X0121265Y0047415D01*
X0121317Y0047444D01*
X0121368Y0047477D01*
X0121417Y0047513D01*
X0121463Y0047551D01*
X0121507Y0047593D01*
X0121549Y0047637D01*
X0121587Y0047683D01*
X0121623Y0047732D01*
X0121656Y0047783D01*
X0121685Y0047835D01*
X0121712Y0047890D01*
X0121735Y0047945D01*
X0121755Y0048002D01*
X0121771Y0048061D01*
X0121784Y0048120D01*
X0121793Y0048179D01*
X0121798Y0048240D01*
X0121800Y0048300D01*
X0121800Y0055300D01*
X0121798Y0055360D01*
X0121793Y0055421D01*
X0121784Y0055480D01*
X0121771Y0055539D01*
X0121755Y0055598D01*
X0121735Y0055655D01*
X0121712Y0055710D01*
X0121685Y0055765D01*
X0121656Y0055817D01*
X0121623Y0055868D01*
X0121587Y0055917D01*
X0121549Y0055963D01*
X0121507Y0056007D01*
X0121463Y0056049D01*
X0121417Y0056087D01*
X0121368Y0056123D01*
X0121317Y0056156D01*
X0121265Y0056185D01*
X0121210Y0056212D01*
X0121155Y0056235D01*
X0121098Y0056255D01*
X0121039Y0056271D01*
X0120980Y0056284D01*
X0120921Y0056293D01*
X0120860Y0056298D01*
X0120800Y0056300D01*
X0120800Y0046300D02*
X0119300Y0046300D01*
X0118800Y0045800D01*
X0099800Y0045800D01*
X0099300Y0046300D01*
X0097800Y0046300D01*
X0097740Y0046298D01*
X0097679Y0046293D01*
X0097620Y0046284D01*
X0097561Y0046271D01*
X0097502Y0046255D01*
X0097445Y0046235D01*
X0097390Y0046212D01*
X0097335Y0046185D01*
X0097283Y0046156D01*
X0097232Y0046123D01*
X0097183Y0046087D01*
X0097137Y0046049D01*
X0097093Y0046007D01*
X0097051Y0045963D01*
X0097013Y0045917D01*
X0096977Y0045868D01*
X0096944Y0045817D01*
X0096915Y0045765D01*
X0096888Y0045710D01*
X0096865Y0045655D01*
X0096845Y0045598D01*
X0096829Y0045539D01*
X0096816Y0045480D01*
X0096807Y0045421D01*
X0096802Y0045360D01*
X0096800Y0045300D01*
X0096800Y0038300D01*
X0096802Y0038240D01*
X0096807Y0038179D01*
X0096816Y0038120D01*
X0096829Y0038061D01*
X0096845Y0038002D01*
X0096865Y0037945D01*
X0096888Y0037890D01*
X0096915Y0037835D01*
X0096944Y0037783D01*
X0096977Y0037732D01*
X0097013Y0037683D01*
X0097051Y0037637D01*
X0097093Y0037593D01*
X0097137Y0037551D01*
X0097183Y0037513D01*
X0097232Y0037477D01*
X0097283Y0037444D01*
X0097335Y0037415D01*
X0097390Y0037388D01*
X0097445Y0037365D01*
X0097502Y0037345D01*
X0097561Y0037329D01*
X0097620Y0037316D01*
X0097679Y0037307D01*
X0097740Y0037302D01*
X0097800Y0037300D01*
X0099300Y0037300D01*
X0099800Y0037800D01*
X0118800Y0037800D01*
X0119300Y0037300D01*
X0120800Y0037300D01*
X0120860Y0037302D01*
X0120921Y0037307D01*
X0120980Y0037316D01*
X0121039Y0037329D01*
X0121098Y0037345D01*
X0121155Y0037365D01*
X0121210Y0037388D01*
X0121265Y0037415D01*
X0121317Y0037444D01*
X0121368Y0037477D01*
X0121417Y0037513D01*
X0121463Y0037551D01*
X0121507Y0037593D01*
X0121549Y0037637D01*
X0121587Y0037683D01*
X0121623Y0037732D01*
X0121656Y0037783D01*
X0121685Y0037835D01*
X0121712Y0037890D01*
X0121735Y0037945D01*
X0121755Y0038002D01*
X0121771Y0038061D01*
X0121784Y0038120D01*
X0121793Y0038179D01*
X0121798Y0038240D01*
X0121800Y0038300D01*
X0121800Y0045300D01*
X0121798Y0045360D01*
X0121793Y0045421D01*
X0121784Y0045480D01*
X0121771Y0045539D01*
X0121755Y0045598D01*
X0121735Y0045655D01*
X0121712Y0045710D01*
X0121685Y0045765D01*
X0121656Y0045817D01*
X0121623Y0045868D01*
X0121587Y0045917D01*
X0121549Y0045963D01*
X0121507Y0046007D01*
X0121463Y0046049D01*
X0121417Y0046087D01*
X0121368Y0046123D01*
X0121317Y0046156D01*
X0121265Y0046185D01*
X0121210Y0046212D01*
X0121155Y0046235D01*
X0121098Y0046255D01*
X0121039Y0046271D01*
X0120980Y0046284D01*
X0120921Y0046293D01*
X0120860Y0046298D01*
X0120800Y0046300D01*
X0144300Y0016800D02*
X0144300Y0156300D01*
X0144300Y0156800D02*
X0149300Y0156800D01*
X0149302Y0156660D01*
X0149308Y0156520D01*
X0149318Y0156380D01*
X0149331Y0156240D01*
X0149349Y0156101D01*
X0149371Y0155962D01*
X0149396Y0155825D01*
X0149425Y0155687D01*
X0149458Y0155551D01*
X0149495Y0155416D01*
X0149536Y0155282D01*
X0149581Y0155149D01*
X0149629Y0155017D01*
X0149681Y0154887D01*
X0149736Y0154758D01*
X0149795Y0154631D01*
X0149858Y0154505D01*
X0149924Y0154381D01*
X0149993Y0154260D01*
X0150066Y0154140D01*
X0150143Y0154022D01*
X0150222Y0153907D01*
X0150305Y0153793D01*
X0150391Y0153683D01*
X0150480Y0153574D01*
X0150572Y0153468D01*
X0150667Y0153365D01*
X0150764Y0153264D01*
X0150865Y0153167D01*
X0150968Y0153072D01*
X0151074Y0152980D01*
X0151183Y0152891D01*
X0151293Y0152805D01*
X0151407Y0152722D01*
X0151522Y0152643D01*
X0151640Y0152566D01*
X0151760Y0152493D01*
X0151881Y0152424D01*
X0152005Y0152358D01*
X0152131Y0152295D01*
X0152258Y0152236D01*
X0152387Y0152181D01*
X0152517Y0152129D01*
X0152649Y0152081D01*
X0152782Y0152036D01*
X0152916Y0151995D01*
X0153051Y0151958D01*
X0153187Y0151925D01*
X0153325Y0151896D01*
X0153462Y0151871D01*
X0153601Y0151849D01*
X0153740Y0151831D01*
X0153880Y0151818D01*
X0154020Y0151808D01*
X0154160Y0151802D01*
X0154300Y0151800D01*
X0154440Y0151802D01*
X0154580Y0151808D01*
X0154720Y0151818D01*
X0154860Y0151831D01*
X0154999Y0151849D01*
X0155138Y0151871D01*
X0155275Y0151896D01*
X0155413Y0151925D01*
X0155549Y0151958D01*
X0155684Y0151995D01*
X0155818Y0152036D01*
X0155951Y0152081D01*
X0156083Y0152129D01*
X0156213Y0152181D01*
X0156342Y0152236D01*
X0156469Y0152295D01*
X0156595Y0152358D01*
X0156719Y0152424D01*
X0156840Y0152493D01*
X0156960Y0152566D01*
X0157078Y0152643D01*
X0157193Y0152722D01*
X0157307Y0152805D01*
X0157417Y0152891D01*
X0157526Y0152980D01*
X0157632Y0153072D01*
X0157735Y0153167D01*
X0157836Y0153264D01*
X0157933Y0153365D01*
X0158028Y0153468D01*
X0158120Y0153574D01*
X0158209Y0153683D01*
X0158295Y0153793D01*
X0158378Y0153907D01*
X0158457Y0154022D01*
X0158534Y0154140D01*
X0158607Y0154260D01*
X0158676Y0154381D01*
X0158742Y0154505D01*
X0158805Y0154631D01*
X0158864Y0154758D01*
X0158919Y0154887D01*
X0158971Y0155017D01*
X0159019Y0155149D01*
X0159064Y0155282D01*
X0159105Y0155416D01*
X0159142Y0155551D01*
X0159175Y0155687D01*
X0159204Y0155825D01*
X0159229Y0155962D01*
X0159251Y0156101D01*
X0159269Y0156240D01*
X0159282Y0156380D01*
X0159292Y0156520D01*
X0159298Y0156660D01*
X0159300Y0156800D01*
X0164300Y0156800D01*
X0164300Y0016800D01*
X0144300Y0016800D01*
X0195300Y0004300D02*
X0218300Y0004300D01*
X0218300Y0094300D01*
X0210800Y0094300D01*
X0210798Y0094174D01*
X0210792Y0094049D01*
X0210782Y0093924D01*
X0210768Y0093799D01*
X0210751Y0093674D01*
X0210729Y0093550D01*
X0210704Y0093427D01*
X0210674Y0093305D01*
X0210641Y0093184D01*
X0210604Y0093064D01*
X0210564Y0092945D01*
X0210519Y0092828D01*
X0210471Y0092711D01*
X0210419Y0092597D01*
X0210364Y0092484D01*
X0210305Y0092373D01*
X0210243Y0092264D01*
X0210177Y0092157D01*
X0210108Y0092052D01*
X0210036Y0091949D01*
X0209961Y0091848D01*
X0209882Y0091750D01*
X0209800Y0091655D01*
X0209716Y0091562D01*
X0209628Y0091472D01*
X0209538Y0091384D01*
X0209445Y0091300D01*
X0209350Y0091218D01*
X0209252Y0091139D01*
X0209151Y0091064D01*
X0209048Y0090992D01*
X0208943Y0090923D01*
X0208836Y0090857D01*
X0208727Y0090795D01*
X0208616Y0090736D01*
X0208503Y0090681D01*
X0208389Y0090629D01*
X0208272Y0090581D01*
X0208155Y0090536D01*
X0208036Y0090496D01*
X0207916Y0090459D01*
X0207795Y0090426D01*
X0207673Y0090396D01*
X0207550Y0090371D01*
X0207426Y0090349D01*
X0207301Y0090332D01*
X0207176Y0090318D01*
X0207051Y0090308D01*
X0206926Y0090302D01*
X0206800Y0090300D01*
X0206674Y0090302D01*
X0206549Y0090308D01*
X0206424Y0090318D01*
X0206299Y0090332D01*
X0206174Y0090349D01*
X0206050Y0090371D01*
X0205927Y0090396D01*
X0205805Y0090426D01*
X0205684Y0090459D01*
X0205564Y0090496D01*
X0205445Y0090536D01*
X0205328Y0090581D01*
X0205211Y0090629D01*
X0205097Y0090681D01*
X0204984Y0090736D01*
X0204873Y0090795D01*
X0204764Y0090857D01*
X0204657Y0090923D01*
X0204552Y0090992D01*
X0204449Y0091064D01*
X0204348Y0091139D01*
X0204250Y0091218D01*
X0204155Y0091300D01*
X0204062Y0091384D01*
X0203972Y0091472D01*
X0203884Y0091562D01*
X0203800Y0091655D01*
X0203718Y0091750D01*
X0203639Y0091848D01*
X0203564Y0091949D01*
X0203492Y0092052D01*
X0203423Y0092157D01*
X0203357Y0092264D01*
X0203295Y0092373D01*
X0203236Y0092484D01*
X0203181Y0092597D01*
X0203129Y0092711D01*
X0203081Y0092828D01*
X0203036Y0092945D01*
X0202996Y0093064D01*
X0202959Y0093184D01*
X0202926Y0093305D01*
X0202896Y0093427D01*
X0202871Y0093550D01*
X0202849Y0093674D01*
X0202832Y0093799D01*
X0202818Y0093924D01*
X0202808Y0094049D01*
X0202802Y0094174D01*
X0202800Y0094300D01*
X0195300Y0094300D01*
X0195300Y0004300D01*
X0236800Y0009300D02*
X0236800Y0014300D01*
X0239300Y0016800D01*
X0236800Y0019300D01*
X0236800Y0024300D01*
X0239300Y0026800D01*
X0236800Y0029300D01*
X0236800Y0034300D01*
X0239300Y0036800D01*
X0236800Y0039300D01*
X0236800Y0044300D01*
X0239300Y0046800D01*
X0236800Y0049300D01*
X0236800Y0054300D01*
X0239300Y0056800D01*
X0244300Y0056800D01*
X0246800Y0054300D01*
X0246800Y0049300D01*
X0244300Y0046800D01*
X0246800Y0044300D01*
X0246800Y0039300D01*
X0244300Y0036800D01*
X0239300Y0036800D01*
X0244300Y0036800D02*
X0246800Y0034300D01*
X0246800Y0029300D01*
X0244300Y0026800D01*
X0246800Y0024300D01*
X0246800Y0019300D01*
X0244300Y0016800D01*
X0246800Y0014300D01*
X0246800Y0009300D01*
X0244300Y0006800D01*
X0239300Y0006800D01*
X0236800Y0009300D01*
X0239300Y0016800D02*
X0244300Y0016800D01*
X0244300Y0026800D02*
X0239300Y0026800D01*
X0239300Y0046800D02*
X0244300Y0046800D01*
X0244300Y0064300D02*
X0239300Y0064300D01*
X0236800Y0066800D01*
X0236800Y0071800D01*
X0239300Y0074300D01*
X0236800Y0076800D01*
X0236800Y0081800D01*
X0239300Y0084300D01*
X0236800Y0086800D01*
X0236800Y0091800D01*
X0239300Y0094300D01*
X0236800Y0096800D01*
X0236800Y0101800D01*
X0239300Y0104300D01*
X0236800Y0106800D01*
X0236800Y0111800D01*
X0239300Y0114300D01*
X0244300Y0114300D01*
X0246800Y0111800D01*
X0246800Y0106800D01*
X0244300Y0104300D01*
X0246800Y0101800D01*
X0246800Y0096800D01*
X0244300Y0094300D01*
X0239300Y0094300D01*
X0244300Y0094300D02*
X0246800Y0091800D01*
X0246800Y0086800D01*
X0244300Y0084300D01*
X0246800Y0081800D01*
X0246800Y0076800D01*
X0244300Y0074300D01*
X0246800Y0071800D01*
X0246800Y0066800D01*
X0244300Y0064300D01*
X0244300Y0074300D02*
X0239300Y0074300D01*
X0239300Y0084300D02*
X0244300Y0084300D01*
X0244300Y0104300D02*
X0239300Y0104300D01*
X0240300Y0129300D02*
X0233300Y0129300D01*
X0233240Y0129302D01*
X0233179Y0129307D01*
X0233120Y0129316D01*
X0233061Y0129329D01*
X0233002Y0129345D01*
X0232945Y0129365D01*
X0232890Y0129388D01*
X0232835Y0129415D01*
X0232783Y0129444D01*
X0232732Y0129477D01*
X0232683Y0129513D01*
X0232637Y0129551D01*
X0232593Y0129593D01*
X0232551Y0129637D01*
X0232513Y0129683D01*
X0232477Y0129732D01*
X0232444Y0129783D01*
X0232415Y0129835D01*
X0232388Y0129890D01*
X0232365Y0129945D01*
X0232345Y0130002D01*
X0232329Y0130061D01*
X0232316Y0130120D01*
X0232307Y0130179D01*
X0232302Y0130240D01*
X0232300Y0130300D01*
X0232300Y0131800D01*
X0232800Y0132300D01*
X0232800Y0151300D01*
X0232300Y0151800D01*
X0232300Y0153300D01*
X0232302Y0153360D01*
X0232307Y0153421D01*
X0232316Y0153480D01*
X0232329Y0153539D01*
X0232345Y0153598D01*
X0232365Y0153655D01*
X0232388Y0153710D01*
X0232415Y0153765D01*
X0232444Y0153817D01*
X0232477Y0153868D01*
X0232513Y0153917D01*
X0232551Y0153963D01*
X0232593Y0154007D01*
X0232637Y0154049D01*
X0232683Y0154087D01*
X0232732Y0154123D01*
X0232783Y0154156D01*
X0232835Y0154185D01*
X0232890Y0154212D01*
X0232945Y0154235D01*
X0233002Y0154255D01*
X0233061Y0154271D01*
X0233120Y0154284D01*
X0233179Y0154293D01*
X0233240Y0154298D01*
X0233300Y0154300D01*
X0240300Y0154300D01*
X0240360Y0154298D01*
X0240421Y0154293D01*
X0240480Y0154284D01*
X0240539Y0154271D01*
X0240598Y0154255D01*
X0240655Y0154235D01*
X0240710Y0154212D01*
X0240765Y0154185D01*
X0240817Y0154156D01*
X0240868Y0154123D01*
X0240917Y0154087D01*
X0240963Y0154049D01*
X0241007Y0154007D01*
X0241049Y0153963D01*
X0241087Y0153917D01*
X0241123Y0153868D01*
X0241156Y0153817D01*
X0241185Y0153765D01*
X0241212Y0153710D01*
X0241235Y0153655D01*
X0241255Y0153598D01*
X0241271Y0153539D01*
X0241284Y0153480D01*
X0241293Y0153421D01*
X0241298Y0153360D01*
X0241300Y0153300D01*
X0241300Y0151800D01*
X0240800Y0151300D01*
X0240800Y0132300D01*
X0241300Y0131800D01*
X0241300Y0130300D01*
X0241298Y0130240D01*
X0241293Y0130179D01*
X0241284Y0130120D01*
X0241271Y0130061D01*
X0241255Y0130002D01*
X0241235Y0129945D01*
X0241212Y0129890D01*
X0241185Y0129835D01*
X0241156Y0129783D01*
X0241123Y0129732D01*
X0241087Y0129683D01*
X0241049Y0129637D01*
X0241007Y0129593D01*
X0240963Y0129551D01*
X0240917Y0129513D01*
X0240868Y0129477D01*
X0240817Y0129444D01*
X0240765Y0129415D01*
X0240710Y0129388D01*
X0240655Y0129365D01*
X0240598Y0129345D01*
X0240539Y0129329D01*
X0240480Y0129316D01*
X0240421Y0129307D01*
X0240360Y0129302D01*
X0240300Y0129300D01*
X0214300Y0154300D02*
X0216800Y0156800D01*
X0216800Y0161800D01*
X0214300Y0164300D01*
X0209300Y0164300D01*
X0206800Y0161800D01*
X0206800Y0156800D01*
X0209300Y0154300D01*
X0214300Y0154300D01*
X0206800Y0156800D02*
X0204300Y0154300D01*
X0199300Y0154300D01*
X0196800Y0156800D01*
X0194300Y0154300D01*
X0189300Y0154300D01*
X0186800Y0156800D01*
X0184300Y0154300D01*
X0179300Y0154300D01*
X0176800Y0156800D01*
X0176800Y0161800D01*
X0179300Y0164300D01*
X0184300Y0164300D01*
X0186800Y0161800D01*
X0189300Y0164300D01*
X0194300Y0164300D01*
X0196800Y0161800D01*
X0196800Y0156800D01*
X0196800Y0161800D02*
X0199300Y0164300D01*
X0204300Y0164300D01*
X0206800Y0161800D01*
X0211735Y0168168D02*
X0211735Y0172438D01*
X0209600Y0170303D02*
X0213870Y0170303D01*
X0201800Y0149300D02*
X0196800Y0149300D01*
X0194300Y0146800D01*
X0194300Y0141800D01*
X0196800Y0139300D01*
X0201800Y0139300D01*
X0204300Y0141800D01*
X0204300Y0146800D01*
X0201800Y0149300D01*
X0194300Y0146800D02*
X0191800Y0149300D01*
X0186800Y0149300D01*
X0184300Y0146800D01*
X0184300Y0141800D01*
X0186800Y0139300D01*
X0191800Y0139300D01*
X0194300Y0141800D01*
X0197100Y0135303D02*
X0201370Y0135303D01*
X0201800Y0134300D02*
X0204300Y0136800D01*
X0209300Y0136800D01*
X0211800Y0134300D01*
X0211800Y0129300D01*
X0209300Y0126800D01*
X0211800Y0124300D01*
X0211800Y0119300D01*
X0209300Y0116800D01*
X0211800Y0114300D01*
X0211800Y0109300D01*
X0209300Y0106800D01*
X0204300Y0106800D01*
X0201800Y0109300D01*
X0201800Y0114300D01*
X0204300Y0116800D01*
X0201800Y0119300D01*
X0201800Y0124300D01*
X0204300Y0126800D01*
X0201800Y0129300D01*
X0201800Y0134300D01*
X0199300Y0131800D02*
X0199300Y0126800D01*
X0196800Y0124300D01*
X0191800Y0124300D01*
X0189300Y0126800D01*
X0186800Y0124300D01*
X0181800Y0124300D01*
X0179300Y0126800D01*
X0179300Y0131800D01*
X0181800Y0134300D01*
X0186800Y0134300D01*
X0189300Y0131800D01*
X0191800Y0134300D01*
X0196800Y0134300D01*
X0199300Y0131800D01*
X0204300Y0126800D02*
X0209300Y0126800D01*
X0209300Y0116800D02*
X0204300Y0116800D01*
X0200800Y0106300D02*
X0187800Y0106300D01*
X0187713Y0106298D01*
X0187626Y0106292D01*
X0187539Y0106283D01*
X0187453Y0106270D01*
X0187367Y0106253D01*
X0187282Y0106232D01*
X0187199Y0106207D01*
X0187116Y0106179D01*
X0187035Y0106148D01*
X0186955Y0106113D01*
X0186877Y0106074D01*
X0186800Y0106032D01*
X0186725Y0105987D01*
X0186653Y0105938D01*
X0186582Y0105887D01*
X0186514Y0105832D01*
X0186449Y0105775D01*
X0186386Y0105714D01*
X0186325Y0105651D01*
X0186268Y0105586D01*
X0186213Y0105518D01*
X0186162Y0105447D01*
X0186113Y0105375D01*
X0186068Y0105300D01*
X0186026Y0105223D01*
X0185987Y0105145D01*
X0185952Y0105065D01*
X0185921Y0104984D01*
X0185893Y0104901D01*
X0185868Y0104818D01*
X0185847Y0104733D01*
X0185830Y0104647D01*
X0185817Y0104561D01*
X0185808Y0104474D01*
X0185802Y0104387D01*
X0185800Y0104300D01*
X0185800Y0099300D01*
X0185802Y0099213D01*
X0185808Y0099126D01*
X0185817Y0099039D01*
X0185830Y0098953D01*
X0185847Y0098867D01*
X0185868Y0098782D01*
X0185893Y0098699D01*
X0185921Y0098616D01*
X0185952Y0098535D01*
X0185987Y0098455D01*
X0186026Y0098377D01*
X0186068Y0098300D01*
X0186113Y0098225D01*
X0186162Y0098153D01*
X0186213Y0098082D01*
X0186268Y0098014D01*
X0186325Y0097949D01*
X0186386Y0097886D01*
X0186449Y0097825D01*
X0186514Y0097768D01*
X0186582Y0097713D01*
X0186653Y0097662D01*
X0186725Y0097613D01*
X0186800Y0097568D01*
X0186877Y0097526D01*
X0186955Y0097487D01*
X0187035Y0097452D01*
X0187116Y0097421D01*
X0187199Y0097393D01*
X0187282Y0097368D01*
X0187367Y0097347D01*
X0187453Y0097330D01*
X0187539Y0097317D01*
X0187626Y0097308D01*
X0187713Y0097302D01*
X0187800Y0097300D01*
X0200800Y0097300D01*
X0200887Y0097302D01*
X0200974Y0097308D01*
X0201061Y0097317D01*
X0201147Y0097330D01*
X0201233Y0097347D01*
X0201318Y0097368D01*
X0201401Y0097393D01*
X0201484Y0097421D01*
X0201565Y0097452D01*
X0201645Y0097487D01*
X0201723Y0097526D01*
X0201800Y0097568D01*
X0201875Y0097613D01*
X0201947Y0097662D01*
X0202018Y0097713D01*
X0202086Y0097768D01*
X0202151Y0097825D01*
X0202214Y0097886D01*
X0202275Y0097949D01*
X0202332Y0098014D01*
X0202387Y0098082D01*
X0202438Y0098153D01*
X0202487Y0098225D01*
X0202532Y0098300D01*
X0202574Y0098377D01*
X0202613Y0098455D01*
X0202648Y0098535D01*
X0202679Y0098616D01*
X0202707Y0098699D01*
X0202732Y0098782D01*
X0202753Y0098867D01*
X0202770Y0098953D01*
X0202783Y0099039D01*
X0202792Y0099126D01*
X0202798Y0099213D01*
X0202800Y0099300D01*
X0202800Y0104300D01*
X0202798Y0104387D01*
X0202792Y0104474D01*
X0202783Y0104561D01*
X0202770Y0104647D01*
X0202753Y0104733D01*
X0202732Y0104818D01*
X0202707Y0104901D01*
X0202679Y0104984D01*
X0202648Y0105065D01*
X0202613Y0105145D01*
X0202574Y0105223D01*
X0202532Y0105300D01*
X0202487Y0105375D01*
X0202438Y0105447D01*
X0202387Y0105518D01*
X0202332Y0105586D01*
X0202275Y0105651D01*
X0202214Y0105714D01*
X0202151Y0105775D01*
X0202086Y0105832D01*
X0202018Y0105887D01*
X0201947Y0105938D01*
X0201875Y0105987D01*
X0201800Y0106032D01*
X0201723Y0106074D01*
X0201645Y0106113D01*
X0201565Y0106148D01*
X0201484Y0106179D01*
X0201401Y0106207D01*
X0201318Y0106232D01*
X0201233Y0106253D01*
X0201147Y0106270D01*
X0201061Y0106283D01*
X0200974Y0106292D01*
X0200887Y0106298D01*
X0200800Y0106300D01*
X0183800Y0093300D02*
X0183800Y0080300D01*
X0183798Y0080213D01*
X0183792Y0080126D01*
X0183783Y0080039D01*
X0183770Y0079953D01*
X0183753Y0079867D01*
X0183732Y0079782D01*
X0183707Y0079699D01*
X0183679Y0079616D01*
X0183648Y0079535D01*
X0183613Y0079455D01*
X0183574Y0079377D01*
X0183532Y0079300D01*
X0183487Y0079225D01*
X0183438Y0079153D01*
X0183387Y0079082D01*
X0183332Y0079014D01*
X0183275Y0078949D01*
X0183214Y0078886D01*
X0183151Y0078825D01*
X0183086Y0078768D01*
X0183018Y0078713D01*
X0182947Y0078662D01*
X0182875Y0078613D01*
X0182800Y0078568D01*
X0182723Y0078526D01*
X0182645Y0078487D01*
X0182565Y0078452D01*
X0182484Y0078421D01*
X0182401Y0078393D01*
X0182318Y0078368D01*
X0182233Y0078347D01*
X0182147Y0078330D01*
X0182061Y0078317D01*
X0181974Y0078308D01*
X0181887Y0078302D01*
X0181800Y0078300D01*
X0176800Y0078300D01*
X0176713Y0078302D01*
X0176626Y0078308D01*
X0176539Y0078317D01*
X0176453Y0078330D01*
X0176367Y0078347D01*
X0176282Y0078368D01*
X0176199Y0078393D01*
X0176116Y0078421D01*
X0176035Y0078452D01*
X0175955Y0078487D01*
X0175877Y0078526D01*
X0175800Y0078568D01*
X0175725Y0078613D01*
X0175653Y0078662D01*
X0175582Y0078713D01*
X0175514Y0078768D01*
X0175449Y0078825D01*
X0175386Y0078886D01*
X0175325Y0078949D01*
X0175268Y0079014D01*
X0175213Y0079082D01*
X0175162Y0079153D01*
X0175113Y0079225D01*
X0175068Y0079300D01*
X0175026Y0079377D01*
X0174987Y0079455D01*
X0174952Y0079535D01*
X0174921Y0079616D01*
X0174893Y0079699D01*
X0174868Y0079782D01*
X0174847Y0079867D01*
X0174830Y0079953D01*
X0174817Y0080039D01*
X0174808Y0080126D01*
X0174802Y0080213D01*
X0174800Y0080300D01*
X0174800Y0093300D01*
X0174802Y0093387D01*
X0174808Y0093474D01*
X0174817Y0093561D01*
X0174830Y0093647D01*
X0174847Y0093733D01*
X0174868Y0093818D01*
X0174893Y0093901D01*
X0174921Y0093984D01*
X0174952Y0094065D01*
X0174987Y0094145D01*
X0175026Y0094223D01*
X0175068Y0094300D01*
X0175113Y0094375D01*
X0175162Y0094447D01*
X0175213Y0094518D01*
X0175268Y0094586D01*
X0175325Y0094651D01*
X0175386Y0094714D01*
X0175449Y0094775D01*
X0175514Y0094832D01*
X0175582Y0094887D01*
X0175653Y0094938D01*
X0175725Y0094987D01*
X0175800Y0095032D01*
X0175877Y0095074D01*
X0175955Y0095113D01*
X0176035Y0095148D01*
X0176116Y0095179D01*
X0176199Y0095207D01*
X0176282Y0095232D01*
X0176367Y0095253D01*
X0176453Y0095270D01*
X0176539Y0095283D01*
X0176626Y0095292D01*
X0176713Y0095298D01*
X0176800Y0095300D01*
X0181800Y0095300D01*
X0181887Y0095298D01*
X0181974Y0095292D01*
X0182061Y0095283D01*
X0182147Y0095270D01*
X0182233Y0095253D01*
X0182318Y0095232D01*
X0182401Y0095207D01*
X0182484Y0095179D01*
X0182565Y0095148D01*
X0182645Y0095113D01*
X0182723Y0095074D01*
X0182800Y0095032D01*
X0182875Y0094987D01*
X0182947Y0094938D01*
X0183018Y0094887D01*
X0183086Y0094832D01*
X0183151Y0094775D01*
X0183214Y0094714D01*
X0183275Y0094651D01*
X0183332Y0094586D01*
X0183387Y0094518D01*
X0183438Y0094447D01*
X0183487Y0094375D01*
X0183532Y0094300D01*
X0183574Y0094223D01*
X0183613Y0094145D01*
X0183648Y0094065D01*
X0183679Y0093984D01*
X0183707Y0093901D01*
X0183732Y0093818D01*
X0183753Y0093733D01*
X0183770Y0093647D01*
X0183783Y0093561D01*
X0183792Y0093474D01*
X0183798Y0093387D01*
X0183800Y0093300D01*
X0189300Y0126800D02*
X0189300Y0131800D01*
X0186800Y0156800D02*
X0186800Y0161800D01*
X0090300Y0164300D02*
X0090300Y0169300D01*
X0090298Y0169387D01*
X0090292Y0169474D01*
X0090283Y0169561D01*
X0090270Y0169647D01*
X0090253Y0169733D01*
X0090232Y0169818D01*
X0090207Y0169901D01*
X0090179Y0169984D01*
X0090148Y0170065D01*
X0090113Y0170145D01*
X0090074Y0170223D01*
X0090032Y0170300D01*
X0089987Y0170375D01*
X0089938Y0170447D01*
X0089887Y0170518D01*
X0089832Y0170586D01*
X0089775Y0170651D01*
X0089714Y0170714D01*
X0089651Y0170775D01*
X0089586Y0170832D01*
X0089518Y0170887D01*
X0089447Y0170938D01*
X0089375Y0170987D01*
X0089300Y0171032D01*
X0089223Y0171074D01*
X0089145Y0171113D01*
X0089065Y0171148D01*
X0088984Y0171179D01*
X0088901Y0171207D01*
X0088818Y0171232D01*
X0088733Y0171253D01*
X0088647Y0171270D01*
X0088561Y0171283D01*
X0088474Y0171292D01*
X0088387Y0171298D01*
X0088300Y0171300D01*
X0075300Y0171300D01*
X0075213Y0171298D01*
X0075126Y0171292D01*
X0075039Y0171283D01*
X0074953Y0171270D01*
X0074867Y0171253D01*
X0074782Y0171232D01*
X0074699Y0171207D01*
X0074616Y0171179D01*
X0074535Y0171148D01*
X0074455Y0171113D01*
X0074377Y0171074D01*
X0074300Y0171032D01*
X0074225Y0170987D01*
X0074153Y0170938D01*
X0074082Y0170887D01*
X0074014Y0170832D01*
X0073949Y0170775D01*
X0073886Y0170714D01*
X0073825Y0170651D01*
X0073768Y0170586D01*
X0073713Y0170518D01*
X0073662Y0170447D01*
X0073613Y0170375D01*
X0073568Y0170300D01*
X0073526Y0170223D01*
X0073487Y0170145D01*
X0073452Y0170065D01*
X0073421Y0169984D01*
X0073393Y0169901D01*
X0073368Y0169818D01*
X0073347Y0169733D01*
X0073330Y0169647D01*
X0073317Y0169561D01*
X0073308Y0169474D01*
X0073302Y0169387D01*
X0073300Y0169300D01*
X0073300Y0164300D01*
X0073302Y0164213D01*
X0073308Y0164126D01*
X0073317Y0164039D01*
X0073330Y0163953D01*
X0073347Y0163867D01*
X0073368Y0163782D01*
X0073393Y0163699D01*
X0073421Y0163616D01*
X0073452Y0163535D01*
X0073487Y0163455D01*
X0073526Y0163377D01*
X0073568Y0163300D01*
X0073613Y0163225D01*
X0073662Y0163153D01*
X0073713Y0163082D01*
X0073768Y0163014D01*
X0073825Y0162949D01*
X0073886Y0162886D01*
X0073949Y0162825D01*
X0074014Y0162768D01*
X0074082Y0162713D01*
X0074153Y0162662D01*
X0074225Y0162613D01*
X0074300Y0162568D01*
X0074377Y0162526D01*
X0074455Y0162487D01*
X0074535Y0162452D01*
X0074616Y0162421D01*
X0074699Y0162393D01*
X0074782Y0162368D01*
X0074867Y0162347D01*
X0074953Y0162330D01*
X0075039Y0162317D01*
X0075126Y0162308D01*
X0075213Y0162302D01*
X0075300Y0162300D01*
X0088300Y0162300D01*
X0088387Y0162302D01*
X0088474Y0162308D01*
X0088561Y0162317D01*
X0088647Y0162330D01*
X0088733Y0162347D01*
X0088818Y0162368D01*
X0088901Y0162393D01*
X0088984Y0162421D01*
X0089065Y0162452D01*
X0089145Y0162487D01*
X0089223Y0162526D01*
X0089300Y0162568D01*
X0089375Y0162613D01*
X0089447Y0162662D01*
X0089518Y0162713D01*
X0089586Y0162768D01*
X0089651Y0162825D01*
X0089714Y0162886D01*
X0089775Y0162949D01*
X0089832Y0163014D01*
X0089887Y0163082D01*
X0089938Y0163153D01*
X0089987Y0163225D01*
X0090032Y0163300D01*
X0090074Y0163377D01*
X0090113Y0163455D01*
X0090148Y0163535D01*
X0090179Y0163616D01*
X0090207Y0163699D01*
X0090232Y0163782D01*
X0090253Y0163867D01*
X0090270Y0163953D01*
X0090283Y0164039D01*
X0090292Y0164126D01*
X0090298Y0164213D01*
X0090300Y0164300D01*
X0049300Y0164300D02*
X0049300Y0159300D01*
X0046800Y0156800D01*
X0041800Y0156800D01*
X0039300Y0159300D01*
X0039300Y0164300D01*
X0041800Y0166800D01*
X0039300Y0169300D01*
X0039300Y0174300D01*
X0041800Y0176800D01*
X0046800Y0176800D01*
X0049300Y0174300D01*
X0049300Y0169300D01*
X0046800Y0166800D01*
X0049300Y0164300D01*
X0046800Y0166800D02*
X0041800Y0166800D01*
X0033870Y0167100D02*
X0031735Y0169235D01*
X0032803Y0169235D02*
X0029600Y0169235D01*
X0029600Y0167100D02*
X0029600Y0173505D01*
X0032803Y0173505D01*
X0033870Y0172438D01*
X0033870Y0170303D01*
X0032803Y0169235D01*
X0031735Y0164938D02*
X0031735Y0160668D01*
X0029600Y0162803D02*
X0033870Y0162803D01*
X0032803Y0177100D02*
X0030668Y0177100D01*
X0029600Y0178168D01*
X0029600Y0182438D01*
X0030668Y0183505D01*
X0032803Y0183505D01*
X0033870Y0182438D01*
X0033870Y0180303D02*
X0031735Y0180303D01*
X0033870Y0180303D02*
X0033870Y0178168D01*
X0032803Y0177100D01*
X0039300Y0179300D02*
X0039300Y0184300D01*
X0041800Y0186800D01*
X0039300Y0189300D01*
X0039300Y0194300D01*
X0041800Y0196800D01*
X0046800Y0196800D01*
X0049300Y0194300D01*
X0049300Y0189300D01*
X0046800Y0186800D01*
X0049300Y0184300D01*
X0049300Y0179300D01*
X0046800Y0176800D01*
X0041800Y0176800D02*
X0039300Y0179300D01*
X0041800Y0186800D02*
X0046800Y0186800D01*
X0033870Y0188168D02*
X0032803Y0187100D01*
X0029600Y0187100D01*
X0029600Y0193505D01*
X0032803Y0193505D01*
X0033870Y0192438D01*
X0033870Y0191370D01*
X0032803Y0190303D01*
X0029600Y0190303D01*
X0032803Y0190303D02*
X0033870Y0189235D01*
X0033870Y0188168D01*
D11*
X0241800Y0089300D03*
X0241800Y0031800D03*
D12*
X0250550Y0009300D03*
X0250550Y0054300D03*
X0250550Y0066800D03*
X0250550Y0111800D03*
D13*
X0250550Y0028050D03*
D14*
X0250550Y0045550D03*
D15*
X0250550Y0089300D03*
D16*
X0233750Y0101038D02*
X0229246Y0101038D01*
X0229246Y0103290D01*
X0229997Y0104041D01*
X0231498Y0104041D01*
X0232249Y0103290D01*
X0232249Y0101038D01*
X0231498Y0105642D02*
X0231498Y0108645D01*
X0230747Y0108645D02*
X0233750Y0108645D01*
X0233750Y0110246D02*
X0229246Y0110246D01*
X0233750Y0113249D01*
X0229246Y0113249D01*
X0230747Y0108645D02*
X0229246Y0107143D01*
X0230747Y0105642D01*
X0233750Y0105642D01*
X0209949Y0105303D02*
X0209949Y0104553D01*
X0209198Y0103802D01*
X0209949Y0103051D01*
X0209949Y0102301D01*
X0209198Y0101550D01*
X0207697Y0101550D01*
X0206946Y0102301D01*
X0205345Y0102301D02*
X0204594Y0101550D01*
X0203093Y0101550D01*
X0202342Y0102301D01*
X0202342Y0105303D01*
X0203093Y0106054D01*
X0204594Y0106054D01*
X0205345Y0105303D01*
X0206946Y0105303D02*
X0207697Y0106054D01*
X0209198Y0106054D01*
X0209949Y0105303D01*
X0209198Y0103802D02*
X0208447Y0103802D01*
X0197449Y0107550D02*
X0197449Y0109802D01*
X0196698Y0110553D01*
X0194446Y0110553D01*
X0194446Y0107550D01*
X0192845Y0108301D02*
X0192094Y0107550D01*
X0190593Y0107550D01*
X0189842Y0108301D01*
X0192845Y0111303D01*
X0192845Y0108301D01*
X0189842Y0108301D02*
X0189842Y0111303D01*
X0190593Y0112054D01*
X0192094Y0112054D01*
X0192845Y0111303D01*
X0188241Y0111303D02*
X0188241Y0108301D01*
X0187490Y0107550D01*
X0185989Y0107550D01*
X0185238Y0108301D01*
X0188241Y0111303D01*
X0187490Y0112054D01*
X0185989Y0112054D01*
X0185238Y0111303D01*
X0185238Y0108301D01*
X0183637Y0107550D02*
X0180634Y0107550D01*
X0179797Y0108241D02*
X0182799Y0105238D01*
X0183550Y0105989D01*
X0183550Y0107490D01*
X0182799Y0108241D01*
X0179797Y0108241D01*
X0179046Y0107490D01*
X0179046Y0105989D01*
X0179797Y0105238D01*
X0182799Y0105238D01*
X0183550Y0103637D02*
X0183550Y0100634D01*
X0183550Y0102136D02*
X0179046Y0102136D01*
X0180547Y0100634D01*
X0182050Y0100947D02*
X0177546Y0100947D01*
X0179047Y0099446D01*
X0178297Y0097845D02*
X0177546Y0097094D01*
X0177546Y0095593D01*
X0178297Y0094842D01*
X0181299Y0094842D01*
X0182050Y0095593D01*
X0182050Y0097094D01*
X0181299Y0097845D01*
X0182050Y0099446D02*
X0182050Y0102449D01*
X0182136Y0107550D02*
X0182136Y0112054D01*
X0180634Y0110553D01*
X0179797Y0109842D02*
X0179046Y0110593D01*
X0179046Y0112094D01*
X0179797Y0112845D01*
X0182799Y0109842D01*
X0183550Y0110593D01*
X0183550Y0112094D01*
X0182799Y0112845D01*
X0179797Y0112845D01*
X0178750Y0113854D02*
X0175747Y0113854D01*
X0174246Y0115355D01*
X0175747Y0116856D01*
X0178750Y0116856D01*
X0178750Y0118458D02*
X0174246Y0118458D01*
X0178750Y0121460D01*
X0174246Y0121460D01*
X0176498Y0116856D02*
X0176498Y0113854D01*
X0176498Y0112253D02*
X0177249Y0111502D01*
X0177249Y0109250D01*
X0178750Y0109250D02*
X0174246Y0109250D01*
X0174246Y0111502D01*
X0174997Y0112253D01*
X0176498Y0112253D01*
X0179797Y0109842D02*
X0182799Y0109842D01*
X0183550Y0114446D02*
X0180547Y0114446D01*
X0180547Y0116698D01*
X0181298Y0117449D01*
X0183550Y0117449D01*
X0179501Y0123062D02*
X0179501Y0126064D01*
X0177999Y0127666D02*
X0178750Y0128416D01*
X0178750Y0129918D01*
X0177999Y0130668D01*
X0177249Y0130668D01*
X0176498Y0129918D01*
X0176498Y0128416D01*
X0175747Y0127666D01*
X0174997Y0127666D01*
X0174246Y0128416D01*
X0174246Y0129918D01*
X0174997Y0130668D01*
X0174246Y0132270D02*
X0178750Y0132270D01*
X0178750Y0135272D01*
X0178750Y0136874D02*
X0174246Y0136874D01*
X0178750Y0139876D01*
X0174246Y0139876D01*
X0174997Y0141477D02*
X0175747Y0141477D01*
X0176498Y0142228D01*
X0176498Y0143729D01*
X0177249Y0144480D01*
X0177999Y0144480D01*
X0178750Y0143729D01*
X0178750Y0142228D01*
X0177999Y0141477D01*
X0174997Y0141477D02*
X0174246Y0142228D01*
X0174246Y0143729D01*
X0174997Y0144480D01*
X0174997Y0146081D02*
X0177999Y0146081D01*
X0178750Y0146832D01*
X0178750Y0148333D01*
X0177999Y0149084D01*
X0174997Y0149084D01*
X0174246Y0148333D01*
X0174246Y0146832D01*
X0174997Y0146081D01*
X0174246Y0150685D02*
X0174246Y0152937D01*
X0174997Y0153688D01*
X0176498Y0153688D01*
X0177249Y0152937D01*
X0177249Y0150685D01*
X0178750Y0150685D02*
X0174246Y0150685D01*
X0177249Y0152187D02*
X0178750Y0153688D01*
X0179250Y0166750D02*
X0181502Y0166750D01*
X0182253Y0167501D01*
X0182253Y0170503D01*
X0181502Y0171254D01*
X0179250Y0171254D01*
X0179250Y0166750D01*
X0183854Y0166750D02*
X0185355Y0166750D01*
X0184605Y0166750D02*
X0184605Y0171254D01*
X0185355Y0171254D02*
X0183854Y0171254D01*
X0186923Y0170503D02*
X0186923Y0169753D01*
X0187674Y0169002D01*
X0189175Y0169002D01*
X0189926Y0168251D01*
X0189926Y0167501D01*
X0189175Y0166750D01*
X0187674Y0166750D01*
X0186923Y0167501D01*
X0186923Y0170503D02*
X0187674Y0171254D01*
X0189175Y0171254D01*
X0189926Y0170503D01*
X0191527Y0171254D02*
X0193779Y0171254D01*
X0194530Y0170503D01*
X0194530Y0169002D01*
X0193779Y0168251D01*
X0191527Y0168251D01*
X0191527Y0166750D02*
X0191527Y0171254D01*
X0196131Y0171254D02*
X0196131Y0166750D01*
X0199134Y0166750D01*
X0200735Y0166750D02*
X0200735Y0169753D01*
X0202236Y0171254D01*
X0203738Y0169753D01*
X0203738Y0166750D01*
X0203738Y0169002D02*
X0200735Y0169002D01*
X0205339Y0170503D02*
X0206840Y0169002D01*
X0206840Y0166750D01*
X0206840Y0169002D02*
X0208341Y0170503D01*
X0208341Y0171254D01*
X0205339Y0171254D02*
X0205339Y0170503D01*
X0206750Y0148754D02*
X0209753Y0148754D01*
X0208251Y0148754D02*
X0208251Y0144250D01*
X0211354Y0144250D02*
X0212855Y0144250D01*
X0212105Y0144250D02*
X0212105Y0148754D01*
X0212855Y0148754D02*
X0211354Y0148754D01*
X0214423Y0148754D02*
X0214423Y0144250D01*
X0217426Y0144250D01*
X0217936Y0141254D02*
X0217936Y0136750D01*
X0221038Y0137501D02*
X0221038Y0140503D01*
X0221789Y0141254D01*
X0223290Y0141254D01*
X0224041Y0140503D01*
X0224041Y0137501D01*
X0223290Y0136750D01*
X0221789Y0136750D01*
X0221038Y0137501D01*
X0219437Y0141254D02*
X0216434Y0141254D01*
X0214833Y0141254D02*
X0211830Y0141254D01*
X0213332Y0141254D02*
X0213332Y0136750D01*
X0210229Y0137501D02*
X0210229Y0141254D01*
X0207226Y0141254D02*
X0207226Y0137501D01*
X0207977Y0136750D01*
X0209478Y0136750D01*
X0210229Y0137501D01*
X0205625Y0137501D02*
X0204874Y0136750D01*
X0202622Y0136750D01*
X0202622Y0141254D01*
X0204874Y0141254D01*
X0205625Y0140503D01*
X0205625Y0139753D01*
X0204874Y0139002D01*
X0202622Y0139002D01*
X0204874Y0139002D02*
X0205625Y0138251D01*
X0205625Y0137501D01*
X0219027Y0148754D02*
X0222030Y0148754D01*
X0220528Y0148754D02*
X0220528Y0144250D01*
X0223631Y0143499D02*
X0226634Y0143499D01*
X0228235Y0145001D02*
X0228986Y0144250D01*
X0230487Y0144250D01*
X0231238Y0145001D01*
X0231238Y0145751D01*
X0230487Y0146502D01*
X0228986Y0146502D01*
X0228235Y0147253D01*
X0228235Y0148003D01*
X0228986Y0148754D01*
X0230487Y0148754D01*
X0231238Y0148003D01*
X0232839Y0148754D02*
X0232839Y0144250D01*
X0235841Y0144250D01*
X0236047Y0144610D02*
X0237549Y0142358D01*
X0239050Y0144610D01*
X0240445Y0144250D02*
X0240445Y0148754D01*
X0242047Y0148003D02*
X0242047Y0147253D01*
X0242797Y0146502D01*
X0244299Y0146502D01*
X0245049Y0145751D01*
X0245049Y0145001D01*
X0244299Y0144250D01*
X0242797Y0144250D01*
X0242047Y0145001D01*
X0240445Y0144250D02*
X0237443Y0148754D01*
X0237443Y0144250D01*
X0239050Y0142358D02*
X0234546Y0142358D01*
X0235297Y0140756D02*
X0238299Y0137754D01*
X0239050Y0138505D01*
X0239050Y0140006D01*
X0238299Y0140756D01*
X0235297Y0140756D01*
X0234546Y0140006D01*
X0234546Y0138505D01*
X0235297Y0137754D01*
X0238299Y0137754D01*
X0239050Y0136153D02*
X0239050Y0133150D01*
X0239050Y0134651D02*
X0234546Y0134651D01*
X0236047Y0133150D01*
X0232498Y0136750D02*
X0230997Y0136750D01*
X0230246Y0137501D01*
X0230997Y0139002D02*
X0230246Y0139753D01*
X0230246Y0140503D01*
X0230997Y0141254D01*
X0232498Y0141254D01*
X0233249Y0140503D01*
X0232498Y0139002D02*
X0233249Y0138251D01*
X0233249Y0137501D01*
X0232498Y0136750D01*
X0232498Y0139002D02*
X0230997Y0139002D01*
X0228645Y0136750D02*
X0228645Y0141254D01*
X0225642Y0141254D02*
X0225642Y0136750D01*
X0228645Y0136750D02*
X0225642Y0141254D01*
X0232839Y0146502D02*
X0234340Y0146502D01*
X0235841Y0148754D02*
X0232839Y0148754D01*
X0242047Y0148003D02*
X0242797Y0148754D01*
X0244299Y0148754D01*
X0245049Y0148003D01*
X0246651Y0148003D02*
X0246651Y0145001D01*
X0247401Y0144250D01*
X0248903Y0144250D01*
X0249653Y0145001D01*
X0249653Y0148003D01*
X0248903Y0148754D01*
X0247401Y0148754D01*
X0246651Y0148003D01*
X0251255Y0148754D02*
X0251255Y0144250D01*
X0251255Y0145751D02*
X0253507Y0145751D01*
X0254257Y0146502D01*
X0254257Y0148003D01*
X0253507Y0148754D01*
X0251255Y0148754D01*
X0252756Y0145751D02*
X0254257Y0144250D01*
X0248050Y0142656D02*
X0248050Y0139654D01*
X0245047Y0142656D01*
X0244297Y0142656D01*
X0243546Y0141906D01*
X0243546Y0140405D01*
X0244297Y0139654D01*
X0244297Y0138053D02*
X0245798Y0138053D01*
X0246549Y0137302D01*
X0246549Y0135050D01*
X0248050Y0135050D02*
X0243546Y0135050D01*
X0243546Y0137302D01*
X0244297Y0138053D01*
X0246549Y0136551D02*
X0248050Y0138053D01*
X0212475Y0067554D02*
X0210974Y0067554D01*
X0210223Y0066803D01*
X0208622Y0066803D02*
X0207871Y0067554D01*
X0206370Y0067554D01*
X0205619Y0066803D01*
X0205619Y0063801D01*
X0206370Y0063050D01*
X0207871Y0063050D01*
X0208622Y0063801D01*
X0210223Y0063801D02*
X0210974Y0063050D01*
X0212475Y0063050D01*
X0213226Y0063801D01*
X0213226Y0064551D01*
X0212475Y0065302D01*
X0211724Y0065302D01*
X0212475Y0065302D02*
X0213226Y0066053D01*
X0213226Y0066803D01*
X0212475Y0067554D01*
X0204051Y0067554D02*
X0202550Y0067554D01*
X0203301Y0067554D02*
X0203301Y0063050D01*
X0204051Y0063050D02*
X0202550Y0063050D01*
X0229246Y0053249D02*
X0229246Y0050246D01*
X0229246Y0051747D02*
X0233750Y0051747D01*
X0233750Y0048645D02*
X0233750Y0045642D01*
X0229246Y0045642D01*
X0229246Y0044074D02*
X0229246Y0042573D01*
X0229246Y0043323D02*
X0233750Y0043323D01*
X0233750Y0042573D02*
X0233750Y0044074D01*
X0233750Y0039470D02*
X0229246Y0039470D01*
X0229246Y0037969D02*
X0229246Y0040971D01*
X0176498Y0132270D02*
X0176498Y0133771D01*
X0174246Y0135272D02*
X0174246Y0132270D01*
X0135384Y0144550D02*
X0135384Y0147553D01*
X0133883Y0149054D01*
X0132381Y0147553D01*
X0132381Y0144550D01*
X0132381Y0146802D02*
X0135384Y0146802D01*
X0130780Y0146802D02*
X0130029Y0146051D01*
X0127777Y0146051D01*
X0127777Y0144550D02*
X0127777Y0149054D01*
X0130029Y0149054D01*
X0130780Y0148303D01*
X0130780Y0146802D01*
X0126176Y0148303D02*
X0125425Y0149054D01*
X0123924Y0149054D01*
X0123174Y0148303D01*
X0123174Y0145301D01*
X0123924Y0144550D01*
X0125425Y0144550D01*
X0126176Y0145301D01*
X0121572Y0144550D02*
X0118570Y0144550D01*
X0120071Y0144550D02*
X0120071Y0149054D01*
X0118570Y0147553D01*
X0116968Y0147553D02*
X0116218Y0146802D01*
X0114716Y0146802D01*
X0113966Y0147553D01*
X0113966Y0148303D01*
X0114716Y0149054D01*
X0116218Y0149054D01*
X0116968Y0148303D01*
X0116968Y0147553D01*
X0116218Y0146802D02*
X0116968Y0146051D01*
X0116968Y0145301D01*
X0116218Y0144550D01*
X0114716Y0144550D01*
X0113966Y0145301D01*
X0113966Y0146051D01*
X0114716Y0146802D01*
X0112364Y0146802D02*
X0109362Y0146802D01*
X0111614Y0149054D01*
X0111614Y0144550D01*
X0107760Y0144550D02*
X0104758Y0149054D01*
X0103156Y0147553D02*
X0103156Y0144550D01*
X0104758Y0144550D02*
X0107760Y0149054D01*
X0103156Y0147553D02*
X0101655Y0149054D01*
X0100154Y0147553D01*
X0100154Y0144550D01*
X0098553Y0144550D02*
X0098553Y0149054D01*
X0097051Y0147553D01*
X0095550Y0149054D01*
X0095550Y0144550D01*
X0100154Y0146802D02*
X0103156Y0146802D01*
X0088050Y0146226D02*
X0088050Y0143223D01*
X0085047Y0146226D01*
X0084297Y0146226D01*
X0083546Y0145475D01*
X0083546Y0143974D01*
X0084297Y0143223D01*
X0084297Y0141622D02*
X0083546Y0140871D01*
X0083546Y0139370D01*
X0084297Y0138619D01*
X0087299Y0138619D01*
X0088050Y0139370D01*
X0088050Y0140871D01*
X0087299Y0141622D01*
X0088050Y0137051D02*
X0088050Y0135550D01*
X0088050Y0136301D02*
X0083546Y0136301D01*
X0083546Y0137051D02*
X0083546Y0135550D01*
X0082800Y0131300D02*
X0083800Y0130300D01*
X0084300Y0118800D01*
X0081000Y0128900D02*
X0081002Y0128963D01*
X0081008Y0129025D01*
X0081018Y0129087D01*
X0081031Y0129149D01*
X0081049Y0129209D01*
X0081070Y0129268D01*
X0081095Y0129326D01*
X0081124Y0129382D01*
X0081156Y0129436D01*
X0081191Y0129488D01*
X0081229Y0129537D01*
X0081271Y0129585D01*
X0081315Y0129629D01*
X0081363Y0129671D01*
X0081412Y0129709D01*
X0081464Y0129744D01*
X0081518Y0129776D01*
X0081574Y0129805D01*
X0081632Y0129830D01*
X0081691Y0129851D01*
X0081751Y0129869D01*
X0081813Y0129882D01*
X0081875Y0129892D01*
X0081937Y0129898D01*
X0082000Y0129900D01*
X0082063Y0129898D01*
X0082125Y0129892D01*
X0082187Y0129882D01*
X0082249Y0129869D01*
X0082309Y0129851D01*
X0082368Y0129830D01*
X0082426Y0129805D01*
X0082482Y0129776D01*
X0082536Y0129744D01*
X0082588Y0129709D01*
X0082637Y0129671D01*
X0082685Y0129629D01*
X0082729Y0129585D01*
X0082771Y0129537D01*
X0082809Y0129488D01*
X0082844Y0129436D01*
X0082876Y0129382D01*
X0082905Y0129326D01*
X0082930Y0129268D01*
X0082951Y0129209D01*
X0082969Y0129149D01*
X0082982Y0129087D01*
X0082992Y0129025D01*
X0082998Y0128963D01*
X0083000Y0128900D01*
X0082998Y0128837D01*
X0082992Y0128775D01*
X0082982Y0128713D01*
X0082969Y0128651D01*
X0082951Y0128591D01*
X0082930Y0128532D01*
X0082905Y0128474D01*
X0082876Y0128418D01*
X0082844Y0128364D01*
X0082809Y0128312D01*
X0082771Y0128263D01*
X0082729Y0128215D01*
X0082685Y0128171D01*
X0082637Y0128129D01*
X0082588Y0128091D01*
X0082536Y0128056D01*
X0082482Y0128024D01*
X0082426Y0127995D01*
X0082368Y0127970D01*
X0082309Y0127949D01*
X0082249Y0127931D01*
X0082187Y0127918D01*
X0082125Y0127908D01*
X0082063Y0127902D01*
X0082000Y0127900D01*
X0081937Y0127902D01*
X0081875Y0127908D01*
X0081813Y0127918D01*
X0081751Y0127931D01*
X0081691Y0127949D01*
X0081632Y0127970D01*
X0081574Y0127995D01*
X0081518Y0128024D01*
X0081464Y0128056D01*
X0081412Y0128091D01*
X0081363Y0128129D01*
X0081315Y0128171D01*
X0081271Y0128215D01*
X0081229Y0128263D01*
X0081191Y0128312D01*
X0081156Y0128364D01*
X0081124Y0128418D01*
X0081095Y0128474D01*
X0081070Y0128532D01*
X0081049Y0128591D01*
X0081031Y0128651D01*
X0081018Y0128713D01*
X0081008Y0128775D01*
X0081002Y0128837D01*
X0081000Y0128900D01*
X0082800Y0131300D02*
X0045800Y0131300D01*
X0044800Y0130300D01*
X0044300Y0118800D01*
X0037949Y0115602D02*
X0034946Y0115602D01*
X0037198Y0117854D01*
X0037198Y0113350D01*
X0036801Y0109554D02*
X0036050Y0108803D01*
X0036050Y0105801D01*
X0036801Y0105050D01*
X0038302Y0105050D01*
X0039053Y0105801D01*
X0040654Y0107302D02*
X0043656Y0107302D01*
X0043550Y0107053D02*
X0045051Y0108554D01*
X0045051Y0104050D01*
X0043550Y0104050D02*
X0046553Y0104050D01*
X0048154Y0104801D02*
X0048905Y0104050D01*
X0050406Y0104050D01*
X0051156Y0104801D01*
X0051156Y0106302D01*
X0050406Y0107053D01*
X0049655Y0107053D01*
X0048154Y0106302D01*
X0048154Y0108554D01*
X0051156Y0108554D01*
X0052758Y0107053D02*
X0055010Y0107053D01*
X0055760Y0106302D01*
X0055760Y0104801D01*
X0055010Y0104050D01*
X0052758Y0104050D01*
X0052758Y0102549D02*
X0052758Y0107053D01*
X0051156Y0098554D02*
X0048154Y0098554D01*
X0048154Y0096302D01*
X0049655Y0097053D01*
X0050406Y0097053D01*
X0051156Y0096302D01*
X0051156Y0094801D01*
X0050406Y0094050D01*
X0048905Y0094050D01*
X0048154Y0094801D01*
X0046553Y0094050D02*
X0043550Y0094050D01*
X0042906Y0095050D02*
X0041405Y0095050D01*
X0040654Y0095801D01*
X0040654Y0097302D02*
X0042155Y0098053D01*
X0042906Y0098053D01*
X0043656Y0097302D01*
X0043656Y0095801D01*
X0042906Y0095050D01*
X0043550Y0097053D02*
X0045051Y0098554D01*
X0045051Y0094050D01*
X0040654Y0097302D02*
X0040654Y0099554D01*
X0043656Y0099554D01*
X0039053Y0098803D02*
X0038302Y0099554D01*
X0036801Y0099554D01*
X0036050Y0098803D01*
X0036050Y0095801D01*
X0036801Y0095050D01*
X0038302Y0095050D01*
X0039053Y0095801D01*
X0042906Y0105050D02*
X0042906Y0109554D01*
X0040654Y0107302D01*
X0039053Y0108803D02*
X0038302Y0109554D01*
X0036801Y0109554D01*
X0033345Y0113350D02*
X0031843Y0114851D01*
X0030342Y0114101D02*
X0030342Y0117103D01*
X0031093Y0117854D01*
X0032594Y0117854D01*
X0033345Y0117103D01*
X0033345Y0114101D01*
X0032594Y0113350D01*
X0031093Y0113350D01*
X0030342Y0114101D01*
X0029842Y0125950D02*
X0029842Y0130454D01*
X0032094Y0130454D01*
X0032845Y0129703D01*
X0032845Y0128202D01*
X0032094Y0127451D01*
X0029842Y0127451D01*
X0031343Y0127451D02*
X0032845Y0125950D01*
X0034446Y0126701D02*
X0034446Y0127451D01*
X0035197Y0128202D01*
X0036698Y0128202D01*
X0037449Y0127451D01*
X0037449Y0126701D01*
X0036698Y0125950D01*
X0035197Y0125950D01*
X0034446Y0126701D01*
X0035197Y0128202D02*
X0034446Y0128953D01*
X0034446Y0129703D01*
X0035197Y0130454D01*
X0036698Y0130454D01*
X0037449Y0129703D01*
X0037449Y0128953D01*
X0036698Y0128202D01*
X0059540Y0144602D02*
X0062543Y0144602D01*
X0064144Y0143101D02*
X0064895Y0143101D01*
X0064895Y0142350D01*
X0064144Y0142350D01*
X0064144Y0143101D01*
X0061792Y0142350D02*
X0061792Y0146854D01*
X0059540Y0144602D01*
X0066446Y0144602D02*
X0069449Y0144602D01*
X0068698Y0142350D02*
X0068698Y0146854D01*
X0066446Y0144602D01*
X0056850Y0156750D02*
X0052346Y0156750D01*
X0056850Y0156750D02*
X0056850Y0159753D01*
X0056850Y0161354D02*
X0052346Y0161354D01*
X0052346Y0164356D01*
X0052346Y0165958D02*
X0052346Y0168210D01*
X0053097Y0168960D01*
X0056099Y0168960D01*
X0056850Y0168210D01*
X0056850Y0165958D01*
X0052346Y0165958D01*
X0055634Y0165050D02*
X0058637Y0165050D01*
X0057136Y0165050D02*
X0057136Y0169554D01*
X0055634Y0168053D01*
X0056850Y0164356D02*
X0056850Y0161354D01*
X0054598Y0161354D02*
X0054598Y0162855D01*
X0060238Y0165801D02*
X0060238Y0168803D01*
X0060989Y0169554D01*
X0062490Y0169554D01*
X0063241Y0168803D01*
X0060238Y0165801D01*
X0060989Y0165050D01*
X0062490Y0165050D01*
X0063241Y0165801D01*
X0063241Y0168803D01*
X0064842Y0168803D02*
X0064842Y0165801D01*
X0067845Y0168803D01*
X0067845Y0165801D01*
X0067094Y0165050D01*
X0065593Y0165050D01*
X0064842Y0165801D01*
X0064842Y0168803D02*
X0065593Y0169554D01*
X0067094Y0169554D01*
X0067845Y0168803D01*
X0069446Y0168053D02*
X0071698Y0168053D01*
X0072449Y0167302D01*
X0072449Y0165050D01*
X0069446Y0165050D02*
X0069446Y0168053D01*
X0079842Y0160303D02*
X0079842Y0157301D01*
X0080593Y0156550D01*
X0082094Y0156550D01*
X0082845Y0157301D01*
X0084446Y0157301D02*
X0084446Y0158802D01*
X0086698Y0158802D01*
X0087449Y0158051D01*
X0087449Y0157301D01*
X0086698Y0156550D01*
X0085197Y0156550D01*
X0084446Y0157301D01*
X0084446Y0158802D02*
X0085947Y0160303D01*
X0087449Y0161054D01*
X0082845Y0160303D02*
X0082094Y0161054D01*
X0080593Y0161054D01*
X0079842Y0160303D01*
X0102855Y0116554D02*
X0100604Y0114302D01*
X0103606Y0114302D01*
X0105207Y0112801D02*
X0105958Y0112801D01*
X0105958Y0112050D01*
X0105207Y0112050D01*
X0105207Y0112801D01*
X0107509Y0112801D02*
X0107509Y0112050D01*
X0107509Y0112801D02*
X0110512Y0115803D01*
X0110512Y0116554D01*
X0107509Y0116554D01*
X0112113Y0116554D02*
X0112113Y0112050D01*
X0112113Y0113551D02*
X0114365Y0115053D01*
X0112113Y0113551D02*
X0114365Y0112050D01*
X0115197Y0108054D02*
X0116698Y0108054D01*
X0117449Y0107303D01*
X0117449Y0106553D01*
X0116698Y0105802D01*
X0117449Y0105051D01*
X0117449Y0104301D01*
X0116698Y0103550D01*
X0115197Y0103550D01*
X0114446Y0104301D01*
X0112845Y0103550D02*
X0111343Y0105051D01*
X0112094Y0105051D02*
X0109842Y0105051D01*
X0109842Y0103550D02*
X0109842Y0108054D01*
X0112094Y0108054D01*
X0112845Y0107303D01*
X0112845Y0105802D01*
X0112094Y0105051D01*
X0114446Y0107303D02*
X0115197Y0108054D01*
X0115947Y0105802D02*
X0116698Y0105802D01*
X0126546Y0104406D02*
X0126546Y0102905D01*
X0127297Y0102154D01*
X0127297Y0100553D02*
X0126546Y0099802D01*
X0126546Y0098301D01*
X0127297Y0097550D01*
X0130299Y0097550D01*
X0131050Y0098301D01*
X0131050Y0099802D01*
X0130299Y0100553D01*
X0131050Y0102154D02*
X0128047Y0105156D01*
X0127297Y0105156D01*
X0126546Y0104406D01*
X0131050Y0105156D02*
X0131050Y0102154D01*
X0124550Y0096864D02*
X0122298Y0096864D01*
X0121547Y0096114D01*
X0121547Y0093862D01*
X0124550Y0093862D01*
X0123799Y0092260D02*
X0124550Y0091510D01*
X0124550Y0090008D01*
X0123799Y0089258D01*
X0120797Y0092260D01*
X0123799Y0092260D01*
X0123799Y0089258D02*
X0120797Y0089258D01*
X0120046Y0090008D01*
X0120046Y0091510D01*
X0120797Y0092260D01*
X0120797Y0087656D02*
X0123799Y0084654D01*
X0124550Y0085405D01*
X0124550Y0086906D01*
X0123799Y0087656D01*
X0120797Y0087656D01*
X0120046Y0086906D01*
X0120046Y0085405D01*
X0120797Y0084654D01*
X0123799Y0084654D01*
X0124550Y0083053D02*
X0124550Y0080050D01*
X0124550Y0081551D02*
X0120046Y0081551D01*
X0121547Y0080050D01*
X0116550Y0080756D02*
X0114298Y0080756D01*
X0113547Y0080006D01*
X0114298Y0079255D01*
X0116550Y0079255D01*
X0116550Y0077754D02*
X0113547Y0077754D01*
X0113547Y0078505D01*
X0114298Y0079255D01*
X0116550Y0076153D02*
X0116550Y0073150D01*
X0116550Y0074651D02*
X0112046Y0074651D01*
X0113547Y0073150D01*
X0121046Y0073655D02*
X0125550Y0073655D01*
X0125550Y0072154D02*
X0125550Y0075156D01*
X0122547Y0072154D02*
X0121046Y0073655D01*
X0121797Y0070553D02*
X0121046Y0069802D01*
X0121046Y0067550D01*
X0125550Y0067550D01*
X0124049Y0067550D02*
X0124049Y0069802D01*
X0123298Y0070553D01*
X0121797Y0070553D01*
X0124049Y0069051D02*
X0125550Y0070553D01*
X0126698Y0063054D02*
X0124446Y0060802D01*
X0127449Y0060802D01*
X0126698Y0058550D02*
X0126698Y0063054D01*
X0122845Y0062303D02*
X0122845Y0060802D01*
X0122094Y0060051D01*
X0119842Y0060051D01*
X0119842Y0058550D02*
X0119842Y0063054D01*
X0122094Y0063054D01*
X0122845Y0062303D01*
X0121343Y0060051D02*
X0122845Y0058550D01*
X0116865Y0052553D02*
X0114613Y0051051D01*
X0116865Y0049550D01*
X0114613Y0049550D02*
X0114613Y0054054D01*
X0113012Y0054054D02*
X0113012Y0053303D01*
X0110009Y0050301D01*
X0110009Y0049550D01*
X0108458Y0049550D02*
X0108458Y0050301D01*
X0107707Y0050301D01*
X0107707Y0049550D01*
X0108458Y0049550D01*
X0105355Y0049550D02*
X0105355Y0054054D01*
X0103104Y0051802D01*
X0106106Y0051802D01*
X0110009Y0054054D02*
X0113012Y0054054D01*
X0113012Y0044054D02*
X0110009Y0044054D01*
X0113012Y0044054D02*
X0113012Y0043303D01*
X0110009Y0040301D01*
X0110009Y0039550D01*
X0108458Y0039550D02*
X0107707Y0039550D01*
X0107707Y0040301D01*
X0108458Y0040301D01*
X0108458Y0039550D01*
X0105355Y0039550D02*
X0105355Y0044054D01*
X0103104Y0041802D01*
X0106106Y0041802D01*
X0112342Y0035554D02*
X0114594Y0035554D01*
X0115345Y0034803D01*
X0115345Y0033302D01*
X0114594Y0032551D01*
X0112342Y0032551D01*
X0112342Y0031050D02*
X0112342Y0035554D01*
X0113843Y0032551D02*
X0115345Y0031050D01*
X0116946Y0031801D02*
X0117697Y0031050D01*
X0119198Y0031050D01*
X0119949Y0031801D01*
X0119949Y0033302D01*
X0119198Y0034053D01*
X0118447Y0034053D01*
X0116946Y0033302D01*
X0116946Y0035554D01*
X0119949Y0035554D01*
X0116865Y0039550D02*
X0114613Y0041051D01*
X0116865Y0042553D01*
X0114613Y0044054D02*
X0114613Y0039550D01*
X0092949Y0032103D02*
X0092198Y0032854D01*
X0090697Y0032854D01*
X0089946Y0032103D01*
X0088345Y0032103D02*
X0088345Y0029101D01*
X0087594Y0028350D01*
X0086093Y0028350D01*
X0085342Y0029101D01*
X0085342Y0032103D01*
X0086093Y0032854D01*
X0087594Y0032854D01*
X0088345Y0032103D01*
X0086843Y0029851D02*
X0088345Y0028350D01*
X0089946Y0028350D02*
X0092949Y0031353D01*
X0092949Y0032103D01*
X0092949Y0028350D02*
X0089946Y0028350D01*
X0084300Y0033800D02*
X0083800Y0045300D01*
X0082800Y0046300D01*
X0045800Y0046300D01*
X0044800Y0045300D01*
X0044300Y0033800D01*
X0027449Y0032954D02*
X0025947Y0032203D01*
X0024446Y0030702D01*
X0026698Y0030702D01*
X0027449Y0029951D01*
X0027449Y0029201D01*
X0026698Y0028450D01*
X0025197Y0028450D01*
X0024446Y0029201D01*
X0024446Y0030702D01*
X0022845Y0030702D02*
X0022094Y0029951D01*
X0019842Y0029951D01*
X0019842Y0028450D02*
X0019842Y0032954D01*
X0022094Y0032954D01*
X0022845Y0032203D01*
X0022845Y0030702D01*
X0021343Y0029951D02*
X0022845Y0028450D01*
X0044300Y0053800D02*
X0044800Y0065300D01*
X0045800Y0066300D01*
X0082800Y0066300D01*
X0083800Y0065300D01*
X0084300Y0053800D01*
X0084093Y0059550D02*
X0085594Y0059550D01*
X0086345Y0060301D01*
X0086345Y0061051D01*
X0085594Y0061802D01*
X0083342Y0061802D01*
X0083342Y0060301D01*
X0084093Y0059550D01*
X0081741Y0059550D02*
X0078738Y0059550D01*
X0080239Y0059550D02*
X0080239Y0064054D01*
X0078738Y0062553D01*
X0077449Y0064703D02*
X0074446Y0061701D01*
X0074446Y0060950D01*
X0072845Y0060950D02*
X0071343Y0062451D01*
X0072094Y0062451D02*
X0069842Y0062451D01*
X0069842Y0060950D02*
X0069842Y0065454D01*
X0072094Y0065454D01*
X0072845Y0064703D01*
X0072845Y0063202D01*
X0072094Y0062451D01*
X0074446Y0065454D02*
X0077449Y0065454D01*
X0077449Y0064703D01*
X0081000Y0063900D02*
X0081002Y0063963D01*
X0081008Y0064025D01*
X0081018Y0064087D01*
X0081031Y0064149D01*
X0081049Y0064209D01*
X0081070Y0064268D01*
X0081095Y0064326D01*
X0081124Y0064382D01*
X0081156Y0064436D01*
X0081191Y0064488D01*
X0081229Y0064537D01*
X0081271Y0064585D01*
X0081315Y0064629D01*
X0081363Y0064671D01*
X0081412Y0064709D01*
X0081464Y0064744D01*
X0081518Y0064776D01*
X0081574Y0064805D01*
X0081632Y0064830D01*
X0081691Y0064851D01*
X0081751Y0064869D01*
X0081813Y0064882D01*
X0081875Y0064892D01*
X0081937Y0064898D01*
X0082000Y0064900D01*
X0082063Y0064898D01*
X0082125Y0064892D01*
X0082187Y0064882D01*
X0082249Y0064869D01*
X0082309Y0064851D01*
X0082368Y0064830D01*
X0082426Y0064805D01*
X0082482Y0064776D01*
X0082536Y0064744D01*
X0082588Y0064709D01*
X0082637Y0064671D01*
X0082685Y0064629D01*
X0082729Y0064585D01*
X0082771Y0064537D01*
X0082809Y0064488D01*
X0082844Y0064436D01*
X0082876Y0064382D01*
X0082905Y0064326D01*
X0082930Y0064268D01*
X0082951Y0064209D01*
X0082969Y0064149D01*
X0082982Y0064087D01*
X0082992Y0064025D01*
X0082998Y0063963D01*
X0083000Y0063900D01*
X0082998Y0063837D01*
X0082992Y0063775D01*
X0082982Y0063713D01*
X0082969Y0063651D01*
X0082951Y0063591D01*
X0082930Y0063532D01*
X0082905Y0063474D01*
X0082876Y0063418D01*
X0082844Y0063364D01*
X0082809Y0063312D01*
X0082771Y0063263D01*
X0082729Y0063215D01*
X0082685Y0063171D01*
X0082637Y0063129D01*
X0082588Y0063091D01*
X0082536Y0063056D01*
X0082482Y0063024D01*
X0082426Y0062995D01*
X0082368Y0062970D01*
X0082309Y0062949D01*
X0082249Y0062931D01*
X0082187Y0062918D01*
X0082125Y0062908D01*
X0082063Y0062902D01*
X0082000Y0062900D01*
X0081937Y0062902D01*
X0081875Y0062908D01*
X0081813Y0062918D01*
X0081751Y0062931D01*
X0081691Y0062949D01*
X0081632Y0062970D01*
X0081574Y0062995D01*
X0081518Y0063024D01*
X0081464Y0063056D01*
X0081412Y0063091D01*
X0081363Y0063129D01*
X0081315Y0063171D01*
X0081271Y0063215D01*
X0081229Y0063263D01*
X0081191Y0063312D01*
X0081156Y0063364D01*
X0081124Y0063418D01*
X0081095Y0063474D01*
X0081070Y0063532D01*
X0081049Y0063591D01*
X0081031Y0063651D01*
X0081018Y0063713D01*
X0081008Y0063775D01*
X0081002Y0063837D01*
X0081000Y0063900D01*
X0083342Y0061802D02*
X0084843Y0063303D01*
X0086345Y0064054D01*
X0087946Y0062553D02*
X0088697Y0062553D01*
X0089447Y0061802D01*
X0090198Y0062553D01*
X0090949Y0061802D01*
X0090949Y0059550D01*
X0089447Y0059550D02*
X0089447Y0061802D01*
X0087946Y0062553D02*
X0087946Y0059550D01*
X0081000Y0043900D02*
X0081002Y0043963D01*
X0081008Y0044025D01*
X0081018Y0044087D01*
X0081031Y0044149D01*
X0081049Y0044209D01*
X0081070Y0044268D01*
X0081095Y0044326D01*
X0081124Y0044382D01*
X0081156Y0044436D01*
X0081191Y0044488D01*
X0081229Y0044537D01*
X0081271Y0044585D01*
X0081315Y0044629D01*
X0081363Y0044671D01*
X0081412Y0044709D01*
X0081464Y0044744D01*
X0081518Y0044776D01*
X0081574Y0044805D01*
X0081632Y0044830D01*
X0081691Y0044851D01*
X0081751Y0044869D01*
X0081813Y0044882D01*
X0081875Y0044892D01*
X0081937Y0044898D01*
X0082000Y0044900D01*
X0082063Y0044898D01*
X0082125Y0044892D01*
X0082187Y0044882D01*
X0082249Y0044869D01*
X0082309Y0044851D01*
X0082368Y0044830D01*
X0082426Y0044805D01*
X0082482Y0044776D01*
X0082536Y0044744D01*
X0082588Y0044709D01*
X0082637Y0044671D01*
X0082685Y0044629D01*
X0082729Y0044585D01*
X0082771Y0044537D01*
X0082809Y0044488D01*
X0082844Y0044436D01*
X0082876Y0044382D01*
X0082905Y0044326D01*
X0082930Y0044268D01*
X0082951Y0044209D01*
X0082969Y0044149D01*
X0082982Y0044087D01*
X0082992Y0044025D01*
X0082998Y0043963D01*
X0083000Y0043900D01*
X0082998Y0043837D01*
X0082992Y0043775D01*
X0082982Y0043713D01*
X0082969Y0043651D01*
X0082951Y0043591D01*
X0082930Y0043532D01*
X0082905Y0043474D01*
X0082876Y0043418D01*
X0082844Y0043364D01*
X0082809Y0043312D01*
X0082771Y0043263D01*
X0082729Y0043215D01*
X0082685Y0043171D01*
X0082637Y0043129D01*
X0082588Y0043091D01*
X0082536Y0043056D01*
X0082482Y0043024D01*
X0082426Y0042995D01*
X0082368Y0042970D01*
X0082309Y0042949D01*
X0082249Y0042931D01*
X0082187Y0042918D01*
X0082125Y0042908D01*
X0082063Y0042902D01*
X0082000Y0042900D01*
X0081937Y0042902D01*
X0081875Y0042908D01*
X0081813Y0042918D01*
X0081751Y0042931D01*
X0081691Y0042949D01*
X0081632Y0042970D01*
X0081574Y0042995D01*
X0081518Y0043024D01*
X0081464Y0043056D01*
X0081412Y0043091D01*
X0081363Y0043129D01*
X0081315Y0043171D01*
X0081271Y0043215D01*
X0081229Y0043263D01*
X0081191Y0043312D01*
X0081156Y0043364D01*
X0081124Y0043418D01*
X0081095Y0043474D01*
X0081070Y0043532D01*
X0081049Y0043591D01*
X0081031Y0043651D01*
X0081018Y0043713D01*
X0081008Y0043775D01*
X0081002Y0043837D01*
X0081000Y0043900D01*
X0068698Y0016854D02*
X0067197Y0016854D01*
X0066446Y0016103D01*
X0066446Y0015353D01*
X0067197Y0014602D01*
X0068698Y0014602D01*
X0069449Y0013851D01*
X0069449Y0013101D01*
X0068698Y0012350D01*
X0067197Y0012350D01*
X0066446Y0013101D01*
X0066446Y0013851D01*
X0067197Y0014602D01*
X0068698Y0014602D02*
X0069449Y0015353D01*
X0069449Y0016103D01*
X0068698Y0016854D01*
X0064895Y0013101D02*
X0064144Y0013101D01*
X0064144Y0012350D01*
X0064895Y0012350D01*
X0064895Y0013101D01*
X0062543Y0013101D02*
X0062543Y0013851D01*
X0061792Y0014602D01*
X0059540Y0014602D01*
X0059540Y0013101D01*
X0060291Y0012350D01*
X0061792Y0012350D01*
X0062543Y0013101D01*
X0061041Y0016103D02*
X0059540Y0014602D01*
X0061041Y0016103D02*
X0062543Y0016854D01*
X0039698Y0058350D02*
X0038197Y0058350D01*
X0037446Y0059101D01*
X0035845Y0059101D02*
X0035094Y0058350D01*
X0033593Y0058350D01*
X0032842Y0059101D01*
X0032842Y0062103D01*
X0033593Y0062854D01*
X0035094Y0062854D01*
X0035845Y0062103D01*
X0035845Y0059101D01*
X0035845Y0058350D02*
X0034343Y0059851D01*
X0037446Y0062103D02*
X0038197Y0062854D01*
X0039698Y0062854D01*
X0040449Y0062103D01*
X0040449Y0061353D01*
X0039698Y0060602D01*
X0040449Y0059851D01*
X0040449Y0059101D01*
X0039698Y0058350D01*
X0039698Y0060602D02*
X0038947Y0060602D01*
X0059540Y0079602D02*
X0062543Y0079602D01*
X0064144Y0078101D02*
X0064895Y0078101D01*
X0064895Y0077350D01*
X0064144Y0077350D01*
X0064144Y0078101D01*
X0061792Y0077350D02*
X0061792Y0081854D01*
X0059540Y0079602D01*
X0066446Y0079602D02*
X0069449Y0079602D01*
X0068698Y0077350D02*
X0068698Y0081854D01*
X0066446Y0079602D01*
X0055010Y0094050D02*
X0052758Y0094050D01*
X0052758Y0092549D02*
X0052758Y0097053D01*
X0055010Y0097053D01*
X0055760Y0096302D01*
X0055760Y0094801D01*
X0055010Y0094050D01*
X0086546Y0100301D02*
X0087297Y0099550D01*
X0090299Y0099550D01*
X0091050Y0100301D01*
X0091050Y0101802D01*
X0090299Y0102553D01*
X0087297Y0102553D01*
X0086546Y0101802D01*
X0086546Y0100301D01*
X0089549Y0101051D02*
X0091050Y0102553D01*
X0091050Y0104154D02*
X0091050Y0107156D01*
X0091050Y0105655D02*
X0086546Y0105655D01*
X0088047Y0104154D01*
X0102855Y0112050D02*
X0102855Y0116554D01*
D17*
X0126300Y0088100D02*
X0132300Y0088100D01*
X0132300Y0085600D02*
X0126300Y0085600D01*
X0176300Y0085500D02*
X0182300Y0085500D01*
X0182300Y0088000D02*
X0176300Y0088000D01*
X0193000Y0098800D02*
X0193000Y0104800D01*
X0195500Y0104800D02*
X0195500Y0098800D01*
X0083000Y0163800D02*
X0083000Y0169800D01*
X0080500Y0169800D02*
X0080500Y0163800D01*
X0070600Y0109800D02*
X0070600Y0106800D01*
X0070600Y0103800D01*
X0068100Y0103800D02*
X0068100Y0106800D01*
X0068100Y0109800D01*
X0068100Y0099800D02*
X0068100Y0096800D01*
X0068100Y0093800D01*
X0070600Y0093800D02*
X0070600Y0096800D01*
X0070600Y0099800D01*
D18*
X0078069Y0099329D02*
X0077529Y0099329D01*
X0077530Y0099330D02*
X0077526Y0099410D01*
X0077519Y0099491D01*
X0077509Y0099570D01*
X0077494Y0099650D01*
X0077476Y0099728D01*
X0077454Y0099806D01*
X0077429Y0099882D01*
X0077400Y0099957D01*
X0077368Y0100031D01*
X0077332Y0100103D01*
X0077293Y0100174D01*
X0077251Y0100242D01*
X0077206Y0100309D01*
X0077157Y0100373D01*
X0077106Y0100435D01*
X0077051Y0100494D01*
X0076994Y0100551D01*
X0076935Y0100606D01*
X0076873Y0100657D01*
X0076809Y0100706D01*
X0076742Y0100751D01*
X0076674Y0100793D01*
X0076603Y0100832D01*
X0076531Y0100868D01*
X0076457Y0100900D01*
X0076382Y0100929D01*
X0076306Y0100954D01*
X0076228Y0100976D01*
X0076150Y0100994D01*
X0076070Y0101009D01*
X0075991Y0101019D01*
X0075910Y0101026D01*
X0075830Y0101030D01*
X0075829Y0101569D01*
X0075830Y0101570D01*
X0075925Y0101567D01*
X0076019Y0101559D01*
X0076113Y0101548D01*
X0076207Y0101533D01*
X0076300Y0101514D01*
X0076392Y0101492D01*
X0076483Y0101465D01*
X0076572Y0101435D01*
X0076661Y0101401D01*
X0076748Y0101363D01*
X0076833Y0101321D01*
X0076916Y0101277D01*
X0076998Y0101228D01*
X0077077Y0101177D01*
X0077154Y0101122D01*
X0077229Y0101064D01*
X0077302Y0101002D01*
X0077371Y0100938D01*
X0077438Y0100871D01*
X0077502Y0100802D01*
X0077564Y0100729D01*
X0077622Y0100654D01*
X0077677Y0100577D01*
X0077728Y0100498D01*
X0077777Y0100416D01*
X0077821Y0100333D01*
X0077863Y0100248D01*
X0077901Y0100161D01*
X0077935Y0100072D01*
X0077965Y0099983D01*
X0077992Y0099892D01*
X0078014Y0099800D01*
X0078033Y0099707D01*
X0078048Y0099613D01*
X0078059Y0099519D01*
X0078067Y0099425D01*
X0078070Y0099330D01*
X0078014Y0099330D01*
X0078011Y0099422D01*
X0078004Y0099514D01*
X0077993Y0099606D01*
X0077978Y0099697D01*
X0077960Y0099788D01*
X0077937Y0099877D01*
X0077911Y0099966D01*
X0077882Y0100054D01*
X0077849Y0100140D01*
X0077812Y0100224D01*
X0077771Y0100308D01*
X0077728Y0100389D01*
X0077681Y0100468D01*
X0077630Y0100546D01*
X0077577Y0100621D01*
X0077520Y0100694D01*
X0077460Y0100765D01*
X0077398Y0100833D01*
X0077333Y0100898D01*
X0077265Y0100960D01*
X0077194Y0101020D01*
X0077121Y0101077D01*
X0077046Y0101130D01*
X0076968Y0101181D01*
X0076889Y0101228D01*
X0076808Y0101271D01*
X0076724Y0101312D01*
X0076640Y0101349D01*
X0076554Y0101382D01*
X0076466Y0101411D01*
X0076377Y0101437D01*
X0076288Y0101460D01*
X0076197Y0101478D01*
X0076106Y0101493D01*
X0076014Y0101504D01*
X0075922Y0101511D01*
X0075830Y0101514D01*
X0075830Y0101458D01*
X0075922Y0101455D01*
X0076015Y0101447D01*
X0076106Y0101436D01*
X0076198Y0101421D01*
X0076288Y0101402D01*
X0076378Y0101379D01*
X0076466Y0101353D01*
X0076554Y0101322D01*
X0076640Y0101288D01*
X0076724Y0101250D01*
X0076807Y0101209D01*
X0076888Y0101164D01*
X0076967Y0101116D01*
X0077043Y0101064D01*
X0077118Y0101009D01*
X0077190Y0100951D01*
X0077259Y0100890D01*
X0077326Y0100826D01*
X0077390Y0100759D01*
X0077451Y0100690D01*
X0077509Y0100618D01*
X0077564Y0100543D01*
X0077616Y0100467D01*
X0077664Y0100388D01*
X0077709Y0100307D01*
X0077750Y0100224D01*
X0077788Y0100140D01*
X0077822Y0100054D01*
X0077853Y0099966D01*
X0077879Y0099878D01*
X0077902Y0099788D01*
X0077921Y0099698D01*
X0077936Y0099606D01*
X0077947Y0099515D01*
X0077955Y0099422D01*
X0077958Y0099330D01*
X0077902Y0099330D01*
X0077899Y0099420D01*
X0077892Y0099510D01*
X0077881Y0099599D01*
X0077866Y0099688D01*
X0077847Y0099776D01*
X0077825Y0099863D01*
X0077799Y0099950D01*
X0077769Y0100035D01*
X0077736Y0100118D01*
X0077699Y0100200D01*
X0077659Y0100281D01*
X0077615Y0100360D01*
X0077568Y0100436D01*
X0077518Y0100511D01*
X0077465Y0100584D01*
X0077408Y0100654D01*
X0077349Y0100721D01*
X0077286Y0100786D01*
X0077221Y0100849D01*
X0077154Y0100908D01*
X0077084Y0100965D01*
X0077011Y0101018D01*
X0076936Y0101068D01*
X0076860Y0101115D01*
X0076781Y0101159D01*
X0076700Y0101199D01*
X0076618Y0101236D01*
X0076535Y0101269D01*
X0076450Y0101299D01*
X0076363Y0101325D01*
X0076276Y0101347D01*
X0076188Y0101366D01*
X0076099Y0101381D01*
X0076010Y0101392D01*
X0075920Y0101399D01*
X0075830Y0101402D01*
X0075830Y0101346D01*
X0075918Y0101343D01*
X0076005Y0101336D01*
X0076092Y0101325D01*
X0076178Y0101311D01*
X0076264Y0101293D01*
X0076349Y0101271D01*
X0076433Y0101246D01*
X0076515Y0101217D01*
X0076597Y0101184D01*
X0076677Y0101149D01*
X0076755Y0101109D01*
X0076832Y0101067D01*
X0076906Y0101021D01*
X0076979Y0100972D01*
X0077049Y0100920D01*
X0077118Y0100865D01*
X0077183Y0100807D01*
X0077247Y0100747D01*
X0077307Y0100683D01*
X0077365Y0100618D01*
X0077420Y0100549D01*
X0077472Y0100479D01*
X0077521Y0100406D01*
X0077567Y0100332D01*
X0077609Y0100255D01*
X0077649Y0100177D01*
X0077684Y0100097D01*
X0077717Y0100015D01*
X0077746Y0099933D01*
X0077771Y0099849D01*
X0077793Y0099764D01*
X0077811Y0099678D01*
X0077825Y0099592D01*
X0077836Y0099505D01*
X0077843Y0099418D01*
X0077846Y0099330D01*
X0077790Y0099330D01*
X0077787Y0099418D01*
X0077779Y0099505D01*
X0077768Y0099592D01*
X0077754Y0099678D01*
X0077735Y0099764D01*
X0077713Y0099848D01*
X0077687Y0099932D01*
X0077657Y0100014D01*
X0077624Y0100095D01*
X0077587Y0100175D01*
X0077547Y0100253D01*
X0077503Y0100329D01*
X0077457Y0100403D01*
X0077406Y0100475D01*
X0077353Y0100544D01*
X0077297Y0100611D01*
X0077238Y0100676D01*
X0077176Y0100738D01*
X0077111Y0100797D01*
X0077044Y0100853D01*
X0076975Y0100906D01*
X0076903Y0100957D01*
X0076829Y0101003D01*
X0076753Y0101047D01*
X0076675Y0101087D01*
X0076595Y0101124D01*
X0076514Y0101157D01*
X0076432Y0101187D01*
X0076348Y0101213D01*
X0076264Y0101235D01*
X0076178Y0101254D01*
X0076092Y0101268D01*
X0076005Y0101279D01*
X0075918Y0101287D01*
X0075830Y0101290D01*
X0075830Y0101234D01*
X0075915Y0101231D01*
X0076000Y0101224D01*
X0076084Y0101213D01*
X0076168Y0101199D01*
X0076251Y0101181D01*
X0076333Y0101159D01*
X0076415Y0101134D01*
X0076495Y0101105D01*
X0076573Y0101073D01*
X0076651Y0101037D01*
X0076726Y0100998D01*
X0076800Y0100955D01*
X0076872Y0100910D01*
X0076942Y0100861D01*
X0077009Y0100809D01*
X0077074Y0100755D01*
X0077137Y0100697D01*
X0077197Y0100637D01*
X0077255Y0100574D01*
X0077309Y0100509D01*
X0077361Y0100442D01*
X0077410Y0100372D01*
X0077455Y0100300D01*
X0077498Y0100226D01*
X0077537Y0100151D01*
X0077573Y0100073D01*
X0077605Y0099995D01*
X0077634Y0099915D01*
X0077659Y0099833D01*
X0077681Y0099751D01*
X0077699Y0099668D01*
X0077713Y0099584D01*
X0077724Y0099500D01*
X0077731Y0099415D01*
X0077734Y0099330D01*
X0077678Y0099330D01*
X0077674Y0099415D01*
X0077667Y0099500D01*
X0077656Y0099584D01*
X0077642Y0099668D01*
X0077623Y0099751D01*
X0077601Y0099833D01*
X0077575Y0099914D01*
X0077545Y0099993D01*
X0077512Y0100071D01*
X0077476Y0100148D01*
X0077435Y0100223D01*
X0077392Y0100296D01*
X0077345Y0100367D01*
X0077295Y0100436D01*
X0077243Y0100502D01*
X0077187Y0100567D01*
X0077128Y0100628D01*
X0077067Y0100687D01*
X0077002Y0100743D01*
X0076936Y0100795D01*
X0076867Y0100845D01*
X0076796Y0100892D01*
X0076723Y0100935D01*
X0076648Y0100976D01*
X0076571Y0101012D01*
X0076493Y0101045D01*
X0076414Y0101075D01*
X0076333Y0101101D01*
X0076251Y0101123D01*
X0076168Y0101142D01*
X0076084Y0101156D01*
X0076000Y0101167D01*
X0075915Y0101174D01*
X0075830Y0101178D01*
X0075830Y0101122D01*
X0075912Y0101119D01*
X0075994Y0101112D01*
X0076076Y0101101D01*
X0076157Y0101087D01*
X0076238Y0101069D01*
X0076317Y0101047D01*
X0076396Y0101022D01*
X0076473Y0100993D01*
X0076549Y0100961D01*
X0076623Y0100925D01*
X0076696Y0100887D01*
X0076767Y0100844D01*
X0076835Y0100799D01*
X0076902Y0100751D01*
X0076967Y0100699D01*
X0077029Y0100645D01*
X0077088Y0100588D01*
X0077145Y0100529D01*
X0077199Y0100467D01*
X0077251Y0100402D01*
X0077299Y0100335D01*
X0077344Y0100267D01*
X0077387Y0100196D01*
X0077425Y0100123D01*
X0077461Y0100049D01*
X0077493Y0099973D01*
X0077522Y0099896D01*
X0077547Y0099817D01*
X0077569Y0099738D01*
X0077587Y0099657D01*
X0077601Y0099576D01*
X0077612Y0099494D01*
X0077619Y0099412D01*
X0077622Y0099330D01*
X0077566Y0099330D01*
X0077562Y0099412D01*
X0077555Y0099494D01*
X0077544Y0099576D01*
X0077530Y0099657D01*
X0077511Y0099737D01*
X0077489Y0099816D01*
X0077463Y0099894D01*
X0077434Y0099971D01*
X0077401Y0100046D01*
X0077364Y0100120D01*
X0077324Y0100192D01*
X0077281Y0100262D01*
X0077235Y0100330D01*
X0077185Y0100395D01*
X0077133Y0100459D01*
X0077077Y0100519D01*
X0077019Y0100577D01*
X0076959Y0100633D01*
X0076895Y0100685D01*
X0076830Y0100735D01*
X0076762Y0100781D01*
X0076692Y0100824D01*
X0076620Y0100864D01*
X0076546Y0100901D01*
X0076471Y0100934D01*
X0076394Y0100963D01*
X0076316Y0100989D01*
X0076237Y0101011D01*
X0076157Y0101030D01*
X0076076Y0101044D01*
X0075994Y0101055D01*
X0075912Y0101062D01*
X0075830Y0101066D01*
X0075829Y0102031D02*
X0075829Y0102571D01*
X0075830Y0102570D02*
X0075910Y0102574D01*
X0075991Y0102581D01*
X0076070Y0102591D01*
X0076150Y0102606D01*
X0076228Y0102624D01*
X0076306Y0102646D01*
X0076382Y0102671D01*
X0076457Y0102700D01*
X0076531Y0102732D01*
X0076603Y0102768D01*
X0076674Y0102807D01*
X0076742Y0102849D01*
X0076809Y0102894D01*
X0076873Y0102943D01*
X0076935Y0102994D01*
X0076994Y0103049D01*
X0077051Y0103106D01*
X0077106Y0103165D01*
X0077157Y0103227D01*
X0077206Y0103291D01*
X0077251Y0103358D01*
X0077293Y0103426D01*
X0077332Y0103497D01*
X0077368Y0103569D01*
X0077400Y0103643D01*
X0077429Y0103718D01*
X0077454Y0103794D01*
X0077476Y0103872D01*
X0077494Y0103950D01*
X0077509Y0104030D01*
X0077519Y0104109D01*
X0077526Y0104190D01*
X0077530Y0104270D01*
X0078069Y0104271D01*
X0078070Y0104270D01*
X0078067Y0104175D01*
X0078059Y0104081D01*
X0078048Y0103987D01*
X0078033Y0103893D01*
X0078014Y0103800D01*
X0077992Y0103708D01*
X0077965Y0103617D01*
X0077935Y0103528D01*
X0077901Y0103439D01*
X0077863Y0103352D01*
X0077821Y0103267D01*
X0077777Y0103184D01*
X0077728Y0103102D01*
X0077677Y0103023D01*
X0077622Y0102946D01*
X0077564Y0102871D01*
X0077502Y0102798D01*
X0077438Y0102729D01*
X0077371Y0102662D01*
X0077302Y0102598D01*
X0077229Y0102536D01*
X0077154Y0102478D01*
X0077077Y0102423D01*
X0076998Y0102372D01*
X0076916Y0102323D01*
X0076833Y0102279D01*
X0076748Y0102237D01*
X0076661Y0102199D01*
X0076572Y0102165D01*
X0076483Y0102135D01*
X0076392Y0102108D01*
X0076300Y0102086D01*
X0076207Y0102067D01*
X0076113Y0102052D01*
X0076019Y0102041D01*
X0075925Y0102033D01*
X0075830Y0102030D01*
X0075830Y0102086D01*
X0075922Y0102089D01*
X0076014Y0102096D01*
X0076106Y0102107D01*
X0076197Y0102122D01*
X0076288Y0102140D01*
X0076377Y0102163D01*
X0076466Y0102189D01*
X0076554Y0102218D01*
X0076640Y0102251D01*
X0076724Y0102288D01*
X0076808Y0102329D01*
X0076889Y0102372D01*
X0076968Y0102419D01*
X0077046Y0102470D01*
X0077121Y0102523D01*
X0077194Y0102580D01*
X0077265Y0102640D01*
X0077333Y0102702D01*
X0077398Y0102767D01*
X0077460Y0102835D01*
X0077520Y0102906D01*
X0077577Y0102979D01*
X0077630Y0103054D01*
X0077681Y0103132D01*
X0077728Y0103211D01*
X0077771Y0103292D01*
X0077812Y0103376D01*
X0077849Y0103460D01*
X0077882Y0103546D01*
X0077911Y0103634D01*
X0077937Y0103723D01*
X0077960Y0103812D01*
X0077978Y0103903D01*
X0077993Y0103994D01*
X0078004Y0104086D01*
X0078011Y0104178D01*
X0078014Y0104270D01*
X0077958Y0104270D01*
X0077955Y0104178D01*
X0077947Y0104085D01*
X0077936Y0103994D01*
X0077921Y0103902D01*
X0077902Y0103812D01*
X0077879Y0103722D01*
X0077853Y0103634D01*
X0077822Y0103546D01*
X0077788Y0103460D01*
X0077750Y0103376D01*
X0077709Y0103293D01*
X0077664Y0103212D01*
X0077616Y0103133D01*
X0077564Y0103057D01*
X0077509Y0102982D01*
X0077451Y0102910D01*
X0077390Y0102841D01*
X0077326Y0102774D01*
X0077259Y0102710D01*
X0077190Y0102649D01*
X0077118Y0102591D01*
X0077043Y0102536D01*
X0076967Y0102484D01*
X0076888Y0102436D01*
X0076807Y0102391D01*
X0076724Y0102350D01*
X0076640Y0102312D01*
X0076554Y0102278D01*
X0076466Y0102247D01*
X0076378Y0102221D01*
X0076288Y0102198D01*
X0076198Y0102179D01*
X0076106Y0102164D01*
X0076015Y0102153D01*
X0075922Y0102145D01*
X0075830Y0102142D01*
X0075830Y0102198D01*
X0075920Y0102201D01*
X0076010Y0102208D01*
X0076099Y0102219D01*
X0076188Y0102234D01*
X0076276Y0102253D01*
X0076363Y0102275D01*
X0076450Y0102301D01*
X0076535Y0102331D01*
X0076618Y0102364D01*
X0076700Y0102401D01*
X0076781Y0102441D01*
X0076860Y0102485D01*
X0076936Y0102532D01*
X0077011Y0102582D01*
X0077084Y0102635D01*
X0077154Y0102692D01*
X0077221Y0102751D01*
X0077286Y0102814D01*
X0077349Y0102879D01*
X0077408Y0102946D01*
X0077465Y0103016D01*
X0077518Y0103089D01*
X0077568Y0103164D01*
X0077615Y0103240D01*
X0077659Y0103319D01*
X0077699Y0103400D01*
X0077736Y0103482D01*
X0077769Y0103565D01*
X0077799Y0103650D01*
X0077825Y0103737D01*
X0077847Y0103824D01*
X0077866Y0103912D01*
X0077881Y0104001D01*
X0077892Y0104090D01*
X0077899Y0104180D01*
X0077902Y0104270D01*
X0077846Y0104270D01*
X0077843Y0104182D01*
X0077836Y0104095D01*
X0077825Y0104008D01*
X0077811Y0103922D01*
X0077793Y0103836D01*
X0077771Y0103751D01*
X0077746Y0103667D01*
X0077717Y0103585D01*
X0077684Y0103503D01*
X0077649Y0103423D01*
X0077609Y0103345D01*
X0077567Y0103268D01*
X0077521Y0103194D01*
X0077472Y0103121D01*
X0077420Y0103051D01*
X0077365Y0102982D01*
X0077307Y0102917D01*
X0077247Y0102853D01*
X0077183Y0102793D01*
X0077118Y0102735D01*
X0077049Y0102680D01*
X0076979Y0102628D01*
X0076906Y0102579D01*
X0076832Y0102533D01*
X0076755Y0102491D01*
X0076677Y0102451D01*
X0076597Y0102416D01*
X0076515Y0102383D01*
X0076433Y0102354D01*
X0076349Y0102329D01*
X0076264Y0102307D01*
X0076178Y0102289D01*
X0076092Y0102275D01*
X0076005Y0102264D01*
X0075918Y0102257D01*
X0075830Y0102254D01*
X0075830Y0102310D01*
X0075918Y0102313D01*
X0076005Y0102321D01*
X0076092Y0102332D01*
X0076178Y0102346D01*
X0076264Y0102365D01*
X0076348Y0102387D01*
X0076432Y0102413D01*
X0076514Y0102443D01*
X0076595Y0102476D01*
X0076675Y0102513D01*
X0076753Y0102553D01*
X0076829Y0102597D01*
X0076903Y0102643D01*
X0076975Y0102694D01*
X0077044Y0102747D01*
X0077111Y0102803D01*
X0077176Y0102862D01*
X0077238Y0102924D01*
X0077297Y0102989D01*
X0077353Y0103056D01*
X0077406Y0103125D01*
X0077457Y0103197D01*
X0077503Y0103271D01*
X0077547Y0103347D01*
X0077587Y0103425D01*
X0077624Y0103505D01*
X0077657Y0103586D01*
X0077687Y0103668D01*
X0077713Y0103752D01*
X0077735Y0103836D01*
X0077754Y0103922D01*
X0077768Y0104008D01*
X0077779Y0104095D01*
X0077787Y0104182D01*
X0077790Y0104270D01*
X0077734Y0104270D01*
X0077731Y0104185D01*
X0077724Y0104100D01*
X0077713Y0104016D01*
X0077699Y0103932D01*
X0077681Y0103849D01*
X0077659Y0103767D01*
X0077634Y0103685D01*
X0077605Y0103605D01*
X0077573Y0103527D01*
X0077537Y0103449D01*
X0077498Y0103374D01*
X0077455Y0103300D01*
X0077410Y0103228D01*
X0077361Y0103158D01*
X0077309Y0103091D01*
X0077255Y0103026D01*
X0077197Y0102963D01*
X0077137Y0102903D01*
X0077074Y0102845D01*
X0077009Y0102791D01*
X0076942Y0102739D01*
X0076872Y0102690D01*
X0076800Y0102645D01*
X0076726Y0102602D01*
X0076651Y0102563D01*
X0076573Y0102527D01*
X0076495Y0102495D01*
X0076415Y0102466D01*
X0076333Y0102441D01*
X0076251Y0102419D01*
X0076168Y0102401D01*
X0076084Y0102387D01*
X0076000Y0102376D01*
X0075915Y0102369D01*
X0075830Y0102366D01*
X0075830Y0102422D01*
X0075915Y0102426D01*
X0076000Y0102433D01*
X0076084Y0102444D01*
X0076168Y0102458D01*
X0076251Y0102477D01*
X0076333Y0102499D01*
X0076414Y0102525D01*
X0076493Y0102555D01*
X0076571Y0102588D01*
X0076648Y0102624D01*
X0076723Y0102665D01*
X0076796Y0102708D01*
X0076867Y0102755D01*
X0076936Y0102805D01*
X0077002Y0102857D01*
X0077067Y0102913D01*
X0077128Y0102972D01*
X0077187Y0103033D01*
X0077243Y0103098D01*
X0077295Y0103164D01*
X0077345Y0103233D01*
X0077392Y0103304D01*
X0077435Y0103377D01*
X0077476Y0103452D01*
X0077512Y0103529D01*
X0077545Y0103607D01*
X0077575Y0103686D01*
X0077601Y0103767D01*
X0077623Y0103849D01*
X0077642Y0103932D01*
X0077656Y0104016D01*
X0077667Y0104100D01*
X0077674Y0104185D01*
X0077678Y0104270D01*
X0077622Y0104270D01*
X0077619Y0104188D01*
X0077612Y0104106D01*
X0077601Y0104024D01*
X0077587Y0103943D01*
X0077569Y0103862D01*
X0077547Y0103783D01*
X0077522Y0103704D01*
X0077493Y0103627D01*
X0077461Y0103551D01*
X0077425Y0103477D01*
X0077387Y0103404D01*
X0077344Y0103333D01*
X0077299Y0103265D01*
X0077251Y0103198D01*
X0077199Y0103133D01*
X0077145Y0103071D01*
X0077088Y0103012D01*
X0077029Y0102955D01*
X0076967Y0102901D01*
X0076902Y0102849D01*
X0076835Y0102801D01*
X0076767Y0102756D01*
X0076696Y0102713D01*
X0076623Y0102675D01*
X0076549Y0102639D01*
X0076473Y0102607D01*
X0076396Y0102578D01*
X0076317Y0102553D01*
X0076238Y0102531D01*
X0076157Y0102513D01*
X0076076Y0102499D01*
X0075994Y0102488D01*
X0075912Y0102481D01*
X0075830Y0102478D01*
X0075830Y0102534D01*
X0075912Y0102538D01*
X0075994Y0102545D01*
X0076076Y0102556D01*
X0076157Y0102570D01*
X0076237Y0102589D01*
X0076316Y0102611D01*
X0076394Y0102637D01*
X0076471Y0102666D01*
X0076546Y0102699D01*
X0076620Y0102736D01*
X0076692Y0102776D01*
X0076762Y0102819D01*
X0076830Y0102865D01*
X0076895Y0102915D01*
X0076959Y0102967D01*
X0077019Y0103023D01*
X0077077Y0103081D01*
X0077133Y0103141D01*
X0077185Y0103205D01*
X0077235Y0103270D01*
X0077281Y0103338D01*
X0077324Y0103408D01*
X0077364Y0103480D01*
X0077401Y0103554D01*
X0077434Y0103629D01*
X0077463Y0103706D01*
X0077489Y0103784D01*
X0077511Y0103863D01*
X0077530Y0103943D01*
X0077544Y0104024D01*
X0077555Y0104106D01*
X0077562Y0104188D01*
X0077566Y0104270D01*
X0078069Y0109329D02*
X0077529Y0109329D01*
X0077530Y0109330D02*
X0077526Y0109410D01*
X0077519Y0109491D01*
X0077509Y0109570D01*
X0077494Y0109650D01*
X0077476Y0109728D01*
X0077454Y0109806D01*
X0077429Y0109882D01*
X0077400Y0109957D01*
X0077368Y0110031D01*
X0077332Y0110103D01*
X0077293Y0110174D01*
X0077251Y0110242D01*
X0077206Y0110309D01*
X0077157Y0110373D01*
X0077106Y0110435D01*
X0077051Y0110494D01*
X0076994Y0110551D01*
X0076935Y0110606D01*
X0076873Y0110657D01*
X0076809Y0110706D01*
X0076742Y0110751D01*
X0076674Y0110793D01*
X0076603Y0110832D01*
X0076531Y0110868D01*
X0076457Y0110900D01*
X0076382Y0110929D01*
X0076306Y0110954D01*
X0076228Y0110976D01*
X0076150Y0110994D01*
X0076070Y0111009D01*
X0075991Y0111019D01*
X0075910Y0111026D01*
X0075830Y0111030D01*
X0075829Y0111569D01*
X0075830Y0111570D01*
X0075925Y0111567D01*
X0076019Y0111559D01*
X0076113Y0111548D01*
X0076207Y0111533D01*
X0076300Y0111514D01*
X0076392Y0111492D01*
X0076483Y0111465D01*
X0076572Y0111435D01*
X0076661Y0111401D01*
X0076748Y0111363D01*
X0076833Y0111321D01*
X0076916Y0111277D01*
X0076998Y0111228D01*
X0077077Y0111177D01*
X0077154Y0111122D01*
X0077229Y0111064D01*
X0077302Y0111002D01*
X0077371Y0110938D01*
X0077438Y0110871D01*
X0077502Y0110802D01*
X0077564Y0110729D01*
X0077622Y0110654D01*
X0077677Y0110577D01*
X0077728Y0110498D01*
X0077777Y0110416D01*
X0077821Y0110333D01*
X0077863Y0110248D01*
X0077901Y0110161D01*
X0077935Y0110072D01*
X0077965Y0109983D01*
X0077992Y0109892D01*
X0078014Y0109800D01*
X0078033Y0109707D01*
X0078048Y0109613D01*
X0078059Y0109519D01*
X0078067Y0109425D01*
X0078070Y0109330D01*
X0078014Y0109330D01*
X0078011Y0109422D01*
X0078004Y0109514D01*
X0077993Y0109606D01*
X0077978Y0109697D01*
X0077960Y0109788D01*
X0077937Y0109877D01*
X0077911Y0109966D01*
X0077882Y0110054D01*
X0077849Y0110140D01*
X0077812Y0110224D01*
X0077771Y0110308D01*
X0077728Y0110389D01*
X0077681Y0110468D01*
X0077630Y0110546D01*
X0077577Y0110621D01*
X0077520Y0110694D01*
X0077460Y0110765D01*
X0077398Y0110833D01*
X0077333Y0110898D01*
X0077265Y0110960D01*
X0077194Y0111020D01*
X0077121Y0111077D01*
X0077046Y0111130D01*
X0076968Y0111181D01*
X0076889Y0111228D01*
X0076808Y0111271D01*
X0076724Y0111312D01*
X0076640Y0111349D01*
X0076554Y0111382D01*
X0076466Y0111411D01*
X0076377Y0111437D01*
X0076288Y0111460D01*
X0076197Y0111478D01*
X0076106Y0111493D01*
X0076014Y0111504D01*
X0075922Y0111511D01*
X0075830Y0111514D01*
X0075830Y0111458D01*
X0075922Y0111455D01*
X0076015Y0111447D01*
X0076106Y0111436D01*
X0076198Y0111421D01*
X0076288Y0111402D01*
X0076378Y0111379D01*
X0076466Y0111353D01*
X0076554Y0111322D01*
X0076640Y0111288D01*
X0076724Y0111250D01*
X0076807Y0111209D01*
X0076888Y0111164D01*
X0076967Y0111116D01*
X0077043Y0111064D01*
X0077118Y0111009D01*
X0077190Y0110951D01*
X0077259Y0110890D01*
X0077326Y0110826D01*
X0077390Y0110759D01*
X0077451Y0110690D01*
X0077509Y0110618D01*
X0077564Y0110543D01*
X0077616Y0110467D01*
X0077664Y0110388D01*
X0077709Y0110307D01*
X0077750Y0110224D01*
X0077788Y0110140D01*
X0077822Y0110054D01*
X0077853Y0109966D01*
X0077879Y0109878D01*
X0077902Y0109788D01*
X0077921Y0109698D01*
X0077936Y0109606D01*
X0077947Y0109515D01*
X0077955Y0109422D01*
X0077958Y0109330D01*
X0077902Y0109330D01*
X0077899Y0109420D01*
X0077892Y0109510D01*
X0077881Y0109599D01*
X0077866Y0109688D01*
X0077847Y0109776D01*
X0077825Y0109863D01*
X0077799Y0109950D01*
X0077769Y0110035D01*
X0077736Y0110118D01*
X0077699Y0110200D01*
X0077659Y0110281D01*
X0077615Y0110360D01*
X0077568Y0110436D01*
X0077518Y0110511D01*
X0077465Y0110584D01*
X0077408Y0110654D01*
X0077349Y0110721D01*
X0077286Y0110786D01*
X0077221Y0110849D01*
X0077154Y0110908D01*
X0077084Y0110965D01*
X0077011Y0111018D01*
X0076936Y0111068D01*
X0076860Y0111115D01*
X0076781Y0111159D01*
X0076700Y0111199D01*
X0076618Y0111236D01*
X0076535Y0111269D01*
X0076450Y0111299D01*
X0076363Y0111325D01*
X0076276Y0111347D01*
X0076188Y0111366D01*
X0076099Y0111381D01*
X0076010Y0111392D01*
X0075920Y0111399D01*
X0075830Y0111402D01*
X0075830Y0111346D01*
X0075918Y0111343D01*
X0076005Y0111336D01*
X0076092Y0111325D01*
X0076178Y0111311D01*
X0076264Y0111293D01*
X0076349Y0111271D01*
X0076433Y0111246D01*
X0076515Y0111217D01*
X0076597Y0111184D01*
X0076677Y0111149D01*
X0076755Y0111109D01*
X0076832Y0111067D01*
X0076906Y0111021D01*
X0076979Y0110972D01*
X0077049Y0110920D01*
X0077118Y0110865D01*
X0077183Y0110807D01*
X0077247Y0110747D01*
X0077307Y0110683D01*
X0077365Y0110618D01*
X0077420Y0110549D01*
X0077472Y0110479D01*
X0077521Y0110406D01*
X0077567Y0110332D01*
X0077609Y0110255D01*
X0077649Y0110177D01*
X0077684Y0110097D01*
X0077717Y0110015D01*
X0077746Y0109933D01*
X0077771Y0109849D01*
X0077793Y0109764D01*
X0077811Y0109678D01*
X0077825Y0109592D01*
X0077836Y0109505D01*
X0077843Y0109418D01*
X0077846Y0109330D01*
X0077790Y0109330D01*
X0077787Y0109418D01*
X0077779Y0109505D01*
X0077768Y0109592D01*
X0077754Y0109678D01*
X0077735Y0109764D01*
X0077713Y0109848D01*
X0077687Y0109932D01*
X0077657Y0110014D01*
X0077624Y0110095D01*
X0077587Y0110175D01*
X0077547Y0110253D01*
X0077503Y0110329D01*
X0077457Y0110403D01*
X0077406Y0110475D01*
X0077353Y0110544D01*
X0077297Y0110611D01*
X0077238Y0110676D01*
X0077176Y0110738D01*
X0077111Y0110797D01*
X0077044Y0110853D01*
X0076975Y0110906D01*
X0076903Y0110957D01*
X0076829Y0111003D01*
X0076753Y0111047D01*
X0076675Y0111087D01*
X0076595Y0111124D01*
X0076514Y0111157D01*
X0076432Y0111187D01*
X0076348Y0111213D01*
X0076264Y0111235D01*
X0076178Y0111254D01*
X0076092Y0111268D01*
X0076005Y0111279D01*
X0075918Y0111287D01*
X0075830Y0111290D01*
X0075830Y0111234D01*
X0075915Y0111231D01*
X0076000Y0111224D01*
X0076084Y0111213D01*
X0076168Y0111199D01*
X0076251Y0111181D01*
X0076333Y0111159D01*
X0076415Y0111134D01*
X0076495Y0111105D01*
X0076573Y0111073D01*
X0076651Y0111037D01*
X0076726Y0110998D01*
X0076800Y0110955D01*
X0076872Y0110910D01*
X0076942Y0110861D01*
X0077009Y0110809D01*
X0077074Y0110755D01*
X0077137Y0110697D01*
X0077197Y0110637D01*
X0077255Y0110574D01*
X0077309Y0110509D01*
X0077361Y0110442D01*
X0077410Y0110372D01*
X0077455Y0110300D01*
X0077498Y0110226D01*
X0077537Y0110151D01*
X0077573Y0110073D01*
X0077605Y0109995D01*
X0077634Y0109915D01*
X0077659Y0109833D01*
X0077681Y0109751D01*
X0077699Y0109668D01*
X0077713Y0109584D01*
X0077724Y0109500D01*
X0077731Y0109415D01*
X0077734Y0109330D01*
X0077678Y0109330D01*
X0077674Y0109415D01*
X0077667Y0109500D01*
X0077656Y0109584D01*
X0077642Y0109668D01*
X0077623Y0109751D01*
X0077601Y0109833D01*
X0077575Y0109914D01*
X0077545Y0109993D01*
X0077512Y0110071D01*
X0077476Y0110148D01*
X0077435Y0110223D01*
X0077392Y0110296D01*
X0077345Y0110367D01*
X0077295Y0110436D01*
X0077243Y0110502D01*
X0077187Y0110567D01*
X0077128Y0110628D01*
X0077067Y0110687D01*
X0077002Y0110743D01*
X0076936Y0110795D01*
X0076867Y0110845D01*
X0076796Y0110892D01*
X0076723Y0110935D01*
X0076648Y0110976D01*
X0076571Y0111012D01*
X0076493Y0111045D01*
X0076414Y0111075D01*
X0076333Y0111101D01*
X0076251Y0111123D01*
X0076168Y0111142D01*
X0076084Y0111156D01*
X0076000Y0111167D01*
X0075915Y0111174D01*
X0075830Y0111178D01*
X0075830Y0111122D01*
X0075912Y0111119D01*
X0075994Y0111112D01*
X0076076Y0111101D01*
X0076157Y0111087D01*
X0076238Y0111069D01*
X0076317Y0111047D01*
X0076396Y0111022D01*
X0076473Y0110993D01*
X0076549Y0110961D01*
X0076623Y0110925D01*
X0076696Y0110887D01*
X0076767Y0110844D01*
X0076835Y0110799D01*
X0076902Y0110751D01*
X0076967Y0110699D01*
X0077029Y0110645D01*
X0077088Y0110588D01*
X0077145Y0110529D01*
X0077199Y0110467D01*
X0077251Y0110402D01*
X0077299Y0110335D01*
X0077344Y0110267D01*
X0077387Y0110196D01*
X0077425Y0110123D01*
X0077461Y0110049D01*
X0077493Y0109973D01*
X0077522Y0109896D01*
X0077547Y0109817D01*
X0077569Y0109738D01*
X0077587Y0109657D01*
X0077601Y0109576D01*
X0077612Y0109494D01*
X0077619Y0109412D01*
X0077622Y0109330D01*
X0077566Y0109330D01*
X0077562Y0109412D01*
X0077555Y0109494D01*
X0077544Y0109576D01*
X0077530Y0109657D01*
X0077511Y0109737D01*
X0077489Y0109816D01*
X0077463Y0109894D01*
X0077434Y0109971D01*
X0077401Y0110046D01*
X0077364Y0110120D01*
X0077324Y0110192D01*
X0077281Y0110262D01*
X0077235Y0110330D01*
X0077185Y0110395D01*
X0077133Y0110459D01*
X0077077Y0110519D01*
X0077019Y0110577D01*
X0076959Y0110633D01*
X0076895Y0110685D01*
X0076830Y0110735D01*
X0076762Y0110781D01*
X0076692Y0110824D01*
X0076620Y0110864D01*
X0076546Y0110901D01*
X0076471Y0110934D01*
X0076394Y0110963D01*
X0076316Y0110989D01*
X0076237Y0111011D01*
X0076157Y0111030D01*
X0076076Y0111044D01*
X0075994Y0111055D01*
X0075912Y0111062D01*
X0075830Y0111066D01*
X0062771Y0111569D02*
X0062771Y0111029D01*
X0062770Y0111030D02*
X0062690Y0111026D01*
X0062609Y0111019D01*
X0062530Y0111009D01*
X0062450Y0110994D01*
X0062372Y0110976D01*
X0062294Y0110954D01*
X0062218Y0110929D01*
X0062143Y0110900D01*
X0062069Y0110868D01*
X0061997Y0110832D01*
X0061926Y0110793D01*
X0061858Y0110751D01*
X0061791Y0110706D01*
X0061727Y0110657D01*
X0061665Y0110606D01*
X0061606Y0110551D01*
X0061549Y0110494D01*
X0061494Y0110435D01*
X0061443Y0110373D01*
X0061394Y0110309D01*
X0061349Y0110242D01*
X0061307Y0110174D01*
X0061268Y0110103D01*
X0061232Y0110031D01*
X0061200Y0109957D01*
X0061171Y0109882D01*
X0061146Y0109806D01*
X0061124Y0109728D01*
X0061106Y0109650D01*
X0061091Y0109570D01*
X0061081Y0109491D01*
X0061074Y0109410D01*
X0061070Y0109330D01*
X0060531Y0109329D01*
X0060530Y0109330D01*
X0060533Y0109425D01*
X0060541Y0109519D01*
X0060552Y0109613D01*
X0060567Y0109707D01*
X0060586Y0109800D01*
X0060608Y0109892D01*
X0060635Y0109983D01*
X0060665Y0110072D01*
X0060699Y0110161D01*
X0060737Y0110248D01*
X0060779Y0110333D01*
X0060823Y0110416D01*
X0060872Y0110498D01*
X0060923Y0110577D01*
X0060978Y0110654D01*
X0061036Y0110729D01*
X0061098Y0110802D01*
X0061162Y0110871D01*
X0061229Y0110938D01*
X0061298Y0111002D01*
X0061371Y0111064D01*
X0061446Y0111122D01*
X0061523Y0111177D01*
X0061602Y0111228D01*
X0061684Y0111277D01*
X0061767Y0111321D01*
X0061852Y0111363D01*
X0061939Y0111401D01*
X0062028Y0111435D01*
X0062117Y0111465D01*
X0062208Y0111492D01*
X0062300Y0111514D01*
X0062393Y0111533D01*
X0062487Y0111548D01*
X0062581Y0111559D01*
X0062675Y0111567D01*
X0062770Y0111570D01*
X0062770Y0111514D01*
X0062678Y0111511D01*
X0062586Y0111504D01*
X0062494Y0111493D01*
X0062403Y0111478D01*
X0062312Y0111460D01*
X0062223Y0111437D01*
X0062134Y0111411D01*
X0062046Y0111382D01*
X0061960Y0111349D01*
X0061876Y0111312D01*
X0061792Y0111271D01*
X0061711Y0111228D01*
X0061632Y0111181D01*
X0061554Y0111130D01*
X0061479Y0111077D01*
X0061406Y0111020D01*
X0061335Y0110960D01*
X0061267Y0110898D01*
X0061202Y0110833D01*
X0061140Y0110765D01*
X0061080Y0110694D01*
X0061023Y0110621D01*
X0060970Y0110546D01*
X0060919Y0110468D01*
X0060872Y0110389D01*
X0060829Y0110308D01*
X0060788Y0110224D01*
X0060751Y0110140D01*
X0060718Y0110054D01*
X0060689Y0109966D01*
X0060663Y0109877D01*
X0060640Y0109788D01*
X0060622Y0109697D01*
X0060607Y0109606D01*
X0060596Y0109514D01*
X0060589Y0109422D01*
X0060586Y0109330D01*
X0060642Y0109330D01*
X0060645Y0109422D01*
X0060653Y0109515D01*
X0060664Y0109606D01*
X0060679Y0109698D01*
X0060698Y0109788D01*
X0060721Y0109878D01*
X0060747Y0109966D01*
X0060778Y0110054D01*
X0060812Y0110140D01*
X0060850Y0110224D01*
X0060891Y0110307D01*
X0060936Y0110388D01*
X0060984Y0110467D01*
X0061036Y0110543D01*
X0061091Y0110618D01*
X0061149Y0110690D01*
X0061210Y0110759D01*
X0061274Y0110826D01*
X0061341Y0110890D01*
X0061410Y0110951D01*
X0061482Y0111009D01*
X0061557Y0111064D01*
X0061633Y0111116D01*
X0061712Y0111164D01*
X0061793Y0111209D01*
X0061876Y0111250D01*
X0061960Y0111288D01*
X0062046Y0111322D01*
X0062134Y0111353D01*
X0062222Y0111379D01*
X0062312Y0111402D01*
X0062402Y0111421D01*
X0062494Y0111436D01*
X0062585Y0111447D01*
X0062678Y0111455D01*
X0062770Y0111458D01*
X0062770Y0111402D01*
X0062680Y0111399D01*
X0062590Y0111392D01*
X0062501Y0111381D01*
X0062412Y0111366D01*
X0062324Y0111347D01*
X0062237Y0111325D01*
X0062150Y0111299D01*
X0062065Y0111269D01*
X0061982Y0111236D01*
X0061900Y0111199D01*
X0061819Y0111159D01*
X0061740Y0111115D01*
X0061664Y0111068D01*
X0061589Y0111018D01*
X0061516Y0110965D01*
X0061446Y0110908D01*
X0061379Y0110849D01*
X0061314Y0110786D01*
X0061251Y0110721D01*
X0061192Y0110654D01*
X0061135Y0110584D01*
X0061082Y0110511D01*
X0061032Y0110436D01*
X0060985Y0110360D01*
X0060941Y0110281D01*
X0060901Y0110200D01*
X0060864Y0110118D01*
X0060831Y0110035D01*
X0060801Y0109950D01*
X0060775Y0109863D01*
X0060753Y0109776D01*
X0060734Y0109688D01*
X0060719Y0109599D01*
X0060708Y0109510D01*
X0060701Y0109420D01*
X0060698Y0109330D01*
X0060754Y0109330D01*
X0060757Y0109418D01*
X0060764Y0109505D01*
X0060775Y0109592D01*
X0060789Y0109678D01*
X0060807Y0109764D01*
X0060829Y0109849D01*
X0060854Y0109933D01*
X0060883Y0110015D01*
X0060916Y0110097D01*
X0060951Y0110177D01*
X0060991Y0110255D01*
X0061033Y0110332D01*
X0061079Y0110406D01*
X0061128Y0110479D01*
X0061180Y0110549D01*
X0061235Y0110618D01*
X0061293Y0110683D01*
X0061353Y0110747D01*
X0061417Y0110807D01*
X0061482Y0110865D01*
X0061551Y0110920D01*
X0061621Y0110972D01*
X0061694Y0111021D01*
X0061768Y0111067D01*
X0061845Y0111109D01*
X0061923Y0111149D01*
X0062003Y0111184D01*
X0062085Y0111217D01*
X0062167Y0111246D01*
X0062251Y0111271D01*
X0062336Y0111293D01*
X0062422Y0111311D01*
X0062508Y0111325D01*
X0062595Y0111336D01*
X0062682Y0111343D01*
X0062770Y0111346D01*
X0062770Y0111290D01*
X0062682Y0111287D01*
X0062595Y0111279D01*
X0062508Y0111268D01*
X0062422Y0111254D01*
X0062336Y0111235D01*
X0062252Y0111213D01*
X0062168Y0111187D01*
X0062086Y0111157D01*
X0062005Y0111124D01*
X0061925Y0111087D01*
X0061847Y0111047D01*
X0061771Y0111003D01*
X0061697Y0110957D01*
X0061625Y0110906D01*
X0061556Y0110853D01*
X0061489Y0110797D01*
X0061424Y0110738D01*
X0061362Y0110676D01*
X0061303Y0110611D01*
X0061247Y0110544D01*
X0061194Y0110475D01*
X0061143Y0110403D01*
X0061097Y0110329D01*
X0061053Y0110253D01*
X0061013Y0110175D01*
X0060976Y0110095D01*
X0060943Y0110014D01*
X0060913Y0109932D01*
X0060887Y0109848D01*
X0060865Y0109764D01*
X0060846Y0109678D01*
X0060832Y0109592D01*
X0060821Y0109505D01*
X0060813Y0109418D01*
X0060810Y0109330D01*
X0060866Y0109330D01*
X0060869Y0109415D01*
X0060876Y0109500D01*
X0060887Y0109584D01*
X0060901Y0109668D01*
X0060919Y0109751D01*
X0060941Y0109833D01*
X0060966Y0109915D01*
X0060995Y0109995D01*
X0061027Y0110073D01*
X0061063Y0110151D01*
X0061102Y0110226D01*
X0061145Y0110300D01*
X0061190Y0110372D01*
X0061239Y0110442D01*
X0061291Y0110509D01*
X0061345Y0110574D01*
X0061403Y0110637D01*
X0061463Y0110697D01*
X0061526Y0110755D01*
X0061591Y0110809D01*
X0061658Y0110861D01*
X0061728Y0110910D01*
X0061800Y0110955D01*
X0061874Y0110998D01*
X0061949Y0111037D01*
X0062027Y0111073D01*
X0062105Y0111105D01*
X0062185Y0111134D01*
X0062267Y0111159D01*
X0062349Y0111181D01*
X0062432Y0111199D01*
X0062516Y0111213D01*
X0062600Y0111224D01*
X0062685Y0111231D01*
X0062770Y0111234D01*
X0062770Y0111178D01*
X0062685Y0111174D01*
X0062600Y0111167D01*
X0062516Y0111156D01*
X0062432Y0111142D01*
X0062349Y0111123D01*
X0062267Y0111101D01*
X0062186Y0111075D01*
X0062107Y0111045D01*
X0062029Y0111012D01*
X0061952Y0110976D01*
X0061877Y0110935D01*
X0061804Y0110892D01*
X0061733Y0110845D01*
X0061664Y0110795D01*
X0061598Y0110743D01*
X0061533Y0110687D01*
X0061472Y0110628D01*
X0061413Y0110567D01*
X0061357Y0110502D01*
X0061305Y0110436D01*
X0061255Y0110367D01*
X0061208Y0110296D01*
X0061165Y0110223D01*
X0061124Y0110148D01*
X0061088Y0110071D01*
X0061055Y0109993D01*
X0061025Y0109914D01*
X0060999Y0109833D01*
X0060977Y0109751D01*
X0060958Y0109668D01*
X0060944Y0109584D01*
X0060933Y0109500D01*
X0060926Y0109415D01*
X0060922Y0109330D01*
X0060978Y0109330D01*
X0060981Y0109412D01*
X0060988Y0109494D01*
X0060999Y0109576D01*
X0061013Y0109657D01*
X0061031Y0109738D01*
X0061053Y0109817D01*
X0061078Y0109896D01*
X0061107Y0109973D01*
X0061139Y0110049D01*
X0061175Y0110123D01*
X0061213Y0110196D01*
X0061256Y0110267D01*
X0061301Y0110335D01*
X0061349Y0110402D01*
X0061401Y0110467D01*
X0061455Y0110529D01*
X0061512Y0110588D01*
X0061571Y0110645D01*
X0061633Y0110699D01*
X0061698Y0110751D01*
X0061765Y0110799D01*
X0061833Y0110844D01*
X0061904Y0110887D01*
X0061977Y0110925D01*
X0062051Y0110961D01*
X0062127Y0110993D01*
X0062204Y0111022D01*
X0062283Y0111047D01*
X0062362Y0111069D01*
X0062443Y0111087D01*
X0062524Y0111101D01*
X0062606Y0111112D01*
X0062688Y0111119D01*
X0062770Y0111122D01*
X0062770Y0111066D01*
X0062688Y0111062D01*
X0062606Y0111055D01*
X0062524Y0111044D01*
X0062443Y0111030D01*
X0062363Y0111011D01*
X0062284Y0110989D01*
X0062206Y0110963D01*
X0062129Y0110934D01*
X0062054Y0110901D01*
X0061980Y0110864D01*
X0061908Y0110824D01*
X0061838Y0110781D01*
X0061770Y0110735D01*
X0061705Y0110685D01*
X0061641Y0110633D01*
X0061581Y0110577D01*
X0061523Y0110519D01*
X0061467Y0110459D01*
X0061415Y0110395D01*
X0061365Y0110330D01*
X0061319Y0110262D01*
X0061276Y0110192D01*
X0061236Y0110120D01*
X0061199Y0110046D01*
X0061166Y0109971D01*
X0061137Y0109894D01*
X0061111Y0109816D01*
X0061089Y0109737D01*
X0061070Y0109657D01*
X0061056Y0109576D01*
X0061045Y0109494D01*
X0061038Y0109412D01*
X0061034Y0109330D01*
X0060531Y0104271D02*
X0061071Y0104271D01*
X0061070Y0104270D02*
X0061074Y0104190D01*
X0061081Y0104109D01*
X0061091Y0104030D01*
X0061106Y0103950D01*
X0061124Y0103872D01*
X0061146Y0103794D01*
X0061171Y0103718D01*
X0061200Y0103643D01*
X0061232Y0103569D01*
X0061268Y0103497D01*
X0061307Y0103426D01*
X0061349Y0103358D01*
X0061394Y0103291D01*
X0061443Y0103227D01*
X0061494Y0103165D01*
X0061549Y0103106D01*
X0061606Y0103049D01*
X0061665Y0102994D01*
X0061727Y0102943D01*
X0061791Y0102894D01*
X0061858Y0102849D01*
X0061926Y0102807D01*
X0061997Y0102768D01*
X0062069Y0102732D01*
X0062143Y0102700D01*
X0062218Y0102671D01*
X0062294Y0102646D01*
X0062372Y0102624D01*
X0062450Y0102606D01*
X0062530Y0102591D01*
X0062609Y0102581D01*
X0062690Y0102574D01*
X0062770Y0102570D01*
X0062771Y0102031D01*
X0062770Y0102030D01*
X0062675Y0102033D01*
X0062581Y0102041D01*
X0062487Y0102052D01*
X0062393Y0102067D01*
X0062300Y0102086D01*
X0062208Y0102108D01*
X0062117Y0102135D01*
X0062028Y0102165D01*
X0061939Y0102199D01*
X0061852Y0102237D01*
X0061767Y0102279D01*
X0061684Y0102323D01*
X0061602Y0102372D01*
X0061523Y0102423D01*
X0061446Y0102478D01*
X0061371Y0102536D01*
X0061298Y0102598D01*
X0061229Y0102662D01*
X0061162Y0102729D01*
X0061098Y0102798D01*
X0061036Y0102871D01*
X0060978Y0102946D01*
X0060923Y0103023D01*
X0060872Y0103102D01*
X0060823Y0103184D01*
X0060779Y0103267D01*
X0060737Y0103352D01*
X0060699Y0103439D01*
X0060665Y0103528D01*
X0060635Y0103617D01*
X0060608Y0103708D01*
X0060586Y0103800D01*
X0060567Y0103893D01*
X0060552Y0103987D01*
X0060541Y0104081D01*
X0060533Y0104175D01*
X0060530Y0104270D01*
X0060586Y0104270D01*
X0060589Y0104178D01*
X0060596Y0104086D01*
X0060607Y0103994D01*
X0060622Y0103903D01*
X0060640Y0103812D01*
X0060663Y0103723D01*
X0060689Y0103634D01*
X0060718Y0103546D01*
X0060751Y0103460D01*
X0060788Y0103376D01*
X0060829Y0103292D01*
X0060872Y0103211D01*
X0060919Y0103132D01*
X0060970Y0103054D01*
X0061023Y0102979D01*
X0061080Y0102906D01*
X0061140Y0102835D01*
X0061202Y0102767D01*
X0061267Y0102702D01*
X0061335Y0102640D01*
X0061406Y0102580D01*
X0061479Y0102523D01*
X0061554Y0102470D01*
X0061632Y0102419D01*
X0061711Y0102372D01*
X0061792Y0102329D01*
X0061876Y0102288D01*
X0061960Y0102251D01*
X0062046Y0102218D01*
X0062134Y0102189D01*
X0062223Y0102163D01*
X0062312Y0102140D01*
X0062403Y0102122D01*
X0062494Y0102107D01*
X0062586Y0102096D01*
X0062678Y0102089D01*
X0062770Y0102086D01*
X0062770Y0102142D01*
X0062678Y0102145D01*
X0062585Y0102153D01*
X0062494Y0102164D01*
X0062402Y0102179D01*
X0062312Y0102198D01*
X0062222Y0102221D01*
X0062134Y0102247D01*
X0062046Y0102278D01*
X0061960Y0102312D01*
X0061876Y0102350D01*
X0061793Y0102391D01*
X0061712Y0102436D01*
X0061633Y0102484D01*
X0061557Y0102536D01*
X0061482Y0102591D01*
X0061410Y0102649D01*
X0061341Y0102710D01*
X0061274Y0102774D01*
X0061210Y0102841D01*
X0061149Y0102910D01*
X0061091Y0102982D01*
X0061036Y0103057D01*
X0060984Y0103133D01*
X0060936Y0103212D01*
X0060891Y0103293D01*
X0060850Y0103376D01*
X0060812Y0103460D01*
X0060778Y0103546D01*
X0060747Y0103634D01*
X0060721Y0103722D01*
X0060698Y0103812D01*
X0060679Y0103902D01*
X0060664Y0103994D01*
X0060653Y0104085D01*
X0060645Y0104178D01*
X0060642Y0104270D01*
X0060698Y0104270D01*
X0060701Y0104180D01*
X0060708Y0104090D01*
X0060719Y0104001D01*
X0060734Y0103912D01*
X0060753Y0103824D01*
X0060775Y0103737D01*
X0060801Y0103650D01*
X0060831Y0103565D01*
X0060864Y0103482D01*
X0060901Y0103400D01*
X0060941Y0103319D01*
X0060985Y0103240D01*
X0061032Y0103164D01*
X0061082Y0103089D01*
X0061135Y0103016D01*
X0061192Y0102946D01*
X0061251Y0102879D01*
X0061314Y0102814D01*
X0061379Y0102751D01*
X0061446Y0102692D01*
X0061516Y0102635D01*
X0061589Y0102582D01*
X0061664Y0102532D01*
X0061740Y0102485D01*
X0061819Y0102441D01*
X0061900Y0102401D01*
X0061982Y0102364D01*
X0062065Y0102331D01*
X0062150Y0102301D01*
X0062237Y0102275D01*
X0062324Y0102253D01*
X0062412Y0102234D01*
X0062501Y0102219D01*
X0062590Y0102208D01*
X0062680Y0102201D01*
X0062770Y0102198D01*
X0062770Y0102254D01*
X0062682Y0102257D01*
X0062595Y0102264D01*
X0062508Y0102275D01*
X0062422Y0102289D01*
X0062336Y0102307D01*
X0062251Y0102329D01*
X0062167Y0102354D01*
X0062085Y0102383D01*
X0062003Y0102416D01*
X0061923Y0102451D01*
X0061845Y0102491D01*
X0061768Y0102533D01*
X0061694Y0102579D01*
X0061621Y0102628D01*
X0061551Y0102680D01*
X0061482Y0102735D01*
X0061417Y0102793D01*
X0061353Y0102853D01*
X0061293Y0102917D01*
X0061235Y0102982D01*
X0061180Y0103051D01*
X0061128Y0103121D01*
X0061079Y0103194D01*
X0061033Y0103268D01*
X0060991Y0103345D01*
X0060951Y0103423D01*
X0060916Y0103503D01*
X0060883Y0103585D01*
X0060854Y0103667D01*
X0060829Y0103751D01*
X0060807Y0103836D01*
X0060789Y0103922D01*
X0060775Y0104008D01*
X0060764Y0104095D01*
X0060757Y0104182D01*
X0060754Y0104270D01*
X0060810Y0104270D01*
X0060813Y0104182D01*
X0060821Y0104095D01*
X0060832Y0104008D01*
X0060846Y0103922D01*
X0060865Y0103836D01*
X0060887Y0103752D01*
X0060913Y0103668D01*
X0060943Y0103586D01*
X0060976Y0103505D01*
X0061013Y0103425D01*
X0061053Y0103347D01*
X0061097Y0103271D01*
X0061143Y0103197D01*
X0061194Y0103125D01*
X0061247Y0103056D01*
X0061303Y0102989D01*
X0061362Y0102924D01*
X0061424Y0102862D01*
X0061489Y0102803D01*
X0061556Y0102747D01*
X0061625Y0102694D01*
X0061697Y0102643D01*
X0061771Y0102597D01*
X0061847Y0102553D01*
X0061925Y0102513D01*
X0062005Y0102476D01*
X0062086Y0102443D01*
X0062168Y0102413D01*
X0062252Y0102387D01*
X0062336Y0102365D01*
X0062422Y0102346D01*
X0062508Y0102332D01*
X0062595Y0102321D01*
X0062682Y0102313D01*
X0062770Y0102310D01*
X0062770Y0102366D01*
X0062685Y0102369D01*
X0062600Y0102376D01*
X0062516Y0102387D01*
X0062432Y0102401D01*
X0062349Y0102419D01*
X0062267Y0102441D01*
X0062185Y0102466D01*
X0062105Y0102495D01*
X0062027Y0102527D01*
X0061949Y0102563D01*
X0061874Y0102602D01*
X0061800Y0102645D01*
X0061728Y0102690D01*
X0061658Y0102739D01*
X0061591Y0102791D01*
X0061526Y0102845D01*
X0061463Y0102903D01*
X0061403Y0102963D01*
X0061345Y0103026D01*
X0061291Y0103091D01*
X0061239Y0103158D01*
X0061190Y0103228D01*
X0061145Y0103300D01*
X0061102Y0103374D01*
X0061063Y0103449D01*
X0061027Y0103527D01*
X0060995Y0103605D01*
X0060966Y0103685D01*
X0060941Y0103767D01*
X0060919Y0103849D01*
X0060901Y0103932D01*
X0060887Y0104016D01*
X0060876Y0104100D01*
X0060869Y0104185D01*
X0060866Y0104270D01*
X0060922Y0104270D01*
X0060926Y0104185D01*
X0060933Y0104100D01*
X0060944Y0104016D01*
X0060958Y0103932D01*
X0060977Y0103849D01*
X0060999Y0103767D01*
X0061025Y0103686D01*
X0061055Y0103607D01*
X0061088Y0103529D01*
X0061124Y0103452D01*
X0061165Y0103377D01*
X0061208Y0103304D01*
X0061255Y0103233D01*
X0061305Y0103164D01*
X0061357Y0103098D01*
X0061413Y0103033D01*
X0061472Y0102972D01*
X0061533Y0102913D01*
X0061598Y0102857D01*
X0061664Y0102805D01*
X0061733Y0102755D01*
X0061804Y0102708D01*
X0061877Y0102665D01*
X0061952Y0102624D01*
X0062029Y0102588D01*
X0062107Y0102555D01*
X0062186Y0102525D01*
X0062267Y0102499D01*
X0062349Y0102477D01*
X0062432Y0102458D01*
X0062516Y0102444D01*
X0062600Y0102433D01*
X0062685Y0102426D01*
X0062770Y0102422D01*
X0062770Y0102478D01*
X0062688Y0102481D01*
X0062606Y0102488D01*
X0062524Y0102499D01*
X0062443Y0102513D01*
X0062362Y0102531D01*
X0062283Y0102553D01*
X0062204Y0102578D01*
X0062127Y0102607D01*
X0062051Y0102639D01*
X0061977Y0102675D01*
X0061904Y0102713D01*
X0061833Y0102756D01*
X0061765Y0102801D01*
X0061698Y0102849D01*
X0061633Y0102901D01*
X0061571Y0102955D01*
X0061512Y0103012D01*
X0061455Y0103071D01*
X0061401Y0103133D01*
X0061349Y0103198D01*
X0061301Y0103265D01*
X0061256Y0103333D01*
X0061213Y0103404D01*
X0061175Y0103477D01*
X0061139Y0103551D01*
X0061107Y0103627D01*
X0061078Y0103704D01*
X0061053Y0103783D01*
X0061031Y0103862D01*
X0061013Y0103943D01*
X0060999Y0104024D01*
X0060988Y0104106D01*
X0060981Y0104188D01*
X0060978Y0104270D01*
X0061034Y0104270D01*
X0061038Y0104188D01*
X0061045Y0104106D01*
X0061056Y0104024D01*
X0061070Y0103943D01*
X0061089Y0103863D01*
X0061111Y0103784D01*
X0061137Y0103706D01*
X0061166Y0103629D01*
X0061199Y0103554D01*
X0061236Y0103480D01*
X0061276Y0103408D01*
X0061319Y0103338D01*
X0061365Y0103270D01*
X0061415Y0103205D01*
X0061467Y0103141D01*
X0061523Y0103081D01*
X0061581Y0103023D01*
X0061641Y0102967D01*
X0061705Y0102915D01*
X0061770Y0102865D01*
X0061838Y0102819D01*
X0061908Y0102776D01*
X0061980Y0102736D01*
X0062054Y0102699D01*
X0062129Y0102666D01*
X0062206Y0102637D01*
X0062284Y0102611D01*
X0062363Y0102589D01*
X0062443Y0102570D01*
X0062524Y0102556D01*
X0062606Y0102545D01*
X0062688Y0102538D01*
X0062770Y0102534D01*
X0062771Y0101569D02*
X0062771Y0101029D01*
X0062770Y0101030D02*
X0062690Y0101026D01*
X0062609Y0101019D01*
X0062530Y0101009D01*
X0062450Y0100994D01*
X0062372Y0100976D01*
X0062294Y0100954D01*
X0062218Y0100929D01*
X0062143Y0100900D01*
X0062069Y0100868D01*
X0061997Y0100832D01*
X0061926Y0100793D01*
X0061858Y0100751D01*
X0061791Y0100706D01*
X0061727Y0100657D01*
X0061665Y0100606D01*
X0061606Y0100551D01*
X0061549Y0100494D01*
X0061494Y0100435D01*
X0061443Y0100373D01*
X0061394Y0100309D01*
X0061349Y0100242D01*
X0061307Y0100174D01*
X0061268Y0100103D01*
X0061232Y0100031D01*
X0061200Y0099957D01*
X0061171Y0099882D01*
X0061146Y0099806D01*
X0061124Y0099728D01*
X0061106Y0099650D01*
X0061091Y0099570D01*
X0061081Y0099491D01*
X0061074Y0099410D01*
X0061070Y0099330D01*
X0060531Y0099329D01*
X0060530Y0099330D01*
X0060533Y0099425D01*
X0060541Y0099519D01*
X0060552Y0099613D01*
X0060567Y0099707D01*
X0060586Y0099800D01*
X0060608Y0099892D01*
X0060635Y0099983D01*
X0060665Y0100072D01*
X0060699Y0100161D01*
X0060737Y0100248D01*
X0060779Y0100333D01*
X0060823Y0100416D01*
X0060872Y0100498D01*
X0060923Y0100577D01*
X0060978Y0100654D01*
X0061036Y0100729D01*
X0061098Y0100802D01*
X0061162Y0100871D01*
X0061229Y0100938D01*
X0061298Y0101002D01*
X0061371Y0101064D01*
X0061446Y0101122D01*
X0061523Y0101177D01*
X0061602Y0101228D01*
X0061684Y0101277D01*
X0061767Y0101321D01*
X0061852Y0101363D01*
X0061939Y0101401D01*
X0062028Y0101435D01*
X0062117Y0101465D01*
X0062208Y0101492D01*
X0062300Y0101514D01*
X0062393Y0101533D01*
X0062487Y0101548D01*
X0062581Y0101559D01*
X0062675Y0101567D01*
X0062770Y0101570D01*
X0062770Y0101514D01*
X0062678Y0101511D01*
X0062586Y0101504D01*
X0062494Y0101493D01*
X0062403Y0101478D01*
X0062312Y0101460D01*
X0062223Y0101437D01*
X0062134Y0101411D01*
X0062046Y0101382D01*
X0061960Y0101349D01*
X0061876Y0101312D01*
X0061792Y0101271D01*
X0061711Y0101228D01*
X0061632Y0101181D01*
X0061554Y0101130D01*
X0061479Y0101077D01*
X0061406Y0101020D01*
X0061335Y0100960D01*
X0061267Y0100898D01*
X0061202Y0100833D01*
X0061140Y0100765D01*
X0061080Y0100694D01*
X0061023Y0100621D01*
X0060970Y0100546D01*
X0060919Y0100468D01*
X0060872Y0100389D01*
X0060829Y0100308D01*
X0060788Y0100224D01*
X0060751Y0100140D01*
X0060718Y0100054D01*
X0060689Y0099966D01*
X0060663Y0099877D01*
X0060640Y0099788D01*
X0060622Y0099697D01*
X0060607Y0099606D01*
X0060596Y0099514D01*
X0060589Y0099422D01*
X0060586Y0099330D01*
X0060642Y0099330D01*
X0060645Y0099422D01*
X0060653Y0099515D01*
X0060664Y0099606D01*
X0060679Y0099698D01*
X0060698Y0099788D01*
X0060721Y0099878D01*
X0060747Y0099966D01*
X0060778Y0100054D01*
X0060812Y0100140D01*
X0060850Y0100224D01*
X0060891Y0100307D01*
X0060936Y0100388D01*
X0060984Y0100467D01*
X0061036Y0100543D01*
X0061091Y0100618D01*
X0061149Y0100690D01*
X0061210Y0100759D01*
X0061274Y0100826D01*
X0061341Y0100890D01*
X0061410Y0100951D01*
X0061482Y0101009D01*
X0061557Y0101064D01*
X0061633Y0101116D01*
X0061712Y0101164D01*
X0061793Y0101209D01*
X0061876Y0101250D01*
X0061960Y0101288D01*
X0062046Y0101322D01*
X0062134Y0101353D01*
X0062222Y0101379D01*
X0062312Y0101402D01*
X0062402Y0101421D01*
X0062494Y0101436D01*
X0062585Y0101447D01*
X0062678Y0101455D01*
X0062770Y0101458D01*
X0062770Y0101402D01*
X0062680Y0101399D01*
X0062590Y0101392D01*
X0062501Y0101381D01*
X0062412Y0101366D01*
X0062324Y0101347D01*
X0062237Y0101325D01*
X0062150Y0101299D01*
X0062065Y0101269D01*
X0061982Y0101236D01*
X0061900Y0101199D01*
X0061819Y0101159D01*
X0061740Y0101115D01*
X0061664Y0101068D01*
X0061589Y0101018D01*
X0061516Y0100965D01*
X0061446Y0100908D01*
X0061379Y0100849D01*
X0061314Y0100786D01*
X0061251Y0100721D01*
X0061192Y0100654D01*
X0061135Y0100584D01*
X0061082Y0100511D01*
X0061032Y0100436D01*
X0060985Y0100360D01*
X0060941Y0100281D01*
X0060901Y0100200D01*
X0060864Y0100118D01*
X0060831Y0100035D01*
X0060801Y0099950D01*
X0060775Y0099863D01*
X0060753Y0099776D01*
X0060734Y0099688D01*
X0060719Y0099599D01*
X0060708Y0099510D01*
X0060701Y0099420D01*
X0060698Y0099330D01*
X0060754Y0099330D01*
X0060757Y0099418D01*
X0060764Y0099505D01*
X0060775Y0099592D01*
X0060789Y0099678D01*
X0060807Y0099764D01*
X0060829Y0099849D01*
X0060854Y0099933D01*
X0060883Y0100015D01*
X0060916Y0100097D01*
X0060951Y0100177D01*
X0060991Y0100255D01*
X0061033Y0100332D01*
X0061079Y0100406D01*
X0061128Y0100479D01*
X0061180Y0100549D01*
X0061235Y0100618D01*
X0061293Y0100683D01*
X0061353Y0100747D01*
X0061417Y0100807D01*
X0061482Y0100865D01*
X0061551Y0100920D01*
X0061621Y0100972D01*
X0061694Y0101021D01*
X0061768Y0101067D01*
X0061845Y0101109D01*
X0061923Y0101149D01*
X0062003Y0101184D01*
X0062085Y0101217D01*
X0062167Y0101246D01*
X0062251Y0101271D01*
X0062336Y0101293D01*
X0062422Y0101311D01*
X0062508Y0101325D01*
X0062595Y0101336D01*
X0062682Y0101343D01*
X0062770Y0101346D01*
X0062770Y0101290D01*
X0062682Y0101287D01*
X0062595Y0101279D01*
X0062508Y0101268D01*
X0062422Y0101254D01*
X0062336Y0101235D01*
X0062252Y0101213D01*
X0062168Y0101187D01*
X0062086Y0101157D01*
X0062005Y0101124D01*
X0061925Y0101087D01*
X0061847Y0101047D01*
X0061771Y0101003D01*
X0061697Y0100957D01*
X0061625Y0100906D01*
X0061556Y0100853D01*
X0061489Y0100797D01*
X0061424Y0100738D01*
X0061362Y0100676D01*
X0061303Y0100611D01*
X0061247Y0100544D01*
X0061194Y0100475D01*
X0061143Y0100403D01*
X0061097Y0100329D01*
X0061053Y0100253D01*
X0061013Y0100175D01*
X0060976Y0100095D01*
X0060943Y0100014D01*
X0060913Y0099932D01*
X0060887Y0099848D01*
X0060865Y0099764D01*
X0060846Y0099678D01*
X0060832Y0099592D01*
X0060821Y0099505D01*
X0060813Y0099418D01*
X0060810Y0099330D01*
X0060866Y0099330D01*
X0060869Y0099415D01*
X0060876Y0099500D01*
X0060887Y0099584D01*
X0060901Y0099668D01*
X0060919Y0099751D01*
X0060941Y0099833D01*
X0060966Y0099915D01*
X0060995Y0099995D01*
X0061027Y0100073D01*
X0061063Y0100151D01*
X0061102Y0100226D01*
X0061145Y0100300D01*
X0061190Y0100372D01*
X0061239Y0100442D01*
X0061291Y0100509D01*
X0061345Y0100574D01*
X0061403Y0100637D01*
X0061463Y0100697D01*
X0061526Y0100755D01*
X0061591Y0100809D01*
X0061658Y0100861D01*
X0061728Y0100910D01*
X0061800Y0100955D01*
X0061874Y0100998D01*
X0061949Y0101037D01*
X0062027Y0101073D01*
X0062105Y0101105D01*
X0062185Y0101134D01*
X0062267Y0101159D01*
X0062349Y0101181D01*
X0062432Y0101199D01*
X0062516Y0101213D01*
X0062600Y0101224D01*
X0062685Y0101231D01*
X0062770Y0101234D01*
X0062770Y0101178D01*
X0062685Y0101174D01*
X0062600Y0101167D01*
X0062516Y0101156D01*
X0062432Y0101142D01*
X0062349Y0101123D01*
X0062267Y0101101D01*
X0062186Y0101075D01*
X0062107Y0101045D01*
X0062029Y0101012D01*
X0061952Y0100976D01*
X0061877Y0100935D01*
X0061804Y0100892D01*
X0061733Y0100845D01*
X0061664Y0100795D01*
X0061598Y0100743D01*
X0061533Y0100687D01*
X0061472Y0100628D01*
X0061413Y0100567D01*
X0061357Y0100502D01*
X0061305Y0100436D01*
X0061255Y0100367D01*
X0061208Y0100296D01*
X0061165Y0100223D01*
X0061124Y0100148D01*
X0061088Y0100071D01*
X0061055Y0099993D01*
X0061025Y0099914D01*
X0060999Y0099833D01*
X0060977Y0099751D01*
X0060958Y0099668D01*
X0060944Y0099584D01*
X0060933Y0099500D01*
X0060926Y0099415D01*
X0060922Y0099330D01*
X0060978Y0099330D01*
X0060981Y0099412D01*
X0060988Y0099494D01*
X0060999Y0099576D01*
X0061013Y0099657D01*
X0061031Y0099738D01*
X0061053Y0099817D01*
X0061078Y0099896D01*
X0061107Y0099973D01*
X0061139Y0100049D01*
X0061175Y0100123D01*
X0061213Y0100196D01*
X0061256Y0100267D01*
X0061301Y0100335D01*
X0061349Y0100402D01*
X0061401Y0100467D01*
X0061455Y0100529D01*
X0061512Y0100588D01*
X0061571Y0100645D01*
X0061633Y0100699D01*
X0061698Y0100751D01*
X0061765Y0100799D01*
X0061833Y0100844D01*
X0061904Y0100887D01*
X0061977Y0100925D01*
X0062051Y0100961D01*
X0062127Y0100993D01*
X0062204Y0101022D01*
X0062283Y0101047D01*
X0062362Y0101069D01*
X0062443Y0101087D01*
X0062524Y0101101D01*
X0062606Y0101112D01*
X0062688Y0101119D01*
X0062770Y0101122D01*
X0062770Y0101066D01*
X0062688Y0101062D01*
X0062606Y0101055D01*
X0062524Y0101044D01*
X0062443Y0101030D01*
X0062363Y0101011D01*
X0062284Y0100989D01*
X0062206Y0100963D01*
X0062129Y0100934D01*
X0062054Y0100901D01*
X0061980Y0100864D01*
X0061908Y0100824D01*
X0061838Y0100781D01*
X0061770Y0100735D01*
X0061705Y0100685D01*
X0061641Y0100633D01*
X0061581Y0100577D01*
X0061523Y0100519D01*
X0061467Y0100459D01*
X0061415Y0100395D01*
X0061365Y0100330D01*
X0061319Y0100262D01*
X0061276Y0100192D01*
X0061236Y0100120D01*
X0061199Y0100046D01*
X0061166Y0099971D01*
X0061137Y0099894D01*
X0061111Y0099816D01*
X0061089Y0099737D01*
X0061070Y0099657D01*
X0061056Y0099576D01*
X0061045Y0099494D01*
X0061038Y0099412D01*
X0061034Y0099330D01*
X0060531Y0094271D02*
X0061071Y0094271D01*
X0061070Y0094270D02*
X0061074Y0094190D01*
X0061081Y0094109D01*
X0061091Y0094030D01*
X0061106Y0093950D01*
X0061124Y0093872D01*
X0061146Y0093794D01*
X0061171Y0093718D01*
X0061200Y0093643D01*
X0061232Y0093569D01*
X0061268Y0093497D01*
X0061307Y0093426D01*
X0061349Y0093358D01*
X0061394Y0093291D01*
X0061443Y0093227D01*
X0061494Y0093165D01*
X0061549Y0093106D01*
X0061606Y0093049D01*
X0061665Y0092994D01*
X0061727Y0092943D01*
X0061791Y0092894D01*
X0061858Y0092849D01*
X0061926Y0092807D01*
X0061997Y0092768D01*
X0062069Y0092732D01*
X0062143Y0092700D01*
X0062218Y0092671D01*
X0062294Y0092646D01*
X0062372Y0092624D01*
X0062450Y0092606D01*
X0062530Y0092591D01*
X0062609Y0092581D01*
X0062690Y0092574D01*
X0062770Y0092570D01*
X0062771Y0092031D01*
X0062770Y0092030D01*
X0062675Y0092033D01*
X0062581Y0092041D01*
X0062487Y0092052D01*
X0062393Y0092067D01*
X0062300Y0092086D01*
X0062208Y0092108D01*
X0062117Y0092135D01*
X0062028Y0092165D01*
X0061939Y0092199D01*
X0061852Y0092237D01*
X0061767Y0092279D01*
X0061684Y0092323D01*
X0061602Y0092372D01*
X0061523Y0092423D01*
X0061446Y0092478D01*
X0061371Y0092536D01*
X0061298Y0092598D01*
X0061229Y0092662D01*
X0061162Y0092729D01*
X0061098Y0092798D01*
X0061036Y0092871D01*
X0060978Y0092946D01*
X0060923Y0093023D01*
X0060872Y0093102D01*
X0060823Y0093184D01*
X0060779Y0093267D01*
X0060737Y0093352D01*
X0060699Y0093439D01*
X0060665Y0093528D01*
X0060635Y0093617D01*
X0060608Y0093708D01*
X0060586Y0093800D01*
X0060567Y0093893D01*
X0060552Y0093987D01*
X0060541Y0094081D01*
X0060533Y0094175D01*
X0060530Y0094270D01*
X0060586Y0094270D01*
X0060589Y0094178D01*
X0060596Y0094086D01*
X0060607Y0093994D01*
X0060622Y0093903D01*
X0060640Y0093812D01*
X0060663Y0093723D01*
X0060689Y0093634D01*
X0060718Y0093546D01*
X0060751Y0093460D01*
X0060788Y0093376D01*
X0060829Y0093292D01*
X0060872Y0093211D01*
X0060919Y0093132D01*
X0060970Y0093054D01*
X0061023Y0092979D01*
X0061080Y0092906D01*
X0061140Y0092835D01*
X0061202Y0092767D01*
X0061267Y0092702D01*
X0061335Y0092640D01*
X0061406Y0092580D01*
X0061479Y0092523D01*
X0061554Y0092470D01*
X0061632Y0092419D01*
X0061711Y0092372D01*
X0061792Y0092329D01*
X0061876Y0092288D01*
X0061960Y0092251D01*
X0062046Y0092218D01*
X0062134Y0092189D01*
X0062223Y0092163D01*
X0062312Y0092140D01*
X0062403Y0092122D01*
X0062494Y0092107D01*
X0062586Y0092096D01*
X0062678Y0092089D01*
X0062770Y0092086D01*
X0062770Y0092142D01*
X0062678Y0092145D01*
X0062585Y0092153D01*
X0062494Y0092164D01*
X0062402Y0092179D01*
X0062312Y0092198D01*
X0062222Y0092221D01*
X0062134Y0092247D01*
X0062046Y0092278D01*
X0061960Y0092312D01*
X0061876Y0092350D01*
X0061793Y0092391D01*
X0061712Y0092436D01*
X0061633Y0092484D01*
X0061557Y0092536D01*
X0061482Y0092591D01*
X0061410Y0092649D01*
X0061341Y0092710D01*
X0061274Y0092774D01*
X0061210Y0092841D01*
X0061149Y0092910D01*
X0061091Y0092982D01*
X0061036Y0093057D01*
X0060984Y0093133D01*
X0060936Y0093212D01*
X0060891Y0093293D01*
X0060850Y0093376D01*
X0060812Y0093460D01*
X0060778Y0093546D01*
X0060747Y0093634D01*
X0060721Y0093722D01*
X0060698Y0093812D01*
X0060679Y0093902D01*
X0060664Y0093994D01*
X0060653Y0094085D01*
X0060645Y0094178D01*
X0060642Y0094270D01*
X0060698Y0094270D01*
X0060701Y0094180D01*
X0060708Y0094090D01*
X0060719Y0094001D01*
X0060734Y0093912D01*
X0060753Y0093824D01*
X0060775Y0093737D01*
X0060801Y0093650D01*
X0060831Y0093565D01*
X0060864Y0093482D01*
X0060901Y0093400D01*
X0060941Y0093319D01*
X0060985Y0093240D01*
X0061032Y0093164D01*
X0061082Y0093089D01*
X0061135Y0093016D01*
X0061192Y0092946D01*
X0061251Y0092879D01*
X0061314Y0092814D01*
X0061379Y0092751D01*
X0061446Y0092692D01*
X0061516Y0092635D01*
X0061589Y0092582D01*
X0061664Y0092532D01*
X0061740Y0092485D01*
X0061819Y0092441D01*
X0061900Y0092401D01*
X0061982Y0092364D01*
X0062065Y0092331D01*
X0062150Y0092301D01*
X0062237Y0092275D01*
X0062324Y0092253D01*
X0062412Y0092234D01*
X0062501Y0092219D01*
X0062590Y0092208D01*
X0062680Y0092201D01*
X0062770Y0092198D01*
X0062770Y0092254D01*
X0062682Y0092257D01*
X0062595Y0092264D01*
X0062508Y0092275D01*
X0062422Y0092289D01*
X0062336Y0092307D01*
X0062251Y0092329D01*
X0062167Y0092354D01*
X0062085Y0092383D01*
X0062003Y0092416D01*
X0061923Y0092451D01*
X0061845Y0092491D01*
X0061768Y0092533D01*
X0061694Y0092579D01*
X0061621Y0092628D01*
X0061551Y0092680D01*
X0061482Y0092735D01*
X0061417Y0092793D01*
X0061353Y0092853D01*
X0061293Y0092917D01*
X0061235Y0092982D01*
X0061180Y0093051D01*
X0061128Y0093121D01*
X0061079Y0093194D01*
X0061033Y0093268D01*
X0060991Y0093345D01*
X0060951Y0093423D01*
X0060916Y0093503D01*
X0060883Y0093585D01*
X0060854Y0093667D01*
X0060829Y0093751D01*
X0060807Y0093836D01*
X0060789Y0093922D01*
X0060775Y0094008D01*
X0060764Y0094095D01*
X0060757Y0094182D01*
X0060754Y0094270D01*
X0060810Y0094270D01*
X0060813Y0094182D01*
X0060821Y0094095D01*
X0060832Y0094008D01*
X0060846Y0093922D01*
X0060865Y0093836D01*
X0060887Y0093752D01*
X0060913Y0093668D01*
X0060943Y0093586D01*
X0060976Y0093505D01*
X0061013Y0093425D01*
X0061053Y0093347D01*
X0061097Y0093271D01*
X0061143Y0093197D01*
X0061194Y0093125D01*
X0061247Y0093056D01*
X0061303Y0092989D01*
X0061362Y0092924D01*
X0061424Y0092862D01*
X0061489Y0092803D01*
X0061556Y0092747D01*
X0061625Y0092694D01*
X0061697Y0092643D01*
X0061771Y0092597D01*
X0061847Y0092553D01*
X0061925Y0092513D01*
X0062005Y0092476D01*
X0062086Y0092443D01*
X0062168Y0092413D01*
X0062252Y0092387D01*
X0062336Y0092365D01*
X0062422Y0092346D01*
X0062508Y0092332D01*
X0062595Y0092321D01*
X0062682Y0092313D01*
X0062770Y0092310D01*
X0062770Y0092366D01*
X0062685Y0092369D01*
X0062600Y0092376D01*
X0062516Y0092387D01*
X0062432Y0092401D01*
X0062349Y0092419D01*
X0062267Y0092441D01*
X0062185Y0092466D01*
X0062105Y0092495D01*
X0062027Y0092527D01*
X0061949Y0092563D01*
X0061874Y0092602D01*
X0061800Y0092645D01*
X0061728Y0092690D01*
X0061658Y0092739D01*
X0061591Y0092791D01*
X0061526Y0092845D01*
X0061463Y0092903D01*
X0061403Y0092963D01*
X0061345Y0093026D01*
X0061291Y0093091D01*
X0061239Y0093158D01*
X0061190Y0093228D01*
X0061145Y0093300D01*
X0061102Y0093374D01*
X0061063Y0093449D01*
X0061027Y0093527D01*
X0060995Y0093605D01*
X0060966Y0093685D01*
X0060941Y0093767D01*
X0060919Y0093849D01*
X0060901Y0093932D01*
X0060887Y0094016D01*
X0060876Y0094100D01*
X0060869Y0094185D01*
X0060866Y0094270D01*
X0060922Y0094270D01*
X0060926Y0094185D01*
X0060933Y0094100D01*
X0060944Y0094016D01*
X0060958Y0093932D01*
X0060977Y0093849D01*
X0060999Y0093767D01*
X0061025Y0093686D01*
X0061055Y0093607D01*
X0061088Y0093529D01*
X0061124Y0093452D01*
X0061165Y0093377D01*
X0061208Y0093304D01*
X0061255Y0093233D01*
X0061305Y0093164D01*
X0061357Y0093098D01*
X0061413Y0093033D01*
X0061472Y0092972D01*
X0061533Y0092913D01*
X0061598Y0092857D01*
X0061664Y0092805D01*
X0061733Y0092755D01*
X0061804Y0092708D01*
X0061877Y0092665D01*
X0061952Y0092624D01*
X0062029Y0092588D01*
X0062107Y0092555D01*
X0062186Y0092525D01*
X0062267Y0092499D01*
X0062349Y0092477D01*
X0062432Y0092458D01*
X0062516Y0092444D01*
X0062600Y0092433D01*
X0062685Y0092426D01*
X0062770Y0092422D01*
X0062770Y0092478D01*
X0062688Y0092481D01*
X0062606Y0092488D01*
X0062524Y0092499D01*
X0062443Y0092513D01*
X0062362Y0092531D01*
X0062283Y0092553D01*
X0062204Y0092578D01*
X0062127Y0092607D01*
X0062051Y0092639D01*
X0061977Y0092675D01*
X0061904Y0092713D01*
X0061833Y0092756D01*
X0061765Y0092801D01*
X0061698Y0092849D01*
X0061633Y0092901D01*
X0061571Y0092955D01*
X0061512Y0093012D01*
X0061455Y0093071D01*
X0061401Y0093133D01*
X0061349Y0093198D01*
X0061301Y0093265D01*
X0061256Y0093333D01*
X0061213Y0093404D01*
X0061175Y0093477D01*
X0061139Y0093551D01*
X0061107Y0093627D01*
X0061078Y0093704D01*
X0061053Y0093783D01*
X0061031Y0093862D01*
X0061013Y0093943D01*
X0060999Y0094024D01*
X0060988Y0094106D01*
X0060981Y0094188D01*
X0060978Y0094270D01*
X0061034Y0094270D01*
X0061038Y0094188D01*
X0061045Y0094106D01*
X0061056Y0094024D01*
X0061070Y0093943D01*
X0061089Y0093863D01*
X0061111Y0093784D01*
X0061137Y0093706D01*
X0061166Y0093629D01*
X0061199Y0093554D01*
X0061236Y0093480D01*
X0061276Y0093408D01*
X0061319Y0093338D01*
X0061365Y0093270D01*
X0061415Y0093205D01*
X0061467Y0093141D01*
X0061523Y0093081D01*
X0061581Y0093023D01*
X0061641Y0092967D01*
X0061705Y0092915D01*
X0061770Y0092865D01*
X0061838Y0092819D01*
X0061908Y0092776D01*
X0061980Y0092736D01*
X0062054Y0092699D01*
X0062129Y0092666D01*
X0062206Y0092637D01*
X0062284Y0092611D01*
X0062363Y0092589D01*
X0062443Y0092570D01*
X0062524Y0092556D01*
X0062606Y0092545D01*
X0062688Y0092538D01*
X0062770Y0092534D01*
X0075829Y0092031D02*
X0075829Y0092571D01*
X0075830Y0092570D02*
X0075910Y0092574D01*
X0075991Y0092581D01*
X0076070Y0092591D01*
X0076150Y0092606D01*
X0076228Y0092624D01*
X0076306Y0092646D01*
X0076382Y0092671D01*
X0076457Y0092700D01*
X0076531Y0092732D01*
X0076603Y0092768D01*
X0076674Y0092807D01*
X0076742Y0092849D01*
X0076809Y0092894D01*
X0076873Y0092943D01*
X0076935Y0092994D01*
X0076994Y0093049D01*
X0077051Y0093106D01*
X0077106Y0093165D01*
X0077157Y0093227D01*
X0077206Y0093291D01*
X0077251Y0093358D01*
X0077293Y0093426D01*
X0077332Y0093497D01*
X0077368Y0093569D01*
X0077400Y0093643D01*
X0077429Y0093718D01*
X0077454Y0093794D01*
X0077476Y0093872D01*
X0077494Y0093950D01*
X0077509Y0094030D01*
X0077519Y0094109D01*
X0077526Y0094190D01*
X0077530Y0094270D01*
X0078069Y0094271D01*
X0078070Y0094270D01*
X0078067Y0094175D01*
X0078059Y0094081D01*
X0078048Y0093987D01*
X0078033Y0093893D01*
X0078014Y0093800D01*
X0077992Y0093708D01*
X0077965Y0093617D01*
X0077935Y0093528D01*
X0077901Y0093439D01*
X0077863Y0093352D01*
X0077821Y0093267D01*
X0077777Y0093184D01*
X0077728Y0093102D01*
X0077677Y0093023D01*
X0077622Y0092946D01*
X0077564Y0092871D01*
X0077502Y0092798D01*
X0077438Y0092729D01*
X0077371Y0092662D01*
X0077302Y0092598D01*
X0077229Y0092536D01*
X0077154Y0092478D01*
X0077077Y0092423D01*
X0076998Y0092372D01*
X0076916Y0092323D01*
X0076833Y0092279D01*
X0076748Y0092237D01*
X0076661Y0092199D01*
X0076572Y0092165D01*
X0076483Y0092135D01*
X0076392Y0092108D01*
X0076300Y0092086D01*
X0076207Y0092067D01*
X0076113Y0092052D01*
X0076019Y0092041D01*
X0075925Y0092033D01*
X0075830Y0092030D01*
X0075830Y0092086D01*
X0075922Y0092089D01*
X0076014Y0092096D01*
X0076106Y0092107D01*
X0076197Y0092122D01*
X0076288Y0092140D01*
X0076377Y0092163D01*
X0076466Y0092189D01*
X0076554Y0092218D01*
X0076640Y0092251D01*
X0076724Y0092288D01*
X0076808Y0092329D01*
X0076889Y0092372D01*
X0076968Y0092419D01*
X0077046Y0092470D01*
X0077121Y0092523D01*
X0077194Y0092580D01*
X0077265Y0092640D01*
X0077333Y0092702D01*
X0077398Y0092767D01*
X0077460Y0092835D01*
X0077520Y0092906D01*
X0077577Y0092979D01*
X0077630Y0093054D01*
X0077681Y0093132D01*
X0077728Y0093211D01*
X0077771Y0093292D01*
X0077812Y0093376D01*
X0077849Y0093460D01*
X0077882Y0093546D01*
X0077911Y0093634D01*
X0077937Y0093723D01*
X0077960Y0093812D01*
X0077978Y0093903D01*
X0077993Y0093994D01*
X0078004Y0094086D01*
X0078011Y0094178D01*
X0078014Y0094270D01*
X0077958Y0094270D01*
X0077955Y0094178D01*
X0077947Y0094085D01*
X0077936Y0093994D01*
X0077921Y0093902D01*
X0077902Y0093812D01*
X0077879Y0093722D01*
X0077853Y0093634D01*
X0077822Y0093546D01*
X0077788Y0093460D01*
X0077750Y0093376D01*
X0077709Y0093293D01*
X0077664Y0093212D01*
X0077616Y0093133D01*
X0077564Y0093057D01*
X0077509Y0092982D01*
X0077451Y0092910D01*
X0077390Y0092841D01*
X0077326Y0092774D01*
X0077259Y0092710D01*
X0077190Y0092649D01*
X0077118Y0092591D01*
X0077043Y0092536D01*
X0076967Y0092484D01*
X0076888Y0092436D01*
X0076807Y0092391D01*
X0076724Y0092350D01*
X0076640Y0092312D01*
X0076554Y0092278D01*
X0076466Y0092247D01*
X0076378Y0092221D01*
X0076288Y0092198D01*
X0076198Y0092179D01*
X0076106Y0092164D01*
X0076015Y0092153D01*
X0075922Y0092145D01*
X0075830Y0092142D01*
X0075830Y0092198D01*
X0075920Y0092201D01*
X0076010Y0092208D01*
X0076099Y0092219D01*
X0076188Y0092234D01*
X0076276Y0092253D01*
X0076363Y0092275D01*
X0076450Y0092301D01*
X0076535Y0092331D01*
X0076618Y0092364D01*
X0076700Y0092401D01*
X0076781Y0092441D01*
X0076860Y0092485D01*
X0076936Y0092532D01*
X0077011Y0092582D01*
X0077084Y0092635D01*
X0077154Y0092692D01*
X0077221Y0092751D01*
X0077286Y0092814D01*
X0077349Y0092879D01*
X0077408Y0092946D01*
X0077465Y0093016D01*
X0077518Y0093089D01*
X0077568Y0093164D01*
X0077615Y0093240D01*
X0077659Y0093319D01*
X0077699Y0093400D01*
X0077736Y0093482D01*
X0077769Y0093565D01*
X0077799Y0093650D01*
X0077825Y0093737D01*
X0077847Y0093824D01*
X0077866Y0093912D01*
X0077881Y0094001D01*
X0077892Y0094090D01*
X0077899Y0094180D01*
X0077902Y0094270D01*
X0077846Y0094270D01*
X0077843Y0094182D01*
X0077836Y0094095D01*
X0077825Y0094008D01*
X0077811Y0093922D01*
X0077793Y0093836D01*
X0077771Y0093751D01*
X0077746Y0093667D01*
X0077717Y0093585D01*
X0077684Y0093503D01*
X0077649Y0093423D01*
X0077609Y0093345D01*
X0077567Y0093268D01*
X0077521Y0093194D01*
X0077472Y0093121D01*
X0077420Y0093051D01*
X0077365Y0092982D01*
X0077307Y0092917D01*
X0077247Y0092853D01*
X0077183Y0092793D01*
X0077118Y0092735D01*
X0077049Y0092680D01*
X0076979Y0092628D01*
X0076906Y0092579D01*
X0076832Y0092533D01*
X0076755Y0092491D01*
X0076677Y0092451D01*
X0076597Y0092416D01*
X0076515Y0092383D01*
X0076433Y0092354D01*
X0076349Y0092329D01*
X0076264Y0092307D01*
X0076178Y0092289D01*
X0076092Y0092275D01*
X0076005Y0092264D01*
X0075918Y0092257D01*
X0075830Y0092254D01*
X0075830Y0092310D01*
X0075918Y0092313D01*
X0076005Y0092321D01*
X0076092Y0092332D01*
X0076178Y0092346D01*
X0076264Y0092365D01*
X0076348Y0092387D01*
X0076432Y0092413D01*
X0076514Y0092443D01*
X0076595Y0092476D01*
X0076675Y0092513D01*
X0076753Y0092553D01*
X0076829Y0092597D01*
X0076903Y0092643D01*
X0076975Y0092694D01*
X0077044Y0092747D01*
X0077111Y0092803D01*
X0077176Y0092862D01*
X0077238Y0092924D01*
X0077297Y0092989D01*
X0077353Y0093056D01*
X0077406Y0093125D01*
X0077457Y0093197D01*
X0077503Y0093271D01*
X0077547Y0093347D01*
X0077587Y0093425D01*
X0077624Y0093505D01*
X0077657Y0093586D01*
X0077687Y0093668D01*
X0077713Y0093752D01*
X0077735Y0093836D01*
X0077754Y0093922D01*
X0077768Y0094008D01*
X0077779Y0094095D01*
X0077787Y0094182D01*
X0077790Y0094270D01*
X0077734Y0094270D01*
X0077731Y0094185D01*
X0077724Y0094100D01*
X0077713Y0094016D01*
X0077699Y0093932D01*
X0077681Y0093849D01*
X0077659Y0093767D01*
X0077634Y0093685D01*
X0077605Y0093605D01*
X0077573Y0093527D01*
X0077537Y0093449D01*
X0077498Y0093374D01*
X0077455Y0093300D01*
X0077410Y0093228D01*
X0077361Y0093158D01*
X0077309Y0093091D01*
X0077255Y0093026D01*
X0077197Y0092963D01*
X0077137Y0092903D01*
X0077074Y0092845D01*
X0077009Y0092791D01*
X0076942Y0092739D01*
X0076872Y0092690D01*
X0076800Y0092645D01*
X0076726Y0092602D01*
X0076651Y0092563D01*
X0076573Y0092527D01*
X0076495Y0092495D01*
X0076415Y0092466D01*
X0076333Y0092441D01*
X0076251Y0092419D01*
X0076168Y0092401D01*
X0076084Y0092387D01*
X0076000Y0092376D01*
X0075915Y0092369D01*
X0075830Y0092366D01*
X0075830Y0092422D01*
X0075915Y0092426D01*
X0076000Y0092433D01*
X0076084Y0092444D01*
X0076168Y0092458D01*
X0076251Y0092477D01*
X0076333Y0092499D01*
X0076414Y0092525D01*
X0076493Y0092555D01*
X0076571Y0092588D01*
X0076648Y0092624D01*
X0076723Y0092665D01*
X0076796Y0092708D01*
X0076867Y0092755D01*
X0076936Y0092805D01*
X0077002Y0092857D01*
X0077067Y0092913D01*
X0077128Y0092972D01*
X0077187Y0093033D01*
X0077243Y0093098D01*
X0077295Y0093164D01*
X0077345Y0093233D01*
X0077392Y0093304D01*
X0077435Y0093377D01*
X0077476Y0093452D01*
X0077512Y0093529D01*
X0077545Y0093607D01*
X0077575Y0093686D01*
X0077601Y0093767D01*
X0077623Y0093849D01*
X0077642Y0093932D01*
X0077656Y0094016D01*
X0077667Y0094100D01*
X0077674Y0094185D01*
X0077678Y0094270D01*
X0077622Y0094270D01*
X0077619Y0094188D01*
X0077612Y0094106D01*
X0077601Y0094024D01*
X0077587Y0093943D01*
X0077569Y0093862D01*
X0077547Y0093783D01*
X0077522Y0093704D01*
X0077493Y0093627D01*
X0077461Y0093551D01*
X0077425Y0093477D01*
X0077387Y0093404D01*
X0077344Y0093333D01*
X0077299Y0093265D01*
X0077251Y0093198D01*
X0077199Y0093133D01*
X0077145Y0093071D01*
X0077088Y0093012D01*
X0077029Y0092955D01*
X0076967Y0092901D01*
X0076902Y0092849D01*
X0076835Y0092801D01*
X0076767Y0092756D01*
X0076696Y0092713D01*
X0076623Y0092675D01*
X0076549Y0092639D01*
X0076473Y0092607D01*
X0076396Y0092578D01*
X0076317Y0092553D01*
X0076238Y0092531D01*
X0076157Y0092513D01*
X0076076Y0092499D01*
X0075994Y0092488D01*
X0075912Y0092481D01*
X0075830Y0092478D01*
X0075830Y0092534D01*
X0075912Y0092538D01*
X0075994Y0092545D01*
X0076076Y0092556D01*
X0076157Y0092570D01*
X0076237Y0092589D01*
X0076316Y0092611D01*
X0076394Y0092637D01*
X0076471Y0092666D01*
X0076546Y0092699D01*
X0076620Y0092736D01*
X0076692Y0092776D01*
X0076762Y0092819D01*
X0076830Y0092865D01*
X0076895Y0092915D01*
X0076959Y0092967D01*
X0077019Y0093023D01*
X0077077Y0093081D01*
X0077133Y0093141D01*
X0077185Y0093205D01*
X0077235Y0093270D01*
X0077281Y0093338D01*
X0077324Y0093408D01*
X0077364Y0093480D01*
X0077401Y0093554D01*
X0077434Y0093629D01*
X0077463Y0093706D01*
X0077489Y0093784D01*
X0077511Y0093863D01*
X0077530Y0093943D01*
X0077544Y0094024D01*
X0077555Y0094106D01*
X0077562Y0094188D01*
X0077566Y0094270D01*
D19*
X0055481Y0173001D02*
X0153119Y0173001D01*
X0153119Y0248985D01*
X0055481Y0248985D01*
X0055481Y0173001D01*
X0049517Y0203394D02*
X0042036Y0203394D01*
X0049517Y0203394D02*
X0049517Y0246308D01*
X0014083Y0246308D01*
X0014083Y0226229D01*
X0014083Y0207725D02*
X0014083Y0203394D01*
X0022351Y0203394D01*
X0061780Y0249379D02*
X0061780Y0257843D01*
X0061782Y0257920D01*
X0061788Y0257997D01*
X0061797Y0258074D01*
X0061810Y0258150D01*
X0061827Y0258226D01*
X0061848Y0258300D01*
X0061872Y0258374D01*
X0061900Y0258446D01*
X0061931Y0258516D01*
X0061966Y0258585D01*
X0062004Y0258653D01*
X0062045Y0258718D01*
X0062090Y0258781D01*
X0062138Y0258842D01*
X0062188Y0258901D01*
X0062241Y0258957D01*
X0062297Y0259010D01*
X0062356Y0259060D01*
X0062417Y0259108D01*
X0062480Y0259153D01*
X0062545Y0259194D01*
X0062613Y0259232D01*
X0062682Y0259267D01*
X0062752Y0259298D01*
X0062824Y0259326D01*
X0062898Y0259350D01*
X0062972Y0259371D01*
X0063048Y0259388D01*
X0063124Y0259401D01*
X0063201Y0259410D01*
X0063278Y0259416D01*
X0063355Y0259418D01*
X0145245Y0259418D01*
X0145322Y0259416D01*
X0145399Y0259410D01*
X0145476Y0259401D01*
X0145552Y0259388D01*
X0145628Y0259371D01*
X0145702Y0259350D01*
X0145776Y0259326D01*
X0145848Y0259298D01*
X0145918Y0259267D01*
X0145987Y0259232D01*
X0146055Y0259194D01*
X0146120Y0259153D01*
X0146183Y0259108D01*
X0146244Y0259060D01*
X0146303Y0259010D01*
X0146359Y0258957D01*
X0146412Y0258901D01*
X0146462Y0258842D01*
X0146510Y0258781D01*
X0146555Y0258718D01*
X0146596Y0258653D01*
X0146634Y0258585D01*
X0146669Y0258516D01*
X0146700Y0258446D01*
X0146728Y0258374D01*
X0146752Y0258300D01*
X0146773Y0258226D01*
X0146790Y0258150D01*
X0146803Y0258074D01*
X0146812Y0257997D01*
X0146818Y0257920D01*
X0146820Y0257843D01*
X0146820Y0249379D01*
X0155481Y0248769D02*
X0253119Y0248769D01*
X0253119Y0172784D01*
X0155481Y0172784D01*
X0155481Y0248769D01*
X0161780Y0249162D02*
X0161780Y0257627D01*
X0161782Y0257704D01*
X0161788Y0257781D01*
X0161797Y0257858D01*
X0161810Y0257934D01*
X0161827Y0258010D01*
X0161848Y0258084D01*
X0161872Y0258158D01*
X0161900Y0258230D01*
X0161931Y0258300D01*
X0161966Y0258369D01*
X0162004Y0258437D01*
X0162045Y0258502D01*
X0162090Y0258565D01*
X0162138Y0258626D01*
X0162188Y0258685D01*
X0162241Y0258741D01*
X0162297Y0258794D01*
X0162356Y0258844D01*
X0162417Y0258892D01*
X0162480Y0258937D01*
X0162545Y0258978D01*
X0162613Y0259016D01*
X0162682Y0259051D01*
X0162752Y0259082D01*
X0162824Y0259110D01*
X0162898Y0259134D01*
X0162972Y0259155D01*
X0163048Y0259172D01*
X0163124Y0259185D01*
X0163201Y0259194D01*
X0163278Y0259200D01*
X0163355Y0259202D01*
X0245245Y0259202D01*
X0245322Y0259200D01*
X0245399Y0259194D01*
X0245476Y0259185D01*
X0245552Y0259172D01*
X0245628Y0259155D01*
X0245702Y0259134D01*
X0245776Y0259110D01*
X0245848Y0259082D01*
X0245918Y0259051D01*
X0245987Y0259016D01*
X0246055Y0258978D01*
X0246120Y0258937D01*
X0246183Y0258892D01*
X0246244Y0258844D01*
X0246303Y0258794D01*
X0246359Y0258741D01*
X0246412Y0258685D01*
X0246462Y0258626D01*
X0246510Y0258565D01*
X0246555Y0258502D01*
X0246596Y0258437D01*
X0246634Y0258369D01*
X0246669Y0258300D01*
X0246700Y0258230D01*
X0246728Y0258158D01*
X0246752Y0258084D01*
X0246773Y0258010D01*
X0246790Y0257934D01*
X0246803Y0257858D01*
X0246812Y0257781D01*
X0246818Y0257704D01*
X0246820Y0257627D01*
X0246820Y0249162D01*
X0223591Y0273178D02*
X0212961Y0273178D01*
X0212961Y0259595D01*
X0212765Y0273178D02*
X0194851Y0273178D01*
X0184418Y0273178D01*
X0184418Y0276721D01*
X0223591Y0276721D01*
X0223591Y0273178D01*
X0194851Y0273178D02*
X0194851Y0259595D01*
D20*
X0219500Y0181604D02*
X0222569Y0177000D01*
X0222569Y0181604D01*
X0224104Y0180837D02*
X0224104Y0177767D01*
X0224871Y0177000D01*
X0226406Y0177000D01*
X0227173Y0177767D01*
X0228708Y0177767D02*
X0229475Y0177000D01*
X0231010Y0177000D01*
X0231777Y0177767D01*
X0231777Y0178535D01*
X0231010Y0179302D01*
X0230242Y0179302D01*
X0231010Y0179302D02*
X0231777Y0180069D01*
X0231777Y0180837D01*
X0231010Y0181604D01*
X0229475Y0181604D01*
X0228708Y0180837D01*
X0227173Y0180837D02*
X0226406Y0181604D01*
X0224871Y0181604D01*
X0224104Y0180837D01*
X0219500Y0181604D02*
X0219500Y0177000D01*
X0233312Y0177000D02*
X0233312Y0181604D01*
X0236381Y0181604D01*
X0237916Y0180069D02*
X0239450Y0181604D01*
X0240985Y0180069D01*
X0240985Y0177000D01*
X0242520Y0177000D02*
X0242520Y0181604D01*
X0242520Y0179302D02*
X0245589Y0179302D01*
X0247124Y0180837D02*
X0247891Y0181604D01*
X0249426Y0181604D01*
X0250193Y0180837D01*
X0250193Y0180069D01*
X0247124Y0177000D01*
X0250193Y0177000D01*
X0245589Y0177000D02*
X0245589Y0181604D01*
X0240985Y0179302D02*
X0237916Y0179302D01*
X0237916Y0180069D02*
X0237916Y0177000D01*
X0234846Y0179302D02*
X0233312Y0179302D01*
X0167173Y0177000D02*
X0164104Y0177000D01*
X0165639Y0177000D02*
X0165639Y0181604D01*
X0164104Y0180069D01*
X0162569Y0181604D02*
X0159500Y0177000D01*
X0162569Y0177000D02*
X0159500Y0181604D01*
X0088089Y0204500D02*
X0088089Y0209104D01*
X0088089Y0206802D02*
X0085020Y0206802D01*
X0083485Y0207569D02*
X0082718Y0206802D01*
X0080416Y0206802D01*
X0082718Y0206802D02*
X0083485Y0206035D01*
X0083485Y0205267D01*
X0082718Y0204500D01*
X0080416Y0204500D01*
X0080416Y0209104D01*
X0082718Y0209104D01*
X0083485Y0208337D01*
X0083485Y0207569D01*
X0085020Y0209104D02*
X0085020Y0204500D01*
X0078881Y0204500D02*
X0078881Y0209104D01*
X0077346Y0207569D01*
X0075812Y0209104D01*
X0075812Y0204500D01*
X0074277Y0205267D02*
X0074277Y0206035D01*
X0073510Y0206802D01*
X0072742Y0206802D01*
X0073510Y0206802D02*
X0074277Y0207569D01*
X0074277Y0208337D01*
X0073510Y0209104D01*
X0071975Y0209104D01*
X0071208Y0208337D01*
X0069673Y0208337D02*
X0068906Y0209104D01*
X0067371Y0209104D01*
X0066604Y0208337D01*
X0066604Y0205267D01*
X0067371Y0204500D01*
X0068906Y0204500D01*
X0069673Y0205267D01*
X0071208Y0205267D02*
X0071975Y0204500D01*
X0073510Y0204500D01*
X0074277Y0205267D01*
X0065069Y0204500D02*
X0065069Y0209104D01*
X0062000Y0209104D02*
X0062000Y0204500D01*
X0065069Y0204500D02*
X0062000Y0209104D01*
X0062569Y0184104D02*
X0059500Y0179500D01*
X0062569Y0179500D02*
X0059500Y0184104D01*
X0064104Y0183337D02*
X0064871Y0184104D01*
X0066406Y0184104D01*
X0067173Y0183337D01*
X0067173Y0182569D01*
X0064104Y0179500D01*
X0067173Y0179500D01*
X0024277Y0197000D02*
X0021208Y0197000D01*
X0022742Y0197000D02*
X0022742Y0201604D01*
X0021208Y0200069D01*
X0019673Y0201604D02*
X0019673Y0197000D01*
X0016604Y0201604D01*
X0016604Y0197000D01*
X0015069Y0197767D02*
X0014302Y0197000D01*
X0012767Y0197000D01*
X0012000Y0197767D01*
X0012000Y0200837D01*
X0012767Y0201604D01*
X0014302Y0201604D01*
X0015069Y0200837D01*
D21*
X0144650Y0163955D02*
X0146752Y0163955D01*
X0145701Y0163955D02*
X0145701Y0157650D01*
X0144650Y0157650D02*
X0146752Y0157650D01*
X0148947Y0158701D02*
X0149998Y0157650D01*
X0152100Y0157650D01*
X0153151Y0158701D01*
X0155392Y0157650D02*
X0159596Y0157650D01*
X0157494Y0157650D02*
X0157494Y0163955D01*
X0155392Y0161854D01*
X0153151Y0162904D02*
X0152100Y0163955D01*
X0149998Y0163955D01*
X0148947Y0162904D01*
X0148947Y0158701D01*
X0151996Y0146908D02*
X0154097Y0146908D01*
X0155148Y0145857D01*
X0155148Y0142704D01*
X0157250Y0142704D02*
X0150945Y0142704D01*
X0150945Y0145857D01*
X0151996Y0146908D01*
X0151996Y0140462D02*
X0156199Y0136259D01*
X0157250Y0137310D01*
X0157250Y0139412D01*
X0156199Y0140462D01*
X0151996Y0140462D01*
X0150945Y0139412D01*
X0150945Y0137310D01*
X0151996Y0136259D01*
X0156199Y0136259D01*
X0157250Y0134017D02*
X0157250Y0129813D01*
X0157250Y0131915D02*
X0150945Y0131915D01*
X0153046Y0129813D01*
X0154097Y0127571D02*
X0154097Y0123368D01*
X0155148Y0121126D02*
X0150945Y0121126D01*
X0155148Y0121126D02*
X0157250Y0119024D01*
X0155148Y0116922D01*
X0150945Y0116922D01*
X0151996Y0114680D02*
X0153046Y0114680D01*
X0154097Y0113630D01*
X0154097Y0111528D01*
X0153046Y0110477D01*
X0151996Y0110477D01*
X0150945Y0111528D01*
X0150945Y0113630D01*
X0151996Y0114680D01*
X0154097Y0113630D02*
X0155148Y0114680D01*
X0156199Y0114680D01*
X0157250Y0113630D01*
X0157250Y0111528D01*
X0156199Y0110477D01*
X0155148Y0110477D01*
X0154097Y0111528D01*
X0153046Y0108235D02*
X0151996Y0108235D01*
X0150945Y0107184D01*
X0150945Y0105082D01*
X0151996Y0104031D01*
X0151996Y0101789D02*
X0153046Y0101789D01*
X0154097Y0100739D01*
X0155148Y0101789D01*
X0156199Y0101789D01*
X0157250Y0100739D01*
X0157250Y0098637D01*
X0156199Y0097586D01*
X0157250Y0095344D02*
X0153046Y0095344D01*
X0150945Y0093242D01*
X0153046Y0091140D01*
X0157250Y0091140D01*
X0156199Y0088898D02*
X0154097Y0088898D01*
X0154097Y0086797D01*
X0151996Y0088898D02*
X0150945Y0087848D01*
X0150945Y0085746D01*
X0151996Y0084695D01*
X0156199Y0084695D01*
X0157250Y0085746D01*
X0157250Y0087848D01*
X0156199Y0088898D01*
X0154097Y0091140D02*
X0154097Y0095344D01*
X0151996Y0097586D02*
X0150945Y0098637D01*
X0150945Y0100739D01*
X0151996Y0101789D01*
X0154097Y0100739D02*
X0154097Y0099688D01*
X0157250Y0104031D02*
X0153046Y0108235D01*
X0157250Y0108235D02*
X0157250Y0104031D01*
X0157250Y0082453D02*
X0157250Y0078249D01*
X0150945Y0078249D01*
X0150945Y0082453D01*
X0154097Y0080351D02*
X0154097Y0078249D01*
X0150945Y0076007D02*
X0157250Y0076007D01*
X0153046Y0073906D02*
X0150945Y0076007D01*
X0153046Y0073906D02*
X0150945Y0071804D01*
X0157250Y0071804D01*
X0157250Y0067460D02*
X0150945Y0067460D01*
X0150945Y0065358D02*
X0150945Y0069562D01*
X0153046Y0063116D02*
X0157250Y0063116D01*
X0154097Y0063116D02*
X0154097Y0058913D01*
X0153046Y0058913D02*
X0150945Y0061015D01*
X0153046Y0063116D01*
X0153046Y0058913D02*
X0157250Y0058913D01*
D22*
X0107800Y0069800D02*
X0107800Y0093800D01*
X0107797Y0094007D01*
X0107790Y0094214D01*
X0107777Y0094420D01*
X0107760Y0094627D01*
X0107737Y0094832D01*
X0107709Y0095038D01*
X0107677Y0095242D01*
X0107639Y0095446D01*
X0107597Y0095648D01*
X0107549Y0095850D01*
X0107497Y0096050D01*
X0107440Y0096249D01*
X0107378Y0096446D01*
X0107311Y0096642D01*
X0107239Y0096836D01*
X0107163Y0097029D01*
X0107082Y0097219D01*
X0106996Y0097408D01*
X0106906Y0097594D01*
X0106812Y0097778D01*
X0106712Y0097960D01*
X0106609Y0098139D01*
X0106501Y0098316D01*
X0106389Y0098490D01*
X0106273Y0098661D01*
X0106152Y0098830D01*
X0106028Y0098995D01*
X0105899Y0099157D01*
X0105767Y0099316D01*
X0105631Y0099472D01*
X0105491Y0099625D01*
X0105347Y0099774D01*
X0105200Y0099919D01*
X0105049Y0100061D01*
X0104895Y0100199D01*
X0104737Y0100334D01*
X0104577Y0100464D01*
X0104413Y0100590D01*
X0104246Y0100713D01*
X0104076Y0100831D01*
X0103903Y0100946D01*
X0103728Y0101056D01*
X0103550Y0101161D01*
X0103369Y0101263D01*
X0103187Y0101359D01*
X0103001Y0101452D01*
X0102814Y0101540D01*
X0102624Y0101623D01*
X0102433Y0101702D01*
X0102240Y0101776D01*
X0102044Y0101845D01*
X0101848Y0101909D01*
X0101650Y0101969D01*
X0101450Y0102024D01*
X0101249Y0102074D01*
X0101047Y0102119D01*
X0100844Y0102159D01*
X0100640Y0102194D01*
X0100435Y0102224D01*
X0100230Y0102249D01*
X0100024Y0102269D01*
X0099817Y0102284D01*
X0099610Y0102294D01*
X0099403Y0102299D01*
X0099197Y0102299D01*
X0098990Y0102294D01*
X0098783Y0102284D01*
X0098576Y0102269D01*
X0098370Y0102249D01*
X0098165Y0102224D01*
X0097960Y0102194D01*
X0097756Y0102159D01*
X0097553Y0102119D01*
X0097351Y0102074D01*
X0097150Y0102024D01*
X0096950Y0101969D01*
X0096752Y0101909D01*
X0096556Y0101845D01*
X0096360Y0101776D01*
X0096167Y0101702D01*
X0095976Y0101623D01*
X0095786Y0101540D01*
X0095599Y0101452D01*
X0095413Y0101359D01*
X0095231Y0101263D01*
X0095050Y0101161D01*
X0094872Y0101056D01*
X0094697Y0100946D01*
X0094524Y0100831D01*
X0094354Y0100713D01*
X0094187Y0100590D01*
X0094023Y0100464D01*
X0093863Y0100334D01*
X0093705Y0100199D01*
X0093551Y0100061D01*
X0093400Y0099919D01*
X0093253Y0099774D01*
X0093109Y0099625D01*
X0092969Y0099472D01*
X0092833Y0099316D01*
X0092701Y0099157D01*
X0092572Y0098995D01*
X0092448Y0098830D01*
X0092327Y0098661D01*
X0092211Y0098490D01*
X0092099Y0098316D01*
X0091991Y0098139D01*
X0091888Y0097960D01*
X0091788Y0097778D01*
X0091694Y0097594D01*
X0091604Y0097408D01*
X0091518Y0097219D01*
X0091437Y0097029D01*
X0091361Y0096836D01*
X0091289Y0096642D01*
X0091222Y0096446D01*
X0091160Y0096249D01*
X0091103Y0096050D01*
X0091051Y0095850D01*
X0091003Y0095648D01*
X0090961Y0095446D01*
X0090923Y0095242D01*
X0090891Y0095038D01*
X0090863Y0094832D01*
X0090840Y0094627D01*
X0090823Y0094420D01*
X0090810Y0094214D01*
X0090803Y0094007D01*
X0090800Y0093800D01*
X0090800Y0069800D01*
X0090803Y0069593D01*
X0090810Y0069386D01*
X0090823Y0069180D01*
X0090840Y0068973D01*
X0090863Y0068768D01*
X0090891Y0068562D01*
X0090923Y0068358D01*
X0090961Y0068154D01*
X0091003Y0067952D01*
X0091051Y0067750D01*
X0091103Y0067550D01*
X0091160Y0067351D01*
X0091222Y0067154D01*
X0091289Y0066958D01*
X0091361Y0066764D01*
X0091437Y0066571D01*
X0091518Y0066381D01*
X0091604Y0066192D01*
X0091694Y0066006D01*
X0091788Y0065822D01*
X0091888Y0065640D01*
X0091991Y0065461D01*
X0092099Y0065284D01*
X0092211Y0065110D01*
X0092327Y0064939D01*
X0092448Y0064770D01*
X0092572Y0064605D01*
X0092701Y0064443D01*
X0092833Y0064284D01*
X0092969Y0064128D01*
X0093109Y0063975D01*
X0093253Y0063826D01*
X0093400Y0063681D01*
X0093551Y0063539D01*
X0093705Y0063401D01*
X0093863Y0063266D01*
X0094023Y0063136D01*
X0094187Y0063010D01*
X0094354Y0062887D01*
X0094524Y0062769D01*
X0094697Y0062654D01*
X0094872Y0062544D01*
X0095050Y0062439D01*
X0095231Y0062337D01*
X0095413Y0062241D01*
X0095599Y0062148D01*
X0095786Y0062060D01*
X0095976Y0061977D01*
X0096167Y0061898D01*
X0096360Y0061824D01*
X0096556Y0061755D01*
X0096752Y0061691D01*
X0096950Y0061631D01*
X0097150Y0061576D01*
X0097351Y0061526D01*
X0097553Y0061481D01*
X0097756Y0061441D01*
X0097960Y0061406D01*
X0098165Y0061376D01*
X0098370Y0061351D01*
X0098576Y0061331D01*
X0098783Y0061316D01*
X0098990Y0061306D01*
X0099197Y0061301D01*
X0099403Y0061301D01*
X0099610Y0061306D01*
X0099817Y0061316D01*
X0100024Y0061331D01*
X0100230Y0061351D01*
X0100435Y0061376D01*
X0100640Y0061406D01*
X0100844Y0061441D01*
X0101047Y0061481D01*
X0101249Y0061526D01*
X0101450Y0061576D01*
X0101650Y0061631D01*
X0101848Y0061691D01*
X0102044Y0061755D01*
X0102240Y0061824D01*
X0102433Y0061898D01*
X0102624Y0061977D01*
X0102814Y0062060D01*
X0103001Y0062148D01*
X0103187Y0062241D01*
X0103369Y0062337D01*
X0103550Y0062439D01*
X0103728Y0062544D01*
X0103903Y0062654D01*
X0104076Y0062769D01*
X0104246Y0062887D01*
X0104413Y0063010D01*
X0104577Y0063136D01*
X0104737Y0063266D01*
X0104895Y0063401D01*
X0105049Y0063539D01*
X0105200Y0063681D01*
X0105347Y0063826D01*
X0105491Y0063975D01*
X0105631Y0064128D01*
X0105767Y0064284D01*
X0105899Y0064443D01*
X0106028Y0064605D01*
X0106152Y0064770D01*
X0106273Y0064939D01*
X0106389Y0065110D01*
X0106501Y0065284D01*
X0106609Y0065461D01*
X0106712Y0065640D01*
X0106812Y0065822D01*
X0106906Y0066006D01*
X0106996Y0066192D01*
X0107082Y0066381D01*
X0107163Y0066571D01*
X0107239Y0066764D01*
X0107311Y0066958D01*
X0107378Y0067154D01*
X0107440Y0067351D01*
X0107497Y0067550D01*
X0107549Y0067750D01*
X0107597Y0067952D01*
X0107639Y0068154D01*
X0107677Y0068358D01*
X0107709Y0068562D01*
X0107737Y0068768D01*
X0107760Y0068973D01*
X0107777Y0069180D01*
X0107790Y0069386D01*
X0107797Y0069593D01*
X0107800Y0069800D01*
D23*
X0064300Y0050800D03*
X0064300Y0030800D03*
X0064300Y0115800D03*
D24*
X0047050Y0118300D03*
X0081550Y0118300D03*
X0081550Y0053300D03*
X0081550Y0033300D03*
X0047050Y0033300D03*
X0047050Y0053300D03*
D25*
X0059300Y0053300D03*
X0069300Y0053300D03*
X0069300Y0033300D03*
X0059300Y0033300D03*
X0059300Y0118300D03*
X0069300Y0118300D03*
D26*
X0114300Y0096000D03*
X0114300Y0067600D03*
X0236800Y0127600D03*
X0236800Y0156000D03*
D27*
X0123500Y0051800D03*
X0123500Y0041800D03*
X0095100Y0041800D03*
X0095100Y0051800D03*
X0092600Y0114300D03*
X0121000Y0114300D03*
M02*
