G75*
%MOIN*%
%OFA0B0*%
%FSLAX25Y25*%
%IPPOS*%
%LPD*%
%AMOC8*
5,1,8,0,0,1.08239X$1,22.5*
%
%ADD10C,0.06000*%
%ADD11OC8,0.05600*%
%ADD12OC8,0.05200*%
%ADD13C,0.16598*%
%ADD14C,0.15024*%
%ADD15C,0.05200*%
%ADD16C,0.05200*%
%ADD17OC8,0.06600*%
%ADD18OC8,0.06000*%
%ADD19C,0.07087*%
%ADD20C,0.09449*%
%ADD21C,0.01600*%
%ADD22R,0.03962X0.03962*%
%ADD23C,0.05000*%
%ADD24C,0.10000*%
%ADD25R,0.07087X0.07087*%
D10*
X0054300Y0036300D02*
X0054300Y0042300D01*
X0064300Y0042300D02*
X0064300Y0036300D01*
X0074300Y0036300D02*
X0074300Y0042300D01*
X0074300Y0056300D02*
X0074300Y0062300D01*
X0064300Y0062300D02*
X0064300Y0056300D01*
X0054300Y0056300D02*
X0054300Y0062300D01*
X0054300Y0121300D02*
X0054300Y0127300D01*
X0064300Y0127300D02*
X0064300Y0121300D01*
X0074300Y0121300D02*
X0074300Y0127300D01*
X0047300Y0161800D02*
X0041300Y0161800D01*
X0041300Y0171800D02*
X0047300Y0171800D01*
X0047300Y0181800D02*
X0041300Y0181800D01*
X0041300Y0191800D02*
X0047300Y0191800D01*
X0181800Y0162300D02*
X0181800Y0156300D01*
X0191800Y0156300D02*
X0191800Y0162300D01*
X0201800Y0162300D02*
X0201800Y0156300D01*
X0199300Y0147300D02*
X0199300Y0141300D01*
X0189300Y0141300D02*
X0189300Y0147300D01*
X0184300Y0132300D02*
X0184300Y0126300D01*
X0194300Y0126300D02*
X0194300Y0132300D01*
X0203800Y0131800D02*
X0209800Y0131800D01*
X0209800Y0121800D02*
X0203800Y0121800D01*
X0203800Y0111800D02*
X0209800Y0111800D01*
X0238800Y0109300D02*
X0244800Y0109300D01*
X0244800Y0099300D02*
X0238800Y0099300D01*
X0238800Y0089300D02*
X0244800Y0089300D01*
X0244800Y0079300D02*
X0238800Y0079300D01*
X0238800Y0069300D02*
X0244800Y0069300D01*
X0244800Y0051800D02*
X0238800Y0051800D01*
X0238800Y0041800D02*
X0244800Y0041800D01*
X0244800Y0031800D02*
X0238800Y0031800D01*
X0238800Y0021800D02*
X0244800Y0021800D01*
X0244800Y0011800D02*
X0238800Y0011800D01*
X0211800Y0156300D02*
X0211800Y0162300D01*
D11*
X0199300Y0101800D03*
X0189300Y0101800D03*
X0179300Y0091800D03*
X0179300Y0081800D03*
X0129300Y0081800D03*
X0129300Y0091800D03*
X0086800Y0166800D03*
X0076800Y0166800D03*
D12*
X0079300Y0106800D03*
X0079300Y0096800D03*
X0059300Y0096800D03*
X0059300Y0106800D03*
D13*
X0031800Y0205757D03*
D14*
X0012902Y0216977D03*
X0031800Y0230363D03*
D15*
X0094300Y0164400D02*
X0094300Y0159200D01*
X0104300Y0159200D02*
X0104300Y0164400D01*
X0114300Y0164400D02*
X0114300Y0159200D01*
X0124300Y0159200D02*
X0124300Y0164400D01*
X0136700Y0151800D02*
X0141900Y0151800D01*
X0141900Y0141800D02*
X0136700Y0141800D01*
X0136700Y0131800D02*
X0141900Y0131800D01*
X0141900Y0121800D02*
X0136700Y0121800D01*
X0136700Y0111800D02*
X0141900Y0111800D01*
X0141900Y0101800D02*
X0136700Y0101800D01*
X0136700Y0091800D02*
X0141900Y0091800D01*
X0141900Y0081800D02*
X0136700Y0081800D01*
X0136700Y0071800D02*
X0141900Y0071800D01*
X0141900Y0061800D02*
X0136700Y0061800D01*
X0136700Y0051800D02*
X0141900Y0051800D01*
X0141900Y0041800D02*
X0136700Y0041800D01*
X0136700Y0031800D02*
X0141900Y0031800D01*
X0141900Y0021800D02*
X0136700Y0021800D01*
X0166700Y0021800D02*
X0171900Y0021800D01*
X0171900Y0031800D02*
X0166700Y0031800D01*
X0166700Y0041800D02*
X0171900Y0041800D01*
X0171900Y0051800D02*
X0166700Y0051800D01*
X0166700Y0061800D02*
X0171900Y0061800D01*
X0171900Y0071800D02*
X0166700Y0071800D01*
X0166700Y0081800D02*
X0171900Y0081800D01*
X0171900Y0091800D02*
X0166700Y0091800D01*
X0166700Y0101800D02*
X0171900Y0101800D01*
X0171900Y0111800D02*
X0166700Y0111800D01*
X0166700Y0121800D02*
X0171900Y0121800D01*
X0171900Y0131800D02*
X0166700Y0131800D01*
X0166700Y0141800D02*
X0171900Y0141800D01*
X0171900Y0151800D02*
X0166700Y0151800D01*
X0124300Y0134400D02*
X0124300Y0129200D01*
X0114300Y0129200D02*
X0114300Y0134400D01*
X0104300Y0134400D02*
X0104300Y0129200D01*
X0094300Y0129200D02*
X0094300Y0134400D01*
X0189200Y0089300D02*
X0194400Y0089300D01*
X0194400Y0079300D02*
X0189200Y0079300D01*
X0189200Y0069300D02*
X0194400Y0069300D01*
X0194400Y0059300D02*
X0189200Y0059300D01*
X0189200Y0049300D02*
X0194400Y0049300D01*
X0194400Y0039300D02*
X0189200Y0039300D01*
X0189200Y0029300D02*
X0194400Y0029300D01*
X0194400Y0019300D02*
X0189200Y0019300D01*
X0189200Y0009300D02*
X0194400Y0009300D01*
X0219200Y0009300D02*
X0224400Y0009300D01*
X0224400Y0019300D02*
X0219200Y0019300D01*
X0219200Y0029300D02*
X0224400Y0029300D01*
X0224400Y0039300D02*
X0219200Y0039300D01*
X0219200Y0049300D02*
X0224400Y0049300D01*
X0224400Y0059300D02*
X0219200Y0059300D01*
X0219200Y0069300D02*
X0224400Y0069300D01*
X0224400Y0079300D02*
X0219200Y0079300D01*
X0219200Y0089300D02*
X0224400Y0089300D01*
D16*
X0099300Y0091300D03*
X0099300Y0072300D03*
D17*
X0114300Y0061800D03*
X0129300Y0051800D03*
X0129300Y0041800D03*
X0089300Y0041800D03*
X0089300Y0051800D03*
X0114300Y0101800D03*
X0126800Y0114300D03*
X0086800Y0114300D03*
X0236800Y0121800D03*
X0236800Y0161800D03*
D18*
X0081800Y0144300D03*
X0081800Y0079300D03*
X0081800Y0014300D03*
X0011800Y0014300D03*
X0011800Y0079300D03*
X0011800Y0144300D03*
D19*
X0104300Y0179300D03*
X0104300Y0199300D03*
X0171820Y0221820D03*
X0204300Y0181780D03*
D20*
X0219300Y0196800D03*
X0189300Y0199300D03*
X0119300Y0179300D03*
X0089300Y0179300D03*
D21*
X0006600Y0009176D02*
X0006600Y0006600D01*
X0185723Y0006600D01*
X0185437Y0006994D01*
X0185122Y0007611D01*
X0184908Y0008270D01*
X0184800Y0008954D01*
X0184800Y0009300D01*
X0191800Y0009300D01*
X0191800Y0009300D01*
X0191800Y0013700D01*
X0194746Y0013700D01*
X0195430Y0013592D01*
X0196089Y0013378D01*
X0196706Y0013063D01*
X0197266Y0012656D01*
X0197756Y0012166D01*
X0198163Y0011606D01*
X0198478Y0010989D01*
X0198692Y0010330D01*
X0198800Y0009646D01*
X0198800Y0009300D01*
X0191800Y0009300D01*
X0191800Y0009300D01*
X0191800Y0009300D01*
X0191800Y0013700D01*
X0188854Y0013700D01*
X0188170Y0013592D01*
X0187511Y0013378D01*
X0186894Y0013063D01*
X0186334Y0012656D01*
X0185844Y0012166D01*
X0185437Y0011606D01*
X0185122Y0010989D01*
X0184908Y0010330D01*
X0184800Y0009646D01*
X0184800Y0009300D01*
X0191800Y0009300D01*
X0198800Y0009300D01*
X0198800Y0008954D01*
X0198692Y0008270D01*
X0198478Y0007611D01*
X0198163Y0006994D01*
X0197877Y0006600D01*
X0215015Y0006600D01*
X0214300Y0008325D01*
X0214300Y0010275D01*
X0215046Y0012076D01*
X0216424Y0013454D01*
X0218225Y0014200D01*
X0225375Y0014200D01*
X0227176Y0013454D01*
X0228554Y0012076D01*
X0229300Y0010275D01*
X0229300Y0008325D01*
X0228585Y0006600D01*
X0237504Y0006600D01*
X0235798Y0007307D01*
X0234307Y0008798D01*
X0233500Y0010746D01*
X0233500Y0012854D01*
X0234307Y0014802D01*
X0235798Y0016293D01*
X0237022Y0016800D01*
X0235798Y0017307D01*
X0235248Y0017857D01*
X0228771Y0017047D01*
X0228554Y0016524D01*
X0227176Y0015146D01*
X0225375Y0014400D01*
X0218225Y0014400D01*
X0216424Y0015146D01*
X0215046Y0016524D01*
X0214300Y0018325D01*
X0214300Y0020275D01*
X0215046Y0022076D01*
X0216424Y0023454D01*
X0218225Y0024200D01*
X0225375Y0024200D01*
X0227176Y0023454D01*
X0227494Y0023136D01*
X0233951Y0023943D01*
X0234307Y0024802D01*
X0235798Y0026293D01*
X0237022Y0026800D01*
X0235798Y0027307D01*
X0235248Y0027857D01*
X0228771Y0027047D01*
X0228554Y0026524D01*
X0227176Y0025146D01*
X0225375Y0024400D01*
X0218225Y0024400D01*
X0216424Y0025146D01*
X0215046Y0026524D01*
X0214300Y0028325D01*
X0214300Y0030275D01*
X0215046Y0032076D01*
X0216424Y0033454D01*
X0218225Y0034200D01*
X0225375Y0034200D01*
X0227176Y0033454D01*
X0227494Y0033136D01*
X0233951Y0033943D01*
X0234307Y0034802D01*
X0235798Y0036293D01*
X0237022Y0036800D01*
X0235798Y0037307D01*
X0235248Y0037857D01*
X0228771Y0037047D01*
X0228554Y0036524D01*
X0227176Y0035146D01*
X0225375Y0034400D01*
X0218225Y0034400D01*
X0216424Y0035146D01*
X0215046Y0036524D01*
X0214300Y0038325D01*
X0214300Y0040275D01*
X0215046Y0042076D01*
X0216424Y0043454D01*
X0218225Y0044200D01*
X0225375Y0044200D01*
X0227176Y0043454D01*
X0227494Y0043136D01*
X0233951Y0043943D01*
X0234307Y0044802D01*
X0235798Y0046293D01*
X0237022Y0046800D01*
X0235798Y0047307D01*
X0235248Y0047857D01*
X0228771Y0047047D01*
X0228554Y0046524D01*
X0227176Y0045146D01*
X0225375Y0044400D01*
X0218225Y0044400D01*
X0216424Y0045146D01*
X0215046Y0046524D01*
X0214300Y0048325D01*
X0214300Y0050275D01*
X0215046Y0052076D01*
X0216424Y0053454D01*
X0218225Y0054200D01*
X0225375Y0054200D01*
X0227176Y0053454D01*
X0227494Y0053136D01*
X0233951Y0053943D01*
X0234307Y0054802D01*
X0235798Y0056293D01*
X0237746Y0057100D01*
X0245854Y0057100D01*
X0247802Y0056293D01*
X0249293Y0054802D01*
X0250100Y0052854D01*
X0250100Y0050746D01*
X0249293Y0048798D01*
X0247802Y0047307D01*
X0246578Y0046800D01*
X0247802Y0046293D01*
X0249293Y0044802D01*
X0250100Y0042854D01*
X0250100Y0040746D01*
X0249293Y0038798D01*
X0247802Y0037307D01*
X0246578Y0036800D01*
X0247802Y0036293D01*
X0249293Y0034802D01*
X0250100Y0032854D01*
X0250100Y0030746D01*
X0249293Y0028798D01*
X0247802Y0027307D01*
X0246578Y0026800D01*
X0247802Y0026293D01*
X0249293Y0024802D01*
X0250100Y0022854D01*
X0250100Y0020746D01*
X0249293Y0018798D01*
X0247802Y0017307D01*
X0246578Y0016800D01*
X0247802Y0016293D01*
X0249293Y0014802D01*
X0250100Y0012854D01*
X0250100Y0010746D01*
X0249293Y0008798D01*
X0247802Y0007307D01*
X0246096Y0006600D01*
X0253201Y0006600D01*
X0253201Y0236961D01*
X0196803Y0236961D01*
X0197250Y0235881D01*
X0197250Y0232719D01*
X0196039Y0229797D01*
X0193803Y0227561D01*
X0190881Y0226350D01*
X0187719Y0226350D01*
X0184797Y0227561D01*
X0182561Y0229797D01*
X0181350Y0232719D01*
X0181350Y0235881D01*
X0181797Y0236961D01*
X0096802Y0236961D01*
X0097250Y0235881D01*
X0097250Y0232719D01*
X0096039Y0229797D01*
X0093803Y0227561D01*
X0090881Y0226350D01*
X0087719Y0226350D01*
X0084797Y0227561D01*
X0082561Y0229797D01*
X0081350Y0232719D01*
X0081350Y0235881D01*
X0081797Y0236961D01*
X0038371Y0236961D01*
X0038754Y0236578D01*
X0039406Y0235760D01*
X0039963Y0234874D01*
X0040417Y0233932D01*
X0040762Y0232945D01*
X0040995Y0231925D01*
X0041081Y0231163D01*
X0032600Y0231163D01*
X0032600Y0229563D01*
X0041081Y0229563D01*
X0040995Y0228801D01*
X0040762Y0227781D01*
X0040417Y0226794D01*
X0039963Y0225852D01*
X0039406Y0224966D01*
X0038754Y0224148D01*
X0038015Y0223409D01*
X0037197Y0222757D01*
X0036311Y0222200D01*
X0035369Y0221746D01*
X0034382Y0221401D01*
X0033362Y0221168D01*
X0032600Y0221082D01*
X0032600Y0229563D01*
X0031000Y0229563D01*
X0022519Y0229563D01*
X0022605Y0228801D01*
X0022838Y0227781D01*
X0023183Y0226794D01*
X0023637Y0225852D01*
X0024194Y0224966D01*
X0024846Y0224148D01*
X0025585Y0223409D01*
X0026403Y0222757D01*
X0027289Y0222200D01*
X0028231Y0221746D01*
X0029218Y0221401D01*
X0030238Y0221168D01*
X0031000Y0221082D01*
X0031000Y0229563D01*
X0031000Y0231163D01*
X0022519Y0231163D01*
X0022605Y0231925D01*
X0022838Y0232945D01*
X0023183Y0233932D01*
X0023637Y0234874D01*
X0024194Y0235760D01*
X0024846Y0236578D01*
X0025229Y0236961D01*
X0006600Y0236961D01*
X0006600Y0223844D01*
X0006688Y0223931D01*
X0007505Y0224583D01*
X0008391Y0225140D01*
X0009333Y0225594D01*
X0010320Y0225939D01*
X0011340Y0226172D01*
X0012102Y0226258D01*
X0012102Y0217777D01*
X0013702Y0217777D01*
X0013702Y0226258D01*
X0014465Y0226172D01*
X0015484Y0225939D01*
X0016471Y0225594D01*
X0017414Y0225140D01*
X0018299Y0224583D01*
X0019117Y0223931D01*
X0019857Y0223192D01*
X0020509Y0222374D01*
X0021065Y0221489D01*
X0021519Y0220546D01*
X0021864Y0219559D01*
X0022097Y0218539D01*
X0022183Y0217777D01*
X0013702Y0217777D01*
X0013702Y0216177D01*
X0013702Y0207697D01*
X0014465Y0207782D01*
X0015484Y0208015D01*
X0016471Y0208361D01*
X0017414Y0208814D01*
X0018299Y0209371D01*
X0019117Y0210023D01*
X0019857Y0210762D01*
X0020509Y0211580D01*
X0021065Y0212466D01*
X0021519Y0213408D01*
X0021864Y0214395D01*
X0022097Y0215415D01*
X0022183Y0216177D01*
X0013702Y0216177D01*
X0012102Y0216177D01*
X0012102Y0207697D01*
X0011340Y0207782D01*
X0010320Y0208015D01*
X0009333Y0208361D01*
X0008391Y0208814D01*
X0007505Y0209371D01*
X0006688Y0210023D01*
X0006600Y0210111D01*
X0006600Y0194450D01*
X0007202Y0195153D01*
X0007460Y0195284D01*
X0007665Y0195489D01*
X0008747Y0195937D01*
X0009792Y0196467D01*
X0010081Y0196489D01*
X0010348Y0196600D01*
X0011520Y0196600D01*
X0024935Y0197632D01*
X0023319Y0199249D01*
X0021923Y0201666D01*
X0021201Y0204361D01*
X0021201Y0207152D01*
X0021923Y0209848D01*
X0023319Y0212265D01*
X0025292Y0214238D01*
X0027709Y0215634D01*
X0030405Y0216356D01*
X0033195Y0216356D01*
X0035891Y0215634D01*
X0038308Y0214238D01*
X0040281Y0212265D01*
X0041677Y0209848D01*
X0042399Y0207152D01*
X0042399Y0204361D01*
X0041677Y0201666D01*
X0040281Y0199249D01*
X0039809Y0198776D01*
X0045188Y0199190D01*
X0047948Y0198288D01*
X0050153Y0196398D01*
X0050181Y0196343D01*
X0050302Y0196293D01*
X0051793Y0194802D01*
X0052600Y0192854D01*
X0052600Y0190746D01*
X0051793Y0188798D01*
X0050302Y0187307D01*
X0049932Y0187154D01*
X0049485Y0186632D01*
X0050302Y0186293D01*
X0051793Y0184802D01*
X0052600Y0182854D01*
X0052600Y0180746D01*
X0051793Y0178798D01*
X0050302Y0177307D01*
X0049464Y0176960D01*
X0050009Y0176414D01*
X0050302Y0176293D01*
X0051793Y0174802D01*
X0052600Y0172854D01*
X0052600Y0170746D01*
X0051793Y0168798D01*
X0050302Y0167307D01*
X0050009Y0167186D01*
X0049464Y0166640D01*
X0050302Y0166293D01*
X0051793Y0164802D01*
X0052600Y0162854D01*
X0052600Y0160746D01*
X0051793Y0158798D01*
X0050302Y0157307D01*
X0048354Y0156500D01*
X0040246Y0156500D01*
X0038298Y0157307D01*
X0036807Y0158798D01*
X0036000Y0160746D01*
X0036000Y0162854D01*
X0036682Y0164500D01*
X0034100Y0164500D01*
X0034100Y0012848D01*
X0032989Y0010165D01*
X0030935Y0008111D01*
X0028252Y0007000D01*
X0010348Y0007000D01*
X0007665Y0008111D01*
X0006600Y0009176D01*
X0006600Y0008324D02*
X0007452Y0008324D01*
X0006600Y0006726D02*
X0185632Y0006726D01*
X0184900Y0008324D02*
X0031148Y0008324D01*
X0032746Y0009923D02*
X0078682Y0009923D01*
X0079605Y0009000D02*
X0083995Y0009000D01*
X0087100Y0012105D01*
X0087100Y0016495D01*
X0083995Y0019600D01*
X0079605Y0019600D01*
X0076500Y0016495D01*
X0076500Y0012105D01*
X0079605Y0009000D01*
X0077084Y0011521D02*
X0033550Y0011521D01*
X0034100Y0013120D02*
X0076500Y0013120D01*
X0076500Y0014718D02*
X0034100Y0014718D01*
X0034100Y0016317D02*
X0076500Y0016317D01*
X0077920Y0017915D02*
X0034100Y0017915D01*
X0034100Y0019514D02*
X0079518Y0019514D01*
X0084082Y0019514D02*
X0132343Y0019514D01*
X0132546Y0019024D02*
X0133924Y0017646D01*
X0135725Y0016900D01*
X0142875Y0016900D01*
X0144676Y0017646D01*
X0146054Y0019024D01*
X0146800Y0020825D01*
X0146800Y0022775D01*
X0146054Y0024576D01*
X0144676Y0025954D01*
X0142875Y0026700D01*
X0135725Y0026700D01*
X0133924Y0025954D01*
X0132546Y0024576D01*
X0131800Y0022775D01*
X0131800Y0020825D01*
X0132546Y0019024D01*
X0133655Y0017915D02*
X0085680Y0017915D01*
X0087100Y0016317D02*
X0185254Y0016317D01*
X0185046Y0016524D02*
X0186424Y0015146D01*
X0188225Y0014400D01*
X0195375Y0014400D01*
X0197176Y0015146D01*
X0198554Y0016524D01*
X0199300Y0018325D01*
X0199300Y0020275D01*
X0198554Y0022076D01*
X0197176Y0023454D01*
X0195375Y0024200D01*
X0188225Y0024200D01*
X0186424Y0023454D01*
X0185046Y0022076D01*
X0184300Y0020275D01*
X0184300Y0018325D01*
X0185046Y0016524D01*
X0184470Y0017915D02*
X0174945Y0017915D01*
X0174676Y0017646D02*
X0176054Y0019024D01*
X0176800Y0020825D01*
X0176800Y0022775D01*
X0176054Y0024576D01*
X0174676Y0025954D01*
X0172875Y0026700D01*
X0165725Y0026700D01*
X0163924Y0025954D01*
X0162546Y0024576D01*
X0161800Y0022775D01*
X0161800Y0020825D01*
X0162546Y0019024D01*
X0163924Y0017646D01*
X0165725Y0016900D01*
X0172875Y0016900D01*
X0174676Y0017646D01*
X0176257Y0019514D02*
X0184300Y0019514D01*
X0184647Y0021112D02*
X0176800Y0021112D01*
X0176800Y0022711D02*
X0185681Y0022711D01*
X0186424Y0025146D02*
X0188225Y0024400D01*
X0195375Y0024400D01*
X0197176Y0025146D01*
X0198554Y0026524D01*
X0199300Y0028325D01*
X0199300Y0030275D01*
X0198554Y0032076D01*
X0197176Y0033454D01*
X0195375Y0034200D01*
X0188225Y0034200D01*
X0186424Y0033454D01*
X0185046Y0032076D01*
X0184300Y0030275D01*
X0184300Y0028325D01*
X0185046Y0026524D01*
X0186424Y0025146D01*
X0185663Y0025908D02*
X0174722Y0025908D01*
X0174338Y0027506D02*
X0184639Y0027506D01*
X0184300Y0029105D02*
X0176087Y0029105D01*
X0176054Y0029024D02*
X0176800Y0030825D01*
X0176800Y0032775D01*
X0176054Y0034576D01*
X0174676Y0035954D01*
X0172875Y0036700D01*
X0165725Y0036700D01*
X0163924Y0035954D01*
X0162546Y0034576D01*
X0161800Y0032775D01*
X0161800Y0030825D01*
X0162546Y0029024D01*
X0163924Y0027646D01*
X0165725Y0026900D01*
X0172875Y0026900D01*
X0174676Y0027646D01*
X0176054Y0029024D01*
X0176749Y0030703D02*
X0184478Y0030703D01*
X0185272Y0032302D02*
X0176800Y0032302D01*
X0176334Y0033900D02*
X0187502Y0033900D01*
X0188225Y0034400D02*
X0195375Y0034400D01*
X0197176Y0035146D01*
X0198554Y0036524D01*
X0199300Y0038325D01*
X0199300Y0040275D01*
X0198554Y0042076D01*
X0197176Y0043454D01*
X0195375Y0044200D01*
X0188225Y0044200D01*
X0186424Y0043454D01*
X0185046Y0042076D01*
X0184300Y0040275D01*
X0184300Y0038325D01*
X0185046Y0036524D01*
X0186424Y0035146D01*
X0188225Y0034400D01*
X0186072Y0035499D02*
X0175131Y0035499D01*
X0174676Y0037646D02*
X0172875Y0036900D01*
X0165725Y0036900D01*
X0163924Y0037646D01*
X0162546Y0039024D01*
X0161800Y0040825D01*
X0161800Y0042775D01*
X0162546Y0044576D01*
X0163924Y0045954D01*
X0165725Y0046700D01*
X0172875Y0046700D01*
X0174676Y0045954D01*
X0176054Y0044576D01*
X0176800Y0042775D01*
X0176800Y0040825D01*
X0176054Y0039024D01*
X0174676Y0037646D01*
X0173351Y0037097D02*
X0184809Y0037097D01*
X0184300Y0038696D02*
X0175725Y0038696D01*
X0176580Y0040294D02*
X0184308Y0040294D01*
X0184970Y0041893D02*
X0176800Y0041893D01*
X0176503Y0043491D02*
X0186514Y0043491D01*
X0186560Y0045090D02*
X0175540Y0045090D01*
X0174676Y0047646D02*
X0176054Y0049024D01*
X0176800Y0050825D01*
X0176800Y0052775D01*
X0176054Y0054576D01*
X0174676Y0055954D01*
X0172875Y0056700D01*
X0165725Y0056700D01*
X0163924Y0055954D01*
X0162546Y0054576D01*
X0161800Y0052775D01*
X0161800Y0050825D01*
X0162546Y0049024D01*
X0163924Y0047646D01*
X0165725Y0046900D01*
X0172875Y0046900D01*
X0174676Y0047646D01*
X0175316Y0048287D02*
X0184316Y0048287D01*
X0184300Y0048325D02*
X0185046Y0046524D01*
X0186424Y0045146D01*
X0188225Y0044400D01*
X0195375Y0044400D01*
X0197176Y0045146D01*
X0198554Y0046524D01*
X0199300Y0048325D01*
X0199300Y0050275D01*
X0198554Y0052076D01*
X0197176Y0053454D01*
X0195375Y0054200D01*
X0188225Y0054200D01*
X0186424Y0053454D01*
X0185046Y0052076D01*
X0184300Y0050275D01*
X0184300Y0048325D01*
X0184300Y0049885D02*
X0176411Y0049885D01*
X0176800Y0051484D02*
X0184801Y0051484D01*
X0186053Y0053082D02*
X0176673Y0053082D01*
X0175949Y0054681D02*
X0187547Y0054681D01*
X0188225Y0054400D02*
X0195375Y0054400D01*
X0197176Y0055146D01*
X0198554Y0056524D01*
X0199300Y0058325D01*
X0199300Y0060275D01*
X0198554Y0062076D01*
X0197176Y0063454D01*
X0195375Y0064200D01*
X0188225Y0064200D01*
X0186424Y0063454D01*
X0185046Y0062076D01*
X0184300Y0060275D01*
X0184300Y0058325D01*
X0185046Y0056524D01*
X0186424Y0055146D01*
X0188225Y0054400D01*
X0185291Y0056279D02*
X0173890Y0056279D01*
X0172875Y0056900D02*
X0174676Y0057646D01*
X0176054Y0059024D01*
X0176800Y0060825D01*
X0176800Y0062775D01*
X0176054Y0064576D01*
X0174676Y0065954D01*
X0172875Y0066700D01*
X0165725Y0066700D01*
X0163924Y0065954D01*
X0162546Y0064576D01*
X0161800Y0062775D01*
X0161800Y0060825D01*
X0162546Y0059024D01*
X0163924Y0057646D01*
X0165725Y0056900D01*
X0172875Y0056900D01*
X0174908Y0057878D02*
X0184485Y0057878D01*
X0184300Y0059476D02*
X0176241Y0059476D01*
X0176800Y0061075D02*
X0184631Y0061075D01*
X0185644Y0062673D02*
X0176800Y0062673D01*
X0176180Y0064272D02*
X0228700Y0064272D01*
X0228700Y0065870D02*
X0227900Y0065870D01*
X0228554Y0066524D02*
X0227176Y0065146D01*
X0225375Y0064400D01*
X0218225Y0064400D01*
X0216424Y0065146D01*
X0215046Y0066524D01*
X0214300Y0068325D01*
X0214300Y0070275D01*
X0215046Y0072076D01*
X0216424Y0073454D01*
X0218225Y0074200D01*
X0223167Y0074200D01*
X0223433Y0074400D01*
X0218225Y0074400D01*
X0216424Y0075146D01*
X0215046Y0076524D01*
X0214300Y0078325D01*
X0214300Y0080275D01*
X0215046Y0082076D01*
X0216424Y0083454D01*
X0218225Y0084200D01*
X0225375Y0084200D01*
X0225964Y0083956D01*
X0226200Y0084034D01*
X0226200Y0084742D01*
X0225375Y0084400D01*
X0218225Y0084400D01*
X0216424Y0085146D01*
X0215046Y0086524D01*
X0214300Y0088325D01*
X0214300Y0090275D01*
X0215046Y0092076D01*
X0216424Y0093454D01*
X0218225Y0094200D01*
X0218700Y0094200D01*
X0218700Y0106607D01*
X0218647Y0107027D01*
X0218700Y0107218D01*
X0218700Y0107417D01*
X0218862Y0107808D01*
X0218974Y0108216D01*
X0219096Y0108373D01*
X0219172Y0108556D01*
X0219471Y0108856D01*
X0219732Y0109190D01*
X0219904Y0109288D01*
X0220044Y0109428D01*
X0220435Y0109590D01*
X0220804Y0109800D01*
X0221000Y0109824D01*
X0221183Y0109900D01*
X0221607Y0109900D01*
X0233951Y0111443D01*
X0234307Y0112302D01*
X0235798Y0113793D01*
X0237746Y0114600D01*
X0245854Y0114600D01*
X0247802Y0113793D01*
X0249293Y0112302D01*
X0250100Y0110354D01*
X0250100Y0108246D01*
X0249293Y0106298D01*
X0247802Y0104807D01*
X0246578Y0104300D01*
X0247802Y0103793D01*
X0249293Y0102302D01*
X0250100Y0100354D01*
X0250100Y0098246D01*
X0249293Y0096298D01*
X0247802Y0094807D01*
X0246578Y0094300D01*
X0247802Y0093793D01*
X0249293Y0092302D01*
X0250100Y0090354D01*
X0250100Y0088246D01*
X0249293Y0086298D01*
X0247802Y0084807D01*
X0246578Y0084300D01*
X0247802Y0083793D01*
X0249293Y0082302D01*
X0250100Y0080354D01*
X0250100Y0078246D01*
X0249293Y0076298D01*
X0247802Y0074807D01*
X0246578Y0074300D01*
X0247802Y0073793D01*
X0249293Y0072302D01*
X0250100Y0070354D01*
X0250100Y0068246D01*
X0249293Y0066298D01*
X0247802Y0064807D01*
X0245854Y0064000D01*
X0237746Y0064000D01*
X0235798Y0064807D01*
X0234900Y0065705D01*
X0234900Y0058683D01*
X0234428Y0057544D01*
X0233556Y0056672D01*
X0232417Y0056200D01*
X0228230Y0056200D01*
X0227176Y0055146D01*
X0225375Y0054400D01*
X0218225Y0054400D01*
X0216424Y0055146D01*
X0215046Y0056524D01*
X0214300Y0058325D01*
X0214300Y0060275D01*
X0215046Y0062076D01*
X0216424Y0063454D01*
X0218225Y0064200D01*
X0225375Y0064200D01*
X0227176Y0063454D01*
X0228230Y0062400D01*
X0228700Y0062400D01*
X0228700Y0066877D01*
X0228554Y0066524D01*
X0228700Y0062673D02*
X0227956Y0062673D01*
X0231800Y0059300D02*
X0231800Y0069300D01*
X0236800Y0076800D01*
X0236800Y0079300D01*
X0241800Y0079300D01*
X0248141Y0083454D02*
X0253201Y0083454D01*
X0253201Y0081856D02*
X0249478Y0081856D01*
X0250100Y0080257D02*
X0253201Y0080257D01*
X0253201Y0078659D02*
X0250100Y0078659D01*
X0249609Y0077060D02*
X0253201Y0077060D01*
X0253201Y0075462D02*
X0248457Y0075462D01*
X0247633Y0073863D02*
X0253201Y0073863D01*
X0253201Y0072265D02*
X0249309Y0072265D01*
X0249971Y0070666D02*
X0253201Y0070666D01*
X0253201Y0069068D02*
X0250100Y0069068D01*
X0249778Y0067469D02*
X0253201Y0067469D01*
X0253201Y0065870D02*
X0248866Y0065870D01*
X0246511Y0064272D02*
X0253201Y0064272D01*
X0253201Y0062673D02*
X0234900Y0062673D01*
X0234900Y0061075D02*
X0253201Y0061075D01*
X0253201Y0059476D02*
X0234900Y0059476D01*
X0234566Y0057878D02*
X0253201Y0057878D01*
X0253201Y0056279D02*
X0247816Y0056279D01*
X0249343Y0054681D02*
X0253201Y0054681D01*
X0253201Y0053082D02*
X0250005Y0053082D01*
X0250100Y0051484D02*
X0253201Y0051484D01*
X0253201Y0049885D02*
X0249744Y0049885D01*
X0248782Y0048287D02*
X0253201Y0048287D01*
X0253201Y0046688D02*
X0246848Y0046688D01*
X0249005Y0045090D02*
X0253201Y0045090D01*
X0253201Y0043491D02*
X0249836Y0043491D01*
X0250100Y0041893D02*
X0253201Y0041893D01*
X0253201Y0040294D02*
X0249913Y0040294D01*
X0249191Y0038696D02*
X0253201Y0038696D01*
X0253201Y0037097D02*
X0247296Y0037097D01*
X0248597Y0035499D02*
X0253201Y0035499D01*
X0253201Y0033900D02*
X0249667Y0033900D01*
X0250100Y0032302D02*
X0253201Y0032302D01*
X0253201Y0030703D02*
X0250082Y0030703D01*
X0249420Y0029105D02*
X0253201Y0029105D01*
X0253201Y0027506D02*
X0248002Y0027506D01*
X0248188Y0025908D02*
X0253201Y0025908D01*
X0253201Y0024309D02*
X0249497Y0024309D01*
X0250100Y0022711D02*
X0253201Y0022711D01*
X0253201Y0021112D02*
X0250100Y0021112D01*
X0249590Y0019514D02*
X0253201Y0019514D01*
X0253201Y0017915D02*
X0248410Y0017915D01*
X0247745Y0016317D02*
X0253201Y0016317D01*
X0253201Y0014718D02*
X0249328Y0014718D01*
X0249990Y0013120D02*
X0253201Y0013120D01*
X0253201Y0011521D02*
X0250100Y0011521D01*
X0249759Y0009923D02*
X0253201Y0009923D01*
X0253201Y0008324D02*
X0248819Y0008324D01*
X0246399Y0006726D02*
X0253201Y0006726D01*
X0241800Y0021800D02*
X0221800Y0019300D01*
X0226143Y0014718D02*
X0234272Y0014718D01*
X0233610Y0013120D02*
X0227510Y0013120D01*
X0228784Y0011521D02*
X0233500Y0011521D01*
X0233841Y0009923D02*
X0229300Y0009923D01*
X0229299Y0008324D02*
X0234781Y0008324D01*
X0237201Y0006726D02*
X0228637Y0006726D01*
X0228346Y0016317D02*
X0235855Y0016317D01*
X0234103Y0024309D02*
X0176164Y0024309D01*
X0187457Y0014718D02*
X0087100Y0014718D01*
X0087100Y0013120D02*
X0187005Y0013120D01*
X0185393Y0011521D02*
X0086516Y0011521D01*
X0084918Y0009923D02*
X0184844Y0009923D01*
X0191800Y0009923D02*
X0191800Y0009923D01*
X0191800Y0011521D02*
X0191800Y0011521D01*
X0191800Y0013120D02*
X0191800Y0013120D01*
X0196143Y0014718D02*
X0217457Y0014718D01*
X0216090Y0013120D02*
X0196595Y0013120D01*
X0198207Y0011521D02*
X0214816Y0011521D01*
X0214300Y0009923D02*
X0198756Y0009923D01*
X0198700Y0008324D02*
X0214301Y0008324D01*
X0214963Y0006726D02*
X0197968Y0006726D01*
X0198346Y0016317D02*
X0215254Y0016317D01*
X0214470Y0017915D02*
X0199130Y0017915D01*
X0199300Y0019514D02*
X0214300Y0019514D01*
X0214647Y0021112D02*
X0198953Y0021112D01*
X0197919Y0022711D02*
X0215681Y0022711D01*
X0215663Y0025908D02*
X0197937Y0025908D01*
X0198961Y0027506D02*
X0214639Y0027506D01*
X0214300Y0029105D02*
X0199300Y0029105D01*
X0199122Y0030703D02*
X0214478Y0030703D01*
X0215272Y0032302D02*
X0198328Y0032302D01*
X0196098Y0033900D02*
X0217502Y0033900D01*
X0216072Y0035499D02*
X0197528Y0035499D01*
X0198791Y0037097D02*
X0214809Y0037097D01*
X0214300Y0038696D02*
X0199300Y0038696D01*
X0199292Y0040294D02*
X0214308Y0040294D01*
X0214970Y0041893D02*
X0198630Y0041893D01*
X0197086Y0043491D02*
X0216514Y0043491D01*
X0216560Y0045090D02*
X0197040Y0045090D01*
X0198622Y0046688D02*
X0214978Y0046688D01*
X0214316Y0048287D02*
X0199284Y0048287D01*
X0199300Y0049885D02*
X0214300Y0049885D01*
X0214801Y0051484D02*
X0198799Y0051484D01*
X0197547Y0053082D02*
X0216053Y0053082D01*
X0217547Y0054681D02*
X0196053Y0054681D01*
X0198309Y0056279D02*
X0215291Y0056279D01*
X0214485Y0057878D02*
X0199115Y0057878D01*
X0199300Y0059476D02*
X0214300Y0059476D01*
X0214631Y0061075D02*
X0198969Y0061075D01*
X0197956Y0062673D02*
X0215644Y0062673D01*
X0215700Y0065870D02*
X0197900Y0065870D01*
X0198554Y0066524D02*
X0199300Y0068325D01*
X0199300Y0070275D01*
X0198554Y0072076D01*
X0197176Y0073454D01*
X0195375Y0074200D01*
X0188225Y0074200D01*
X0186424Y0073454D01*
X0185046Y0072076D01*
X0184300Y0070275D01*
X0184300Y0068325D01*
X0185046Y0066524D01*
X0186424Y0065146D01*
X0188225Y0064400D01*
X0195375Y0064400D01*
X0197176Y0065146D01*
X0198554Y0066524D01*
X0198945Y0067469D02*
X0214655Y0067469D01*
X0214300Y0069068D02*
X0199300Y0069068D01*
X0199138Y0070666D02*
X0214462Y0070666D01*
X0215235Y0072265D02*
X0198365Y0072265D01*
X0196188Y0073863D02*
X0217412Y0073863D01*
X0216109Y0075462D02*
X0197491Y0075462D01*
X0197176Y0075146D02*
X0198554Y0076524D01*
X0199300Y0078325D01*
X0199300Y0080275D01*
X0198554Y0082076D01*
X0197176Y0083454D01*
X0195375Y0084200D01*
X0188225Y0084200D01*
X0186424Y0083454D01*
X0185046Y0082076D01*
X0184400Y0080516D01*
X0184400Y0083912D01*
X0181412Y0086900D01*
X0177188Y0086900D01*
X0175459Y0085171D01*
X0174676Y0085954D01*
X0172875Y0086700D01*
X0165725Y0086700D01*
X0163924Y0085954D01*
X0162546Y0084576D01*
X0161800Y0082775D01*
X0161800Y0080825D01*
X0162546Y0079024D01*
X0163924Y0077646D01*
X0165725Y0076900D01*
X0172875Y0076900D01*
X0174676Y0077646D01*
X0175459Y0078429D01*
X0177188Y0076700D01*
X0181412Y0076700D01*
X0184300Y0079588D01*
X0184300Y0078325D01*
X0185046Y0076524D01*
X0186424Y0075146D01*
X0188225Y0074400D01*
X0195375Y0074400D01*
X0197176Y0075146D01*
X0198776Y0077060D02*
X0214824Y0077060D01*
X0214300Y0078659D02*
X0199300Y0078659D01*
X0199300Y0080257D02*
X0214300Y0080257D01*
X0214955Y0081856D02*
X0198645Y0081856D01*
X0197175Y0083454D02*
X0216425Y0083454D01*
X0216650Y0085053D02*
X0196950Y0085053D01*
X0197176Y0085146D02*
X0198554Y0086524D01*
X0199300Y0088325D01*
X0199300Y0090275D01*
X0198554Y0092076D01*
X0197176Y0093454D01*
X0195375Y0094200D01*
X0188225Y0094200D01*
X0186424Y0093454D01*
X0185046Y0092076D01*
X0184300Y0090275D01*
X0184300Y0088325D01*
X0185046Y0086524D01*
X0186424Y0085146D01*
X0188225Y0084400D01*
X0195375Y0084400D01*
X0197176Y0085146D01*
X0198607Y0086651D02*
X0214993Y0086651D01*
X0214331Y0088250D02*
X0199269Y0088250D01*
X0199300Y0089848D02*
X0214300Y0089848D01*
X0214785Y0091447D02*
X0198815Y0091447D01*
X0197584Y0093045D02*
X0216016Y0093045D01*
X0218700Y0094644D02*
X0182962Y0094644D01*
X0183900Y0093705D02*
X0181205Y0096400D01*
X0179300Y0096400D01*
X0179300Y0091800D01*
X0179300Y0091800D01*
X0183900Y0091800D01*
X0183900Y0093705D01*
X0183900Y0093045D02*
X0186016Y0093045D01*
X0184785Y0091447D02*
X0183900Y0091447D01*
X0183900Y0091800D02*
X0183900Y0089895D01*
X0181205Y0087200D01*
X0179300Y0087200D01*
X0179300Y0091800D01*
X0179300Y0091800D01*
X0179300Y0096400D01*
X0177395Y0096400D01*
X0175427Y0094432D01*
X0175256Y0094666D01*
X0174766Y0095156D01*
X0174206Y0095563D01*
X0173589Y0095878D01*
X0172930Y0096092D01*
X0172246Y0096200D01*
X0169300Y0096200D01*
X0169300Y0091800D01*
X0169300Y0091800D01*
X0176300Y0091800D01*
X0179300Y0091800D01*
X0183900Y0091800D01*
X0183854Y0089848D02*
X0184300Y0089848D01*
X0184331Y0088250D02*
X0182255Y0088250D01*
X0181661Y0086651D02*
X0184993Y0086651D01*
X0186650Y0085053D02*
X0183260Y0085053D01*
X0184400Y0083454D02*
X0186425Y0083454D01*
X0184955Y0081856D02*
X0184400Y0081856D01*
X0184300Y0078659D02*
X0183371Y0078659D01*
X0184824Y0077060D02*
X0181773Y0077060D01*
X0186109Y0075462D02*
X0175168Y0075462D01*
X0174676Y0075954D02*
X0172875Y0076700D01*
X0165725Y0076700D01*
X0163924Y0075954D01*
X0162546Y0074576D01*
X0161800Y0072775D01*
X0161800Y0070825D01*
X0162546Y0069024D01*
X0163924Y0067646D01*
X0165725Y0066900D01*
X0172875Y0066900D01*
X0174676Y0067646D01*
X0176054Y0069024D01*
X0176800Y0070825D01*
X0176800Y0072775D01*
X0176054Y0074576D01*
X0174676Y0075954D01*
X0173261Y0077060D02*
X0176827Y0077060D01*
X0176349Y0073863D02*
X0187412Y0073863D01*
X0185235Y0072265D02*
X0176800Y0072265D01*
X0176734Y0070666D02*
X0184462Y0070666D01*
X0184300Y0069068D02*
X0176072Y0069068D01*
X0174248Y0067469D02*
X0184655Y0067469D01*
X0185700Y0065870D02*
X0174759Y0065870D01*
X0164352Y0067469D02*
X0144248Y0067469D01*
X0144676Y0067646D02*
X0146054Y0069024D01*
X0146800Y0070825D01*
X0146800Y0072775D01*
X0146054Y0074576D01*
X0144676Y0075954D01*
X0142875Y0076700D01*
X0135725Y0076700D01*
X0133924Y0075954D01*
X0132546Y0074576D01*
X0131800Y0072775D01*
X0131800Y0070825D01*
X0132546Y0069024D01*
X0133924Y0067646D01*
X0135725Y0066900D01*
X0142875Y0066900D01*
X0144676Y0067646D01*
X0144676Y0065954D02*
X0142875Y0066700D01*
X0135725Y0066700D01*
X0133924Y0065954D01*
X0132546Y0064576D01*
X0131800Y0062775D01*
X0131800Y0060825D01*
X0132546Y0059024D01*
X0133924Y0057646D01*
X0135725Y0056900D01*
X0142875Y0056900D01*
X0144676Y0057646D01*
X0146054Y0059024D01*
X0146800Y0060825D01*
X0146800Y0062775D01*
X0146054Y0064576D01*
X0144676Y0065954D01*
X0144759Y0065870D02*
X0163841Y0065870D01*
X0162420Y0064272D02*
X0146180Y0064272D01*
X0146800Y0062673D02*
X0161800Y0062673D01*
X0161800Y0061075D02*
X0146800Y0061075D01*
X0146241Y0059476D02*
X0162359Y0059476D01*
X0163692Y0057878D02*
X0144908Y0057878D01*
X0143890Y0056279D02*
X0164710Y0056279D01*
X0162651Y0054681D02*
X0145949Y0054681D01*
X0146054Y0054576D02*
X0144676Y0055954D01*
X0142875Y0056700D01*
X0135725Y0056700D01*
X0133924Y0055954D01*
X0133495Y0055525D01*
X0131620Y0057400D01*
X0126980Y0057400D01*
X0123700Y0054120D01*
X0123700Y0049480D01*
X0126380Y0046800D01*
X0123700Y0044120D01*
X0123700Y0039480D01*
X0126980Y0036200D01*
X0131620Y0036200D01*
X0133495Y0038075D01*
X0133924Y0037646D01*
X0135725Y0036900D01*
X0142875Y0036900D01*
X0144676Y0037646D01*
X0146054Y0039024D01*
X0146800Y0040825D01*
X0146800Y0042775D01*
X0146054Y0044576D01*
X0144676Y0045954D01*
X0142875Y0046700D01*
X0135725Y0046700D01*
X0133924Y0045954D01*
X0133495Y0045525D01*
X0132220Y0046800D01*
X0133495Y0048075D01*
X0133924Y0047646D01*
X0135725Y0046900D01*
X0142875Y0046900D01*
X0144676Y0047646D01*
X0146054Y0049024D01*
X0146800Y0050825D01*
X0146800Y0052775D01*
X0146054Y0054576D01*
X0146673Y0053082D02*
X0161927Y0053082D01*
X0161800Y0051484D02*
X0146800Y0051484D01*
X0146411Y0049885D02*
X0162189Y0049885D01*
X0163283Y0048287D02*
X0145316Y0048287D01*
X0142903Y0046688D02*
X0165697Y0046688D01*
X0163060Y0045090D02*
X0145540Y0045090D01*
X0146503Y0043491D02*
X0162097Y0043491D01*
X0161800Y0041893D02*
X0146800Y0041893D01*
X0146580Y0040294D02*
X0162020Y0040294D01*
X0162875Y0038696D02*
X0145725Y0038696D01*
X0143351Y0037097D02*
X0165249Y0037097D01*
X0163469Y0035499D02*
X0145131Y0035499D01*
X0144676Y0035954D02*
X0146054Y0034576D01*
X0146800Y0032775D01*
X0146800Y0030825D01*
X0146054Y0029024D01*
X0144676Y0027646D01*
X0142875Y0026900D01*
X0135725Y0026900D01*
X0133924Y0027646D01*
X0132546Y0029024D01*
X0131800Y0030825D01*
X0131800Y0032775D01*
X0132546Y0034576D01*
X0133924Y0035954D01*
X0135725Y0036700D01*
X0142875Y0036700D01*
X0144676Y0035954D01*
X0146334Y0033900D02*
X0162266Y0033900D01*
X0161800Y0032302D02*
X0146800Y0032302D01*
X0146749Y0030703D02*
X0161851Y0030703D01*
X0162513Y0029105D02*
X0146087Y0029105D01*
X0144338Y0027506D02*
X0164262Y0027506D01*
X0163878Y0025908D02*
X0144722Y0025908D01*
X0146164Y0024309D02*
X0162436Y0024309D01*
X0161800Y0022711D02*
X0146800Y0022711D01*
X0146800Y0021112D02*
X0161800Y0021112D01*
X0162343Y0019514D02*
X0146257Y0019514D01*
X0144945Y0017915D02*
X0163655Y0017915D01*
X0172903Y0046688D02*
X0184978Y0046688D01*
X0162528Y0069068D02*
X0146072Y0069068D01*
X0146734Y0070666D02*
X0161866Y0070666D01*
X0161800Y0072265D02*
X0146800Y0072265D01*
X0146349Y0073863D02*
X0162251Y0073863D01*
X0163432Y0075462D02*
X0145168Y0075462D01*
X0144206Y0078037D02*
X0144766Y0078444D01*
X0145256Y0078934D01*
X0145663Y0079494D01*
X0145978Y0080111D01*
X0146192Y0080770D01*
X0146300Y0081454D01*
X0146300Y0081800D01*
X0146300Y0082146D01*
X0146192Y0082830D01*
X0145978Y0083489D01*
X0145663Y0084106D01*
X0145256Y0084666D01*
X0144766Y0085156D01*
X0144206Y0085563D01*
X0143589Y0085878D01*
X0142930Y0086092D01*
X0142246Y0086200D01*
X0139300Y0086200D01*
X0139300Y0081800D01*
X0139300Y0081800D01*
X0146300Y0081800D01*
X0139300Y0081800D01*
X0139300Y0081800D01*
X0139300Y0077400D01*
X0142246Y0077400D01*
X0142930Y0077508D01*
X0143589Y0077722D01*
X0144206Y0078037D01*
X0144981Y0078659D02*
X0162912Y0078659D01*
X0162035Y0080257D02*
X0146025Y0080257D01*
X0146300Y0081856D02*
X0161800Y0081856D01*
X0162081Y0083454D02*
X0145989Y0083454D01*
X0144870Y0085053D02*
X0163023Y0085053D01*
X0165607Y0086651D02*
X0100881Y0086651D01*
X0100275Y0086400D02*
X0102076Y0087146D01*
X0103454Y0088524D01*
X0104200Y0090325D01*
X0104200Y0092275D01*
X0103454Y0094076D01*
X0102076Y0095454D01*
X0100275Y0096200D01*
X0098325Y0096200D01*
X0096524Y0095454D01*
X0095146Y0094076D01*
X0094400Y0092275D01*
X0094400Y0090325D01*
X0095146Y0088524D01*
X0096524Y0087146D01*
X0098325Y0086400D01*
X0100275Y0086400D01*
X0097719Y0086651D02*
X0034100Y0086651D01*
X0034100Y0085053D02*
X0126047Y0085053D01*
X0127395Y0086400D02*
X0124700Y0083705D01*
X0124700Y0081800D01*
X0129300Y0081800D01*
X0129300Y0081800D01*
X0129300Y0086400D01*
X0131205Y0086400D01*
X0133173Y0084432D01*
X0133344Y0084666D01*
X0133834Y0085156D01*
X0134394Y0085563D01*
X0135011Y0085878D01*
X0135670Y0086092D01*
X0136354Y0086200D01*
X0139300Y0086200D01*
X0139300Y0081800D01*
X0139300Y0081800D01*
X0139300Y0081800D01*
X0129300Y0081800D01*
X0129300Y0081800D01*
X0129300Y0077200D01*
X0131205Y0077200D01*
X0133173Y0079168D01*
X0133344Y0078934D01*
X0133834Y0078444D01*
X0134394Y0078037D01*
X0135011Y0077722D01*
X0135670Y0077508D01*
X0136354Y0077400D01*
X0139300Y0077400D01*
X0139300Y0081800D01*
X0133900Y0081800D01*
X0129300Y0081800D01*
X0129300Y0081800D01*
X0129300Y0081800D01*
X0129300Y0086400D01*
X0127395Y0086400D01*
X0127188Y0086700D02*
X0131412Y0086700D01*
X0133141Y0088429D01*
X0133924Y0087646D01*
X0135725Y0086900D01*
X0142875Y0086900D01*
X0144676Y0087646D01*
X0146054Y0089024D01*
X0146800Y0090825D01*
X0146800Y0092775D01*
X0146054Y0094576D01*
X0144676Y0095954D01*
X0142875Y0096700D01*
X0135725Y0096700D01*
X0133924Y0095954D01*
X0133141Y0095171D01*
X0131412Y0096900D01*
X0127188Y0096900D01*
X0124200Y0093912D01*
X0124200Y0089688D01*
X0127188Y0086700D01*
X0125638Y0088250D02*
X0103179Y0088250D01*
X0104002Y0089848D02*
X0124200Y0089848D01*
X0124200Y0091447D02*
X0104200Y0091447D01*
X0103881Y0093045D02*
X0124200Y0093045D01*
X0124931Y0094644D02*
X0102886Y0094644D01*
X0108700Y0099480D02*
X0111980Y0096200D01*
X0116620Y0096200D01*
X0119900Y0099480D01*
X0119900Y0104120D01*
X0116620Y0107400D01*
X0111980Y0107400D01*
X0108700Y0104120D01*
X0108700Y0099480D01*
X0108741Y0099439D02*
X0083590Y0099439D01*
X0084200Y0098830D02*
X0081330Y0101700D01*
X0077270Y0101700D01*
X0074400Y0098830D01*
X0074400Y0094770D01*
X0077270Y0091900D01*
X0081330Y0091900D01*
X0084200Y0094770D01*
X0084200Y0098830D01*
X0084200Y0097841D02*
X0110340Y0097841D01*
X0111938Y0096242D02*
X0084200Y0096242D01*
X0084073Y0094644D02*
X0095714Y0094644D01*
X0094719Y0093045D02*
X0082475Y0093045D01*
X0076125Y0093045D02*
X0061768Y0093045D01*
X0061123Y0092400D02*
X0063700Y0094977D01*
X0063700Y0096800D01*
X0063700Y0098623D01*
X0061123Y0101200D01*
X0059300Y0101200D01*
X0059300Y0096800D01*
X0063700Y0096800D01*
X0059300Y0096800D01*
X0059300Y0096800D01*
X0059300Y0096800D01*
X0059300Y0092400D01*
X0061123Y0092400D01*
X0059300Y0092400D02*
X0059300Y0096800D01*
X0059300Y0096800D01*
X0059300Y0096800D01*
X0054900Y0096800D01*
X0054900Y0098623D01*
X0057477Y0101200D01*
X0059300Y0101200D01*
X0059300Y0096800D01*
X0054900Y0096800D01*
X0054900Y0094977D01*
X0057477Y0092400D01*
X0059300Y0092400D01*
X0059300Y0093045D02*
X0059300Y0093045D01*
X0059300Y0094644D02*
X0059300Y0094644D01*
X0059300Y0096242D02*
X0059300Y0096242D01*
X0059300Y0097841D02*
X0059300Y0097841D01*
X0059300Y0099439D02*
X0059300Y0099439D01*
X0059300Y0101038D02*
X0059300Y0101038D01*
X0059300Y0102400D02*
X0061123Y0102400D01*
X0063700Y0104977D01*
X0063700Y0106800D01*
X0063700Y0108623D01*
X0061123Y0111200D01*
X0059300Y0111200D01*
X0059300Y0106800D01*
X0063700Y0106800D01*
X0059300Y0106800D01*
X0059300Y0106800D01*
X0059300Y0106800D01*
X0059300Y0102400D01*
X0059300Y0106800D01*
X0059300Y0106800D01*
X0059300Y0106800D01*
X0054900Y0106800D01*
X0054900Y0108623D01*
X0057477Y0111200D01*
X0059300Y0111200D01*
X0059300Y0106800D01*
X0054900Y0106800D01*
X0054900Y0104977D01*
X0057477Y0102400D01*
X0059300Y0102400D01*
X0059300Y0102636D02*
X0059300Y0102636D01*
X0059300Y0104235D02*
X0059300Y0104235D01*
X0059300Y0105833D02*
X0059300Y0105833D01*
X0059300Y0107432D02*
X0059300Y0107432D01*
X0059300Y0109030D02*
X0059300Y0109030D01*
X0059300Y0110629D02*
X0059300Y0110629D01*
X0061694Y0110629D02*
X0076199Y0110629D01*
X0077270Y0111700D02*
X0074400Y0108830D01*
X0074400Y0104770D01*
X0077270Y0101900D01*
X0081330Y0101900D01*
X0084200Y0104770D01*
X0084200Y0108830D01*
X0081330Y0111700D01*
X0077270Y0111700D01*
X0074601Y0109030D02*
X0063292Y0109030D01*
X0063700Y0107432D02*
X0074400Y0107432D01*
X0074400Y0105833D02*
X0063700Y0105833D01*
X0062957Y0104235D02*
X0074936Y0104235D01*
X0076534Y0102636D02*
X0061359Y0102636D01*
X0061285Y0101038D02*
X0076608Y0101038D01*
X0075010Y0099439D02*
X0062883Y0099439D01*
X0063700Y0097841D02*
X0074400Y0097841D01*
X0074400Y0096242D02*
X0063700Y0096242D01*
X0063366Y0094644D02*
X0074527Y0094644D01*
X0081992Y0101038D02*
X0108700Y0101038D01*
X0108700Y0102636D02*
X0082066Y0102636D01*
X0083664Y0104235D02*
X0108815Y0104235D01*
X0110414Y0105833D02*
X0084200Y0105833D01*
X0084200Y0107432D02*
X0134441Y0107432D01*
X0133924Y0107646D02*
X0135725Y0106900D01*
X0142875Y0106900D01*
X0144676Y0107646D01*
X0146054Y0109024D01*
X0146800Y0110825D01*
X0146800Y0112775D01*
X0146054Y0114576D01*
X0144676Y0115954D01*
X0142875Y0116700D01*
X0135725Y0116700D01*
X0133924Y0115954D01*
X0132546Y0114576D01*
X0132400Y0114223D01*
X0132400Y0116620D01*
X0129120Y0119900D01*
X0124480Y0119900D01*
X0121200Y0116620D01*
X0121200Y0111980D01*
X0124480Y0108700D01*
X0129120Y0108700D01*
X0131800Y0111380D01*
X0131800Y0110825D01*
X0132546Y0109024D01*
X0133924Y0107646D01*
X0133924Y0105954D02*
X0132546Y0104576D01*
X0131800Y0102775D01*
X0131800Y0100825D01*
X0132546Y0099024D01*
X0133924Y0097646D01*
X0135725Y0096900D01*
X0142875Y0096900D01*
X0144676Y0097646D01*
X0146054Y0099024D01*
X0146800Y0100825D01*
X0146800Y0102775D01*
X0146054Y0104576D01*
X0144676Y0105954D01*
X0142875Y0106700D01*
X0135725Y0106700D01*
X0133924Y0105954D01*
X0133804Y0105833D02*
X0118186Y0105833D01*
X0119785Y0104235D02*
X0132405Y0104235D01*
X0131800Y0102636D02*
X0119900Y0102636D01*
X0119900Y0101038D02*
X0131800Y0101038D01*
X0132374Y0099439D02*
X0119859Y0099439D01*
X0118260Y0097841D02*
X0133730Y0097841D01*
X0134620Y0096242D02*
X0132070Y0096242D01*
X0126530Y0096242D02*
X0116662Y0096242D01*
X0124700Y0083454D02*
X0085141Y0083454D01*
X0083995Y0084600D02*
X0079605Y0084600D01*
X0076500Y0081495D01*
X0076500Y0077105D01*
X0079605Y0074000D01*
X0083995Y0074000D01*
X0087100Y0077105D01*
X0087100Y0081495D01*
X0083995Y0084600D01*
X0086740Y0081856D02*
X0124700Y0081856D01*
X0124700Y0081800D02*
X0124700Y0079895D01*
X0127395Y0077200D01*
X0129300Y0077200D01*
X0129300Y0081800D01*
X0124700Y0081800D01*
X0124700Y0080257D02*
X0087100Y0080257D01*
X0087100Y0078659D02*
X0125936Y0078659D01*
X0129300Y0078659D02*
X0129300Y0078659D01*
X0129300Y0080257D02*
X0129300Y0080257D01*
X0129300Y0081856D02*
X0129300Y0081856D01*
X0129300Y0083454D02*
X0129300Y0083454D01*
X0129300Y0085053D02*
X0129300Y0085053D01*
X0132553Y0085053D02*
X0133730Y0085053D01*
X0133321Y0088250D02*
X0132962Y0088250D01*
X0139300Y0085053D02*
X0139300Y0085053D01*
X0139300Y0083454D02*
X0139300Y0083454D01*
X0139300Y0081856D02*
X0139300Y0081856D01*
X0139300Y0080257D02*
X0139300Y0080257D01*
X0139300Y0078659D02*
X0139300Y0078659D01*
X0133619Y0078659D02*
X0132664Y0078659D01*
X0133432Y0075462D02*
X0103068Y0075462D01*
X0103454Y0075076D02*
X0102076Y0076454D01*
X0100275Y0077200D01*
X0098325Y0077200D01*
X0096524Y0076454D01*
X0095146Y0075076D01*
X0094400Y0073275D01*
X0094400Y0071325D01*
X0095146Y0069524D01*
X0096524Y0068146D01*
X0098325Y0067400D01*
X0100275Y0067400D01*
X0102076Y0068146D01*
X0103454Y0069524D01*
X0104200Y0071325D01*
X0104200Y0073275D01*
X0103454Y0075076D01*
X0103956Y0073863D02*
X0132251Y0073863D01*
X0131800Y0072265D02*
X0104200Y0072265D01*
X0103927Y0070666D02*
X0131866Y0070666D01*
X0132528Y0069068D02*
X0102997Y0069068D01*
X0100441Y0067469D02*
X0134352Y0067469D01*
X0133841Y0065870D02*
X0118149Y0065870D01*
X0116620Y0067400D02*
X0111980Y0067400D01*
X0108700Y0064120D01*
X0108700Y0059480D01*
X0111980Y0056200D01*
X0116620Y0056200D01*
X0119900Y0059480D01*
X0119900Y0064120D01*
X0116620Y0067400D01*
X0119748Y0064272D02*
X0132420Y0064272D01*
X0131800Y0062673D02*
X0119900Y0062673D01*
X0119900Y0061075D02*
X0131800Y0061075D01*
X0132359Y0059476D02*
X0119896Y0059476D01*
X0118298Y0057878D02*
X0133692Y0057878D01*
X0132740Y0056279D02*
X0134710Y0056279D01*
X0125860Y0056279D02*
X0116699Y0056279D01*
X0111901Y0056279D02*
X0092740Y0056279D01*
X0091620Y0057400D02*
X0086980Y0057400D01*
X0083700Y0054120D01*
X0083700Y0049480D01*
X0086380Y0046800D01*
X0083700Y0044120D01*
X0083700Y0039480D01*
X0086980Y0036200D01*
X0091620Y0036200D01*
X0094900Y0039480D01*
X0094900Y0044120D01*
X0092220Y0046800D01*
X0094900Y0049480D01*
X0094900Y0054120D01*
X0091620Y0057400D01*
X0094339Y0054681D02*
X0124261Y0054681D01*
X0123700Y0053082D02*
X0094900Y0053082D01*
X0094900Y0051484D02*
X0123700Y0051484D01*
X0123700Y0049885D02*
X0094900Y0049885D01*
X0093706Y0048287D02*
X0124894Y0048287D01*
X0126269Y0046688D02*
X0092331Y0046688D01*
X0093930Y0045090D02*
X0124670Y0045090D01*
X0123700Y0043491D02*
X0094900Y0043491D01*
X0094900Y0041893D02*
X0123700Y0041893D01*
X0123700Y0040294D02*
X0094900Y0040294D01*
X0094115Y0038696D02*
X0124485Y0038696D01*
X0126083Y0037097D02*
X0092517Y0037097D01*
X0086083Y0037097D02*
X0079600Y0037097D01*
X0079600Y0035499D02*
X0133469Y0035499D01*
X0132517Y0037097D02*
X0135249Y0037097D01*
X0132266Y0033900D02*
X0079043Y0033900D01*
X0078793Y0033298D02*
X0079600Y0035246D01*
X0079600Y0043354D01*
X0078793Y0045302D01*
X0077302Y0046793D01*
X0075354Y0047600D01*
X0073246Y0047600D01*
X0071298Y0046793D01*
X0069807Y0045302D01*
X0069300Y0044078D01*
X0068793Y0045302D01*
X0067302Y0046793D01*
X0065354Y0047600D01*
X0063246Y0047600D01*
X0061298Y0046793D01*
X0059807Y0045302D01*
X0059000Y0043354D01*
X0059000Y0043309D01*
X0058982Y0043424D01*
X0058748Y0044143D01*
X0058405Y0044816D01*
X0057961Y0045427D01*
X0057427Y0045961D01*
X0056816Y0046405D01*
X0056143Y0046748D01*
X0055424Y0046982D01*
X0054678Y0047100D01*
X0054500Y0047100D01*
X0054500Y0039500D01*
X0054100Y0039500D01*
X0054100Y0047100D01*
X0053922Y0047100D01*
X0053176Y0046982D01*
X0052457Y0046748D01*
X0051784Y0046405D01*
X0051173Y0045961D01*
X0050639Y0045427D01*
X0050195Y0044816D01*
X0049852Y0044143D01*
X0049618Y0043424D01*
X0049500Y0042678D01*
X0049500Y0039500D01*
X0054100Y0039500D01*
X0054100Y0039100D01*
X0049500Y0039100D01*
X0049500Y0035922D01*
X0049618Y0035176D01*
X0049852Y0034457D01*
X0050195Y0033784D01*
X0050639Y0033173D01*
X0051173Y0032639D01*
X0051784Y0032195D01*
X0052457Y0031852D01*
X0053176Y0031618D01*
X0053922Y0031500D01*
X0054100Y0031500D01*
X0054100Y0039100D01*
X0054500Y0039100D01*
X0054500Y0031500D01*
X0054678Y0031500D01*
X0055424Y0031618D01*
X0056143Y0031852D01*
X0056816Y0032195D01*
X0057427Y0032639D01*
X0057961Y0033173D01*
X0058405Y0033784D01*
X0058748Y0034457D01*
X0058982Y0035176D01*
X0059000Y0035291D01*
X0059000Y0035246D01*
X0059807Y0033298D01*
X0061298Y0031807D01*
X0063246Y0031000D01*
X0065354Y0031000D01*
X0067302Y0031807D01*
X0068793Y0033298D01*
X0069300Y0034522D01*
X0069807Y0033298D01*
X0071298Y0031807D01*
X0073246Y0031000D01*
X0075354Y0031000D01*
X0077302Y0031807D01*
X0078793Y0033298D01*
X0077797Y0032302D02*
X0131800Y0032302D01*
X0131851Y0030703D02*
X0034100Y0030703D01*
X0034100Y0029105D02*
X0132513Y0029105D01*
X0134262Y0027506D02*
X0034100Y0027506D01*
X0034100Y0025908D02*
X0133878Y0025908D01*
X0132436Y0024309D02*
X0034100Y0024309D01*
X0034100Y0022711D02*
X0131800Y0022711D01*
X0131800Y0021112D02*
X0034100Y0021112D01*
X0034100Y0032302D02*
X0051637Y0032302D01*
X0050136Y0033900D02*
X0034100Y0033900D01*
X0034100Y0035499D02*
X0049567Y0035499D01*
X0049500Y0037097D02*
X0034100Y0037097D01*
X0034100Y0038696D02*
X0049500Y0038696D01*
X0049500Y0040294D02*
X0034100Y0040294D01*
X0034100Y0041893D02*
X0049500Y0041893D01*
X0049640Y0043491D02*
X0034100Y0043491D01*
X0034100Y0045090D02*
X0050394Y0045090D01*
X0052340Y0046688D02*
X0034100Y0046688D01*
X0034100Y0048287D02*
X0084894Y0048287D01*
X0083700Y0049885D02*
X0034100Y0049885D01*
X0034100Y0051484D02*
X0062078Y0051484D01*
X0061298Y0051807D02*
X0063246Y0051000D01*
X0065354Y0051000D01*
X0067302Y0051807D01*
X0068793Y0053298D01*
X0069300Y0054522D01*
X0069807Y0053298D01*
X0071298Y0051807D01*
X0073246Y0051000D01*
X0075354Y0051000D01*
X0077302Y0051807D01*
X0078793Y0053298D01*
X0079600Y0055246D01*
X0079600Y0063354D01*
X0078793Y0065302D01*
X0077302Y0066793D01*
X0075354Y0067600D01*
X0073246Y0067600D01*
X0071298Y0066793D01*
X0069807Y0065302D01*
X0069300Y0064078D01*
X0068793Y0065302D01*
X0067302Y0066793D01*
X0065354Y0067600D01*
X0063246Y0067600D01*
X0061298Y0066793D01*
X0059807Y0065302D01*
X0059000Y0063354D01*
X0059000Y0063309D01*
X0058982Y0063424D01*
X0058748Y0064143D01*
X0058405Y0064816D01*
X0057961Y0065427D01*
X0057427Y0065961D01*
X0056816Y0066405D01*
X0056143Y0066748D01*
X0055424Y0066982D01*
X0054678Y0067100D01*
X0054500Y0067100D01*
X0054500Y0059500D01*
X0054100Y0059500D01*
X0054100Y0067100D01*
X0053922Y0067100D01*
X0053176Y0066982D01*
X0052457Y0066748D01*
X0051784Y0066405D01*
X0051173Y0065961D01*
X0050639Y0065427D01*
X0050195Y0064816D01*
X0049852Y0064143D01*
X0049618Y0063424D01*
X0049500Y0062678D01*
X0049500Y0059500D01*
X0054100Y0059500D01*
X0054100Y0059100D01*
X0049500Y0059100D01*
X0049500Y0055922D01*
X0049618Y0055176D01*
X0049852Y0054457D01*
X0050195Y0053784D01*
X0050639Y0053173D01*
X0051173Y0052639D01*
X0051784Y0052195D01*
X0052457Y0051852D01*
X0053176Y0051618D01*
X0053922Y0051500D01*
X0054100Y0051500D01*
X0054100Y0059100D01*
X0054500Y0059100D01*
X0054500Y0051500D01*
X0054678Y0051500D01*
X0055424Y0051618D01*
X0056143Y0051852D01*
X0056816Y0052195D01*
X0057427Y0052639D01*
X0057961Y0053173D01*
X0058405Y0053784D01*
X0058748Y0054457D01*
X0058982Y0055176D01*
X0059000Y0055291D01*
X0059000Y0055246D01*
X0059807Y0053298D01*
X0061298Y0051807D01*
X0060022Y0053082D02*
X0057871Y0053082D01*
X0058821Y0054681D02*
X0059234Y0054681D01*
X0054500Y0054681D02*
X0054100Y0054681D01*
X0054100Y0056279D02*
X0054500Y0056279D01*
X0054500Y0057878D02*
X0054100Y0057878D01*
X0054100Y0059476D02*
X0034100Y0059476D01*
X0034100Y0057878D02*
X0049500Y0057878D01*
X0049500Y0056279D02*
X0034100Y0056279D01*
X0034100Y0054681D02*
X0049779Y0054681D01*
X0050729Y0053082D02*
X0034100Y0053082D01*
X0034100Y0061075D02*
X0049500Y0061075D01*
X0049500Y0062673D02*
X0034100Y0062673D01*
X0034100Y0064272D02*
X0049918Y0064272D01*
X0051082Y0065870D02*
X0034100Y0065870D01*
X0034100Y0067469D02*
X0062930Y0067469D01*
X0065670Y0067469D02*
X0072930Y0067469D01*
X0075670Y0067469D02*
X0098159Y0067469D01*
X0095603Y0069068D02*
X0034100Y0069068D01*
X0034100Y0070666D02*
X0094673Y0070666D01*
X0094400Y0072265D02*
X0034100Y0072265D01*
X0034100Y0073863D02*
X0094644Y0073863D01*
X0095532Y0075462D02*
X0085457Y0075462D01*
X0087055Y0077060D02*
X0097988Y0077060D01*
X0100612Y0077060D02*
X0165339Y0077060D01*
X0166354Y0087400D02*
X0165670Y0087508D01*
X0165011Y0087722D01*
X0164394Y0088037D01*
X0163834Y0088444D01*
X0163344Y0088934D01*
X0162937Y0089494D01*
X0162622Y0090111D01*
X0162408Y0090770D01*
X0162300Y0091454D01*
X0162300Y0091800D01*
X0169300Y0091800D01*
X0169300Y0091800D01*
X0169300Y0096200D01*
X0166354Y0096200D01*
X0165670Y0096092D01*
X0165011Y0095878D01*
X0164394Y0095563D01*
X0163834Y0095156D01*
X0163344Y0094666D01*
X0162937Y0094106D01*
X0162622Y0093489D01*
X0162408Y0092830D01*
X0162300Y0092146D01*
X0162300Y0091800D01*
X0169300Y0091800D01*
X0169300Y0087400D01*
X0172246Y0087400D01*
X0172930Y0087508D01*
X0173589Y0087722D01*
X0174206Y0088037D01*
X0174766Y0088444D01*
X0175256Y0088934D01*
X0175427Y0089168D01*
X0177395Y0087200D01*
X0179300Y0087200D01*
X0179300Y0091800D01*
X0179300Y0091800D01*
X0179300Y0091800D01*
X0169300Y0091800D01*
X0169300Y0091800D01*
X0169300Y0091800D01*
X0169300Y0087400D01*
X0166354Y0087400D01*
X0164101Y0088250D02*
X0145279Y0088250D01*
X0146395Y0089848D02*
X0162756Y0089848D01*
X0162301Y0091447D02*
X0146800Y0091447D01*
X0146688Y0093045D02*
X0162478Y0093045D01*
X0163327Y0094644D02*
X0145986Y0094644D01*
X0143980Y0096242D02*
X0177237Y0096242D01*
X0179300Y0096242D02*
X0179300Y0096242D01*
X0179300Y0094644D02*
X0179300Y0094644D01*
X0179300Y0093045D02*
X0179300Y0093045D01*
X0179300Y0091447D02*
X0179300Y0091447D01*
X0179300Y0089848D02*
X0179300Y0089848D01*
X0179300Y0088250D02*
X0179300Y0088250D01*
X0176939Y0086651D02*
X0172993Y0086651D01*
X0174499Y0088250D02*
X0176345Y0088250D01*
X0175638Y0094644D02*
X0175273Y0094644D01*
X0174676Y0097646D02*
X0176054Y0099024D01*
X0176800Y0100825D01*
X0176800Y0102775D01*
X0176054Y0104576D01*
X0174676Y0105954D01*
X0172875Y0106700D01*
X0165725Y0106700D01*
X0163924Y0105954D01*
X0162546Y0104576D01*
X0161800Y0102775D01*
X0161800Y0100825D01*
X0162546Y0099024D01*
X0163924Y0097646D01*
X0165725Y0096900D01*
X0172875Y0096900D01*
X0174676Y0097646D01*
X0174870Y0097841D02*
X0186047Y0097841D01*
X0187188Y0096700D02*
X0184200Y0099688D01*
X0184200Y0103912D01*
X0187188Y0106900D01*
X0191412Y0106900D01*
X0194400Y0103912D01*
X0194400Y0099688D01*
X0191412Y0096700D01*
X0187188Y0096700D01*
X0184448Y0099439D02*
X0176226Y0099439D01*
X0176800Y0101038D02*
X0184200Y0101038D01*
X0184200Y0102636D02*
X0176800Y0102636D01*
X0176195Y0104235D02*
X0184522Y0104235D01*
X0186121Y0105833D02*
X0174796Y0105833D01*
X0174158Y0107432D02*
X0200673Y0107432D01*
X0200798Y0107307D02*
X0202746Y0106500D01*
X0210854Y0106500D01*
X0212802Y0107307D01*
X0214293Y0108798D01*
X0215100Y0110746D01*
X0215100Y0112854D01*
X0214293Y0114802D01*
X0212802Y0116293D01*
X0211578Y0116800D01*
X0212802Y0117307D01*
X0214293Y0118798D01*
X0215100Y0120746D01*
X0215100Y0122854D01*
X0214850Y0123457D01*
X0223796Y0123457D01*
X0225143Y0124804D01*
X0225143Y0133796D01*
X0223796Y0135143D01*
X0223417Y0135143D01*
X0226469Y0153457D01*
X0228796Y0153457D01*
X0230143Y0154804D01*
X0230143Y0163796D01*
X0228796Y0165143D01*
X0219804Y0165143D01*
X0218457Y0163796D01*
X0218457Y0154804D01*
X0219804Y0153457D01*
X0220183Y0153457D01*
X0217131Y0135143D01*
X0214804Y0135143D01*
X0213929Y0134269D01*
X0213905Y0134316D01*
X0213461Y0134927D01*
X0212927Y0135461D01*
X0212316Y0135905D01*
X0211643Y0136248D01*
X0210924Y0136482D01*
X0210178Y0136600D01*
X0207000Y0136600D01*
X0207000Y0132000D01*
X0206600Y0132000D01*
X0206600Y0136600D01*
X0203422Y0136600D01*
X0202676Y0136482D01*
X0201957Y0136248D01*
X0201284Y0135905D01*
X0200673Y0135461D01*
X0200139Y0134927D01*
X0199695Y0134316D01*
X0199352Y0133643D01*
X0199118Y0132924D01*
X0199090Y0132743D01*
X0198982Y0133424D01*
X0198748Y0134143D01*
X0198405Y0134816D01*
X0197961Y0135427D01*
X0197427Y0135961D01*
X0196816Y0136405D01*
X0196143Y0136748D01*
X0195424Y0136982D01*
X0194678Y0137100D01*
X0194500Y0137100D01*
X0194500Y0129500D01*
X0194100Y0129500D01*
X0194100Y0137100D01*
X0193922Y0137100D01*
X0193176Y0136982D01*
X0192457Y0136748D01*
X0191784Y0136405D01*
X0191173Y0135961D01*
X0190639Y0135427D01*
X0190195Y0134816D01*
X0189852Y0134143D01*
X0189618Y0133424D01*
X0189600Y0133309D01*
X0189600Y0133354D01*
X0188793Y0135302D01*
X0187989Y0136106D01*
X0188246Y0136000D01*
X0190354Y0136000D01*
X0192302Y0136807D01*
X0193793Y0138298D01*
X0194600Y0140246D01*
X0194600Y0140291D01*
X0194618Y0140176D01*
X0194852Y0139457D01*
X0195195Y0138784D01*
X0195639Y0138173D01*
X0196173Y0137639D01*
X0196784Y0137195D01*
X0197457Y0136852D01*
X0198176Y0136618D01*
X0198922Y0136500D01*
X0199100Y0136500D01*
X0199100Y0144100D01*
X0199500Y0144100D01*
X0199500Y0144500D01*
X0204100Y0144500D01*
X0204100Y0147678D01*
X0203982Y0148424D01*
X0203748Y0149143D01*
X0203405Y0149816D01*
X0202961Y0150427D01*
X0202427Y0150961D01*
X0202374Y0151000D01*
X0202854Y0151000D01*
X0204802Y0151807D01*
X0206293Y0153298D01*
X0207100Y0155246D01*
X0207100Y0155291D01*
X0207118Y0155176D01*
X0207352Y0154457D01*
X0207695Y0153784D01*
X0208139Y0153173D01*
X0208673Y0152639D01*
X0209284Y0152195D01*
X0209957Y0151852D01*
X0210676Y0151618D01*
X0211422Y0151500D01*
X0211600Y0151500D01*
X0211600Y0159100D01*
X0212000Y0159100D01*
X0212000Y0159500D01*
X0216600Y0159500D01*
X0216600Y0162678D01*
X0216482Y0163424D01*
X0216248Y0164143D01*
X0215905Y0164816D01*
X0215461Y0165427D01*
X0214927Y0165961D01*
X0214316Y0166405D01*
X0213643Y0166748D01*
X0212924Y0166982D01*
X0212178Y0167100D01*
X0212000Y0167100D01*
X0212000Y0159500D01*
X0211600Y0159500D01*
X0211600Y0167100D01*
X0211422Y0167100D01*
X0210676Y0166982D01*
X0209957Y0166748D01*
X0209284Y0166405D01*
X0208673Y0165961D01*
X0208139Y0165427D01*
X0207695Y0164816D01*
X0207352Y0164143D01*
X0207118Y0163424D01*
X0207100Y0163309D01*
X0207100Y0163354D01*
X0206293Y0165302D01*
X0204802Y0166793D01*
X0202854Y0167600D01*
X0200746Y0167600D01*
X0198798Y0166793D01*
X0197307Y0165302D01*
X0196800Y0164078D01*
X0196293Y0165302D01*
X0194802Y0166793D01*
X0192854Y0167600D01*
X0190746Y0167600D01*
X0188798Y0166793D01*
X0187307Y0165302D01*
X0186800Y0164078D01*
X0186293Y0165302D01*
X0184802Y0166793D01*
X0182854Y0167600D01*
X0180746Y0167600D01*
X0178798Y0166793D01*
X0177307Y0165302D01*
X0176500Y0163354D01*
X0176500Y0155246D01*
X0177307Y0153298D01*
X0178798Y0151807D01*
X0180746Y0151000D01*
X0182854Y0151000D01*
X0184802Y0151807D01*
X0186293Y0153298D01*
X0186800Y0154522D01*
X0187307Y0153298D01*
X0188075Y0152529D01*
X0186298Y0151793D01*
X0184807Y0150302D01*
X0184000Y0148354D01*
X0184000Y0140246D01*
X0184807Y0138298D01*
X0185611Y0137494D01*
X0185354Y0137600D01*
X0183246Y0137600D01*
X0181298Y0136793D01*
X0179807Y0135302D01*
X0179000Y0133354D01*
X0179000Y0125246D01*
X0179807Y0123298D01*
X0181298Y0121807D01*
X0183246Y0121000D01*
X0185354Y0121000D01*
X0187302Y0121807D01*
X0188793Y0123298D01*
X0189600Y0125246D01*
X0189600Y0125291D01*
X0189618Y0125176D01*
X0189852Y0124457D01*
X0190195Y0123784D01*
X0190639Y0123173D01*
X0191173Y0122639D01*
X0191784Y0122195D01*
X0192457Y0121852D01*
X0193176Y0121618D01*
X0193922Y0121500D01*
X0194100Y0121500D01*
X0194100Y0129100D01*
X0194500Y0129100D01*
X0194500Y0129500D01*
X0199100Y0129500D01*
X0199100Y0130791D01*
X0199118Y0130676D01*
X0199352Y0129957D01*
X0199695Y0129284D01*
X0200139Y0128673D01*
X0200673Y0128139D01*
X0201284Y0127695D01*
X0201957Y0127352D01*
X0202676Y0127118D01*
X0202791Y0127100D01*
X0202746Y0127100D01*
X0200798Y0126293D01*
X0199307Y0124802D01*
X0198500Y0122854D01*
X0198500Y0120746D01*
X0199307Y0118798D01*
X0200798Y0117307D01*
X0202022Y0116800D01*
X0200798Y0116293D01*
X0199307Y0114802D01*
X0198500Y0112854D01*
X0198500Y0110746D01*
X0199307Y0108798D01*
X0200798Y0107307D01*
X0201205Y0106400D02*
X0199300Y0106400D01*
X0199300Y0101800D01*
X0203900Y0101800D01*
X0203900Y0103705D01*
X0201205Y0106400D01*
X0201772Y0105833D02*
X0218700Y0105833D01*
X0218700Y0104235D02*
X0203371Y0104235D01*
X0203900Y0102636D02*
X0218700Y0102636D01*
X0218700Y0101038D02*
X0203900Y0101038D01*
X0203900Y0101800D02*
X0199300Y0101800D01*
X0199300Y0101800D01*
X0199300Y0101800D01*
X0199300Y0097200D01*
X0201205Y0097200D01*
X0203900Y0099895D01*
X0203900Y0101800D01*
X0203445Y0099439D02*
X0218700Y0099439D01*
X0218700Y0097841D02*
X0201846Y0097841D01*
X0199300Y0097841D02*
X0199300Y0097841D01*
X0199300Y0097200D02*
X0199300Y0101800D01*
X0199300Y0101800D01*
X0199300Y0101800D01*
X0194700Y0101800D01*
X0194700Y0103705D01*
X0197395Y0106400D01*
X0199300Y0106400D01*
X0199300Y0101800D01*
X0194700Y0101800D01*
X0194700Y0099895D01*
X0197395Y0097200D01*
X0199300Y0097200D01*
X0199300Y0099439D02*
X0199300Y0099439D01*
X0199300Y0101038D02*
X0199300Y0101038D01*
X0199300Y0102636D02*
X0199300Y0102636D01*
X0199300Y0104235D02*
X0199300Y0104235D01*
X0199300Y0105833D02*
X0199300Y0105833D01*
X0196828Y0105833D02*
X0192479Y0105833D01*
X0194078Y0104235D02*
X0195229Y0104235D01*
X0194700Y0102636D02*
X0194400Y0102636D01*
X0194400Y0101038D02*
X0194700Y0101038D01*
X0195155Y0099439D02*
X0194152Y0099439D01*
X0192553Y0097841D02*
X0196754Y0097841D01*
X0199211Y0109030D02*
X0176056Y0109030D01*
X0176054Y0109024D02*
X0176800Y0110825D01*
X0176800Y0112775D01*
X0176054Y0114576D01*
X0174676Y0115954D01*
X0172875Y0116700D01*
X0165725Y0116700D01*
X0163924Y0115954D01*
X0162546Y0114576D01*
X0161800Y0112775D01*
X0161800Y0110825D01*
X0162546Y0109024D01*
X0163924Y0107646D01*
X0165725Y0106900D01*
X0172875Y0106900D01*
X0174676Y0107646D01*
X0176054Y0109024D01*
X0176719Y0110629D02*
X0198548Y0110629D01*
X0198500Y0112227D02*
X0176800Y0112227D01*
X0176365Y0113826D02*
X0198902Y0113826D01*
X0199929Y0115424D02*
X0175205Y0115424D01*
X0174676Y0117646D02*
X0172875Y0116900D01*
X0165725Y0116900D01*
X0163924Y0117646D01*
X0162546Y0119024D01*
X0161800Y0120825D01*
X0161800Y0122775D01*
X0162546Y0124576D01*
X0163924Y0125954D01*
X0165725Y0126700D01*
X0172875Y0126700D01*
X0174676Y0125954D01*
X0176054Y0124576D01*
X0176800Y0122775D01*
X0176800Y0120825D01*
X0176054Y0119024D01*
X0174676Y0117646D01*
X0175651Y0118621D02*
X0199483Y0118621D01*
X0198718Y0120220D02*
X0176549Y0120220D01*
X0176800Y0121818D02*
X0181286Y0121818D01*
X0179758Y0123417D02*
X0176534Y0123417D01*
X0175614Y0125015D02*
X0179095Y0125015D01*
X0179000Y0126614D02*
X0173082Y0126614D01*
X0172875Y0126900D02*
X0174676Y0127646D01*
X0176054Y0129024D01*
X0176800Y0130825D01*
X0176800Y0132775D01*
X0176054Y0134576D01*
X0174676Y0135954D01*
X0172875Y0136700D01*
X0165725Y0136700D01*
X0163924Y0135954D01*
X0162546Y0134576D01*
X0161800Y0132775D01*
X0161800Y0130825D01*
X0162546Y0129024D01*
X0163924Y0127646D01*
X0165725Y0126900D01*
X0172875Y0126900D01*
X0175242Y0128212D02*
X0179000Y0128212D01*
X0179000Y0129811D02*
X0176380Y0129811D01*
X0176800Y0131409D02*
X0179000Y0131409D01*
X0179000Y0133008D02*
X0176703Y0133008D01*
X0176023Y0134606D02*
X0179519Y0134606D01*
X0180710Y0136205D02*
X0174070Y0136205D01*
X0172875Y0136900D02*
X0174676Y0137646D01*
X0176054Y0139024D01*
X0176800Y0140825D01*
X0176800Y0142775D01*
X0176054Y0144576D01*
X0174676Y0145954D01*
X0172875Y0146700D01*
X0165725Y0146700D01*
X0163924Y0145954D01*
X0162546Y0144576D01*
X0161800Y0142775D01*
X0161800Y0140825D01*
X0162546Y0139024D01*
X0163924Y0137646D01*
X0165725Y0136900D01*
X0172875Y0136900D01*
X0174833Y0137803D02*
X0185301Y0137803D01*
X0184349Y0139402D02*
X0176210Y0139402D01*
X0176800Y0141001D02*
X0184000Y0141001D01*
X0184000Y0142599D02*
X0176800Y0142599D01*
X0176211Y0144198D02*
X0184000Y0144198D01*
X0184000Y0145796D02*
X0174834Y0145796D01*
X0174069Y0147395D02*
X0184000Y0147395D01*
X0184265Y0148993D02*
X0176023Y0148993D01*
X0176054Y0149024D02*
X0176800Y0150825D01*
X0176800Y0152775D01*
X0176054Y0154576D01*
X0174676Y0155954D01*
X0172875Y0156700D01*
X0165725Y0156700D01*
X0163924Y0155954D01*
X0162546Y0154576D01*
X0161800Y0152775D01*
X0161800Y0150825D01*
X0162546Y0149024D01*
X0163924Y0147646D01*
X0165725Y0146900D01*
X0172875Y0146900D01*
X0174676Y0147646D01*
X0176054Y0149024D01*
X0176703Y0150592D02*
X0185096Y0150592D01*
X0185185Y0152190D02*
X0187256Y0152190D01*
X0187104Y0153789D02*
X0186496Y0153789D01*
X0178415Y0152190D02*
X0176800Y0152190D01*
X0177104Y0153789D02*
X0176380Y0153789D01*
X0176500Y0155387D02*
X0175243Y0155387D01*
X0176500Y0156986D02*
X0128110Y0156986D01*
X0128063Y0156894D02*
X0128378Y0157511D01*
X0128592Y0158170D01*
X0128700Y0158854D01*
X0128700Y0161800D01*
X0128700Y0162685D01*
X0128866Y0162519D01*
X0129628Y0162519D01*
X0130415Y0162106D01*
X0159816Y0159433D01*
X0161639Y0160001D01*
X0161661Y0160019D01*
X0162234Y0160019D01*
X0163581Y0161366D01*
X0163581Y0162128D01*
X0163994Y0162915D01*
X0164167Y0164816D01*
X0163599Y0166639D01*
X0163581Y0166661D01*
X0163581Y0167234D01*
X0162234Y0168581D01*
X0161472Y0168581D01*
X0160685Y0168994D01*
X0131284Y0171667D01*
X0129461Y0171099D01*
X0129439Y0171081D01*
X0128866Y0171081D01*
X0127519Y0169734D01*
X0127519Y0168972D01*
X0127106Y0168185D01*
X0127073Y0167824D01*
X0126606Y0168163D01*
X0125989Y0168478D01*
X0125330Y0168692D01*
X0124646Y0168800D01*
X0124300Y0168800D01*
X0124300Y0161800D01*
X0128700Y0161800D01*
X0124300Y0161800D01*
X0124300Y0161800D01*
X0124300Y0161800D01*
X0124300Y0154800D01*
X0124646Y0154800D01*
X0125330Y0154908D01*
X0125989Y0155122D01*
X0126606Y0155437D01*
X0127166Y0155844D01*
X0127656Y0156334D01*
X0128063Y0156894D01*
X0128657Y0158584D02*
X0176500Y0158584D01*
X0176500Y0160183D02*
X0162398Y0160183D01*
X0163581Y0161781D02*
X0176500Y0161781D01*
X0176511Y0163380D02*
X0164036Y0163380D01*
X0164116Y0164978D02*
X0177173Y0164978D01*
X0178581Y0166577D02*
X0163618Y0166577D01*
X0162640Y0168175D02*
X0253201Y0168175D01*
X0253201Y0166577D02*
X0239943Y0166577D01*
X0239120Y0167400D02*
X0234480Y0167400D01*
X0231200Y0164120D01*
X0231200Y0159480D01*
X0234480Y0156200D01*
X0239120Y0156200D01*
X0242400Y0159480D01*
X0242400Y0164120D01*
X0239120Y0167400D01*
X0241541Y0164978D02*
X0253201Y0164978D01*
X0253201Y0163380D02*
X0242400Y0163380D01*
X0242400Y0161781D02*
X0253201Y0161781D01*
X0253201Y0160183D02*
X0242400Y0160183D01*
X0241504Y0158584D02*
X0253201Y0158584D01*
X0253201Y0156986D02*
X0239905Y0156986D01*
X0233695Y0156986D02*
X0230143Y0156986D01*
X0230143Y0158584D02*
X0232096Y0158584D01*
X0231200Y0160183D02*
X0230143Y0160183D01*
X0230143Y0161781D02*
X0231200Y0161781D01*
X0231200Y0163380D02*
X0230143Y0163380D01*
X0228961Y0164978D02*
X0232059Y0164978D01*
X0233657Y0166577D02*
X0213979Y0166577D01*
X0212000Y0166577D02*
X0211600Y0166577D01*
X0211600Y0164978D02*
X0212000Y0164978D01*
X0212000Y0163380D02*
X0211600Y0163380D01*
X0211600Y0161781D02*
X0212000Y0161781D01*
X0212000Y0160183D02*
X0211600Y0160183D01*
X0212000Y0159100D02*
X0216600Y0159100D01*
X0216600Y0155922D01*
X0216482Y0155176D01*
X0216248Y0154457D01*
X0215905Y0153784D01*
X0215461Y0153173D01*
X0214927Y0152639D01*
X0214316Y0152195D01*
X0213643Y0151852D01*
X0212924Y0151618D01*
X0212178Y0151500D01*
X0212000Y0151500D01*
X0212000Y0159100D01*
X0212000Y0158584D02*
X0211600Y0158584D01*
X0211600Y0156986D02*
X0212000Y0156986D01*
X0212000Y0155387D02*
X0211600Y0155387D01*
X0211600Y0153789D02*
X0212000Y0153789D01*
X0212000Y0152190D02*
X0211600Y0152190D01*
X0209293Y0152190D02*
X0205185Y0152190D01*
X0206496Y0153789D02*
X0207692Y0153789D01*
X0202797Y0150592D02*
X0219706Y0150592D01*
X0219972Y0152190D02*
X0214307Y0152190D01*
X0215908Y0153789D02*
X0219472Y0153789D01*
X0218457Y0155387D02*
X0216515Y0155387D01*
X0216600Y0156986D02*
X0218457Y0156986D01*
X0218457Y0158584D02*
X0216600Y0158584D01*
X0216600Y0160183D02*
X0218457Y0160183D01*
X0218457Y0161781D02*
X0216600Y0161781D01*
X0216489Y0163380D02*
X0218457Y0163380D01*
X0219639Y0164978D02*
X0215787Y0164978D01*
X0209621Y0166577D02*
X0205019Y0166577D01*
X0206427Y0164978D02*
X0207813Y0164978D01*
X0207111Y0163380D02*
X0207089Y0163380D01*
X0198581Y0166577D02*
X0195019Y0166577D01*
X0196427Y0164978D02*
X0197173Y0164978D01*
X0188581Y0166577D02*
X0185019Y0166577D01*
X0186427Y0164978D02*
X0187173Y0164978D01*
X0200050Y0177766D02*
X0125644Y0177766D01*
X0125713Y0178024D02*
X0125491Y0177198D01*
X0125164Y0176408D01*
X0124736Y0175667D01*
X0124216Y0174989D01*
X0123611Y0174384D01*
X0122933Y0173864D01*
X0122192Y0173436D01*
X0121402Y0173109D01*
X0120576Y0172887D01*
X0120075Y0172821D01*
X0120075Y0178525D01*
X0120075Y0180075D01*
X0125779Y0180075D01*
X0125713Y0180576D01*
X0125491Y0181402D01*
X0125164Y0182192D01*
X0124736Y0182933D01*
X0124216Y0183611D01*
X0123611Y0184216D01*
X0122933Y0184736D01*
X0122192Y0185164D01*
X0121402Y0185491D01*
X0120576Y0185713D01*
X0120075Y0185779D01*
X0120075Y0180075D01*
X0118525Y0180075D01*
X0118525Y0185779D01*
X0118024Y0185713D01*
X0117198Y0185491D01*
X0116408Y0185164D01*
X0115667Y0184736D01*
X0114989Y0184216D01*
X0114384Y0183611D01*
X0113864Y0182933D01*
X0113436Y0182192D01*
X0113109Y0181402D01*
X0112887Y0180576D01*
X0112821Y0180075D01*
X0118525Y0180075D01*
X0118525Y0178525D01*
X0120075Y0178525D01*
X0125779Y0178525D01*
X0125713Y0178024D01*
X0125025Y0176168D02*
X0202581Y0176168D01*
X0203138Y0175937D02*
X0205462Y0175937D01*
X0207610Y0176827D01*
X0209254Y0178470D01*
X0210143Y0180618D01*
X0210143Y0182943D01*
X0209254Y0185090D01*
X0207610Y0186734D01*
X0205462Y0187624D01*
X0203138Y0187624D01*
X0200990Y0186734D01*
X0199346Y0185090D01*
X0198457Y0182943D01*
X0198457Y0180618D01*
X0199346Y0178470D01*
X0200990Y0176827D01*
X0203138Y0175937D01*
X0206019Y0176168D02*
X0253201Y0176168D01*
X0253201Y0177766D02*
X0208550Y0177766D01*
X0209624Y0179365D02*
X0253201Y0179365D01*
X0253201Y0180963D02*
X0210143Y0180963D01*
X0210143Y0182562D02*
X0253201Y0182562D01*
X0253201Y0184160D02*
X0209639Y0184160D01*
X0208585Y0185759D02*
X0253201Y0185759D01*
X0253201Y0187357D02*
X0206105Y0187357D01*
X0202495Y0187357D02*
X0050353Y0187357D01*
X0050836Y0185759D02*
X0086537Y0185759D01*
X0085321Y0185255D02*
X0087903Y0186324D01*
X0090697Y0186324D01*
X0093279Y0185255D01*
X0095255Y0183279D01*
X0096324Y0180697D01*
X0096324Y0177903D01*
X0095255Y0175321D01*
X0093279Y0173345D01*
X0090697Y0172276D01*
X0087903Y0172276D01*
X0085321Y0173345D01*
X0083345Y0175321D01*
X0082276Y0177903D01*
X0082276Y0180697D01*
X0083345Y0183279D01*
X0085321Y0185255D01*
X0084226Y0184160D02*
X0052059Y0184160D01*
X0052600Y0182562D02*
X0083048Y0182562D01*
X0082386Y0180963D02*
X0052600Y0180963D01*
X0052028Y0179365D02*
X0082276Y0179365D01*
X0082332Y0177766D02*
X0050762Y0177766D01*
X0050428Y0176168D02*
X0082994Y0176168D01*
X0084097Y0174569D02*
X0051890Y0174569D01*
X0052552Y0172971D02*
X0086224Y0172971D01*
X0084688Y0171900D02*
X0081700Y0168912D01*
X0081700Y0164688D01*
X0084688Y0161700D01*
X0088912Y0161700D01*
X0089400Y0162188D01*
X0089400Y0158225D01*
X0090146Y0156424D01*
X0091524Y0155046D01*
X0093325Y0154300D01*
X0095275Y0154300D01*
X0097076Y0155046D01*
X0098454Y0156424D01*
X0099200Y0158225D01*
X0099200Y0165375D01*
X0098454Y0167176D01*
X0097076Y0168554D01*
X0095275Y0169300D01*
X0093325Y0169300D01*
X0091900Y0168710D01*
X0091900Y0168912D01*
X0088912Y0171900D01*
X0084688Y0171900D01*
X0084160Y0171372D02*
X0078733Y0171372D01*
X0078705Y0171400D02*
X0076800Y0171400D01*
X0076800Y0166800D01*
X0081400Y0166800D01*
X0081400Y0168705D01*
X0078705Y0171400D01*
X0076800Y0171400D02*
X0074895Y0171400D01*
X0072200Y0168705D01*
X0072200Y0166800D01*
X0076800Y0166800D01*
X0076800Y0166800D01*
X0076800Y0166800D01*
X0081400Y0166800D01*
X0081400Y0164895D01*
X0078705Y0162200D01*
X0076800Y0162200D01*
X0076800Y0166800D01*
X0076800Y0166800D01*
X0076800Y0166800D01*
X0076800Y0171400D01*
X0076800Y0171372D02*
X0076800Y0171372D01*
X0076800Y0169774D02*
X0076800Y0169774D01*
X0076800Y0168175D02*
X0076800Y0168175D01*
X0076800Y0166800D02*
X0072200Y0166800D01*
X0072200Y0164895D01*
X0074895Y0162200D01*
X0076800Y0162200D01*
X0076800Y0166800D01*
X0076800Y0166577D02*
X0076800Y0166577D01*
X0076800Y0164978D02*
X0076800Y0164978D01*
X0076800Y0163380D02*
X0076800Y0163380D01*
X0079885Y0163380D02*
X0083008Y0163380D01*
X0081700Y0164978D02*
X0081400Y0164978D01*
X0081400Y0166577D02*
X0081700Y0166577D01*
X0081700Y0168175D02*
X0081400Y0168175D01*
X0080332Y0169774D02*
X0082561Y0169774D01*
X0089440Y0171372D02*
X0130339Y0171372D01*
X0127559Y0169774D02*
X0091039Y0169774D01*
X0092375Y0172971D02*
X0117713Y0172971D01*
X0118024Y0172887D02*
X0118525Y0172821D01*
X0118525Y0178525D01*
X0112821Y0178525D01*
X0112887Y0178024D01*
X0113109Y0177198D01*
X0113436Y0176408D01*
X0113864Y0175667D01*
X0114384Y0174989D01*
X0114989Y0174384D01*
X0115667Y0173864D01*
X0116408Y0173436D01*
X0117198Y0173109D01*
X0118024Y0172887D01*
X0118525Y0172971D02*
X0120075Y0172971D01*
X0120887Y0172971D02*
X0253201Y0172971D01*
X0253201Y0174569D02*
X0123796Y0174569D01*
X0120075Y0174569D02*
X0118525Y0174569D01*
X0118525Y0176168D02*
X0120075Y0176168D01*
X0120075Y0177766D02*
X0118525Y0177766D01*
X0118525Y0179365D02*
X0110143Y0179365D01*
X0110143Y0180462D02*
X0109254Y0182610D01*
X0107610Y0184254D01*
X0105462Y0185143D01*
X0103138Y0185143D01*
X0100990Y0184254D01*
X0099346Y0182610D01*
X0098457Y0180462D01*
X0098457Y0178138D01*
X0099346Y0175990D01*
X0100990Y0174346D01*
X0103138Y0173457D01*
X0105462Y0173457D01*
X0107610Y0174346D01*
X0109254Y0175990D01*
X0110143Y0178138D01*
X0110143Y0180462D01*
X0109936Y0180963D02*
X0112991Y0180963D01*
X0113649Y0182562D02*
X0109274Y0182562D01*
X0107703Y0184160D02*
X0114933Y0184160D01*
X0118525Y0184160D02*
X0120075Y0184160D01*
X0120075Y0182562D02*
X0118525Y0182562D01*
X0118525Y0180963D02*
X0120075Y0180963D01*
X0120075Y0179365D02*
X0198976Y0179365D01*
X0198457Y0180963D02*
X0125609Y0180963D01*
X0124951Y0182562D02*
X0198457Y0182562D01*
X0198961Y0184160D02*
X0123667Y0184160D01*
X0120226Y0185759D02*
X0200015Y0185759D01*
X0193611Y0194384D02*
X0194216Y0194989D01*
X0194736Y0195667D01*
X0195164Y0196408D01*
X0195491Y0197198D01*
X0195713Y0198024D01*
X0195779Y0198525D01*
X0190075Y0198525D01*
X0190075Y0200075D01*
X0195779Y0200075D01*
X0195713Y0200576D01*
X0195491Y0201402D01*
X0195164Y0202192D01*
X0194736Y0202933D01*
X0194216Y0203611D01*
X0193611Y0204216D01*
X0192933Y0204736D01*
X0192192Y0205164D01*
X0191402Y0205491D01*
X0190576Y0205713D01*
X0190075Y0205779D01*
X0190075Y0200075D01*
X0188525Y0200075D01*
X0188525Y0205779D01*
X0188024Y0205713D01*
X0187198Y0205491D01*
X0186408Y0205164D01*
X0185667Y0204736D01*
X0184989Y0204216D01*
X0184384Y0203611D01*
X0183864Y0202933D01*
X0183436Y0202192D01*
X0183109Y0201402D01*
X0182887Y0200576D01*
X0182821Y0200075D01*
X0188525Y0200075D01*
X0188525Y0198525D01*
X0190075Y0198525D01*
X0190075Y0192821D01*
X0190576Y0192887D01*
X0191402Y0193109D01*
X0192192Y0193436D01*
X0192933Y0193864D01*
X0193611Y0194384D01*
X0192738Y0193751D02*
X0212960Y0193751D01*
X0213345Y0192821D02*
X0215321Y0190845D01*
X0217903Y0189776D01*
X0220697Y0189776D01*
X0223279Y0190845D01*
X0225255Y0192821D01*
X0226324Y0195403D01*
X0226324Y0198197D01*
X0225255Y0200779D01*
X0223279Y0202755D01*
X0220697Y0203824D01*
X0217903Y0203824D01*
X0215321Y0202755D01*
X0213345Y0200779D01*
X0212276Y0198197D01*
X0212276Y0195403D01*
X0213345Y0192821D01*
X0214013Y0192153D02*
X0052600Y0192153D01*
X0052521Y0190554D02*
X0216023Y0190554D01*
X0212297Y0195350D02*
X0194493Y0195350D01*
X0195388Y0196948D02*
X0212276Y0196948D01*
X0212420Y0198547D02*
X0190075Y0198547D01*
X0188525Y0198547D02*
X0109591Y0198547D01*
X0109643Y0198879D02*
X0109643Y0198919D01*
X0104681Y0198919D01*
X0104681Y0199681D01*
X0109643Y0199681D01*
X0109643Y0199721D01*
X0109512Y0200551D01*
X0109252Y0201351D01*
X0108870Y0202100D01*
X0108376Y0202781D01*
X0107781Y0203376D01*
X0107100Y0203870D01*
X0106351Y0204252D01*
X0105551Y0204512D01*
X0104721Y0204643D01*
X0104681Y0204643D01*
X0104681Y0199681D01*
X0103919Y0199681D01*
X0103919Y0198919D01*
X0104681Y0198919D01*
X0104681Y0193957D01*
X0104721Y0193957D01*
X0105551Y0194088D01*
X0106351Y0194348D01*
X0107100Y0194730D01*
X0107781Y0195224D01*
X0108376Y0195819D01*
X0108870Y0196499D01*
X0109252Y0197249D01*
X0109512Y0198049D01*
X0109643Y0198879D01*
X0109576Y0200145D02*
X0182831Y0200145D01*
X0182821Y0198525D02*
X0182887Y0198024D01*
X0183109Y0197198D01*
X0183436Y0196408D01*
X0183864Y0195667D01*
X0184384Y0194989D01*
X0184989Y0194384D01*
X0185667Y0193864D01*
X0186408Y0193436D01*
X0187198Y0193109D01*
X0188024Y0192887D01*
X0188525Y0192821D01*
X0188525Y0198525D01*
X0182821Y0198525D01*
X0183212Y0196948D02*
X0109099Y0196948D01*
X0107906Y0195350D02*
X0184107Y0195350D01*
X0185862Y0193751D02*
X0052228Y0193751D01*
X0051245Y0195350D02*
X0100694Y0195350D01*
X0100819Y0195224D02*
X0101499Y0194730D01*
X0102249Y0194348D01*
X0103049Y0194088D01*
X0103879Y0193957D01*
X0103919Y0193957D01*
X0103919Y0198919D01*
X0098957Y0198919D01*
X0098957Y0198879D01*
X0099088Y0198049D01*
X0099348Y0197249D01*
X0099730Y0196499D01*
X0100224Y0195819D01*
X0100819Y0195224D01*
X0099501Y0196948D02*
X0049511Y0196948D01*
X0047155Y0198547D02*
X0099009Y0198547D01*
X0098957Y0199681D02*
X0103919Y0199681D01*
X0103919Y0204643D01*
X0103879Y0204643D01*
X0103049Y0204512D01*
X0102249Y0204252D01*
X0101499Y0203870D01*
X0100819Y0203376D01*
X0100224Y0202781D01*
X0099730Y0202100D01*
X0099348Y0201351D01*
X0099088Y0200551D01*
X0098957Y0199721D01*
X0098957Y0199681D01*
X0099024Y0200145D02*
X0040799Y0200145D01*
X0041698Y0201744D02*
X0099548Y0201744D01*
X0100786Y0203342D02*
X0042126Y0203342D01*
X0042399Y0204941D02*
X0186022Y0204941D01*
X0184178Y0203342D02*
X0107814Y0203342D01*
X0109052Y0201744D02*
X0183250Y0201744D01*
X0188525Y0201744D02*
X0190075Y0201744D01*
X0190075Y0203342D02*
X0188525Y0203342D01*
X0188525Y0204941D02*
X0190075Y0204941D01*
X0192578Y0204941D02*
X0253201Y0204941D01*
X0253201Y0206539D02*
X0221338Y0206539D01*
X0220881Y0206350D02*
X0223803Y0207561D01*
X0226039Y0209797D01*
X0227250Y0212719D01*
X0227250Y0215881D01*
X0226039Y0218803D01*
X0223803Y0221039D01*
X0220881Y0222250D01*
X0217719Y0222250D01*
X0214797Y0221039D01*
X0212561Y0218803D01*
X0211350Y0215881D01*
X0211350Y0212719D01*
X0212561Y0209797D01*
X0214797Y0207561D01*
X0217719Y0206350D01*
X0220881Y0206350D01*
X0221861Y0203342D02*
X0253201Y0203342D01*
X0253201Y0201744D02*
X0224290Y0201744D01*
X0225517Y0200145D02*
X0253201Y0200145D01*
X0253201Y0198547D02*
X0226180Y0198547D01*
X0226324Y0196948D02*
X0253201Y0196948D01*
X0253201Y0195350D02*
X0226302Y0195350D01*
X0225640Y0193751D02*
X0253201Y0193751D01*
X0253201Y0192153D02*
X0224587Y0192153D01*
X0222577Y0190554D02*
X0253201Y0190554D01*
X0253201Y0188956D02*
X0051859Y0188956D01*
X0052600Y0171372D02*
X0074867Y0171372D01*
X0073268Y0169774D02*
X0052197Y0169774D01*
X0051171Y0168175D02*
X0072200Y0168175D01*
X0072200Y0166577D02*
X0049618Y0166577D01*
X0051617Y0164978D02*
X0072200Y0164978D01*
X0073715Y0163380D02*
X0052382Y0163380D01*
X0052600Y0161781D02*
X0084606Y0161781D01*
X0088994Y0161781D02*
X0089400Y0161781D01*
X0089400Y0160183D02*
X0052367Y0160183D01*
X0051579Y0158584D02*
X0089400Y0158584D01*
X0089913Y0156986D02*
X0049527Y0156986D01*
X0039073Y0156986D02*
X0034100Y0156986D01*
X0034100Y0158584D02*
X0037021Y0158584D01*
X0036233Y0160183D02*
X0034100Y0160183D01*
X0034100Y0161781D02*
X0036000Y0161781D01*
X0036218Y0163380D02*
X0034100Y0163380D01*
X0034100Y0155387D02*
X0091183Y0155387D01*
X0097417Y0155387D02*
X0101183Y0155387D01*
X0101524Y0155046D02*
X0103325Y0154300D01*
X0105275Y0154300D01*
X0107076Y0155046D01*
X0108454Y0156424D01*
X0109200Y0158225D01*
X0109200Y0165375D01*
X0108454Y0167176D01*
X0107076Y0168554D01*
X0105275Y0169300D01*
X0103325Y0169300D01*
X0101524Y0168554D01*
X0100146Y0167176D01*
X0099400Y0165375D01*
X0099400Y0158225D01*
X0100146Y0156424D01*
X0101524Y0155046D01*
X0099913Y0156986D02*
X0098686Y0156986D01*
X0099200Y0158584D02*
X0099400Y0158584D01*
X0099400Y0160183D02*
X0099200Y0160183D01*
X0099200Y0161781D02*
X0099400Y0161781D01*
X0099400Y0163380D02*
X0099200Y0163380D01*
X0099200Y0164978D02*
X0099400Y0164978D01*
X0099898Y0166577D02*
X0098702Y0166577D01*
X0097454Y0168175D02*
X0101146Y0168175D01*
X0107454Y0168175D02*
X0111146Y0168175D01*
X0111524Y0168554D02*
X0110146Y0167176D01*
X0109400Y0165375D01*
X0109400Y0158225D01*
X0110146Y0156424D01*
X0111524Y0155046D01*
X0113325Y0154300D01*
X0115275Y0154300D01*
X0117076Y0155046D01*
X0118454Y0156424D01*
X0119200Y0158225D01*
X0119200Y0165375D01*
X0118454Y0167176D01*
X0117076Y0168554D01*
X0115275Y0169300D01*
X0113325Y0169300D01*
X0111524Y0168554D01*
X0109898Y0166577D02*
X0108702Y0166577D01*
X0109200Y0164978D02*
X0109400Y0164978D01*
X0109400Y0163380D02*
X0109200Y0163380D01*
X0109200Y0161781D02*
X0109400Y0161781D01*
X0109400Y0160183D02*
X0109200Y0160183D01*
X0109200Y0158584D02*
X0109400Y0158584D01*
X0109913Y0156986D02*
X0108686Y0156986D01*
X0107417Y0155387D02*
X0111183Y0155387D01*
X0117417Y0155387D02*
X0122091Y0155387D01*
X0121994Y0155437D02*
X0122611Y0155122D01*
X0123270Y0154908D01*
X0123954Y0154800D01*
X0124300Y0154800D01*
X0124300Y0161800D01*
X0124300Y0161800D01*
X0124300Y0161800D01*
X0119900Y0161800D01*
X0119900Y0164746D01*
X0120008Y0165430D01*
X0120222Y0166089D01*
X0120537Y0166706D01*
X0120944Y0167266D01*
X0121434Y0167756D01*
X0121994Y0168163D01*
X0122611Y0168478D01*
X0123270Y0168692D01*
X0123954Y0168800D01*
X0124300Y0168800D01*
X0124300Y0161800D01*
X0119900Y0161800D01*
X0119900Y0158854D01*
X0120008Y0158170D01*
X0120222Y0157511D01*
X0120537Y0156894D01*
X0120944Y0156334D01*
X0121434Y0155844D01*
X0121994Y0155437D01*
X0120490Y0156986D02*
X0118686Y0156986D01*
X0119200Y0158584D02*
X0119943Y0158584D01*
X0119900Y0160183D02*
X0119200Y0160183D01*
X0119200Y0161781D02*
X0119900Y0161781D01*
X0119900Y0163380D02*
X0119200Y0163380D01*
X0119200Y0164978D02*
X0119937Y0164978D01*
X0120471Y0166577D02*
X0118702Y0166577D01*
X0117454Y0168175D02*
X0122017Y0168175D01*
X0124300Y0168175D02*
X0124300Y0168175D01*
X0124300Y0166577D02*
X0124300Y0166577D01*
X0124300Y0164978D02*
X0124300Y0164978D01*
X0124300Y0163380D02*
X0124300Y0163380D01*
X0124300Y0161781D02*
X0124300Y0161781D01*
X0124300Y0160183D02*
X0124300Y0160183D01*
X0124300Y0158584D02*
X0124300Y0158584D01*
X0124300Y0156986D02*
X0124300Y0156986D01*
X0124300Y0155387D02*
X0124300Y0155387D01*
X0126509Y0155387D02*
X0133357Y0155387D01*
X0133924Y0155954D02*
X0132546Y0154576D01*
X0131800Y0152775D01*
X0131800Y0150825D01*
X0132546Y0149024D01*
X0133924Y0147646D01*
X0135725Y0146900D01*
X0142875Y0146900D01*
X0144676Y0147646D01*
X0146054Y0149024D01*
X0146800Y0150825D01*
X0146800Y0152775D01*
X0146054Y0154576D01*
X0144676Y0155954D01*
X0142875Y0156700D01*
X0135725Y0156700D01*
X0133924Y0155954D01*
X0132220Y0153789D02*
X0034100Y0153789D01*
X0034100Y0152190D02*
X0131800Y0152190D01*
X0131897Y0150592D02*
X0034100Y0150592D01*
X0034100Y0148993D02*
X0078998Y0148993D01*
X0079605Y0149600D02*
X0076500Y0146495D01*
X0076500Y0142105D01*
X0079605Y0139000D01*
X0083995Y0139000D01*
X0087100Y0142105D01*
X0087100Y0146495D01*
X0083995Y0149600D01*
X0079605Y0149600D01*
X0077399Y0147395D02*
X0034100Y0147395D01*
X0034100Y0145796D02*
X0076500Y0145796D01*
X0076500Y0144198D02*
X0034100Y0144198D01*
X0034100Y0142599D02*
X0076500Y0142599D01*
X0077604Y0141001D02*
X0034100Y0141001D01*
X0034100Y0139402D02*
X0079203Y0139402D01*
X0084397Y0139402D02*
X0132390Y0139402D01*
X0132546Y0139024D02*
X0133924Y0137646D01*
X0135725Y0136900D01*
X0142875Y0136900D01*
X0144676Y0137646D01*
X0146054Y0139024D01*
X0146800Y0140825D01*
X0146800Y0142775D01*
X0146054Y0144576D01*
X0144676Y0145954D01*
X0142875Y0146700D01*
X0135725Y0146700D01*
X0133924Y0145954D01*
X0132546Y0144576D01*
X0131800Y0142775D01*
X0131800Y0140825D01*
X0132546Y0139024D01*
X0133767Y0137803D02*
X0127826Y0137803D01*
X0128454Y0137176D02*
X0127076Y0138554D01*
X0125275Y0139300D01*
X0123325Y0139300D01*
X0121524Y0138554D01*
X0120146Y0137176D01*
X0119400Y0135375D01*
X0119400Y0128225D01*
X0120146Y0126424D01*
X0121524Y0125046D01*
X0123325Y0124300D01*
X0125275Y0124300D01*
X0127076Y0125046D01*
X0128454Y0126424D01*
X0129200Y0128225D01*
X0129200Y0135375D01*
X0128454Y0137176D01*
X0128856Y0136205D02*
X0134530Y0136205D01*
X0133924Y0135954D02*
X0132546Y0134576D01*
X0131800Y0132775D01*
X0131800Y0130825D01*
X0132546Y0129024D01*
X0133924Y0127646D01*
X0135725Y0126900D01*
X0142875Y0126900D01*
X0144676Y0127646D01*
X0146054Y0129024D01*
X0146800Y0130825D01*
X0146800Y0132775D01*
X0146054Y0134576D01*
X0144676Y0135954D01*
X0142875Y0136700D01*
X0135725Y0136700D01*
X0133924Y0135954D01*
X0132577Y0134606D02*
X0129200Y0134606D01*
X0129200Y0133008D02*
X0131897Y0133008D01*
X0131800Y0131409D02*
X0129200Y0131409D01*
X0129200Y0129811D02*
X0132220Y0129811D01*
X0133358Y0128212D02*
X0129195Y0128212D01*
X0128533Y0126614D02*
X0135518Y0126614D01*
X0135725Y0126700D02*
X0133924Y0125954D01*
X0132546Y0124576D01*
X0131800Y0122775D01*
X0131800Y0120825D01*
X0132546Y0119024D01*
X0133924Y0117646D01*
X0135725Y0116900D01*
X0142875Y0116900D01*
X0144676Y0117646D01*
X0146054Y0119024D01*
X0146800Y0120825D01*
X0146800Y0122775D01*
X0146054Y0124576D01*
X0144676Y0125954D01*
X0142875Y0126700D01*
X0135725Y0126700D01*
X0132986Y0125015D02*
X0127002Y0125015D01*
X0132066Y0123417D02*
X0079600Y0123417D01*
X0079600Y0125015D02*
X0091598Y0125015D01*
X0091524Y0125046D02*
X0093325Y0124300D01*
X0095275Y0124300D01*
X0097076Y0125046D01*
X0098454Y0126424D01*
X0099200Y0128225D01*
X0099200Y0135375D01*
X0098454Y0137176D01*
X0097076Y0138554D01*
X0095275Y0139300D01*
X0093325Y0139300D01*
X0091524Y0138554D01*
X0090146Y0137176D01*
X0089400Y0135375D01*
X0089400Y0128225D01*
X0090146Y0126424D01*
X0091524Y0125046D01*
X0090067Y0126614D02*
X0079600Y0126614D01*
X0079600Y0128212D02*
X0089405Y0128212D01*
X0089400Y0129811D02*
X0078997Y0129811D01*
X0078793Y0130302D02*
X0077302Y0131793D01*
X0075354Y0132600D01*
X0073246Y0132600D01*
X0071298Y0131793D01*
X0069807Y0130302D01*
X0069300Y0129078D01*
X0068793Y0130302D01*
X0067302Y0131793D01*
X0065354Y0132600D01*
X0063246Y0132600D01*
X0061298Y0131793D01*
X0059807Y0130302D01*
X0059000Y0128354D01*
X0059000Y0128309D01*
X0058982Y0128424D01*
X0058748Y0129143D01*
X0058405Y0129816D01*
X0057961Y0130427D01*
X0057427Y0130961D01*
X0056816Y0131405D01*
X0056143Y0131748D01*
X0055424Y0131982D01*
X0054678Y0132100D01*
X0054500Y0132100D01*
X0054500Y0124500D01*
X0054100Y0124500D01*
X0054100Y0132100D01*
X0053922Y0132100D01*
X0053176Y0131982D01*
X0052457Y0131748D01*
X0051784Y0131405D01*
X0051173Y0130961D01*
X0050639Y0130427D01*
X0050195Y0129816D01*
X0049852Y0129143D01*
X0049618Y0128424D01*
X0049500Y0127678D01*
X0049500Y0124500D01*
X0054100Y0124500D01*
X0054100Y0124100D01*
X0049500Y0124100D01*
X0049500Y0120922D01*
X0049618Y0120176D01*
X0049852Y0119457D01*
X0050195Y0118784D01*
X0050639Y0118173D01*
X0051173Y0117639D01*
X0051784Y0117195D01*
X0052457Y0116852D01*
X0053176Y0116618D01*
X0053922Y0116500D01*
X0054100Y0116500D01*
X0054100Y0124100D01*
X0054500Y0124100D01*
X0054500Y0116500D01*
X0054678Y0116500D01*
X0055424Y0116618D01*
X0056143Y0116852D01*
X0056816Y0117195D01*
X0057427Y0117639D01*
X0057961Y0118173D01*
X0058405Y0118784D01*
X0058748Y0119457D01*
X0058982Y0120176D01*
X0059000Y0120291D01*
X0059000Y0120246D01*
X0059807Y0118298D01*
X0061298Y0116807D01*
X0063246Y0116000D01*
X0065354Y0116000D01*
X0067302Y0116807D01*
X0068793Y0118298D01*
X0069300Y0119522D01*
X0069807Y0118298D01*
X0071298Y0116807D01*
X0073246Y0116000D01*
X0075354Y0116000D01*
X0077302Y0116807D01*
X0078793Y0118298D01*
X0079600Y0120246D01*
X0079600Y0128354D01*
X0078793Y0130302D01*
X0077686Y0131409D02*
X0089400Y0131409D01*
X0089400Y0133008D02*
X0034100Y0133008D01*
X0034100Y0134606D02*
X0089400Y0134606D01*
X0089744Y0136205D02*
X0034100Y0136205D01*
X0034100Y0137803D02*
X0090774Y0137803D01*
X0085996Y0141001D02*
X0131800Y0141001D01*
X0131800Y0142599D02*
X0087100Y0142599D01*
X0087100Y0144198D02*
X0132389Y0144198D01*
X0133766Y0145796D02*
X0087100Y0145796D01*
X0086201Y0147395D02*
X0134531Y0147395D01*
X0132577Y0148993D02*
X0084602Y0148993D01*
X0097826Y0137803D02*
X0100774Y0137803D01*
X0100146Y0137176D02*
X0099400Y0135375D01*
X0099400Y0128225D01*
X0100146Y0126424D01*
X0101524Y0125046D01*
X0103325Y0124300D01*
X0105275Y0124300D01*
X0107076Y0125046D01*
X0108454Y0126424D01*
X0109200Y0128225D01*
X0109200Y0135375D01*
X0108454Y0137176D01*
X0107076Y0138554D01*
X0105275Y0139300D01*
X0103325Y0139300D01*
X0101524Y0138554D01*
X0100146Y0137176D01*
X0099744Y0136205D02*
X0098856Y0136205D01*
X0099200Y0134606D02*
X0099400Y0134606D01*
X0099400Y0133008D02*
X0099200Y0133008D01*
X0099200Y0131409D02*
X0099400Y0131409D01*
X0099400Y0129811D02*
X0099200Y0129811D01*
X0099195Y0128212D02*
X0099405Y0128212D01*
X0100067Y0126614D02*
X0098533Y0126614D01*
X0097002Y0125015D02*
X0101598Y0125015D01*
X0107002Y0125015D02*
X0111598Y0125015D01*
X0111524Y0125046D02*
X0113325Y0124300D01*
X0115275Y0124300D01*
X0117076Y0125046D01*
X0118454Y0126424D01*
X0119200Y0128225D01*
X0119200Y0135375D01*
X0118454Y0137176D01*
X0117076Y0138554D01*
X0115275Y0139300D01*
X0113325Y0139300D01*
X0111524Y0138554D01*
X0110146Y0137176D01*
X0109400Y0135375D01*
X0109400Y0128225D01*
X0110146Y0126424D01*
X0111524Y0125046D01*
X0110067Y0126614D02*
X0108533Y0126614D01*
X0109195Y0128212D02*
X0109405Y0128212D01*
X0109400Y0129811D02*
X0109200Y0129811D01*
X0109200Y0131409D02*
X0109400Y0131409D01*
X0109400Y0133008D02*
X0109200Y0133008D01*
X0109200Y0134606D02*
X0109400Y0134606D01*
X0109744Y0136205D02*
X0108856Y0136205D01*
X0107826Y0137803D02*
X0110774Y0137803D01*
X0117826Y0137803D02*
X0120774Y0137803D01*
X0119744Y0136205D02*
X0118856Y0136205D01*
X0119200Y0134606D02*
X0119400Y0134606D01*
X0119400Y0133008D02*
X0119200Y0133008D01*
X0119200Y0131409D02*
X0119400Y0131409D01*
X0119400Y0129811D02*
X0119200Y0129811D01*
X0119195Y0128212D02*
X0119405Y0128212D01*
X0120067Y0126614D02*
X0118533Y0126614D01*
X0117002Y0125015D02*
X0121598Y0125015D01*
X0123202Y0118621D02*
X0090398Y0118621D01*
X0089120Y0119900D02*
X0084480Y0119900D01*
X0081200Y0116620D01*
X0081200Y0111980D01*
X0084480Y0108700D01*
X0089120Y0108700D01*
X0092400Y0111980D01*
X0092400Y0116620D01*
X0089120Y0119900D01*
X0091997Y0117023D02*
X0121603Y0117023D01*
X0121200Y0115424D02*
X0092400Y0115424D01*
X0092400Y0113826D02*
X0121200Y0113826D01*
X0121200Y0112227D02*
X0092400Y0112227D01*
X0091048Y0110629D02*
X0122552Y0110629D01*
X0124150Y0109030D02*
X0089450Y0109030D01*
X0084150Y0109030D02*
X0083999Y0109030D01*
X0082552Y0110629D02*
X0082401Y0110629D01*
X0081200Y0112227D02*
X0034100Y0112227D01*
X0034100Y0110629D02*
X0056906Y0110629D01*
X0055308Y0109030D02*
X0034100Y0109030D01*
X0034100Y0107432D02*
X0054900Y0107432D01*
X0054900Y0105833D02*
X0034100Y0105833D01*
X0034100Y0104235D02*
X0055643Y0104235D01*
X0057241Y0102636D02*
X0034100Y0102636D01*
X0034100Y0101038D02*
X0057315Y0101038D01*
X0055717Y0099439D02*
X0034100Y0099439D01*
X0034100Y0097841D02*
X0054900Y0097841D01*
X0054900Y0096242D02*
X0034100Y0096242D01*
X0034100Y0094644D02*
X0055234Y0094644D01*
X0056832Y0093045D02*
X0034100Y0093045D01*
X0034100Y0091447D02*
X0094400Y0091447D01*
X0094598Y0089848D02*
X0034100Y0089848D01*
X0034100Y0088250D02*
X0095421Y0088250D01*
X0078459Y0083454D02*
X0034100Y0083454D01*
X0034100Y0081856D02*
X0076860Y0081856D01*
X0076500Y0080257D02*
X0034100Y0080257D01*
X0034100Y0078659D02*
X0076500Y0078659D01*
X0076545Y0077060D02*
X0034100Y0077060D01*
X0034100Y0075462D02*
X0078143Y0075462D01*
X0078225Y0065870D02*
X0110451Y0065870D01*
X0108852Y0064272D02*
X0079220Y0064272D01*
X0079600Y0062673D02*
X0108700Y0062673D01*
X0108700Y0061075D02*
X0079600Y0061075D01*
X0079600Y0059476D02*
X0108704Y0059476D01*
X0110302Y0057878D02*
X0079600Y0057878D01*
X0079600Y0056279D02*
X0085860Y0056279D01*
X0084261Y0054681D02*
X0079366Y0054681D01*
X0078578Y0053082D02*
X0083700Y0053082D01*
X0083700Y0051484D02*
X0076522Y0051484D01*
X0072078Y0051484D02*
X0066522Y0051484D01*
X0068578Y0053082D02*
X0070022Y0053082D01*
X0071193Y0046688D02*
X0067407Y0046688D01*
X0068881Y0045090D02*
X0069719Y0045090D01*
X0077407Y0046688D02*
X0086269Y0046688D01*
X0084670Y0045090D02*
X0078881Y0045090D01*
X0079543Y0043491D02*
X0083700Y0043491D01*
X0083700Y0041893D02*
X0079600Y0041893D01*
X0079600Y0040294D02*
X0083700Y0040294D01*
X0084485Y0038696D02*
X0079600Y0038696D01*
X0070803Y0032302D02*
X0067797Y0032302D01*
X0069043Y0033900D02*
X0069557Y0033900D01*
X0060803Y0032302D02*
X0056963Y0032302D01*
X0058464Y0033900D02*
X0059557Y0033900D01*
X0054500Y0033900D02*
X0054100Y0033900D01*
X0054100Y0032302D02*
X0054500Y0032302D01*
X0054500Y0035499D02*
X0054100Y0035499D01*
X0054100Y0037097D02*
X0054500Y0037097D01*
X0054500Y0038696D02*
X0054100Y0038696D01*
X0054100Y0040294D02*
X0054500Y0040294D01*
X0054500Y0041893D02*
X0054100Y0041893D01*
X0054100Y0043491D02*
X0054500Y0043491D01*
X0054500Y0045090D02*
X0054100Y0045090D01*
X0054100Y0046688D02*
X0054500Y0046688D01*
X0056260Y0046688D02*
X0061193Y0046688D01*
X0059719Y0045090D02*
X0058206Y0045090D01*
X0058960Y0043491D02*
X0059057Y0043491D01*
X0054500Y0053082D02*
X0054100Y0053082D01*
X0054100Y0061075D02*
X0054500Y0061075D01*
X0054500Y0062673D02*
X0054100Y0062673D01*
X0054100Y0064272D02*
X0054500Y0064272D01*
X0054500Y0065870D02*
X0054100Y0065870D01*
X0057518Y0065870D02*
X0060375Y0065870D01*
X0059380Y0064272D02*
X0058682Y0064272D01*
X0068225Y0065870D02*
X0070375Y0065870D01*
X0069380Y0064272D02*
X0069220Y0064272D01*
X0081200Y0113826D02*
X0034100Y0113826D01*
X0034100Y0115424D02*
X0081200Y0115424D01*
X0081603Y0117023D02*
X0077518Y0117023D01*
X0078927Y0118621D02*
X0083202Y0118621D01*
X0079589Y0120220D02*
X0132051Y0120220D01*
X0131800Y0121818D02*
X0079600Y0121818D01*
X0071082Y0117023D02*
X0067518Y0117023D01*
X0068927Y0118621D02*
X0069673Y0118621D01*
X0061082Y0117023D02*
X0056479Y0117023D01*
X0054500Y0117023D02*
X0054100Y0117023D01*
X0054100Y0118621D02*
X0054500Y0118621D01*
X0054500Y0120220D02*
X0054100Y0120220D01*
X0054100Y0121818D02*
X0054500Y0121818D01*
X0054500Y0123417D02*
X0054100Y0123417D01*
X0054100Y0125015D02*
X0054500Y0125015D01*
X0054500Y0126614D02*
X0054100Y0126614D01*
X0054100Y0128212D02*
X0054500Y0128212D01*
X0054500Y0129811D02*
X0054100Y0129811D01*
X0054100Y0131409D02*
X0054500Y0131409D01*
X0056808Y0131409D02*
X0060914Y0131409D01*
X0059603Y0129811D02*
X0058408Y0129811D01*
X0051792Y0131409D02*
X0034100Y0131409D01*
X0034100Y0129811D02*
X0050192Y0129811D01*
X0049585Y0128212D02*
X0034100Y0128212D01*
X0034100Y0126614D02*
X0049500Y0126614D01*
X0049500Y0125015D02*
X0034100Y0125015D01*
X0034100Y0123417D02*
X0049500Y0123417D01*
X0049500Y0121818D02*
X0034100Y0121818D01*
X0034100Y0120220D02*
X0049611Y0120220D01*
X0050313Y0118621D02*
X0034100Y0118621D01*
X0034100Y0117023D02*
X0052121Y0117023D01*
X0058287Y0118621D02*
X0059673Y0118621D01*
X0059011Y0120220D02*
X0058989Y0120220D01*
X0068997Y0129811D02*
X0069603Y0129811D01*
X0070914Y0131409D02*
X0067686Y0131409D01*
X0094503Y0174569D02*
X0100767Y0174569D01*
X0099273Y0176168D02*
X0095606Y0176168D01*
X0096268Y0177766D02*
X0098611Y0177766D01*
X0098457Y0179365D02*
X0096324Y0179365D01*
X0096214Y0180963D02*
X0098664Y0180963D01*
X0099326Y0182562D02*
X0095552Y0182562D01*
X0094374Y0184160D02*
X0100897Y0184160D01*
X0092063Y0185759D02*
X0118374Y0185759D01*
X0118525Y0185759D02*
X0120075Y0185759D01*
X0112956Y0177766D02*
X0109989Y0177766D01*
X0109327Y0176168D02*
X0113575Y0176168D01*
X0114804Y0174569D02*
X0107833Y0174569D01*
X0126583Y0168175D02*
X0127105Y0168175D01*
X0128700Y0161781D02*
X0133989Y0161781D01*
X0128700Y0160183D02*
X0151573Y0160183D01*
X0145243Y0155387D02*
X0163357Y0155387D01*
X0162220Y0153789D02*
X0146380Y0153789D01*
X0146800Y0152190D02*
X0161800Y0152190D01*
X0161897Y0150592D02*
X0146703Y0150592D01*
X0146023Y0148993D02*
X0162577Y0148993D01*
X0164531Y0147395D02*
X0144069Y0147395D01*
X0144834Y0145796D02*
X0163766Y0145796D01*
X0162389Y0144198D02*
X0146211Y0144198D01*
X0146800Y0142599D02*
X0161800Y0142599D01*
X0161800Y0141001D02*
X0146800Y0141001D01*
X0146210Y0139402D02*
X0162390Y0139402D01*
X0163767Y0137803D02*
X0144833Y0137803D01*
X0144070Y0136205D02*
X0164530Y0136205D01*
X0162577Y0134606D02*
X0146023Y0134606D01*
X0146703Y0133008D02*
X0161897Y0133008D01*
X0161800Y0131409D02*
X0146800Y0131409D01*
X0146380Y0129811D02*
X0162220Y0129811D01*
X0163358Y0128212D02*
X0145242Y0128212D01*
X0143082Y0126614D02*
X0165518Y0126614D01*
X0162986Y0125015D02*
X0145614Y0125015D01*
X0146534Y0123417D02*
X0162066Y0123417D01*
X0161800Y0121818D02*
X0146800Y0121818D01*
X0146549Y0120220D02*
X0162051Y0120220D01*
X0162949Y0118621D02*
X0145651Y0118621D01*
X0143171Y0117023D02*
X0165429Y0117023D01*
X0163395Y0115424D02*
X0145205Y0115424D01*
X0146365Y0113826D02*
X0162235Y0113826D01*
X0161800Y0112227D02*
X0146800Y0112227D01*
X0146719Y0110629D02*
X0161881Y0110629D01*
X0162544Y0109030D02*
X0146056Y0109030D01*
X0144158Y0107432D02*
X0164441Y0107432D01*
X0163804Y0105833D02*
X0144796Y0105833D01*
X0146195Y0104235D02*
X0162405Y0104235D01*
X0161800Y0102636D02*
X0146800Y0102636D01*
X0146800Y0101038D02*
X0161800Y0101038D01*
X0162374Y0099439D02*
X0146226Y0099439D01*
X0144870Y0097841D02*
X0163730Y0097841D01*
X0169300Y0094644D02*
X0169300Y0094644D01*
X0169300Y0093045D02*
X0169300Y0093045D01*
X0169300Y0091447D02*
X0169300Y0091447D01*
X0169300Y0089848D02*
X0169300Y0089848D01*
X0169300Y0088250D02*
X0169300Y0088250D01*
X0181363Y0096242D02*
X0218700Y0096242D01*
X0221800Y0089300D02*
X0221800Y0106800D01*
X0241800Y0109300D01*
X0246736Y0104235D02*
X0253201Y0104235D01*
X0253201Y0105833D02*
X0248829Y0105833D01*
X0249763Y0107432D02*
X0253201Y0107432D01*
X0253201Y0109030D02*
X0250100Y0109030D01*
X0249986Y0110629D02*
X0253201Y0110629D01*
X0253201Y0112227D02*
X0249324Y0112227D01*
X0247723Y0113826D02*
X0253201Y0113826D01*
X0253201Y0115424D02*
X0213671Y0115424D01*
X0214698Y0113826D02*
X0235877Y0113826D01*
X0234276Y0112227D02*
X0215100Y0112227D01*
X0215052Y0110629D02*
X0227437Y0110629D01*
X0219607Y0109030D02*
X0214389Y0109030D01*
X0212927Y0107432D02*
X0218706Y0107432D01*
X0212116Y0117023D02*
X0233658Y0117023D01*
X0234480Y0116200D02*
X0239120Y0116200D01*
X0242400Y0119480D01*
X0242400Y0124120D01*
X0239120Y0127400D01*
X0234480Y0127400D01*
X0231200Y0124120D01*
X0231200Y0119480D01*
X0234480Y0116200D01*
X0232059Y0118621D02*
X0214117Y0118621D01*
X0214882Y0120220D02*
X0231200Y0120220D01*
X0231200Y0121818D02*
X0215100Y0121818D01*
X0214867Y0123417D02*
X0231200Y0123417D01*
X0232096Y0125015D02*
X0225143Y0125015D01*
X0225143Y0126614D02*
X0233694Y0126614D01*
X0239906Y0126614D02*
X0253201Y0126614D01*
X0253201Y0128212D02*
X0225143Y0128212D01*
X0225143Y0129811D02*
X0253201Y0129811D01*
X0253201Y0131409D02*
X0225143Y0131409D01*
X0225143Y0133008D02*
X0253201Y0133008D01*
X0253201Y0134606D02*
X0224333Y0134606D01*
X0223594Y0136205D02*
X0253201Y0136205D01*
X0253201Y0137803D02*
X0223860Y0137803D01*
X0224126Y0139402D02*
X0253201Y0139402D01*
X0253201Y0141001D02*
X0224393Y0141001D01*
X0224659Y0142599D02*
X0253201Y0142599D01*
X0253201Y0144198D02*
X0224926Y0144198D01*
X0225192Y0145796D02*
X0253201Y0145796D01*
X0253201Y0147395D02*
X0225459Y0147395D01*
X0225725Y0148993D02*
X0253201Y0148993D01*
X0253201Y0150592D02*
X0225991Y0150592D01*
X0226258Y0152190D02*
X0253201Y0152190D01*
X0253201Y0153789D02*
X0229128Y0153789D01*
X0230143Y0155387D02*
X0253201Y0155387D01*
X0253201Y0169774D02*
X0152107Y0169774D01*
X0134523Y0171372D02*
X0253201Y0171372D01*
X0224300Y0159300D02*
X0219300Y0129300D01*
X0217308Y0136205D02*
X0211728Y0136205D01*
X0213694Y0134606D02*
X0214267Y0134606D01*
X0217574Y0137803D02*
X0202592Y0137803D01*
X0202427Y0137639D02*
X0202961Y0138173D01*
X0203405Y0138784D01*
X0203748Y0139457D01*
X0203982Y0140176D01*
X0204100Y0140922D01*
X0204100Y0144100D01*
X0199500Y0144100D01*
X0199500Y0136500D01*
X0199678Y0136500D01*
X0200424Y0136618D01*
X0201143Y0136852D01*
X0201816Y0137195D01*
X0202427Y0137639D01*
X0201872Y0136205D02*
X0197091Y0136205D01*
X0196008Y0137803D02*
X0193299Y0137803D01*
X0194100Y0136205D02*
X0194500Y0136205D01*
X0194500Y0134606D02*
X0194100Y0134606D01*
X0194100Y0133008D02*
X0194500Y0133008D01*
X0194500Y0131409D02*
X0194100Y0131409D01*
X0194100Y0129811D02*
X0194500Y0129811D01*
X0194500Y0129100D02*
X0199100Y0129100D01*
X0199100Y0125922D01*
X0198982Y0125176D01*
X0198748Y0124457D01*
X0198405Y0123784D01*
X0197961Y0123173D01*
X0197427Y0122639D01*
X0196816Y0122195D01*
X0196143Y0121852D01*
X0195424Y0121618D01*
X0194678Y0121500D01*
X0194500Y0121500D01*
X0194500Y0129100D01*
X0194500Y0128212D02*
X0194100Y0128212D01*
X0194100Y0126614D02*
X0194500Y0126614D01*
X0194500Y0125015D02*
X0194100Y0125015D01*
X0194100Y0123417D02*
X0194500Y0123417D01*
X0194500Y0121818D02*
X0194100Y0121818D01*
X0192560Y0121818D02*
X0187314Y0121818D01*
X0188842Y0123417D02*
X0190462Y0123417D01*
X0189670Y0125015D02*
X0189505Y0125015D01*
X0196040Y0121818D02*
X0198500Y0121818D01*
X0198733Y0123417D02*
X0198138Y0123417D01*
X0198930Y0125015D02*
X0199520Y0125015D01*
X0199100Y0126614D02*
X0201572Y0126614D01*
X0200599Y0128212D02*
X0199100Y0128212D01*
X0199100Y0129811D02*
X0199426Y0129811D01*
X0199145Y0133008D02*
X0199048Y0133008D01*
X0198512Y0134606D02*
X0199906Y0134606D01*
X0199500Y0137803D02*
X0199100Y0137803D01*
X0199100Y0139402D02*
X0199500Y0139402D01*
X0199500Y0141001D02*
X0199100Y0141001D01*
X0199100Y0142599D02*
X0199500Y0142599D01*
X0199500Y0144198D02*
X0218640Y0144198D01*
X0218907Y0145796D02*
X0204100Y0145796D01*
X0204100Y0147395D02*
X0219173Y0147395D01*
X0219439Y0148993D02*
X0203797Y0148993D01*
X0204100Y0142599D02*
X0218374Y0142599D01*
X0218107Y0141001D02*
X0204100Y0141001D01*
X0203720Y0139402D02*
X0217841Y0139402D01*
X0207000Y0136205D02*
X0206600Y0136205D01*
X0206600Y0134606D02*
X0207000Y0134606D01*
X0207000Y0133008D02*
X0206600Y0133008D01*
X0194880Y0139402D02*
X0194250Y0139402D01*
X0191509Y0136205D02*
X0190849Y0136205D01*
X0190088Y0134606D02*
X0189081Y0134606D01*
X0201483Y0117023D02*
X0173171Y0117023D01*
X0135429Y0117023D02*
X0131997Y0117023D01*
X0132400Y0115424D02*
X0133395Y0115424D01*
X0132949Y0118621D02*
X0130398Y0118621D01*
X0131048Y0110629D02*
X0131881Y0110629D01*
X0132544Y0109030D02*
X0129450Y0109030D01*
X0132331Y0046688D02*
X0135697Y0046688D01*
X0221800Y0049300D02*
X0241800Y0051800D01*
X0236752Y0046688D02*
X0228622Y0046688D01*
X0227040Y0045090D02*
X0234595Y0045090D01*
X0230338Y0043491D02*
X0227086Y0043491D01*
X0229171Y0037097D02*
X0236304Y0037097D01*
X0235003Y0035499D02*
X0227528Y0035499D01*
X0226098Y0033900D02*
X0233609Y0033900D01*
X0232443Y0027506D02*
X0235598Y0027506D01*
X0235412Y0025908D02*
X0227937Y0025908D01*
X0221800Y0029300D02*
X0241800Y0031800D01*
X0241800Y0041800D02*
X0221800Y0039300D01*
X0226053Y0054681D02*
X0234257Y0054681D01*
X0235784Y0056279D02*
X0232608Y0056279D01*
X0231800Y0059300D02*
X0221800Y0059300D01*
X0221800Y0069300D02*
X0231800Y0076800D01*
X0234300Y0086800D01*
X0241800Y0089300D01*
X0248048Y0085053D02*
X0253201Y0085053D01*
X0253201Y0086651D02*
X0249439Y0086651D01*
X0250100Y0088250D02*
X0253201Y0088250D01*
X0253201Y0089848D02*
X0250100Y0089848D01*
X0249647Y0091447D02*
X0253201Y0091447D01*
X0253201Y0093045D02*
X0248550Y0093045D01*
X0247408Y0094644D02*
X0253201Y0094644D01*
X0253201Y0096242D02*
X0249238Y0096242D01*
X0249932Y0097841D02*
X0253201Y0097841D01*
X0253201Y0099439D02*
X0250100Y0099439D01*
X0249817Y0101038D02*
X0253201Y0101038D01*
X0253201Y0102636D02*
X0248959Y0102636D01*
X0241800Y0099300D02*
X0229300Y0099300D01*
X0229300Y0081800D01*
X0221800Y0079300D01*
X0234900Y0064272D02*
X0237089Y0064272D01*
X0239942Y0117023D02*
X0253201Y0117023D01*
X0253201Y0118621D02*
X0241541Y0118621D01*
X0242400Y0120220D02*
X0253201Y0120220D01*
X0253201Y0121818D02*
X0242400Y0121818D01*
X0242400Y0123417D02*
X0253201Y0123417D01*
X0253201Y0125015D02*
X0241504Y0125015D01*
X0190075Y0193751D02*
X0188525Y0193751D01*
X0188525Y0195350D02*
X0190075Y0195350D01*
X0190075Y0196948D02*
X0188525Y0196948D01*
X0188525Y0200145D02*
X0190075Y0200145D01*
X0194422Y0203342D02*
X0216739Y0203342D01*
X0214310Y0201744D02*
X0195350Y0201744D01*
X0195769Y0200145D02*
X0213083Y0200145D01*
X0217262Y0206539D02*
X0121338Y0206539D01*
X0120881Y0206350D02*
X0123803Y0207561D01*
X0126039Y0209797D01*
X0127250Y0212719D01*
X0127250Y0215881D01*
X0126039Y0218803D01*
X0123803Y0221039D01*
X0120881Y0222250D01*
X0117719Y0222250D01*
X0114797Y0221039D01*
X0112561Y0218803D01*
X0111350Y0215881D01*
X0111350Y0212719D01*
X0112561Y0209797D01*
X0114797Y0207561D01*
X0117719Y0206350D01*
X0120881Y0206350D01*
X0117262Y0206539D02*
X0042399Y0206539D01*
X0042135Y0208138D02*
X0114220Y0208138D01*
X0112621Y0209737D02*
X0041707Y0209737D01*
X0040818Y0211335D02*
X0111924Y0211335D01*
X0111350Y0212934D02*
X0039613Y0212934D01*
X0037799Y0214532D02*
X0111350Y0214532D01*
X0111454Y0216131D02*
X0034036Y0216131D01*
X0029564Y0216131D02*
X0022178Y0216131D01*
X0021896Y0214532D02*
X0025801Y0214532D01*
X0023987Y0212934D02*
X0021290Y0212934D01*
X0020313Y0211335D02*
X0022782Y0211335D01*
X0021893Y0209737D02*
X0018758Y0209737D01*
X0021465Y0208138D02*
X0015835Y0208138D01*
X0013702Y0208138D02*
X0012102Y0208138D01*
X0012102Y0209737D02*
X0013702Y0209737D01*
X0013702Y0211335D02*
X0012102Y0211335D01*
X0012102Y0212934D02*
X0013702Y0212934D01*
X0013702Y0214532D02*
X0012102Y0214532D01*
X0012102Y0216131D02*
X0013702Y0216131D01*
X0013702Y0217729D02*
X0112116Y0217729D01*
X0113085Y0219328D02*
X0021917Y0219328D01*
X0021336Y0220926D02*
X0114684Y0220926D01*
X0123916Y0220926D02*
X0166551Y0220926D01*
X0166608Y0220568D02*
X0166868Y0219769D01*
X0167250Y0219019D01*
X0167744Y0218339D01*
X0168339Y0217744D01*
X0169019Y0217250D01*
X0169769Y0216868D01*
X0170568Y0216608D01*
X0171399Y0216476D01*
X0171439Y0216476D01*
X0171439Y0221438D01*
X0172201Y0221438D01*
X0172201Y0216476D01*
X0172240Y0216476D01*
X0173071Y0216608D01*
X0173871Y0216868D01*
X0174620Y0217250D01*
X0175301Y0217744D01*
X0175895Y0218339D01*
X0176390Y0219019D01*
X0176772Y0219769D01*
X0177031Y0220568D01*
X0177163Y0221399D01*
X0177163Y0221439D01*
X0172201Y0221439D01*
X0172201Y0222201D01*
X0177163Y0222201D01*
X0177163Y0222240D01*
X0177031Y0223071D01*
X0176772Y0223871D01*
X0176390Y0224620D01*
X0175895Y0225301D01*
X0175301Y0225895D01*
X0174620Y0226390D01*
X0173871Y0226772D01*
X0173071Y0227031D01*
X0172240Y0227163D01*
X0172201Y0227163D01*
X0172201Y0222201D01*
X0171439Y0222201D01*
X0171439Y0227163D01*
X0171399Y0227163D01*
X0170568Y0227031D01*
X0169769Y0226772D01*
X0169019Y0226390D01*
X0168339Y0225895D01*
X0167744Y0225301D01*
X0167250Y0224620D01*
X0166868Y0223871D01*
X0166608Y0223071D01*
X0166476Y0222240D01*
X0166476Y0222201D01*
X0171438Y0222201D01*
X0171438Y0221439D01*
X0166476Y0221439D01*
X0166476Y0221399D01*
X0166608Y0220568D01*
X0167093Y0219328D02*
X0125515Y0219328D01*
X0126484Y0217729D02*
X0168359Y0217729D01*
X0171439Y0217729D02*
X0172201Y0217729D01*
X0172201Y0219328D02*
X0171439Y0219328D01*
X0171439Y0220926D02*
X0172201Y0220926D01*
X0172201Y0222525D02*
X0171439Y0222525D01*
X0171439Y0224123D02*
X0172201Y0224123D01*
X0172201Y0225722D02*
X0171439Y0225722D01*
X0175474Y0225722D02*
X0253201Y0225722D01*
X0253201Y0227320D02*
X0193222Y0227320D01*
X0195161Y0228919D02*
X0253201Y0228919D01*
X0253201Y0230517D02*
X0196338Y0230517D01*
X0197000Y0232116D02*
X0253201Y0232116D01*
X0253201Y0233714D02*
X0197250Y0233714D01*
X0197250Y0235313D02*
X0253201Y0235313D01*
X0253201Y0236911D02*
X0196823Y0236911D01*
X0185378Y0227320D02*
X0093222Y0227320D01*
X0095161Y0228919D02*
X0183439Y0228919D01*
X0182262Y0230517D02*
X0096338Y0230517D01*
X0097000Y0232116D02*
X0181600Y0232116D01*
X0181350Y0233714D02*
X0097250Y0233714D01*
X0097250Y0235313D02*
X0181350Y0235313D01*
X0181777Y0236911D02*
X0096823Y0236911D01*
X0085378Y0227320D02*
X0040601Y0227320D01*
X0041008Y0228919D02*
X0083439Y0228919D01*
X0082262Y0230517D02*
X0032600Y0230517D01*
X0032600Y0228919D02*
X0031000Y0228919D01*
X0031000Y0230517D02*
X0006600Y0230517D01*
X0006600Y0228919D02*
X0022592Y0228919D01*
X0022999Y0227320D02*
X0006600Y0227320D01*
X0006600Y0225722D02*
X0009699Y0225722D01*
X0012102Y0225722D02*
X0013702Y0225722D01*
X0013702Y0224123D02*
X0012102Y0224123D01*
X0012102Y0222525D02*
X0013702Y0222525D01*
X0013702Y0220926D02*
X0012102Y0220926D01*
X0012102Y0219328D02*
X0013702Y0219328D01*
X0018877Y0224123D02*
X0024871Y0224123D01*
X0023719Y0225722D02*
X0016106Y0225722D01*
X0020389Y0222525D02*
X0026772Y0222525D01*
X0031000Y0222525D02*
X0032600Y0222525D01*
X0032600Y0224123D02*
X0031000Y0224123D01*
X0031000Y0225722D02*
X0032600Y0225722D01*
X0032600Y0227320D02*
X0031000Y0227320D01*
X0036828Y0222525D02*
X0166521Y0222525D01*
X0166996Y0224123D02*
X0038729Y0224123D01*
X0039881Y0225722D02*
X0168165Y0225722D01*
X0175280Y0217729D02*
X0212116Y0217729D01*
X0211454Y0216131D02*
X0127146Y0216131D01*
X0127250Y0214532D02*
X0211350Y0214532D01*
X0211350Y0212934D02*
X0127250Y0212934D01*
X0126676Y0211335D02*
X0211924Y0211335D01*
X0212621Y0209737D02*
X0125979Y0209737D01*
X0124380Y0208138D02*
X0214220Y0208138D01*
X0224380Y0208138D02*
X0253201Y0208138D01*
X0253201Y0209737D02*
X0225979Y0209737D01*
X0226676Y0211335D02*
X0253201Y0211335D01*
X0253201Y0212934D02*
X0227250Y0212934D01*
X0227250Y0214532D02*
X0253201Y0214532D01*
X0253201Y0216131D02*
X0227146Y0216131D01*
X0226484Y0217729D02*
X0253201Y0217729D01*
X0253201Y0219328D02*
X0225515Y0219328D01*
X0223916Y0220926D02*
X0253201Y0220926D01*
X0253201Y0222525D02*
X0177118Y0222525D01*
X0177088Y0220926D02*
X0214684Y0220926D01*
X0213085Y0219328D02*
X0176547Y0219328D01*
X0176643Y0224123D02*
X0253201Y0224123D01*
X0104681Y0203342D02*
X0103919Y0203342D01*
X0103919Y0201744D02*
X0104681Y0201744D01*
X0104681Y0200145D02*
X0103919Y0200145D01*
X0103919Y0198547D02*
X0104681Y0198547D01*
X0104681Y0196948D02*
X0103919Y0196948D01*
X0103919Y0195350D02*
X0104681Y0195350D01*
X0081600Y0232116D02*
X0040951Y0232116D01*
X0040493Y0233714D02*
X0081350Y0233714D01*
X0081350Y0235313D02*
X0039687Y0235313D01*
X0038421Y0236911D02*
X0081777Y0236911D01*
X0025179Y0236911D02*
X0006600Y0236911D01*
X0006600Y0235313D02*
X0023913Y0235313D01*
X0023107Y0233714D02*
X0006600Y0233714D01*
X0006600Y0232116D02*
X0022649Y0232116D01*
X0006928Y0224123D02*
X0006600Y0224123D01*
X0006600Y0209737D02*
X0007047Y0209737D01*
X0006600Y0208138D02*
X0009969Y0208138D01*
X0006600Y0206539D02*
X0021201Y0206539D01*
X0021201Y0204941D02*
X0006600Y0204941D01*
X0006600Y0203342D02*
X0021474Y0203342D01*
X0021902Y0201744D02*
X0006600Y0201744D01*
X0006600Y0200145D02*
X0022801Y0200145D01*
X0024020Y0198547D02*
X0006600Y0198547D01*
X0006600Y0196948D02*
X0016049Y0196948D01*
X0007526Y0195350D02*
X0006600Y0195350D01*
D22*
X0131800Y0166800D03*
X0159300Y0164300D03*
D23*
X0131800Y0166800D01*
D24*
X0044300Y0171800D02*
X0026800Y0171800D01*
X0026800Y0014300D01*
X0011800Y0014300D01*
X0011800Y0144300D02*
X0011800Y0189300D01*
X0044300Y0191800D01*
D25*
X0219300Y0129300D03*
X0224300Y0159300D03*
M02*
