%
M48
M72
T01C0.02362
T02C0.03200
T03C0.04000
T04C0.04724
T05C0.06299
T06C0.11024
T07C0.12598
%
T01
X131800Y166800
X159300Y164300
T02
X169300Y151800
X169300Y141800
X169300Y131800
X169300Y121800
X169300Y111800
X169300Y101800
X169300Y91800
X169300Y81800
X169300Y71800
X169300Y61800
X169300Y51800
X169300Y41800
X169300Y31800
X169300Y21800
X191800Y19300
X191800Y9300
X191800Y29300
X191800Y39300
X191800Y49300
X191800Y59300
X191800Y69300
X191800Y79300
X191800Y89300
X189300Y101800
X199300Y101800
X179300Y91800
X179300Y81800
X139300Y81800
X139300Y71800
X139300Y61800
X139300Y51800
X139300Y41800
X139300Y31800
X139300Y21800
X129300Y41800
X129300Y51800
X114300Y61800
X99300Y72300
X99300Y91300
X114300Y101800
X126800Y114300
X139300Y111800
X139300Y121800
X139300Y131800
X139300Y141800
X139300Y151800
X124300Y161800
X114300Y161800
X104300Y161800
X94300Y161800
X86800Y166800
X76800Y166800
X94300Y131800
X104300Y131800
X114300Y131800
X124300Y131800
X139300Y101800
X139300Y91800
X129300Y91800
X129300Y81800
X89300Y51800
X89300Y41800
X79300Y96800
X79300Y106800
X86800Y114300
X59300Y106800
X59300Y96800
X221800Y89300
X221800Y79300
X221800Y69300
X221800Y59300
X221800Y49300
X221800Y39300
X221800Y29300
X221800Y19300
X221800Y9300
X236800Y121800
X236800Y161800
T03
X11800Y14300
X54300Y39300
X64300Y39300
X74300Y39300
X74300Y59300
X64300Y59300
X54300Y59300
X81800Y79300
X74300Y124300
X64300Y124300
X54300Y124300
X81800Y144300
X44300Y161800
X44300Y171800
X44300Y181800
X44300Y191800
X11800Y144300
X11800Y79300
X81800Y14300
X184300Y129300
X194300Y129300
X206800Y131800
X206800Y121800
X206800Y111800
X199300Y144300
X189300Y144300
X191800Y159300
X201800Y159300
X211800Y159300
X181800Y159300
X241800Y109300
X241800Y99300
X241800Y89300
X241800Y79300
X241800Y69300
X241800Y51800
X241800Y41800
X241800Y31800
X241800Y21800
X241800Y11800
T04
X219300Y129300
X224300Y159300
X204300Y181780
X171820Y221820
X104300Y199300
X104300Y179300
T05
X89300Y179300
X119300Y179300
X119300Y214300
X89300Y234300
X189300Y234300
X219300Y214300
X219300Y196800
X189300Y199300
T06
X31800Y230363
X12902Y216977
T07
X31800Y205757
M30
